<svg xmlns="http://www.w3.org/2000/svg" xmlns:xlink="http://www.w3.org/1999/xlink" width="103" height="103" viewBox="0 0 103 103">
  <defs>
    <filter id="Trazado_873828" x="0" y="0" width="103" height="103" filterUnits="userSpaceOnUse">
      <feOffset dy="3" input="SourceAlpha"/>
      <feGaussianBlur stdDeviation="3" result="blur"/>
      <feFlood flood-opacity="0.161"/>
      <feComposite operator="in" in2="blur"/>
    </filter>
    <filter id="Trazado_873828-2" x="0" y="0" width="103" height="103" filterUnits="userSpaceOnUse">
      <feOffset dy="3" input="SourceAlpha"/>
      <feGaussianBlur stdDeviation="3" result="blur-2"/>
      <feFlood flood-opacity="0.161" result="color"/>
      <feComposite operator="out" in="SourceGraphic" in2="blur-2"/>
      <feComposite operator="in" in="color"/>
      <feComposite operator="in" in2="SourceGraphic"/>
    </filter>
  </defs>
  <g id="Grupo_1099944" data-name="Grupo 1099944" transform="translate(9 6)">
    <g data-type="innerShadowGroup">
      <g transform="matrix(1, 0, 0, 1, -9, -6)" filter="url(#Trazado_873828)">
        <g id="Trazado_873828-3" data-name="Trazado 873828" transform="translate(9 6)" fill="#bce0fc">
          <path d="M 42.5 83 C 37.03165054321289 83 31.72793769836426 81.92946624755859 26.73618698120117 79.81813812255859 C 21.91371154785156 77.77839660644531 17.582275390625 74.85792541503906 13.86217498779297 71.13782501220703 C 10.14207458496094 67.41773986816406 7.22160005569458 63.08628845214844 5.181875228881836 58.26381301879883 C 3.070537567138672 53.27206420898438 2 47.96834945678711 2 42.5 C 2 37.03165054321289 3.070537567138672 31.72793769836426 5.181875228881836 26.73618698120117 C 7.22160005569458 21.91371154785156 10.14207458496094 17.582275390625 13.86217498779297 13.86217498779297 C 17.582275390625 10.14207458496094 21.91371154785156 7.22160005569458 26.73618698120117 5.181875228881836 C 31.72793769836426 3.070537567138672 37.03165054321289 2 42.5 2 C 47.96834945678711 2 53.27206420898438 3.070537567138672 58.26381301879883 5.181875228881836 C 63.08628845214844 7.22160005569458 67.41773986816406 10.14207458496094 71.13782501220703 13.86217498779297 C 74.85792541503906 17.582275390625 77.77839660644531 21.91371154785156 79.81813812255859 26.73618698120117 C 81.92946624755859 31.72793769836426 83 37.03165054321289 83 42.5 C 83 47.96834945678711 81.92946624755859 53.27206420898438 79.81813812255859 58.26381301879883 C 77.77839660644531 63.08628845214844 74.85792541503906 67.41773986816406 71.13782501220703 71.13782501220703 C 67.41773986816406 74.85792541503906 63.08628845214844 77.77839660644531 58.26381301879883 79.81813812255859 C 53.27206420898438 81.92946624755859 47.96834945678711 83 42.5 83 Z" stroke="none"/>
          <path d="M 42.5 4 C 37.3007698059082 4 32.25918579101562 5.017387390136719 27.51528549194336 7.023887634277344 C 22.93121337890625 8.962783813476562 18.81345367431641 11.73932647705078 15.27638244628906 15.27638244628906 C 11.73932647705078 18.81345367431641 8.962783813476562 22.93121337890625 7.023887634277344 27.51528549194336 C 5.017387390136719 32.25918579101562 4 37.3007698059082 4 42.5 C 4 47.6992301940918 5.017387390136719 52.74081420898438 7.023887634277344 57.48471450805664 C 8.962783813476562 62.06878662109375 11.73932647705078 66.18653869628906 15.27638244628906 69.72361755371094 C 18.81345367431641 73.26067352294922 22.93121337890625 76.03721618652344 27.51528549194336 77.97611236572266 C 32.25918579101562 79.98261260986328 37.3007698059082 81 42.5 81 C 47.6992301940918 81 52.74081420898438 79.98261260986328 57.48471450805664 77.97611236572266 C 62.06878662109375 76.03721618652344 66.18653869628906 73.26067352294922 69.72361755371094 69.72361755371094 C 73.26067352294922 66.18653869628906 76.03721618652344 62.06878662109375 77.97611236572266 57.48471450805664 C 79.98261260986328 52.74081420898438 81 47.6992301940918 81 42.5 C 81 37.3007698059082 79.98261260986328 32.25918579101562 77.97611236572266 27.51528549194336 C 76.03721618652344 22.93121337890625 73.26067352294922 18.81345367431641 69.72361755371094 15.27638244628906 C 66.18653869628906 11.73932647705078 62.06878662109375 8.962783813476562 57.48471450805664 7.023887634277344 C 52.74081420898438 5.017387390136719 47.6992301940918 4 42.5 4 M 42.5 0 C 65.97209930419922 0 85 19.02790069580078 85 42.5 C 85 65.97209930419922 65.97209930419922 85 42.5 85 C 19.02790069580078 85 0 65.97209930419922 0 42.5 C 0 19.02790069580078 19.02790069580078 0 42.5 0 Z" stroke="none" fill="#fff"/>
        </g>
      </g>
      <g id="Trazado_873828-4" data-name="Trazado 873828" fill="#bce0fc">
        <path d="M 42.5 83 C 37.03165054321289 83 31.72793769836426 81.92946624755859 26.73618698120117 79.81813812255859 C 21.91371154785156 77.77839660644531 17.582275390625 74.85792541503906 13.86217498779297 71.13782501220703 C 10.14207458496094 67.41773986816406 7.22160005569458 63.08628845214844 5.181875228881836 58.26381301879883 C 3.070537567138672 53.27206420898438 2 47.96834945678711 2 42.5 C 2 37.03165054321289 3.070537567138672 31.72793769836426 5.181875228881836 26.73618698120117 C 7.22160005569458 21.91371154785156 10.14207458496094 17.582275390625 13.86217498779297 13.86217498779297 C 17.582275390625 10.14207458496094 21.91371154785156 7.22160005569458 26.73618698120117 5.181875228881836 C 31.72793769836426 3.070537567138672 37.03165054321289 2 42.5 2 C 47.96834945678711 2 53.27206420898438 3.070537567138672 58.26381301879883 5.181875228881836 C 63.08628845214844 7.22160005569458 67.41773986816406 10.14207458496094 71.13782501220703 13.86217498779297 C 74.85792541503906 17.582275390625 77.77839660644531 21.91371154785156 79.81813812255859 26.73618698120117 C 81.92946624755859 31.72793769836426 83 37.03165054321289 83 42.5 C 83 47.96834945678711 81.92946624755859 53.27206420898438 79.81813812255859 58.26381301879883 C 77.77839660644531 63.08628845214844 74.85792541503906 67.41773986816406 71.13782501220703 71.13782501220703 C 67.41773986816406 74.85792541503906 63.08628845214844 77.77839660644531 58.26381301879883 79.81813812255859 C 53.27206420898438 81.92946624755859 47.96834945678711 83 42.5 83 Z" stroke="none"/>
        <path d="M 42.5 4 C 37.3007698059082 4 32.25918579101562 5.017387390136719 27.51528549194336 7.023887634277344 C 22.93121337890625 8.962783813476562 18.81345367431641 11.73932647705078 15.27638244628906 15.27638244628906 C 11.73932647705078 18.81345367431641 8.962783813476562 22.93121337890625 7.023887634277344 27.51528549194336 C 5.017387390136719 32.25918579101562 4 37.3007698059082 4 42.5 C 4 47.6992301940918 5.017387390136719 52.74081420898438 7.023887634277344 57.48471450805664 C 8.962783813476562 62.06878662109375 11.73932647705078 66.18653869628906 15.27638244628906 69.72361755371094 C 18.81345367431641 73.26067352294922 22.93121337890625 76.03721618652344 27.51528549194336 77.97611236572266 C 32.25918579101562 79.98261260986328 37.3007698059082 81 42.5 81 C 47.6992301940918 81 52.74081420898438 79.98261260986328 57.48471450805664 77.97611236572266 C 62.06878662109375 76.03721618652344 66.18653869628906 73.26067352294922 69.72361755371094 69.72361755371094 C 73.26067352294922 66.18653869628906 76.03721618652344 62.06878662109375 77.97611236572266 57.48471450805664 C 79.98261260986328 52.74081420898438 81 47.6992301940918 81 42.5 C 81 37.3007698059082 79.98261260986328 32.25918579101562 77.97611236572266 27.51528549194336 C 76.03721618652344 22.93121337890625 73.26067352294922 18.81345367431641 69.72361755371094 15.27638244628906 C 66.18653869628906 11.73932647705078 62.06878662109375 8.962783813476562 57.48471450805664 7.023887634277344 C 52.74081420898438 5.017387390136719 47.6992301940918 4 42.5 4 M 42.5 0 C 65.97209930419922 0 85 19.02790069580078 85 42.5 C 85 65.97209930419922 65.97209930419922 85 42.5 85 C 19.02790069580078 85 0 65.97209930419922 0 42.5 C 0 19.02790069580078 19.02790069580078 0 42.5 0 Z" stroke="none"/>
      </g>
      <g transform="matrix(1, 0, 0, 1, -9, -6)" filter="url(#Trazado_873828-2)">
        <g id="Trazado_873828-5" data-name="Trazado 873828" transform="translate(9 6)" fill="#fff">
          <path d="M 42.5 83 C 37.03165054321289 83 31.72793769836426 81.92946624755859 26.73618698120117 79.81813812255859 C 21.91371154785156 77.77839660644531 17.582275390625 74.85792541503906 13.86217498779297 71.13782501220703 C 10.14207458496094 67.41773986816406 7.22160005569458 63.08628845214844 5.181875228881836 58.26381301879883 C 3.070537567138672 53.27206420898438 2 47.96834945678711 2 42.5 C 2 37.03165054321289 3.070537567138672 31.72793769836426 5.181875228881836 26.73618698120117 C 7.22160005569458 21.91371154785156 10.14207458496094 17.582275390625 13.86217498779297 13.86217498779297 C 17.582275390625 10.14207458496094 21.91371154785156 7.22160005569458 26.73618698120117 5.181875228881836 C 31.72793769836426 3.070537567138672 37.03165054321289 2 42.5 2 C 47.96834945678711 2 53.27206420898438 3.070537567138672 58.26381301879883 5.181875228881836 C 63.08628845214844 7.22160005569458 67.41773986816406 10.14207458496094 71.13782501220703 13.86217498779297 C 74.85792541503906 17.582275390625 77.77839660644531 21.91371154785156 79.81813812255859 26.73618698120117 C 81.92946624755859 31.72793769836426 83 37.03165054321289 83 42.5 C 83 47.96834945678711 81.92946624755859 53.27206420898438 79.81813812255859 58.26381301879883 C 77.77839660644531 63.08628845214844 74.85792541503906 67.41773986816406 71.13782501220703 71.13782501220703 C 67.41773986816406 74.85792541503906 63.08628845214844 77.77839660644531 58.26381301879883 79.81813812255859 C 53.27206420898438 81.92946624755859 47.96834945678711 83 42.5 83 Z" stroke="none"/>
          <path d="M 42.5 4 C 37.3007698059082 4 32.25918579101562 5.017387390136719 27.51528549194336 7.023887634277344 C 22.93121337890625 8.962783813476562 18.81345367431641 11.73932647705078 15.27638244628906 15.27638244628906 C 11.73932647705078 18.81345367431641 8.962783813476562 22.93121337890625 7.023887634277344 27.51528549194336 C 5.017387390136719 32.25918579101562 4 37.3007698059082 4 42.5 C 4 47.6992301940918 5.017387390136719 52.74081420898438 7.023887634277344 57.48471450805664 C 8.962783813476562 62.06878662109375 11.73932647705078 66.18653869628906 15.27638244628906 69.72361755371094 C 18.81345367431641 73.26067352294922 22.93121337890625 76.03721618652344 27.51528549194336 77.97611236572266 C 32.25918579101562 79.98261260986328 37.3007698059082 81 42.5 81 C 47.6992301940918 81 52.74081420898438 79.98261260986328 57.48471450805664 77.97611236572266 C 62.06878662109375 76.03721618652344 66.18653869628906 73.26067352294922 69.72361755371094 69.72361755371094 C 73.26067352294922 66.18653869628906 76.03721618652344 62.06878662109375 77.97611236572266 57.48471450805664 C 79.98261260986328 52.74081420898438 81 47.6992301940918 81 42.5 C 81 37.3007698059082 79.98261260986328 32.25918579101562 77.97611236572266 27.51528549194336 C 76.03721618652344 22.93121337890625 73.26067352294922 18.81345367431641 69.72361755371094 15.27638244628906 C 66.18653869628906 11.73932647705078 62.06878662109375 8.962783813476562 57.48471450805664 7.023887634277344 C 52.74081420898438 5.017387390136719 47.6992301940918 4 42.5 4 M 42.5 0 C 65.97209930419922 0 85 19.02790069580078 85 42.5 C 85 65.97209930419922 65.97209930419922 85 42.5 85 C 19.02790069580078 85 0 65.97209930419922 0 42.5 C 0 19.02790069580078 19.02790069580078 0 42.5 0 Z" stroke="none"/>
        </g>
      </g>
      <g id="Trazado_873828-6" data-name="Trazado 873828" fill="none">
        <path d="M 42.5 83 C 37.03165054321289 83 31.72793769836426 81.92946624755859 26.73618698120117 79.81813812255859 C 21.91371154785156 77.77839660644531 17.582275390625 74.85792541503906 13.86217498779297 71.13782501220703 C 10.14207458496094 67.41773986816406 7.22160005569458 63.08628845214844 5.181875228881836 58.26381301879883 C 3.070537567138672 53.27206420898438 2 47.96834945678711 2 42.5 C 2 37.03165054321289 3.070537567138672 31.72793769836426 5.181875228881836 26.73618698120117 C 7.22160005569458 21.91371154785156 10.14207458496094 17.582275390625 13.86217498779297 13.86217498779297 C 17.582275390625 10.14207458496094 21.91371154785156 7.22160005569458 26.73618698120117 5.181875228881836 C 31.72793769836426 3.070537567138672 37.03165054321289 2 42.5 2 C 47.96834945678711 2 53.27206420898438 3.070537567138672 58.26381301879883 5.181875228881836 C 63.08628845214844 7.22160005569458 67.41773986816406 10.14207458496094 71.13782501220703 13.86217498779297 C 74.85792541503906 17.582275390625 77.77839660644531 21.91371154785156 79.81813812255859 26.73618698120117 C 81.92946624755859 31.72793769836426 83 37.03165054321289 83 42.5 C 83 47.96834945678711 81.92946624755859 53.27206420898438 79.81813812255859 58.26381301879883 C 77.77839660644531 63.08628845214844 74.85792541503906 67.41773986816406 71.13782501220703 71.13782501220703 C 67.41773986816406 74.85792541503906 63.08628845214844 77.77839660644531 58.26381301879883 79.81813812255859 C 53.27206420898438 81.92946624755859 47.96834945678711 83 42.5 83 Z" stroke="none"/>
        <path d="M 42.5 4 C 37.3007698059082 4 32.25918579101562 5.017387390136719 27.51528549194336 7.023887634277344 C 22.93121337890625 8.962783813476562 18.81345367431641 11.73932647705078 15.27638244628906 15.27638244628906 C 11.73932647705078 18.81345367431641 8.962783813476562 22.93121337890625 7.023887634277344 27.51528549194336 C 5.017387390136719 32.25918579101562 4 37.3007698059082 4 42.5 C 4 47.6992301940918 5.017387390136719 52.74081420898438 7.023887634277344 57.48471450805664 C 8.962783813476562 62.06878662109375 11.73932647705078 66.18653869628906 15.27638244628906 69.72361755371094 C 18.81345367431641 73.26067352294922 22.93121337890625 76.03721618652344 27.51528549194336 77.97611236572266 C 32.25918579101562 79.98261260986328 37.3007698059082 81 42.5 81 C 47.6992301940918 81 52.74081420898438 79.98261260986328 57.48471450805664 77.97611236572266 C 62.06878662109375 76.03721618652344 66.18653869628906 73.26067352294922 69.72361755371094 69.72361755371094 C 73.26067352294922 66.18653869628906 76.03721618652344 62.06878662109375 77.97611236572266 57.48471450805664 C 79.98261260986328 52.74081420898438 81 47.6992301940918 81 42.5 C 81 37.3007698059082 79.98261260986328 32.25918579101562 77.97611236572266 27.51528549194336 C 76.03721618652344 22.93121337890625 73.26067352294922 18.81345367431641 69.72361755371094 15.27638244628906 C 66.18653869628906 11.73932647705078 62.06878662109375 8.962783813476562 57.48471450805664 7.023887634277344 C 52.74081420898438 5.017387390136719 47.6992301940918 4 42.5 4 M 42.5 0 C 65.97209930419922 0 85 19.02790069580078 85 42.5 C 85 65.97209930419922 65.97209930419922 85 42.5 85 C 19.02790069580078 85 0 65.97209930419922 0 42.5 C 0 19.02790069580078 19.02790069580078 0 42.5 0 Z" stroke="none" fill="#fff"/>
      </g>
    </g>
    <g id="Grupo_1099650" data-name="Grupo 1099650" transform="translate(21.086 15.56)">
      <g id="Grupo_1099644" data-name="Grupo 1099644" transform="translate(0 0)">
        <g id="Grupo_1099643" data-name="Grupo 1099643">
          <path id="Trazado_873823" data-name="Trazado 873823" d="M90.51,15.943a2.428,2.428,0,0,0-1.524-1.084l-3.35-.77,1.547-.433a2.444,2.444,0,1,0-1.317-4.706l-7.213,2.019a2.46,2.46,0,0,0-.776-.852C79.341,7.392,81.45,2.769,81.45.781a.788.788,0,0,0-.934-.764,38.684,38.684,0,0,1-8.156.816A47.044,47.044,0,0,1,64.2.018a.787.787,0,0,0-.832,1.164,8.087,8.087,0,0,1,1,2.676,16.16,16.16,0,0,1-7.471-1.279.787.787,0,0,0-1.118.826,16.9,16.9,0,0,0,3.294,7.957h-.029a2.443,2.443,0,0,0-.319,4.866,29.22,29.22,0,0,1-3.428,4.3c-2.784,3.094-5.94,6.6-7,12.264a18.153,18.153,0,0,0,.05,7.536A13.957,13.957,0,0,0,51.2,46.083a17.622,17.622,0,0,0,7.553,5.14,28.156,28.156,0,0,0,18.868,0,17.623,17.623,0,0,0,7.553-5.14,13.957,13.957,0,0,0,2.862-5.753,18.155,18.155,0,0,0,.05-7.536c-1.062-5.663-4.218-9.17-7-12.264-.945-1.051-1.845-2.052-2.6-3.069l9.4,2.16a2.444,2.444,0,0,0,2.618-3.679ZM72.342,2.392a39.387,39.387,0,0,0,7.4-.641,40.4,40.4,0,0,1-3.416,7.954,2.448,2.448,0,0,0-2.13,1.656H72.03l-.164-.349C71.2,9.589,69.8,6.628,69.8,4.108a.788.788,0,0,0-.933-.765,27.522,27.522,0,0,1-2.945.421A10.059,10.059,0,0,0,65.4,1.82,52.523,52.523,0,0,0,72.342,2.392Zm5.052,9.749v3.328a.884.884,0,0,1-1.768,0V12.141a.884.884,0,0,1,1.768,0Zm-19.8-7.588a19.72,19.72,0,0,0,6.938.87l1.546-.1c.729-.067,1.469-.163,2.214-.289a20.838,20.838,0,0,0,2.015,6.325H61.061a.8.8,0,0,0-.057-.08A14.924,14.924,0,0,1,57.594,4.553ZM79.93,21.574c2.647,2.942,5.647,6.276,6.628,11.508.9,4.816.035,8.855-2.58,12.005-3.224,3.885-9.126,6.2-15.787,6.2s-12.563-2.319-15.787-6.2c-2.615-3.15-3.483-7.19-2.58-12.005.981-5.232,3.981-8.567,6.628-11.508a25.57,25.57,0,0,0,4.036-5.325h1.9a.78.78,0,1,0,0-1.56H59.041a.884.884,0,0,1,0-1.768H74.066v1.768H66.112a.78.78,0,1,0,0,1.56h8.083a2.444,2.444,0,0,0,2.681,1.636A37.926,37.926,0,0,0,79.93,21.574Zm-.976-9.07,7.333-2.052a.884.884,0,1,1,.476,1.7l-4.19,1.173a.776.776,0,0,0-.1.036l-3.52-.809ZM89.3,17.438a.884.884,0,0,1-1.059.664L78.9,15.956a2.45,2.45,0,0,0,.049-.488V14.154l9.684,2.225A.892.892,0,0,1,89.3,17.438Z" transform="translate(-47.923 -0.001)" fill="#2c597c"/>
        </g>
      </g>
      <g id="Grupo_1099646" data-name="Grupo 1099646" transform="translate(13.249 19.679)">
        <g id="Grupo_1099645" data-name="Grupo 1099645" transform="translate(0)">
          <path id="Trazado_873824" data-name="Trazado 873824" d="M188.288,203.023A2.03,2.03,0,0,0,190.315,201v-1.248a5.78,5.78,0,0,0-4.991-5.719v-1.352a2.028,2.028,0,0,0-4.055,0v1.456a6.4,6.4,0,0,0,1.4,12.634h1.248a2.34,2.34,0,0,1,0,4.679h-1.872a1.718,1.718,0,0,1-1.716-1.716,2.028,2.028,0,1,0-4.055,0,5.78,5.78,0,0,0,4.991,5.719V216.8a2.028,2.028,0,0,0,4.055,0v-1.456a6.4,6.4,0,0,0-1.4-12.634h-1.248a2.34,2.34,0,1,1,0-4.679h1.872a1.718,1.718,0,0,1,1.716,1.716V201A2.03,2.03,0,0,0,188.288,203.023Zm-3.743-6.551h-1.872a3.9,3.9,0,1,0,0,7.8h1.248a4.835,4.835,0,0,1,.538,9.64.78.78,0,0,0-.694.775V216.8a.468.468,0,0,1-.936,0v-2.08a.78.78,0,0,0-.78-.78,4.216,4.216,0,0,1-4.211-4.211.468.468,0,1,1,.936,0,3.279,3.279,0,0,0,3.275,3.276h1.872a3.9,3.9,0,0,0,0-7.8h-1.248a4.835,4.835,0,0,1-.538-9.64.78.78,0,0,0,.694-.775v-2.115a.468.468,0,1,1,.936,0v2.08a.78.78,0,0,0,.78.78,4.216,4.216,0,0,1,4.211,4.211V201a.468.468,0,0,1-.936,0v-1.248A3.279,3.279,0,0,0,184.544,196.472Z" transform="translate(-176.277 -190.649)" fill="#2c597c"/>
        </g>
      </g>
    </g>
  </g>
</svg>
