<svg xmlns="http://www.w3.org/2000/svg" width="85" height="69" viewBox="0 0 85 69">
  <g id="Grupo_71160" data-name="Grupo 71160" transform="translate(-705 -2143)">
    <rect id="Rect치ngulo_32195" data-name="Rect치ngulo 32195" width="85" height="66" rx="16" transform="translate(705 2143)" fill="#8454ee"/>
    <path id="Rect치ngulo_32264" data-name="Rect치ngulo 32264" d="M0,0H85a0,0,0,0,1,0,0V11A16,16,0,0,1,69,27H16A16,16,0,0,1,0,11V0A0,0,0,0,1,0,0Z" transform="translate(705 2185)" fill="#5ab4f9"/>
    <g id="Grupo_71159" data-name="Grupo 71159" transform="translate(1029.004 1741.06)">
      <path id="Trazado_143416" data-name="Trazado 143416" d="M-273.785,461.474h-34.021a1.425,1.425,0,0,1-.75-1.427q.02-25.627,0-51.255a1.43,1.43,0,0,1,.751-1.414h34.021c.125.208.348.1.52.148a5.3,5.3,0,0,1,4.021,5.279q.009,9.053,0,18.107a.669.669,0,0,0,.408.721,3.006,3.006,0,0,1,1.706,2.768q.036,2.137,0,4.276a3.009,3.009,0,0,1-1.7,2.769.671.671,0,0,0-.411.72q.014,6.968,0,13.937a5.309,5.309,0,0,1-3.665,5.125C-273.2,461.323-273.525,461.283-273.785,461.474Zm-27.358-23.364c.8.177,1.049.489,1.05,1.321q0,9.72,0,19.439c0,.306-.022.5.416.5q12.571-.023,25.143-.016a3.14,3.14,0,0,0,3.179-3.19c.012-4.648,0-9.3.012-13.945,0-.324-.076-.412-.4-.408-1.549.019-3.1,0-4.648.014a1.468,1.468,0,0,1-1.132-.455c-1.313-1.326-2.641-2.638-3.955-3.963a1.07,1.07,0,0,1,0-1.741c1.314-1.325,2.642-2.638,3.955-3.964a1.467,1.467,0,0,1,1.132-.454c1.514.017,3.029-.011,4.542.017.418.008.512-.109.511-.517q-.02-8.927-.01-17.855a3.178,3.178,0,0,0-3.393-3.4q-12.412,0-24.827-.013c-.46,0-.529.137-.527.555q.022,9.693.01,19.386c0,.833-.251,1.143-1.05,1.321a1.111,1.111,0,0,1-1.063-1.309q0-9.691.012-19.383c0-.478-.129-.585-.583-.569-1,.036-2.007.044-3.009,0-.53-.024-.66.119-.66.655q.025,24.3.013,48.588a1.938,1.938,0,0,1,0,.264c-.043.3.088.387.383.382,1.074-.016,2.149-.035,3.222.007.5.019.637-.106.635-.625q-.031-9.664-.012-19.33A1.11,1.11,0,0,1-301.143,438.11Zm28.02,1.6c.9,0,1.795.006,2.692,0a1.066,1.066,0,0,0,1.186-1.171q.014-1.98,0-3.96a1.074,1.074,0,0,0-1.2-1.2c-1.795-.006-3.591,0-5.386-.007a.765.765,0,0,0-.6.239c-.875.893-1.754,1.782-2.651,2.65-.246.238-.21.365.013.584q1.325,1.288,2.614,2.613a.805.805,0,0,0,.646.264C-274.919,439.7-274.022,439.709-273.123,439.709Z" fill="#010101"/>
      <path id="Trazado_143417" data-name="Trazado 143417" d="M-267.347,407.378h.634a1.85,1.85,0,0,1,.823,1.032q1.052,2.694,2.141,5.372c.666,1.635,1.257,3.3,2,4.9v38.459c-.181.077-.144.266-.184.4a5.3,5.3,0,0,1-3.539,3.7c-.27.1-.58.035-.819.227h-1.692c-.042-.163-.2-.123-.3-.154a5.28,5.28,0,0,1-4.027-5.376q0-18.321,0-36.644a2.541,2.541,0,0,1,.19-.971q2-4.977,3.98-9.965A1.806,1.806,0,0,1-267.347,407.378Zm-.74,28.054v-2.218c0-3.573-.007-7.147.011-10.72,0-.425-.1-.511-.491-.388a1.779,1.779,0,0,1-1.1.01c-.53-.183-.544.06-.543.481q.014,12.3.011,24.607c0,.52-.228,1.216.1,1.511.286.256.972.041,1.475.089.446.043.544-.1.542-.541C-268.094,443.986-268.087,439.709-268.087,435.432Zm2.113,0q0,5.914,0,11.829c0,.49-.172,1.145.074,1.428.286.328.961.043,1.46.112s.59-.131.589-.6q-.022-12.8-.011-25.609a1.763,1.763,0,0,1,0-.264c.042-.288-.1-.324-.332-.256a2.183,2.183,0,0,1-1.252.04c-.455-.139-.544-.024-.542.435C-265.967,426.845-265.974,431.14-265.974,435.433Zm-1.058,19.7h-2c-1.218,0-1.218,0-1.161,1.218a3.186,3.186,0,0,0,2.209,2.859,3.177,3.177,0,0,0,3.449-1.068,3.864,3.864,0,0,0,.686-2.639c-.007-.3-.1-.381-.388-.376C-265.17,455.145-266.1,455.134-267.032,455.134Zm.147-39.3c-.619,0-1.13.013-1.64-.006a.4.4,0,0,0-.454.318c-.345.9-.7,1.8-1.081,2.685a.763.763,0,0,0,.329,1.034c.7.494,1.523.041,1.647-.9a1.063,1.063,0,0,1,1.072-1.018,1.054,1.054,0,0,1,1.032,1,1.334,1.334,0,0,0,.2.644,1.035,1.035,0,0,0,1.353.34c.494-.263.6-.63.366-1.229-.162-.408-.321-.817-.487-1.223-.217-.535-.3-1.243-.7-1.551C-265.675,415.6-266.4,415.87-266.886,415.831Zm-.172,37.19c.95,0,1.9-.01,2.851.007.275,0,.365-.07.352-.35-.022-.491-.017-.986,0-1.478.008-.232-.064-.3-.3-.3q-2.878.013-5.756,0c-.228,0-.305.06-.3.294.017.493.022.986,0,1.478-.012.278.073.357.351.352C-268.923,453.012-267.99,453.021-267.058,453.021Zm1-39.316-.971-2.415-.965,2.415Z" transform="translate(7.297)" fill="#010101"/>
      <path id="Trazado_143418" data-name="Trazado 143418" d="M-302.386,430.39c.8-.179,1.049-.489,1.05-1.321q0-9.693-.01-19.386c0-.418.067-.555.527-.555q12.414.025,24.827.013a3.178,3.178,0,0,1,3.393,3.4q0,8.927.01,17.855c0,.407-.092.525-.511.517-1.514-.028-3.029,0-4.542-.017a1.467,1.467,0,0,0-1.132.454c-1.313,1.326-2.641,2.639-3.955,3.964a1.07,1.07,0,0,0,0,1.741c1.314,1.325,2.642,2.637,3.955,3.963a1.468,1.468,0,0,0,1.132.455c1.55-.016,3.1,0,4.648-.014.329,0,.406.084.4.408-.012,4.648,0,9.3-.012,13.945a3.14,3.14,0,0,1-3.179,3.19q-12.571.013-25.143.016c-.437,0-.417-.2-.416-.5q.007-9.718,0-19.439c0-.833-.252-1.145-1.05-1.321v-2.612c.71-.156,1.062-.526,1.049-1.1-.014-.553-.358-.895-1.049-1.045Zm15.416-17.024H-295.1c-1.019,0-1.374.35-1.374,1.353q0,3.907,0,7.814c0,1.055.34,1.4,1.38,1.4h16.262c1.02,0,1.374-.35,1.376-1.353q0-3.934,0-7.866c0-.983-.359-1.346-1.329-1.346Q-282.879,413.363-286.97,413.365Zm0,32.331h6.175c.775,0,1.55.017,2.322-.01a1.038,1.038,0,0,0,1.013-1.069,1.059,1.059,0,0,0-1-1.03c-.141-.011-.281,0-.423,0h-16.151a4.165,4.165,0,0,0-.475.008,1.057,1.057,0,0,0-.957,1.122,1.082,1.082,0,0,0,1.212.982Q-291.115,445.7-286.971,445.7Zm0,2.113h-7.707c-.263,0-.529-.012-.791.006a1.054,1.054,0,0,0-1.005,1.027,1.06,1.06,0,0,0,1.012,1.075c.123.011.246,0,.369,0h16.257a2.973,2.973,0,0,0,.475-.016,1.059,1.059,0,0,0,.9-1.07,1.058,1.058,0,0,0-.906-1.013,3.669,3.669,0,0,0-.527-.014Zm-3.168,5.266a1.064,1.064,0,0,0-1.045-1.038,1.061,1.061,0,0,0-1.064,1.072,1.064,1.064,0,0,0,1.044,1.039A1.064,1.064,0,0,0-290.138,453.075Zm3.178,1.073a1.067,1.067,0,0,0,1.049-1.037,1.063,1.063,0,0,0-1.062-1.074,1.063,1.063,0,0,0-1.048,1.036A1.062,1.062,0,0,0-286.961,454.148Zm5.275-1.046a1.065,1.065,0,0,0-1.02-1.064,1.064,1.064,0,0,0-1.091,1.045,1.067,1.067,0,0,0,1.019,1.066A1.066,1.066,0,0,0-281.685,453.1Z" transform="translate(1.243 0.352)" fill="#fd9827"/>
      <path id="Trazado_143419" data-name="Trazado 143419" d="M-301.5,435.147v2.612a1.11,1.11,0,0,0-1.062,1.309q0,9.666.012,19.33c0,.519-.133.644-.635.625-1.073-.042-2.148-.023-3.222-.007-.3,0-.426-.078-.383-.382a1.938,1.938,0,0,0,0-.264q0-24.293-.013-48.588c0-.536.13-.679.66-.655,1,.047,2.008.038,3.009,0,.454-.016.584.091.583.569q-.027,9.691-.012,19.383a1.111,1.111,0,0,0,1.063,1.309V433c-.7.132-1.062.495-1.062,1.07S-302.211,435-301.5,435.147Z" transform="translate(0.354 0.352)" fill="#908686"/>
      <path id="Trazado_143420" data-name="Trazado 143420" d="M-278.033,435.353c-.9,0-1.8-.01-2.693.006a.805.805,0,0,1-.646-.264q-1.292-1.321-2.614-2.613c-.223-.219-.259-.346-.013-.584.9-.869,1.777-1.758,2.651-2.65a.765.765,0,0,1,.6-.239c1.795.01,3.591,0,5.386.007a1.074,1.074,0,0,1,1.2,1.2q.011,1.979,0,3.96a1.066,1.066,0,0,1-1.186,1.171C-276.239,435.359-277.136,435.353-278.033,435.353Zm-1.425-4.224a1.063,1.063,0,0,0-1.032,1.051,1.063,1.063,0,0,0,1.078,1.058,1.066,1.066,0,0,0,1.032-1.105A1.066,1.066,0,0,0-279.458,431.129Z" transform="translate(4.91 4.356)" fill="#fd9155"/>
      <path id="Trazado_143421" data-name="Trazado 143421" d="M-268.43,432.972c0,4.277-.007,8.554.011,12.832,0,.437-.1.584-.542.541-.5-.048-1.189.167-1.475-.089-.33-.3-.1-.991-.1-1.511q-.009-12.3-.011-24.607c0-.42.013-.663.543-.481a1.779,1.779,0,0,0,1.1-.01c.39-.122.494-.037.491.388-.018,3.573-.011,7.147-.011,10.72Z" transform="translate(7.64 2.46)" fill="#fed98e"/>
      <path id="Trazado_143422" data-name="Trazado 143422" d="M-267.027,432.975c0-4.294.007-8.589-.01-12.883,0-.459.087-.574.542-.435a2.183,2.183,0,0,0,1.252-.04c.234-.068.374-.032.332.256a1.763,1.763,0,0,0,0,.264q0,12.805.011,25.609c0,.466-.094.664-.589.6s-1.174.216-1.46-.112c-.246-.284-.073-.938-.074-1.428Q-267.028,438.889-267.027,432.975Z" transform="translate(8.351 2.458)" fill="#fed98e"/>
      <path id="Trazado_143423" data-name="Trazado 143423" d="M-267.385,447.131c.931,0,1.862.011,2.793-.006.291,0,.381.073.388.376a3.864,3.864,0,0,1-.686,2.639,3.177,3.177,0,0,1-3.449,1.068,3.186,3.186,0,0,1-2.209-2.859c-.058-1.218-.058-1.218,1.161-1.218Z" transform="translate(7.65 8.003)" fill="#a66d58"/>
      <path id="Trazado_143424" data-name="Trazado 143424" d="M-267.249,414.425c.484.04,1.211-.232,1.636.1.4.308.483,1.016.7,1.551.166.406.324.815.487,1.223.237.6.127.966-.366,1.229a1.034,1.034,0,0,1-1.353-.34,1.334,1.334,0,0,1-.2-.644,1.053,1.053,0,0,0-1.032-1,1.063,1.063,0,0,0-1.072,1.018c-.124.938-.948,1.391-1.647.9a.763.763,0,0,1-.329-1.034c.386-.884.736-1.783,1.081-2.685a.4.4,0,0,1,.454-.318C-268.38,414.439-267.868,414.425-267.249,414.425Z" transform="translate(7.661 1.405)" fill="#f8e4cd"/>
      <path id="Trazado_143425" data-name="Trazado 143425" d="M-267.411,445.726c-.932,0-1.866-.01-2.8.007-.278,0-.363-.074-.351-.352.023-.491.018-.985,0-1.478-.007-.234.07-.3.3-.294q2.878.013,5.756,0c.232,0,.3.065.3.3-.016.491-.02.986,0,1.478.013.28-.077.354-.352.35C-265.509,445.716-266.461,445.726-267.411,445.726Z" transform="translate(7.651 7.295)" fill="#edf9fe"/>
      <path id="Trazado_143426" data-name="Trazado 143426" d="M-266.785,413.05h-1.935l.965-2.415Z" transform="translate(8.021 0.656)" fill="#908686"/>
      <path id="Trazado_143427" data-name="Trazado 143427" d="M-287.961,412.655q4.092,0,8.184,0c.97,0,1.328.363,1.329,1.346q0,3.932,0,7.866c0,1-.356,1.353-1.376,1.353h-16.262c-1.04,0-1.38-.345-1.38-1.4q0-3.907,0-7.814c0-1,.356-1.352,1.374-1.353Zm0,8.453c2.325,0,4.648-.007,6.973.008.345,0,.435-.088.431-.432q-.027-2.746,0-5.493c0-.346-.09-.431-.432-.43q-6.972.016-13.944,0c-.345,0-.435.088-.431.432q.025,2.746,0,5.493c0,.347.091.434.434.431C-292.605,421.1-290.281,421.108-287.957,421.108Z" transform="translate(2.233 1.063)"/>
      <path id="Trazado_143428" data-name="Trazado 143428" d="M-287.962,439.922q-4.143,0-8.287,0a1.082,1.082,0,0,1-1.212-.982,1.057,1.057,0,0,1,.957-1.122,4.165,4.165,0,0,1,.475-.008h16.151c.142,0,.282-.006.423,0a1.059,1.059,0,0,1,1,1.03,1.038,1.038,0,0,1-1.013,1.069c-.772.026-1.547.01-2.322.01Z" transform="translate(2.234 6.127)" fill="#000101"/>
      <path id="Trazado_143429" data-name="Trazado 143429" d="M-287.961,441.327h8.076a3.669,3.669,0,0,1,.527.014,1.058,1.058,0,0,1,.906,1.013,1.059,1.059,0,0,1-.9,1.07,2.973,2.973,0,0,1-.475.016h-16.257c-.123,0-.246.006-.369,0a1.06,1.06,0,0,1-1.012-1.075,1.054,1.054,0,0,1,1.005-1.027c.262-.018.527-.006.791-.006Z" transform="translate(2.234 6.835)" fill="#000101"/>
      <path id="Trazado_143430" data-name="Trazado 143430" d="M-291.837,445.883a1.064,1.064,0,0,1-1.066,1.073,1.064,1.064,0,0,1-1.044-1.039,1.061,1.061,0,0,1,1.064-1.072A1.064,1.064,0,0,1-291.837,445.883Z" transform="translate(2.942 7.544)" fill="#050707"/>
      <path id="Trazado_143431" data-name="Trazado 143431" d="M-289.368,446.956a1.062,1.062,0,0,1-1.061-1.075,1.063,1.063,0,0,1,1.048-1.036,1.063,1.063,0,0,1,1.062,1.074A1.067,1.067,0,0,1-289.368,446.956Z" transform="translate(3.65 7.544)" fill="#050707"/>
      <path id="Trazado_143432" data-name="Trazado 143432" d="M-284.8,445.91a1.066,1.066,0,0,1-1.092,1.046,1.067,1.067,0,0,1-1.019-1.066,1.064,1.064,0,0,1,1.091-1.045A1.065,1.065,0,0,1-284.8,445.91Z" transform="translate(4.358 7.544)" fill="#050707"/>
      <path id="Trazado_143433" data-name="Trazado 143433" d="M-302.208,431.144c-.714-.147-1.063-.5-1.062-1.073s.36-.938,1.062-1.07c.691.15,1.034.493,1.049,1.045C-301.146,430.618-301.5,430.988-302.208,431.144Z" transform="translate(1.065 4.354)" fill="#050707"/>
      <path id="Trazado_143434" data-name="Trazado 143434" d="M-280.075,430.774a1.066,1.066,0,0,1,1.078,1,1.066,1.066,0,0,1-1.032,1.105,1.063,1.063,0,0,1-1.078-1.058A1.063,1.063,0,0,1-280.075,430.774Z" transform="translate(5.527 4.711)" fill="#070402"/>
      <path id="Trazado_143435" data-name="Trazado 143435" d="M-288.31,420.755c-2.323,0-4.648-.007-6.971.008-.342,0-.436-.084-.434-.431q.029-2.746,0-5.493c0-.345.086-.432.431-.432q6.972.018,13.944,0c.342,0,.436.084.432.43q-.027,2.746,0,5.493c0,.345-.086.435-.431.432C-283.662,420.748-285.985,420.755-288.31,420.755Z" transform="translate(2.586 1.415)" fill="#edf9fe"/>
    </g>
  </g>
</svg>
