<svg xmlns="http://www.w3.org/2000/svg" xmlns:xlink="http://www.w3.org/1999/xlink" width="103" height="103" viewBox="0 0 103 103">
  <defs>
    <filter id="Trazado_873828" x="0" y="0" width="103" height="103" filterUnits="userSpaceOnUse">
      <feOffset dy="3" input="SourceAlpha"/>
      <feGaussianBlur stdDeviation="3" result="blur"/>
      <feFlood flood-opacity="0.161"/>
      <feComposite operator="in" in2="blur"/>
    </filter>
    <filter id="Trazado_873828-2" x="0" y="0" width="103" height="103" filterUnits="userSpaceOnUse">
      <feOffset dy="3" input="SourceAlpha"/>
      <feGaussianBlur stdDeviation="3" result="blur-2"/>
      <feFlood flood-opacity="0.161" result="color"/>
      <feComposite operator="out" in="SourceGraphic" in2="blur-2"/>
      <feComposite operator="in" in="color"/>
      <feComposite operator="in" in2="SourceGraphic"/>
    </filter>
  </defs>
  <g id="Grupo_1111859" data-name="Grupo 1111859" transform="translate(-191 -863)">
    <g data-type="innerShadowGroup">
      <g transform="matrix(1, 0, 0, 1, 191, 863)" filter="url(#Trazado_873828)">
        <g id="Trazado_873828-3" data-name="Trazado 873828" transform="translate(9 6)" fill="#bce0fc">
          <path d="M 42.5 83 C 37.03165054321289 83 31.72793769836426 81.92946624755859 26.73618698120117 79.81813812255859 C 21.91371154785156 77.77839660644531 17.582275390625 74.85792541503906 13.86217498779297 71.13782501220703 C 10.14207458496094 67.41773986816406 7.22160005569458 63.08628845214844 5.181875228881836 58.26381301879883 C 3.070537567138672 53.27206420898438 2 47.96834945678711 2 42.5 C 2 37.03165054321289 3.070537567138672 31.72793769836426 5.181875228881836 26.73618698120117 C 7.22160005569458 21.91371154785156 10.14207458496094 17.582275390625 13.86217498779297 13.86217498779297 C 17.582275390625 10.14207458496094 21.91371154785156 7.22160005569458 26.73618698120117 5.181875228881836 C 31.72793769836426 3.070537567138672 37.03165054321289 2 42.5 2 C 47.96834945678711 2 53.27206420898438 3.070537567138672 58.26381301879883 5.181875228881836 C 63.08628845214844 7.22160005569458 67.41773986816406 10.14207458496094 71.13782501220703 13.86217498779297 C 74.85792541503906 17.582275390625 77.77839660644531 21.91371154785156 79.81813812255859 26.73618698120117 C 81.92946624755859 31.72793769836426 83 37.03165054321289 83 42.5 C 83 47.96834945678711 81.92946624755859 53.27206420898438 79.81813812255859 58.26381301879883 C 77.77839660644531 63.08628845214844 74.85792541503906 67.41773986816406 71.13782501220703 71.13782501220703 C 67.41773986816406 74.85792541503906 63.08628845214844 77.77839660644531 58.26381301879883 79.81813812255859 C 53.27206420898438 81.92946624755859 47.96834945678711 83 42.5 83 Z" stroke="none"/>
          <path d="M 42.5 4 C 37.3007698059082 4 32.25918579101562 5.017387390136719 27.51528549194336 7.023887634277344 C 22.93121337890625 8.962783813476562 18.81345367431641 11.73932647705078 15.27638244628906 15.27638244628906 C 11.73932647705078 18.81345367431641 8.962783813476562 22.93121337890625 7.023887634277344 27.51528549194336 C 5.017387390136719 32.25918579101562 4 37.3007698059082 4 42.5 C 4 47.6992301940918 5.017387390136719 52.74081420898438 7.023887634277344 57.48471450805664 C 8.962783813476562 62.06878662109375 11.73932647705078 66.18653869628906 15.27638244628906 69.72361755371094 C 18.81345367431641 73.26067352294922 22.93121337890625 76.03721618652344 27.51528549194336 77.97611236572266 C 32.25918579101562 79.98261260986328 37.3007698059082 81 42.5 81 C 47.6992301940918 81 52.74081420898438 79.98261260986328 57.48471450805664 77.97611236572266 C 62.06878662109375 76.03721618652344 66.18653869628906 73.26067352294922 69.72361755371094 69.72361755371094 C 73.26067352294922 66.18653869628906 76.03721618652344 62.06878662109375 77.97611236572266 57.48471450805664 C 79.98261260986328 52.74081420898438 81 47.6992301940918 81 42.5 C 81 37.3007698059082 79.98261260986328 32.25918579101562 77.97611236572266 27.51528549194336 C 76.03721618652344 22.93121337890625 73.26067352294922 18.81345367431641 69.72361755371094 15.27638244628906 C 66.18653869628906 11.73932647705078 62.06878662109375 8.962783813476562 57.48471450805664 7.023887634277344 C 52.74081420898438 5.017387390136719 47.6992301940918 4 42.5 4 M 42.5 0 C 65.97209930419922 0 85 19.02790069580078 85 42.5 C 85 65.97209930419922 65.97209930419922 85 42.5 85 C 19.02790069580078 85 0 65.97209930419922 0 42.5 C 0 19.02790069580078 19.02790069580078 0 42.5 0 Z" stroke="none" fill="#fff"/>
        </g>
      </g>
      <g id="Trazado_873828-4" data-name="Trazado 873828" transform="translate(200 869)" fill="#bce0fc">
        <path d="M 42.5 83 C 37.03165054321289 83 31.72793769836426 81.92946624755859 26.73618698120117 79.81813812255859 C 21.91371154785156 77.77839660644531 17.582275390625 74.85792541503906 13.86217498779297 71.13782501220703 C 10.14207458496094 67.41773986816406 7.22160005569458 63.08628845214844 5.181875228881836 58.26381301879883 C 3.070537567138672 53.27206420898438 2 47.96834945678711 2 42.5 C 2 37.03165054321289 3.070537567138672 31.72793769836426 5.181875228881836 26.73618698120117 C 7.22160005569458 21.91371154785156 10.14207458496094 17.582275390625 13.86217498779297 13.86217498779297 C 17.582275390625 10.14207458496094 21.91371154785156 7.22160005569458 26.73618698120117 5.181875228881836 C 31.72793769836426 3.070537567138672 37.03165054321289 2 42.5 2 C 47.96834945678711 2 53.27206420898438 3.070537567138672 58.26381301879883 5.181875228881836 C 63.08628845214844 7.22160005569458 67.41773986816406 10.14207458496094 71.13782501220703 13.86217498779297 C 74.85792541503906 17.582275390625 77.77839660644531 21.91371154785156 79.81813812255859 26.73618698120117 C 81.92946624755859 31.72793769836426 83 37.03165054321289 83 42.5 C 83 47.96834945678711 81.92946624755859 53.27206420898438 79.81813812255859 58.26381301879883 C 77.77839660644531 63.08628845214844 74.85792541503906 67.41773986816406 71.13782501220703 71.13782501220703 C 67.41773986816406 74.85792541503906 63.08628845214844 77.77839660644531 58.26381301879883 79.81813812255859 C 53.27206420898438 81.92946624755859 47.96834945678711 83 42.5 83 Z" stroke="none"/>
        <path d="M 42.5 4 C 37.3007698059082 4 32.25918579101562 5.017387390136719 27.51528549194336 7.023887634277344 C 22.93121337890625 8.962783813476562 18.81345367431641 11.73932647705078 15.27638244628906 15.27638244628906 C 11.73932647705078 18.81345367431641 8.962783813476562 22.93121337890625 7.023887634277344 27.51528549194336 C 5.017387390136719 32.25918579101562 4 37.3007698059082 4 42.5 C 4 47.6992301940918 5.017387390136719 52.74081420898438 7.023887634277344 57.48471450805664 C 8.962783813476562 62.06878662109375 11.73932647705078 66.18653869628906 15.27638244628906 69.72361755371094 C 18.81345367431641 73.26067352294922 22.93121337890625 76.03721618652344 27.51528549194336 77.97611236572266 C 32.25918579101562 79.98261260986328 37.3007698059082 81 42.5 81 C 47.6992301940918 81 52.74081420898438 79.98261260986328 57.48471450805664 77.97611236572266 C 62.06878662109375 76.03721618652344 66.18653869628906 73.26067352294922 69.72361755371094 69.72361755371094 C 73.26067352294922 66.18653869628906 76.03721618652344 62.06878662109375 77.97611236572266 57.48471450805664 C 79.98261260986328 52.74081420898438 81 47.6992301940918 81 42.5 C 81 37.3007698059082 79.98261260986328 32.25918579101562 77.97611236572266 27.51528549194336 C 76.03721618652344 22.93121337890625 73.26067352294922 18.81345367431641 69.72361755371094 15.27638244628906 C 66.18653869628906 11.73932647705078 62.06878662109375 8.962783813476562 57.48471450805664 7.023887634277344 C 52.74081420898438 5.017387390136719 47.6992301940918 4 42.5 4 M 42.5 0 C 65.97209930419922 0 85 19.02790069580078 85 42.5 C 85 65.97209930419922 65.97209930419922 85 42.5 85 C 19.02790069580078 85 0 65.97209930419922 0 42.5 C 0 19.02790069580078 19.02790069580078 0 42.5 0 Z" stroke="none"/>
      </g>
      <g transform="matrix(1, 0, 0, 1, 191, 863)" filter="url(#Trazado_873828-2)">
        <g id="Trazado_873828-5" data-name="Trazado 873828" transform="translate(9 6)" fill="#fff">
          <path d="M 42.5 83 C 37.03165054321289 83 31.72793769836426 81.92946624755859 26.73618698120117 79.81813812255859 C 21.91371154785156 77.77839660644531 17.582275390625 74.85792541503906 13.86217498779297 71.13782501220703 C 10.14207458496094 67.41773986816406 7.22160005569458 63.08628845214844 5.181875228881836 58.26381301879883 C 3.070537567138672 53.27206420898438 2 47.96834945678711 2 42.5 C 2 37.03165054321289 3.070537567138672 31.72793769836426 5.181875228881836 26.73618698120117 C 7.22160005569458 21.91371154785156 10.14207458496094 17.582275390625 13.86217498779297 13.86217498779297 C 17.582275390625 10.14207458496094 21.91371154785156 7.22160005569458 26.73618698120117 5.181875228881836 C 31.72793769836426 3.070537567138672 37.03165054321289 2 42.5 2 C 47.96834945678711 2 53.27206420898438 3.070537567138672 58.26381301879883 5.181875228881836 C 63.08628845214844 7.22160005569458 67.41773986816406 10.14207458496094 71.13782501220703 13.86217498779297 C 74.85792541503906 17.582275390625 77.77839660644531 21.91371154785156 79.81813812255859 26.73618698120117 C 81.92946624755859 31.72793769836426 83 37.03165054321289 83 42.5 C 83 47.96834945678711 81.92946624755859 53.27206420898438 79.81813812255859 58.26381301879883 C 77.77839660644531 63.08628845214844 74.85792541503906 67.41773986816406 71.13782501220703 71.13782501220703 C 67.41773986816406 74.85792541503906 63.08628845214844 77.77839660644531 58.26381301879883 79.81813812255859 C 53.27206420898438 81.92946624755859 47.96834945678711 83 42.5 83 Z" stroke="none"/>
          <path d="M 42.5 4 C 37.3007698059082 4 32.25918579101562 5.017387390136719 27.51528549194336 7.023887634277344 C 22.93121337890625 8.962783813476562 18.81345367431641 11.73932647705078 15.27638244628906 15.27638244628906 C 11.73932647705078 18.81345367431641 8.962783813476562 22.93121337890625 7.023887634277344 27.51528549194336 C 5.017387390136719 32.25918579101562 4 37.3007698059082 4 42.5 C 4 47.6992301940918 5.017387390136719 52.74081420898438 7.023887634277344 57.48471450805664 C 8.962783813476562 62.06878662109375 11.73932647705078 66.18653869628906 15.27638244628906 69.72361755371094 C 18.81345367431641 73.26067352294922 22.93121337890625 76.03721618652344 27.51528549194336 77.97611236572266 C 32.25918579101562 79.98261260986328 37.3007698059082 81 42.5 81 C 47.6992301940918 81 52.74081420898438 79.98261260986328 57.48471450805664 77.97611236572266 C 62.06878662109375 76.03721618652344 66.18653869628906 73.26067352294922 69.72361755371094 69.72361755371094 C 73.26067352294922 66.18653869628906 76.03721618652344 62.06878662109375 77.97611236572266 57.48471450805664 C 79.98261260986328 52.74081420898438 81 47.6992301940918 81 42.5 C 81 37.3007698059082 79.98261260986328 32.25918579101562 77.97611236572266 27.51528549194336 C 76.03721618652344 22.93121337890625 73.26067352294922 18.81345367431641 69.72361755371094 15.27638244628906 C 66.18653869628906 11.73932647705078 62.06878662109375 8.962783813476562 57.48471450805664 7.023887634277344 C 52.74081420898438 5.017387390136719 47.6992301940918 4 42.5 4 M 42.5 0 C 65.97209930419922 0 85 19.02790069580078 85 42.5 C 85 65.97209930419922 65.97209930419922 85 42.5 85 C 19.02790069580078 85 0 65.97209930419922 0 42.5 C 0 19.02790069580078 19.02790069580078 0 42.5 0 Z" stroke="none"/>
        </g>
      </g>
      <g id="Trazado_873828-6" data-name="Trazado 873828" transform="translate(200 869)" fill="none">
        <path d="M 42.5 83 C 37.03165054321289 83 31.72793769836426 81.92946624755859 26.73618698120117 79.81813812255859 C 21.91371154785156 77.77839660644531 17.582275390625 74.85792541503906 13.86217498779297 71.13782501220703 C 10.14207458496094 67.41773986816406 7.22160005569458 63.08628845214844 5.181875228881836 58.26381301879883 C 3.070537567138672 53.27206420898438 2 47.96834945678711 2 42.5 C 2 37.03165054321289 3.070537567138672 31.72793769836426 5.181875228881836 26.73618698120117 C 7.22160005569458 21.91371154785156 10.14207458496094 17.582275390625 13.86217498779297 13.86217498779297 C 17.582275390625 10.14207458496094 21.91371154785156 7.22160005569458 26.73618698120117 5.181875228881836 C 31.72793769836426 3.070537567138672 37.03165054321289 2 42.5 2 C 47.96834945678711 2 53.27206420898438 3.070537567138672 58.26381301879883 5.181875228881836 C 63.08628845214844 7.22160005569458 67.41773986816406 10.14207458496094 71.13782501220703 13.86217498779297 C 74.85792541503906 17.582275390625 77.77839660644531 21.91371154785156 79.81813812255859 26.73618698120117 C 81.92946624755859 31.72793769836426 83 37.03165054321289 83 42.5 C 83 47.96834945678711 81.92946624755859 53.27206420898438 79.81813812255859 58.26381301879883 C 77.77839660644531 63.08628845214844 74.85792541503906 67.41773986816406 71.13782501220703 71.13782501220703 C 67.41773986816406 74.85792541503906 63.08628845214844 77.77839660644531 58.26381301879883 79.81813812255859 C 53.27206420898438 81.92946624755859 47.96834945678711 83 42.5 83 Z" stroke="none"/>
        <path d="M 42.5 4 C 37.3007698059082 4 32.25918579101562 5.017387390136719 27.51528549194336 7.023887634277344 C 22.93121337890625 8.962783813476562 18.81345367431641 11.73932647705078 15.27638244628906 15.27638244628906 C 11.73932647705078 18.81345367431641 8.962783813476562 22.93121337890625 7.023887634277344 27.51528549194336 C 5.017387390136719 32.25918579101562 4 37.3007698059082 4 42.5 C 4 47.6992301940918 5.017387390136719 52.74081420898438 7.023887634277344 57.48471450805664 C 8.962783813476562 62.06878662109375 11.73932647705078 66.18653869628906 15.27638244628906 69.72361755371094 C 18.81345367431641 73.26067352294922 22.93121337890625 76.03721618652344 27.51528549194336 77.97611236572266 C 32.25918579101562 79.98261260986328 37.3007698059082 81 42.5 81 C 47.6992301940918 81 52.74081420898438 79.98261260986328 57.48471450805664 77.97611236572266 C 62.06878662109375 76.03721618652344 66.18653869628906 73.26067352294922 69.72361755371094 69.72361755371094 C 73.26067352294922 66.18653869628906 76.03721618652344 62.06878662109375 77.97611236572266 57.48471450805664 C 79.98261260986328 52.74081420898438 81 47.6992301940918 81 42.5 C 81 37.3007698059082 79.98261260986328 32.25918579101562 77.97611236572266 27.51528549194336 C 76.03721618652344 22.93121337890625 73.26067352294922 18.81345367431641 69.72361755371094 15.27638244628906 C 66.18653869628906 11.73932647705078 62.06878662109375 8.962783813476562 57.48471450805664 7.023887634277344 C 52.74081420898438 5.017387390136719 47.6992301940918 4 42.5 4 M 42.5 0 C 65.97209930419922 0 85 19.02790069580078 85 42.5 C 85 65.97209930419922 65.97209930419922 85 42.5 85 C 19.02790069580078 85 0 65.97209930419922 0 42.5 C 0 19.02790069580078 19.02790069580078 0 42.5 0 Z" stroke="none" fill="#fff"/>
      </g>
    </g>
    <g id="Page-1" transform="translate(215 884.001)">
      <g id="_059---Money-Bag" data-name="059---Money-Bag" transform="translate(0 -0.001)">
        <path id="Shape" d="M43.373,49.923H26.1v-10.8c0-1.494-2.619-2.7-5.85-2.7A11.807,11.807,0,0,0,18,36.63v-9.8c2.847-6.638,7.7-11.462,12.016-13.6a4.883,4.883,0,0,0,2.547.693H37.6a4.86,4.86,0,0,0,2.565-.711c1.962.972,10.81,6.039,14,19.612C57.774,48.123,46.973,49.923,43.373,49.923Z" transform="translate(-1.799 -2.22)" fill="#ffdc00"/>
        <path id="Shape-2" data-name="Shape" d="M56.458,32.822c-3.2-13.573-12.043-18.64-14-19.612a4.7,4.7,0,0,1-1.6.608c3.086,1.843,10.126,7.214,12.9,19,3.6,15.3-7.2,17.1-10.8,17.1h2.7c3.6,0,14.4-1.8,10.8-17.1Z" transform="translate(-4.083 -2.22)" fill="#fec108"/>
        <path id="Shape-3" data-name="Shape" d="M45,3.053c.009,1.98-.387,6.3-3.555,8.776a2.814,2.814,0,0,1-.378.261A4.86,4.86,0,0,1,38.5,12.8h-5.04a4.883,4.883,0,0,1-2.547-.693c-.135-.09-.27-.18-.4-.279-3.168-2.475-3.555-6.8-3.555-8.776A.9.9,0,0,1,28.2,2.225c1.152.486,1.539,1.575,3.285,1.575C33.728,3.8,33.728,2,35.97,2s2.25,1.8,4.5,1.8c1.746,0,2.133-1.1,3.285-1.575A.9.9,0,0,1,45,3.053Z" transform="translate(-2.694 -1.099)" fill="#ffdc00"/>
        <path id="Shape-4" data-name="Shape" d="M44.737,2.243a7.264,7.264,0,0,0-1.458.992c-.013,2.044-.467,6.2-3.553,8.612a2.813,2.813,0,0,1-.378.261,4.86,4.86,0,0,1-2.565.711h2.7a4.86,4.86,0,0,0,2.565-.711,2.814,2.814,0,0,0,.378-.261c3.166-2.475,3.562-6.8,3.553-8.776a.9.9,0,0,0-1.242-.828Z" transform="translate(-3.676 -1.117)" fill="#fec108"/>
        <ellipse id="Oval" cx="5.85" cy="2.7" rx="5.85" ry="2.7" transform="translate(9.901 4.501)" fill="#ffdc00"/>
        <path id="Shape-5" data-name="Shape" d="M22.7,9v8.983a29.522,29.522,0,0,0-5.4,8.425V21.6c0-1.494-2.619-2.7-5.85-2.7-.153,0-.3,0-.45.009V9c0,1.494,2.619,2.7,5.85,2.7S22.7,10.494,22.7,9Z" transform="translate(-1.099 -1.799)" fill="#ff9801"/>
        <path id="Shape-6" data-name="Shape" d="M16.7,22.7c0,1.494-2.619,2.7-5.85,2.7S5,24.194,5,22.7c0-1.422,2.376-2.583,5.4-2.691.153-.009.3-.009.45-.009C14.082,20,16.7,21.206,16.7,22.7Z" transform="translate(-0.5 -2.898)" fill="#ffdc00"/>
        <path id="Shape-7" data-name="Shape" d="M16.7,23V37.608c-2.115.405-3.6,1.368-3.6,2.493v9c0-1.494-2.619-2.7-5.85-2.7A11.807,11.807,0,0,0,5,46.609V23c0,1.494,2.619,2.7,5.85,2.7S16.7,24.494,16.7,23Z" transform="translate(-0.5 -3.198)" fill="#ff9801"/>
        <path id="Shape-8" data-name="Shape" d="M12.7,51.7c0,1.494-2.619,2.7-5.85,2.7S1,53.194,1,51.7c0-1.125,1.485-2.088,3.6-2.493A11.807,11.807,0,0,1,6.85,49C10.082,49,12.7,50.206,12.7,51.7Z" transform="translate(-0.1 -5.796)" fill="#ffeb3a"/>
        <path id="Shape-9" data-name="Shape" d="M12.7,52v4.5c0,1.494-2.619,2.7-5.85,2.7S1,57.994,1,56.5V52c0,1.494,2.619,2.7,5.85,2.7S12.7,53.494,12.7,52Z" transform="translate(-0.1 -6.096)" fill="#ffdc00"/>
        <path id="Shape-10" data-name="Shape" d="M25.7,41.7c0,1.494-2.619,2.7-5.85,2.7S14,43.194,14,41.7c0-1.125,1.485-2.088,3.6-2.493A11.807,11.807,0,0,1,19.85,39C23.082,39,25.7,40.206,25.7,41.7Z" transform="translate(-1.399 -4.797)" fill="#ffeb3a"/>
        <path id="Shape-11" data-name="Shape" d="M25.7,42V53.7c0,1.494-2.619,2.7-5.85,2.7S14,55.195,14,53.7V42c0,1.494,2.619,2.7,5.85,2.7S25.7,43.494,25.7,42Z" transform="translate(-1.399 -5.097)" fill="#ffdc00"/>
        <g id="Grupo_1111858" data-name="Grupo 1111858">
          <path id="Shape-12" data-name="Shape" d="M42.542,13.658c4.465.337,5.9,2.194,5.945,2.25A.9.9,0,0,0,49.978,14.9c-.065-.1-1.315-1.883-4.95-2.7a4.129,4.129,0,0,0,1.506-3.1,4.622,4.622,0,0,0-3.442-4.192,16.417,16.417,0,0,0,.121-1.959,1.8,1.8,0,0,0-2.5-1.654,5.142,5.142,0,0,0-1.253.8,2.365,2.365,0,0,1-3.364,0,4.14,4.14,0,0,0-5.618,0,2.366,2.366,0,0,1-3.364,0,5.15,5.15,0,0,0-1.249-.8,1.8,1.8,0,0,0-2.5,1.654c0,2.239.443,6.234,3.247,8.916A24.831,24.831,0,0,0,22.5,14.99V8.2c0-2.052-2.9-3.6-6.75-3.6S9,6.148,9,8.2v9.068C5.844,17.584,3.6,19,3.6,20.8V43.694C1.426,44.278,0,45.463,0,46.9v4.5C0,53.455,2.9,55,6.75,55c3.441,0,6.12-1.239,6.649-2.97a10.11,10.11,0,0,0,5.052,1.17c3.848,0,6.75-1.548,6.75-3.6V37.9c0-2.052-2.9-3.6-6.75-3.6a13.356,13.356,0,0,0-1.35.068V20.8c0-1.971-2.679-3.472-6.3-3.589v-6.52a10.25,10.25,0,0,0,4.95,1.108,10.25,10.25,0,0,0,4.95-1.108v6.138c-.592.663-1.189,1.386-1.777,2.187a.9.9,0,0,0,1.451,1.063,27.284,27.284,0,0,1,1.856-2.25l.021-.023a23.661,23.661,0,0,1,5.974-4.787,5.712,5.712,0,0,0,1.389.462l-2.32,2.166a.9.9,0,1,0,1.229,1.316l3.6-3.358h.287v2.7a.9.9,0,1,0,1.8,0V13.6H34.5l3.6,3.358a.9.9,0,0,0,1.229-1.316l-2.336-2.175A5.67,5.67,0,0,0,38.372,13c2.379,1.287,10.2,6.372,13.127,18.8,1.274,5.411.815,9.551-1.364,12.3-2.787,3.515-7.622,3.695-8.562,3.695H28.8a.9.9,0,0,0,0,1.8H41.574c1.53,0,6.755-.316,9.973-4.377,2.536-3.2,3.111-7.857,1.7-13.83C51.033,21.971,46.1,16.511,42.542,13.658ZM6.75,45.1c2.976,0,4.95,1.08,4.95,1.8s-1.974,1.8-4.95,1.8S1.8,47.623,1.8,46.9,3.774,45.1,6.75,45.1Zm0,8.1c-2.976,0-4.95-1.08-4.95-1.8V49.4A10.25,10.25,0,0,0,6.75,50.5,10.25,10.25,0,0,0,11.7,49.4V51.4C11.7,52.123,9.727,53.2,6.75,53.2Zm11.7-1.8c-2.976,0-4.95-1.08-4.95-1.8V40.395a10.25,10.25,0,0,0,4.95,1.108,10.25,10.25,0,0,0,4.95-1.108V49.6C23.4,50.323,21.428,51.4,18.451,51.4ZM23.4,37.9c0,.72-1.974,1.8-4.95,1.8s-4.95-1.08-4.95-1.8,1.974-1.8,4.95-1.8S23.4,37.182,23.4,37.9Zm-11.7,0v6.508A10.25,10.25,0,0,0,6.75,43.3a13.356,13.356,0,0,0-1.35.068V23.294a10.25,10.25,0,0,0,4.95,1.108,10.25,10.25,0,0,0,4.95-1.108v11.4C13.126,35.278,11.7,36.462,11.7,37.9Zm3.6-17.1c0,.72-1.974,1.8-4.95,1.8S5.4,21.521,5.4,20.8,7.374,19,10.351,19,15.3,20.081,15.3,20.8Zm.45-10.8c-2.976,0-4.95-1.08-4.95-1.8s1.974-1.8,4.95-1.8S20.7,7.48,20.7,8.2,18.728,10,15.751,10Zm28.982-.9c0,1.475-1.6,2.686-3.6,2.7a4.648,4.648,0,0,1-1-.114,10.672,10.672,0,0,0,2.629-4.977A2.758,2.758,0,0,1,44.733,9.1ZM25.983,3.5a4.138,4.138,0,0,0,5.615,0,2.369,2.369,0,0,1,3.366,0,4.142,4.142,0,0,0,5.618,0,3.769,3.769,0,0,1,.825-.554c0,1.671-.311,5.8-3.211,8.069a3.86,3.86,0,0,1-2.259.773,19.467,19.467,0,0,0,1.837-4.249.9.9,0,0,0-1.735-.482,16.511,16.511,0,0,1-2.27,4.742h-.925a16.667,16.667,0,0,1-2.271-4.742.9.9,0,1,0-1.734.483,19.481,19.481,0,0,0,1.839,4.253,3.87,3.87,0,0,1-2.306-.777c-2.9-2.265-3.211-6.4-3.211-8.063a3.52,3.52,0,0,1,.822.547Z" transform="translate(0 -0.999)"/>
          <path id="Shape-13" data-name="Shape" d="M53.241,46.988a8.641,8.641,0,0,0,1.653-5.046A.9.9,0,0,0,54.038,41a.91.91,0,0,0-.942.856,6.893,6.893,0,0,1-1.266,4.014c-1.756,2.218-5.088,2.33-5.739,2.33a.9.9,0,0,0,0,1.8c.8,0,4.879-.145,7.151-3.013Z" transform="translate(-4.516 -4.997)"/>
          <path id="Shape-14" data-name="Shape" d="M33.8,33.8a.9.9,0,0,0-1.8,0,3.6,3.6,0,0,0,3.6,3.6v.9a.9.9,0,1,0,1.8,0v-.9a3.6,3.6,0,1,0,0-7.2V26.6a1.8,1.8,0,0,1,1.8,1.8.9.9,0,0,0,1.8,0,3.6,3.6,0,0,0-3.6-3.6v-.9a.9.9,0,0,0-1.8,0v.9a3.6,3.6,0,0,0,0,7.2v3.6A1.8,1.8,0,0,1,33.8,33.8Zm0-5.4a1.8,1.8,0,0,1,1.8-1.8v3.6A1.8,1.8,0,0,1,33.8,28.4ZM37.4,32a1.8,1.8,0,0,1,0,3.6Z" transform="translate(-3.198 -3.198)"/>
        </g>
      </g>
    </g>
  </g>
</svg>
