<svg xmlns="http://www.w3.org/2000/svg" width="87" height="87" viewBox="0 0 87 87">
  <g id="Grupo_25956" data-name="Grupo 25956" transform="translate(0 -0.484)">
    <g id="Grupo_25952" data-name="Grupo 25952" transform="translate(0)">
      <circle id="Elipse_497" data-name="Elipse 497" cx="43.5" cy="43.5" r="43.5" transform="translate(0 0.485)" fill="#fd9827"/>
      <path id="Trazado_1178" data-name="Trazado 1178" d="M39.037,0A39.037,39.037,0,1,1,0,39.037,39.037,39.037,0,0,1,39.037,0Z" transform="translate(5.061 5.061)" fill="#fff"/>
    </g>
    <g id="Grupo_25949" data-name="Grupo 25949" transform="translate(18.798 17.352)">
      <g id="Grupo_25944" data-name="Grupo 25944" transform="translate(23.958 25.991)">
        <path id="Trazado_68102" data-name="Trazado 68102" d="M1158.218,2813.943h-25.372a.6.6,0,0,1-.6-.6V2787.97a.6.6,0,0,1,.6-.6h25.372a.6.6,0,0,1,.6.6v25.373A.6.6,0,0,1,1158.218,2813.943Zm-24.772-1.2h24.172V2788.57h-24.172Z" transform="translate(-1132.245 -2787.37)" fill="#344154"/>
        <path id="Trazado_68103" data-name="Trazado 68103" d="M1179.861,2804.685h-4.814a.6.6,0,1,1,0-1.2h4.814a.6.6,0,1,1,0,1.2Z" transform="translate(-1157.565 -2797.039)" fill="#344154"/>
        <path id="Trazado_68104" data-name="Trazado 68104" d="M1146.849,2804.685h-4.814a.6.6,0,1,1,0-1.2h4.814a.6.6,0,1,1,0,1.2Z" transform="translate(-1137.759 -2797.039)" fill="#344154"/>
        <path id="Trazado_68105" data-name="Trazado 68105" d="M1148.052,2803.482a.6.6,0,0,1-.6-.6v-4.814a.6.6,0,1,1,1.2,0v4.814A.6.6,0,0,1,1148.052,2803.482Z" transform="translate(-1141.369 -2793.428)" fill="#344154"/>
        <path id="Trazado_68106" data-name="Trazado 68106" d="M1147.2,2836.41a.6.6,0,0,1-.425-.176l-3.4-3.4a.6.6,0,0,1,.848-.849l3.4,3.4a.6.6,0,0,1-.424,1.024Z" transform="translate(-1138.816 -2814.03)" fill="#344154"/>
        <path id="Trazado_68107" data-name="Trazado 68107" d="M1143.8,2836.41a.6.6,0,0,1-.424-1.024l3.4-3.4a.6.6,0,0,1,.849.849l-3.4,3.4A.6.6,0,0,1,1143.8,2836.41Z" transform="translate(-1138.816 -2814.03)" fill="#344154"/>
        <path id="Trazado_68108" data-name="Trazado 68108" d="M1178.572,2837.115h-4.814a.6.6,0,0,1,0-1.2h4.814a.6.6,0,1,1,0,1.2Z" transform="translate(-1156.792 -2816.496)" fill="#344154"/>
        <path id="Trazado_68109" data-name="Trazado 68109" d="M1179.649,2831.308a.766.766,0,1,1,.541-.224A.759.759,0,0,1,1179.649,2831.308Zm0-1.2a.435.435,0,1,0,.308.127A.434.434,0,0,0,1179.649,2830.108Z" transform="translate(-1160.227 -2812.814)" fill="#344154"/>
        <path id="Trazado_68110" data-name="Trazado 68110" d="M1179.649,2843.172a.765.765,0,0,1-.541-1.306.765.765,0,1,1,1.081,1.082A.757.757,0,0,1,1179.649,2843.172Zm0-1.2a.435.435,0,1,0,.308.127A.434.434,0,0,0,1179.649,2841.971Z" transform="translate(-1160.227 -2819.931)" fill="#344154"/>
        <path id="Trazado_68111" data-name="Trazado 68111" d="M1158.218,2820.284h-25.372a.6.6,0,1,1,0-1.2h25.372a.6.6,0,1,1,0,1.2Z" transform="translate(-1132.245 -2806.398)" fill="#344154"/>
        <path id="Trazado_68112" data-name="Trazado 68112" d="M1164.9,2813.943a.6.6,0,0,1-.6-.6V2787.97a.6.6,0,1,1,1.2,0v25.373A.6.6,0,0,1,1164.9,2813.943Z" transform="translate(-1151.479 -2787.37)" fill="#344154"/>
      </g>
      <g id="Grupo_25948" data-name="Grupo 25948" transform="translate(0 0)">
        <g id="Grupo_25946" data-name="Grupo 25946">
          <g id="Grupo_25945" data-name="Grupo 25945" transform="translate(2.4 4.776)">
            <path id="Trazado_68113" data-name="Trazado 68113" d="M1098.111,2818.2h-19.158a.6.6,0,1,1,0-1.2h19.158a.6.6,0,1,1,0,1.2Z" transform="translate(-1078.353 -2783.934)" fill="#344154"/>
            <path id="Trazado_68114" data-name="Trazado 68114" d="M1101,2735.535h-22.046a.6.6,0,1,1,0-1.2H1101a.6.6,0,0,1,0,1.2Z" transform="translate(-1078.353 -2734.335)" fill="#344154"/>
          </g>
          <path id="Trazado_68115" data-name="Trazado 68115" d="M1094.511,2769.007H1075.38a3.03,3.03,0,0,1-3.027-3.027v-40.234a3.354,3.354,0,0,1,3.35-3.35h22.081a3.354,3.354,0,0,1,3.35,3.35v20.842a.6.6,0,1,1-1.2,0v-20.842a2.152,2.152,0,0,0-2.15-2.15H1075.7a2.152,2.152,0,0,0-2.15,2.15v40.234a1.829,1.829,0,0,0,1.826,1.827h19.131a.6.6,0,0,1,0,1.2Z" transform="translate(-1072.353 -2722.396)" fill="#344154"/>
          <path id="Trazado_68116" data-name="Trazado 68116" d="M1107.455,2825.448a1.743,1.743,0,1,0-1.743,1.743A1.743,1.743,0,0,0,1107.455,2825.448Z" transform="translate(-1091.322 -2783.179)" fill="#fd9827"/>
          <path id="Trazado_68117" data-name="Trazado 68117" d="M1106.061,2729.631h-5.467a.6.6,0,0,1,0-1.2h5.467a.6.6,0,0,1,0,1.2Z" transform="translate(-1088.937 -2726.016)" fill="#344154"/>
        </g>
        <g id="Grupo_25947" data-name="Grupo 25947" transform="translate(3.763 15.762)">
          <path id="Trazado_68118" data-name="Trazado 68118" d="M1082.361,2777.838a.6.6,0,0,1-.425-1.024l6.561-6.561a.6.6,0,0,1,.424-.176h0a.6.6,0,0,1,.425.176l3.2,3.2,6.206-6.205a.6.6,0,0,1,.848.848l-6.63,6.63a.6.6,0,0,1-.424.176h0a.6.6,0,0,1-.424-.176l-3.2-3.2-6.136,6.136A.6.6,0,0,1,1082.361,2777.838Z" transform="translate(-1081.76 -2764.962)" fill="#344154"/>
          <path id="Trazado_68119" data-name="Trazado 68119" d="M1126.685,2764.917a.6.6,0,0,1-.6-.6V2763h-1.318a.6.6,0,1,1,0-1.2h1.918a.6.6,0,0,1,.6.6v1.919A.6.6,0,0,1,1126.685,2764.917Z" transform="translate(-1107.203 -2761.798)" fill="#344154"/>
        </g>
      </g>
    </g>
  </g>
</svg>
