<svg xmlns="http://www.w3.org/2000/svg" xmlns:xlink="http://www.w3.org/1999/xlink" width="400" height="262" viewBox="0 0 400 262">
  <defs>
    <clipPath id="clip-path">
      <rect id="Rectángulo_404640" data-name="Rectángulo 404640" width="394.618" height="234.879" fill="none"/>
    </clipPath>
  </defs>
  <g id="Grupo_1112019" data-name="Grupo 1112019" transform="translate(-915 -14735)">
    <rect id="Rectángulo_404586" data-name="Rectángulo 404586" width="400" height="262" transform="translate(915 14735)" fill="#e6dcfb"/>
    <g id="Grupo_1112018" data-name="Grupo 1112018" transform="translate(918 14761.797)">
      <g id="Grupo_1112017" data-name="Grupo 1112017" clip-path="url(#clip-path)">
        <path id="Trazado_900776" data-name="Trazado 900776" d="M257.807,81.188a3.316,3.316,0,0,1-2.619-2.338,5.383,5.383,0,0,1,.711-4.341,3.456,3.456,0,0,0-3.885.069c-.813.667-1.02,1.592-.668,3a.309.309,0,1,1-.6.15,3.3,3.3,0,0,1,.876-3.628A4.082,4.082,0,0,1,256.258,74l.034-.043a6.021,6.021,0,0,1,4.912-2.324q.255.023.511.067A5.541,5.541,0,0,1,262.7,70c1.18-1.518,2.858-1.686,4.482-1.848a.31.31,0,1,1,.061.616c-1.562.156-3.038.3-4.065,1.626a4.94,4.94,0,0,0-.848,1.446,3.613,3.613,0,0,1,2.972,2.932,1.925,1.925,0,0,1-1.319,2.2,2.007,2.007,0,0,1-2.282-1.247,5.162,5.162,0,0,1-.175-3.42c-.121-.019-.243-.034-.363-.045a5.39,5.39,0,0,0-4.377,2.082,5.584,5.584,0,0,1,.49.389c1.253,1.252,2.333,3.38,2,5.047-.324,1.219-1.044,1.408-1.445,1.414h-.023m-1.382-6.35a4.77,4.77,0,0,0-.641,3.842c.282.942,1.3,1.923,2.036,1.888.4-.006.688-.32.852-.935.283-1.42-.726-3.36-1.821-4.456a5.056,5.056,0,0,0-.426-.339m5.711-2.408a4.568,4.568,0,0,0,.128,3.033,1.392,1.392,0,0,0,1.566.9c.458-.116.923-.584.854-1.545a3.079,3.079,0,0,0-2.549-2.391" transform="translate(-95.328 -25.929)" fill="#99d5cb"/>
        <path id="Trazado_900777" data-name="Trazado 900777" d="M593.453,203.7a1.482,1.482,0,0,1-.894-.29,1.929,1.929,0,0,1-.719-1.494c.021-1.354,1.512-2.652,2.44-3.445a2.626,2.626,0,0,0-1.642-1.675,5.441,5.441,0,0,0-4.62.3c.081.116.159.236.234.357,1.034,1.86,1.02,3.606-.03,4.806a2.43,2.43,0,0,1-2.628.883,1.874,1.874,0,0,1-1.243-1.88,5.519,5.519,0,0,1,2.753-4.359,7.469,7.469,0,0,0-2.425-2.02,2.764,2.764,0,0,0-2.194-.288.315.315,0,0,1-.35-.263.31.31,0,0,1,.263-.351,3.364,3.364,0,0,1,2.559.347,8.144,8.144,0,0,1,2.688,2.262,6.075,6.075,0,0,1,5.225-.365,3.137,3.137,0,0,1,1.934,1.882l.177-.111a8.607,8.607,0,0,1,1.943-.991,4.989,4.989,0,0,1,.847-.171,4.426,4.426,0,0,0,.739-.146.31.31,0,0,1,.2.588,4.99,4.99,0,0,1-.847.171,4.362,4.362,0,0,0-.739.146,8.011,8.011,0,0,0-1.809.927l-.309.192a10.656,10.656,0,0,1,.269,1.728c0,.144.007.271.013.4a3.074,3.074,0,0,1-.39,2.028,1.6,1.6,0,0,1-1.062.783,1.678,1.678,0,0,1-.38.045m1.014-4.572c-.812.7-1.992,1.813-2.007,2.8a1.305,1.305,0,0,0,.493,1.007.906.906,0,0,0,.737.12,1.029,1.029,0,0,0,.68-.5,2.6,2.6,0,0,0,.3-1.678c-.006-.143-.012-.279-.012-.4a11.058,11.058,0,0,0-.187-1.339m-6.989-1.729a4.922,4.922,0,0,0-2.505,3.874,1.255,1.255,0,0,0,.824,1.28,1.812,1.812,0,0,0,1.95-.691c1.243-1.422.395-3.338-.027-4.1-.077-.125-.158-.247-.242-.366" transform="translate(-221.478 -73.763)" fill="#dcd8f0"/>
        <path id="Trazado_900778" data-name="Trazado 900778" d="M150.725,82.506c-3.86-2.374-3.6-5.741.589-7.483l42.681-17.757c4.185-1.742,5.871.11,3.747,4.114L181.588,91.829a7.653,7.653,0,0,1-10.882,2.963Z" transform="translate(-56.305 -21.538)" fill="#dcd8f0"/>
        <path id="Trazado_900779" data-name="Trazado 900779" d="M500.723,111.353a8.49,8.49,0,0,1-6.046-2.494l-8.666-8.666a8.576,8.576,0,0,1,0-12.093l8.665-8.666a8.577,8.577,0,0,1,12.093,0l8.666,8.666a8.576,8.576,0,0,1,0,12.093l-8.666,8.666a8.49,8.49,0,0,1-6.046,2.494m0-33.794a7.877,7.877,0,0,0-5.609,2.313l-8.665,8.666a7.957,7.957,0,0,0,0,11.217l8.666,8.666a7.956,7.956,0,0,0,11.216,0L515,99.754a7.957,7.957,0,0,0,0-11.217l-8.666-8.666a7.877,7.877,0,0,0-5.609-2.313" transform="translate(-183.958 -29.272)" fill="#f1e0d9"/>
        <path id="Trazado_900780" data-name="Trazado 900780" d="M90.091,105.814a3.4,3.4,0,0,1,0,4.788l-3.559,3.56a3.4,3.4,0,0,1-4.788,0l-3.559-3.56a3.4,3.4,0,0,1,0-4.788l3.559-3.56a3.4,3.4,0,0,1,4.788,0Z" transform="translate(-29.37 -38.528)" fill="#aad5ce"/>
        <path id="Trazado_900781" data-name="Trazado 900781" d="M627.861,300.827a2.536,2.536,0,1,1-2.536-2.536,2.537,2.537,0,0,1,2.536,2.536" transform="translate(-236.945 -113.487)" fill="#dcd8f0"/>
        <path id="Trazado_900782" data-name="Trazado 900782" d="M621.754,310.73a2.536,2.536,0,1,1-2.536-2.536,2.536,2.536,0,0,1,2.536,2.536" transform="translate(-234.622 -117.255)" fill="#dcd8f0"/>
        <path id="Trazado_900783" data-name="Trazado 900783" d="M628.763,310.73a2.536,2.536,0,1,0,2.536-2.536,2.536,2.536,0,0,0-2.536,2.536" transform="translate(-239.218 -117.255)" fill="#dcd8f0"/>
        <path id="Trazado_900784" data-name="Trazado 900784" d="M444.879,30.366a2.536,2.536,0,1,1-2.536-2.536,2.536,2.536,0,0,1,2.536,2.536" transform="translate(-167.328 -10.588)" fill="#aad5ce"/>
        <path id="Trazado_900785" data-name="Trazado 900785" d="M438.771,40.27a2.536,2.536,0,1,1-2.536-2.537,2.536,2.536,0,0,1,2.536,2.537" transform="translate(-165.004 -14.356)" fill="#aad5ce"/>
        <path id="Trazado_900786" data-name="Trazado 900786" d="M445.781,40.27a2.536,2.536,0,1,0,2.536-2.537,2.536,2.536,0,0,0-2.536,2.537" transform="translate(-169.601 -14.356)" fill="#aad5ce"/>
        <path id="Trazado_900787" data-name="Trazado 900787" d="M165.739,74.765a9.818,9.818,0,1,1,9.818-9.818,9.83,9.83,0,0,1-9.818,9.818m0-19.017a9.2,9.2,0,1,0,9.2,9.2,9.21,9.21,0,0,0-9.2-9.2" transform="translate(-59.321 -20.974)" fill="#f1e0d9"/>
        <path id="Trazado_900788" data-name="Trazado 900788" d="M11.813,325.03a11.813,11.813,0,1,1,11.812-11.813A11.826,11.826,0,0,1,11.813,325.03m0-23.007a11.194,11.194,0,1,0,11.193,11.193,11.206,11.206,0,0,0-11.193-11.193" transform="translate(0 -114.672)" fill="#f1e0d9"/>
        <path id="Trazado_900789" data-name="Trazado 900789" d="M262.493,130.7c4.121,6.5,11.887,23.139,21.712,25.516s16.006,0,20.444-9.667,7.132-14.422,7.608-13.947,5.864,17.433,6.974,20.286,44.216,12.678,51.031,9.034,10.3-6.34,13.789-25.833,5.705-27.259,3.01-34.074-4.279-9.192-11.569-13.629-19.014-11.188-28.462-11.5c-6.028-.2-28.274,6.269-37.467,17.045s-22.346,39.938-23.3,40.573c-6.339-6.815-7.449-8.4-7.449-8.4s-17.592,2.378-16.324,4.6" transform="translate(-99.843 -29.25)" fill="#aad5ce"/>
        <path id="Trazado_900790" data-name="Trazado 900790" d="M351.562,60.547c1.69,3.275,4.544,6.339,10.249,5.388s10.921-8.158,8.662-12.531c-2.232-4.325-7.289-13.037-7.289-13.037,4.437-1.268,4.542-9.615-2.959-10.672-3.276-9.72-11.094-23.455-28.1-15.32s-15.944,10.76-14.886,16.571,4.638,8.574,8.547,15.654,10.671,20.076,25.78,13.947" transform="translate(-120.499 -4.529)" fill="#ff7e7d"/>
        <path id="Trazado_900791" data-name="Trazado 900791" d="M281.114,159.194a70.715,70.715,0,0,1-4.507-5.55s-18.068.079-16.8,2.3c.857,1.351,3.537,7.106,4.695,9.114a13.545,13.545,0,0,0,16.611-5.862" transform="translate(-98.822 -58.455)" fill="#ff7e7d"/>
        <path id="Rectángulo_404633" data-name="Rectángulo 404633" d="M4.092,0h98.949a4.093,4.093,0,0,1,4.093,4.093V15.876a4.093,4.093,0,0,1-4.093,4.093H4.094A4.094,4.094,0,0,1,0,15.875V4.092A4.092,4.092,0,0,1,4.092,0Z" transform="translate(139.987 76.25)" fill="#f1e0d9"/>
        <path id="Trazado_900792" data-name="Trazado 900792" d="M367.072,129.215v12.362h12.852c1.911,0,3.051-.538,3.051-2.651V131.8c0-2.115-1.3-2.583-2.483-2.583Z" transform="translate(-139.656 -49.161)" fill="#151748"/>
        <path id="Trazado_900793" data-name="Trazado 900793" d="M281.654,129.215v12.362h-46.2c-1.911,0-3.051-.538-3.051-2.651V131.8c0-2.115,1.3-2.583,2.482-2.583Z" transform="translate(-88.42 -49.161)" fill="#7967cc"/>
        <rect id="Rectángulo_404634" data-name="Rectángulo 404634" width="34.704" height="12.362" transform="translate(192.815 80.054)" fill="#5fb0a2"/>
        <path id="Trazado_900794" data-name="Trazado 900794" d="M355.787,163.194c-.951-2.06-1.188-4.516-2.377-5.467s-1.9-1.823-3.407-1.03-3.408-.159-4.358-1.744c-1.744.792-2.536.079-2.536.079-1.742.951-3.8,1.348-5.625-1.822s.634-9.192,3.249-3.645c.159-3.276,2.061-5.282,3.329-4.648a2.234,2.234,0,0,1,1.188,2.033c.449-2.456,3.46-3.407,3.882.4,1.268-1.744,1.9-1.268,3.408,1.03s.924,2.589,3.778,2.351c1.32-.845,6.946-1.981,8.61-.634s3.619,4.385,5.6,6.366c-2.616,5.741-10.83,8.954-14.74,6.735" transform="translate(-128.159 -55.089)" fill="#ff7e7d"/>
        <path id="Trazado_900795" data-name="Trazado 900795" d="M249.678,147.787c-1.149-2.4-4.119-3.45-4.6-.384s2.778,9.771,7.377,8.047c4.634.994,6,2,7.436,1.712s8.85,1.066,10.095-4.2c-3.353.1-4.406-.384-4.406-.384-1.82-2.4-4.119-4.981-5.077-4.789s-.767,1.532-.767,1.532c-1.054-3.353-2.107-4.5-3.258-4.5s-1.915,1.916-1.915,1.916c-.958-3.065-3.928-5.173-4.886,1.054" transform="translate(-93.225 -54.696)" fill="#ff7e7d"/>
        <path id="Trazado_900796" data-name="Trazado 900796" d="M262.662,159.62a8.208,8.208,0,0,1-1.963-.3c-.168-.04-.336-.081-.508-.118a14.226,14.226,0,0,0-1.481-.211,7.285,7.285,0,0,1-4-1.276c-2.318-1.878-2.579-6.059-2.676-7.633a.31.31,0,0,1,.29-.328.305.305,0,0,1,.328.29c.094,1.5.342,5.484,2.448,7.19a6.7,6.7,0,0,0,3.677,1.142,14.906,14.906,0,0,1,1.546.221c.174.038.348.079.52.121,1.424.339,2.769.662,5.394-.945a.31.31,0,0,1,.323.529,7.376,7.376,0,0,1-3.9,1.314" transform="translate(-95.888 -56.976)"/>
        <path id="Trazado_900797" data-name="Trazado 900797" d="M264.553,157.392a.317.317,0,0,1-.106-.019c-5.311-1.93-4.834-6.758-4.63-8.819l.022-.219a.31.31,0,1,1,.616.059l-.021.221c-.206,2.08-.634,6.41,4.225,8.176a.31.31,0,0,1-.106.6" transform="translate(-98.807 -56.328)"/>
        <path id="Trazado_900798" data-name="Trazado 900798" d="M277.815,156.9a1.949,1.949,0,0,1-.976-.258,4.012,4.012,0,0,1-1.618-1.68.31.31,0,0,1,.551-.283,3.424,3.424,0,0,0,1.361,1.417,1.534,1.534,0,0,0,1.038.162c.161-.014.335-.029.534-.029a.31.31,0,1,1,0,.62c-.179,0-.335.014-.48.027s-.271.024-.41.024" transform="translate(-104.697 -58.785)"/>
        <path id="Trazado_900799" data-name="Trazado 900799" d="M274.415,159.695a3.957,3.957,0,0,1-1.034-.131,6.783,6.783,0,0,1-4.009-3.3,6.142,6.142,0,0,1-.716-2.18,10.039,10.039,0,0,0-.263-1.139.31.31,0,1,1,.591-.186,10.705,10.705,0,0,1,.281,1.209,5.575,5.575,0,0,0,.636,1.971,6.193,6.193,0,0,0,3.629,3.018,4.475,4.475,0,0,0,2.5-.161.31.31,0,0,1,.186.591,6.048,6.048,0,0,1-1.8.3" transform="translate(-102.107 -58.038)"/>
        <path id="Trazado_900800" data-name="Trazado 900800" d="M369.517,158.068a3.2,3.2,0,0,1-1.8-.473,2.726,2.726,0,0,1-1.08-2.75c.333-2.412,3.4-2.556,6.368-2.7l.58-.028a.3.3,0,0,1,.325.294.31.31,0,0,1-.294.325l-.582.028c-2.839.134-5.52.26-5.783,2.162a2.161,2.161,0,0,0,.805,2.147c.774.508,2.771.937,7.444-1.9a.31.31,0,1,1,.322.53c-2.951,1.79-4.954,2.361-6.309,2.361" transform="translate(-139.478 -57.875)"/>
        <path id="Trazado_900801" data-name="Trazado 900801" d="M360,157.5a2.616,2.616,0,0,1-.659-.083c-1.208-.313-2.139-1.478-2.927-3.666-.546-1.515-.886-4.9.382-6.259a.31.31,0,1,1,.453.423c-.989,1.059-.807,4.088-.253,5.627.7,1.951,1.522,3.023,2.5,3.276,1.008.262,2.268-.284,3.854-1.668a.31.31,0,1,1,.407.467A6.159,6.159,0,0,1,360,157.5" transform="translate(-135.413 -56.076)"/>
        <path id="Trazado_900802" data-name="Trazado 900802" d="M353.069,157.962a2.549,2.549,0,0,1-1.551-.515c-2.422-1.789-2.456-8.016-1.717-10.107a.31.31,0,0,1,.584.206c-.655,1.854-.627,7.83,1.5,9.4.939.7,2.222.454,3.806-.721a.31.31,0,0,1,.37.5,5.25,5.25,0,0,1-2.993,1.236" transform="translate(-132.924 -55.978)"/>
        <path id="Trazado_900803" data-name="Trazado 900803" d="M346.057,158.007a2.472,2.472,0,0,1-1.261-.342c-1.843-1.07-2.44-4.419-2.44-5.873a.31.31,0,1,1,.62,0c0,1.285.537,4.412,2.131,5.337a2.394,2.394,0,0,0,2.477-.217.31.31,0,1,1,.307.538,3.728,3.728,0,0,1-1.834.558" transform="translate(-130.253 -57.633)"/>
        <path id="Trazado_900804" data-name="Trazado 900804" d="M407.976,174.6a.31.31,0,0,1-.177-.055c-.234-.162-.884-.506-1.707-.94a71.482,71.482,0,0,1-8.569-5.122c-1.646-1.2-2.85-2.213-3.817-3.025-1.359-1.141-2.18-1.83-2.826-1.841a.309.309,0,0,1-.3-.314.322.322,0,0,1,.315-.305c.867.014,1.7.714,3.215,1.986.96.806,2.155,1.81,3.784,3a70.832,70.832,0,0,0,8.493,5.073c.907.479,1.505.8,1.771.979a.31.31,0,0,1-.177.564" transform="translate(-148.598 -62.012)"/>
        <path id="Trazado_900805" data-name="Trazado 900805" d="M415.7,161.789a.34.34,0,0,1-.061-.006.31.31,0,0,1-.243-.364c.963-4.883,5.62-19.662,7.609-25.974.488-1.549.834-2.647.955-3.056a.31.31,0,1,1,.594.176c-.122.411-.469,1.512-.959,3.067-1.985,6.3-6.635,21.058-7.592,25.907a.31.31,0,0,1-.3.25" transform="translate(-158.039 -50.284)"/>
        <path id="Trazado_900806" data-name="Trazado 900806" d="M316.455,16.092c-1.7,4.147-1.419,10.3-.515,10.842,3.011,1.823,6.733,1.085,13.6-1.344s13.946-10.037,13.946-10.037c.423,5.917,2.642,7.925,3.909,9.931s3.171.212,4.861,1.585,3.743,5.3,4.588,5.612,2.067-2.23,1.433-5.717a5.322,5.322,0,0,1,5.383-.009c1.056-6.762-1.686-16.264-6.967-20.595S341.269-1.987,332.5,1.078a26.1,26.1,0,0,0-16.044,15.014" transform="translate(-119.927 0)" fill="#151748"/>
        <path id="Trazado_900807" data-name="Trazado 900807" d="M346,69.022a2.9,2.9,0,0,1-1.96-.546c-.8-.683-.781-1.862-.756-3.494,0-.29.008-.6.008-.915,0-2.976-.924-4.64-2.826-5.086a.31.31,0,0,1,.142-.6c2.193.515,3.3,2.43,3.3,5.69,0,.323,0,.631-.009.924-.021,1.463-.036,2.52.541,3.013.529.453,1.656.515,3.544.194a.313.313,0,0,1,.358.253.31.31,0,0,1-.253.357,12.8,12.8,0,0,1-2.091.213" transform="translate(-129.441 -22.207)"/>
        <path id="Trazado_900808" data-name="Trazado 900808" d="M354.006,77.373a6.378,6.378,0,0,1-1.973-.322.31.31,0,1,1,.2-.587,5.087,5.087,0,0,0,3.81-.178,5.572,5.572,0,0,0,2.612-3.5.31.31,0,0,1,.59.187,6.16,6.16,0,0,1-2.921,3.869,5.064,5.064,0,0,1-2.314.535" transform="translate(-133.853 -27.608)"/>
        <path id="Trazado_900809" data-name="Trazado 900809" d="M372.767,79.8a.31.31,0,0,1-.174-.566l.422-.285c3.341-2.249,8.932-6.014,7.738-16.912a.31.31,0,0,1,.274-.342.314.314,0,0,1,.342.274c1.235,11.271-4.777,15.318-8.008,17.493l-.419.284a.309.309,0,0,1-.174.053" transform="translate(-141.705 -23.472)"/>
        <path id="Trazado_900810" data-name="Trazado 900810" d="M358.085,57.588c-.869.811.872,3.566,2.378,2.774s-1.19-3.883-2.378-2.774" transform="translate(-136.148 -21.819)"/>
        <path id="Trazado_900811" data-name="Trazado 900811" d="M337.073,62.684c-.869.811.872,3.566,2.378,2.774s-1.188-3.883-2.378-2.774" transform="translate(-128.154 -23.758)"/>
        <path id="Trazado_900812" data-name="Trazado 900812" d="M347.422,51.239c-3.6-2.335,1.015-4.482,5.215-3.769s4.631,2.963,2.887,2.8-4.516-.317-5.625.317-1.677,1.166-2.477.647" transform="translate(-131.688 -18.008)" fill="#151748"/>
        <path id="Trazado_900813" data-name="Trazado 900813" d="M327.875,59.132c.742-.8,2.522-3.434,4.8-2.839,1.821.475-.634-2.9-3.235-2.579-1.228.149-2.482,1.416-2.909,3.354-.236,1.066,1.136,2.287,1.342,2.065" transform="translate(-124.222 -20.428)" fill="#151748"/>
        <path id="Trazado_900814" data-name="Trazado 900814" d="M381.34,97.075c-4.064,0-8.112-1.53-10.294-5.422a.31.31,0,1,1,.541-.3c3.04,5.423,9.975,5.978,15.133,4.2,4.831-1.667,10.09-6.08,9.014-13.033a.31.31,0,1,1,.613-.095c1.134,7.33-4.368,11.969-9.424,13.714a17.333,17.333,0,0,1-5.583.94" transform="translate(-141.153 -31.258)"/>
        <path id="Trazado_900815" data-name="Trazado 900815" d="M305.229,174.227a.309.309,0,0,1-.205-.077,67.773,67.773,0,0,1-5.328-5.122.31.31,0,0,1,.5-.364,69.692,69.692,0,0,0,5.237,5.021.31.31,0,0,1-.205.542" transform="translate(-113.999 -64.121)"/>
        <path id="Trazado_900816" data-name="Trazado 900816" d="M376.258,188.48a.307.307,0,0,1-.2-.071c-1.821-1.5-8.147-10.974-9.132-14.011a.31.31,0,0,1,.59-.191c.936,2.887,7.206,12.294,8.936,13.725a.309.309,0,0,1-.2.548" transform="translate(-139.595 -66.197)"/>
        <path id="Trazado_900817" data-name="Trazado 900817" d="M345.09,305.056v-105.6a13.946,13.946,0,0,0-13.946-13.947h-136.3A13.947,13.947,0,0,0,180.9,199.452v105.6Z" transform="translate(-68.826 -70.577)" fill="#f1e0d9"/>
        <path id="Trazado_900818" data-name="Trazado 900818" d="M372.928,317.928a15.555,15.555,0,1,1-15.555-15.554,15.555,15.555,0,0,1,15.555,15.554" transform="translate(-130.048 -115.041)" fill="#54478d"/>
        <path id="Trazado_900819" data-name="Trazado 900819" d="M370.4,321.951a9,9,0,1,1-9-9,9,9,0,0,1,9,9" transform="translate(-134.07 -119.064)" fill="#7967cc"/>
        <path id="Rectángulo_404635" data-name="Rectángulo 404635" d="M9.209,0H54.863a9.209,9.209,0,0,1,9.209,9.209V23.366a9.209,9.209,0,0,1-9.209,9.209H9.21A9.21,9.21,0,0,1,0,23.365V9.209A9.209,9.209,0,0,1,9.209,0Z" transform="translate(135.423 186.879)" fill="#aad5ce"/>
        <path id="Trazado_900820" data-name="Trazado 900820" d="M233.767,310.978a2.829,2.829,0,1,1-2.829-2.829,2.829,2.829,0,0,1,2.829,2.829" transform="translate(-86.786 -117.238)" fill="#f1efef"/>
        <path id="Rectángulo_404636" data-name="Rectángulo 404636" d="M2.829,0H22.97A2.829,2.829,0,0,1,25.8,2.829v0a2.829,2.829,0,0,1-2.829,2.829H2.829A2.829,2.829,0,0,1,0,2.829v0A2.829,2.829,0,0,1,2.829,0Z" transform="translate(151.238 190.91)" fill="#f1efef"/>
        <path id="Trazado_900821" data-name="Trazado 900821" d="M233.767,326.643a2.829,2.829,0,1,1-2.829-2.829,2.829,2.829,0,0,1,2.829,2.829" transform="translate(-86.786 -123.198)" fill="#54478d"/>
        <path id="Rectángulo_404637" data-name="Rectángulo 404637" d="M2.829,0H28.353a2.829,2.829,0,0,1,2.829,2.829v0a2.829,2.829,0,0,1-2.829,2.829H2.83A2.83,2.83,0,0,1,0,2.829v0A2.829,2.829,0,0,1,2.829,0Z" transform="translate(151.238 200.616)" fill="#54478d"/>
        <path id="Trazado_900822" data-name="Trazado 900822" d="M233.767,342.308a2.829,2.829,0,1,1-2.829-2.829,2.83,2.83,0,0,1,2.829,2.829" transform="translate(-86.786 -129.158)" fill="#151748"/>
        <rect id="Rectángulo_404638" data-name="Rectángulo 404638" width="40.485" height="5.659" rx="2.829" transform="translate(151.238 210.321)" fill="#151748"/>
        <path id="Trazado_900823" data-name="Trazado 900823" d="M311.183,260.606H275.1l-3.492,6.047c-2.6,4.495-.473,8.173,4.72,8.173h33.629c5.192,0,7.314-3.678,4.719-8.173Z" transform="translate(-102.913 -99.15)" fill="#151748"/>
        <path id="Trazado_900824" data-name="Trazado 900824" d="M277.2,256.413h36.983l-5.121-8.869H282.319Z" transform="translate(-105.462 -94.18)" fill="#54478d"/>
        <path id="Trazado_900825" data-name="Trazado 900825" d="M284.42,242.486h28.034L306,231.306H290.874Z" transform="translate(-108.21 -88.003)" fill="#aad5ce"/>
        <path id="Trazado_900826" data-name="Trazado 900826" d="M310.393,228.144l-3.959-6.858c-2.6-4.5-6.843-4.5-9.438,0l-3.96,6.858Z" transform="translate(-111.488 -82.907)" fill="#f1efef"/>
        <path id="Trazado_900827" data-name="Trazado 900827" d="M469.413,176.547c-1.427-5.388-.686-11.728,11.359-17.328s35.288-3.169,39.726,15.321-.422,27.892,8.558,39.515,25.568,25.146,11.2,41.1c-24.723,17.433-64.766-2.642-68.359-12.362s2.113-25.251,10.354-38.247-11.307-19.652-12.838-28" transform="translate(-178.391 -59.566)" fill="#151748"/>
        <path id="Trazado_900828" data-name="Trazado 900828" d="M490.74,220.766c-.159-2.061-.634-7.449-.634-7.449-11.728,2.852-19.494-6.5-19.177-16.165s.317-10.3-1.266-17.751,12.52-16.482,26.307-15.214,11.94,8.293,9.88,21.764c-.317,3.645,1.742,9.245,1.742,9.245.477,7.977.264,25.41.264,25.41s-9.35,5.388-17.116.159" transform="translate(-178.641 -62.421)" fill="#ff7e7d"/>
        <path id="Trazado_900829" data-name="Trazado 900829" d="M493.1,259.155c3.117-.37,6.815-.951,6.815-.951s-.476-4.49-.581-5.23.37-.845,1.425-.528a25.5,25.5,0,0,0,14.845-1.056c1.744-.581,1.745-.475,2.009,1.637s.685,4.015.685,4.015,2.007,1.056,7.449,1.532c-6.656,7.924-26.414,13.893-32.647.581" transform="translate(-187.605 -95.528)" fill="#dcd8f0"/>
        <path id="Trazado_900830" data-name="Trazado 900830" d="M530.479,207.611c2.218-2.325,7.4-3.8,9.192,1.056s-5.6,11.621-10.672,6.445a36.385,36.385,0,0,0,1.48-7.5" transform="translate(-201.262 -78.162)" fill="#ff7e7d"/>
        <path id="Trazado_900831" data-name="Trazado 900831" d="M469.882,179.143c2.006-4.225,13.417-10.459,19.122-11.2,2.431,14.474,6.076,23.033,14,21.237,1.8,7.713,2.378,7.606,3.539,7.185s1.8-4.6,2.113-6.709c3.593-2.642,5.494-6.71,5.072-12.732s-5.495-18.913-22.294-15.848-23.983,9.086-21.553,18.067" transform="translate(-178.595 -61.106)" fill="#151748"/>
        <path id="Trazado_900832" data-name="Trazado 900832" d="M483.629,211.735h-.017c-2.1-.115-3.271-.531-3.809-1.352a2.883,2.883,0,0,1,0-2.658c.177-.475.354-.894.518-1.283.753-1.785,1.208-2.863.116-5.845a6.093,6.093,0,0,0-6.35-4.076.294.294,0,0,1-.325-.294.31.31,0,0,1,.294-.325,6.688,6.688,0,0,1,6.963,4.482c1.176,3.21.658,4.439-.126,6.3-.161.382-.335.793-.508,1.259a2.335,2.335,0,0,0-.059,2.1c.414.631,1.47.973,3.324,1.074a.31.31,0,0,1-.017.619" transform="translate(-180.245 -74.528)"/>
        <path id="Trazado_900833" data-name="Trazado 900833" d="M501.01,199.843a.3.3,0,0,1-.176-.055c-4.463-3.083-6.018-2.286-6.874-1.247a.309.309,0,1,1-.478-.393c1.521-1.85,3.9-1.5,7.7,1.131a.31.31,0,0,1-.176.564" transform="translate(-187.723 -74.946)"/>
        <path id="Trazado_900834" data-name="Trazado 900834" d="M489.058,224.919a6.122,6.122,0,0,1-2.635-.745.31.31,0,0,1,.27-.558c2.022.978,3.58,1.36,6.689-2.068a.31.31,0,0,1,.459.416c-1.948,2.147-3.367,2.955-4.783,2.955" transform="translate(-184.997 -84.251)"/>
        <path id="Trazado_900835" data-name="Trazado 900835" d="M502.546,236.234a.31.31,0,0,1-.1-.6c1.2-.4,11.859-4.146,14.945-11.944a.309.309,0,0,1,.576.227c-3.189,8.059-14.093,11.894-15.325,12.3a.317.317,0,0,1-.1.015" transform="translate(-191.08 -85.029)"/>
        <path id="Trazado_900836" data-name="Trazado 900836" d="M501.545,208.959c-1.02.123-.317,3.09,1.149,2.813s.158-2.972-1.149-2.813" transform="translate(-190.634 -79.498)"/>
        <path id="Trazado_900837" data-name="Trazado 900837" d="M500.619,208.711s-.8-.957-1.2-1.476a.31.31,0,1,1,.491-.377c.393.511,1.181,1.456,1.181,1.456Z" transform="translate(-189.985 -78.655)"/>
        <path id="Trazado_900838" data-name="Trazado 900838" d="M478.458,205.7c-1.02.124-.316,3.09,1.149,2.813s.159-2.972-1.149-2.813" transform="translate(-181.85 -78.257)"/>
        <path id="Trazado_900839" data-name="Trazado 900839" d="M477.532,205.449s-.8-.957-1.2-1.475a.31.31,0,1,1,.491-.379c.394.512,1.181,1.457,1.181,1.457Z" transform="translate(-181.201 -77.414)"/>
        <path id="Trazado_900840" data-name="Trazado 900840" d="M384.736,291.243c-.37-1.374-1-3.539-1-3.539a3.113,3.113,0,0,1-3.486-.106c-2.588.74-4.49.37-6.286-2.061-2.748,1.638-7.079-.581-7.5-2.535s3.593-.686,5.969.317c-.791-4.015.107-4.966.792-4.807s2.007.212,3.751,4.121c-.476-4.543,1.32-4.121,2.43-2.906a20.814,20.814,0,0,1,2.43,4.332l1.374-.37c-.74-2.271-1-4.437,0-4.86s2.377-.264,4.173,4.279c3.329-.687,6.868-2.272,8.189-.58a26.5,26.5,0,0,1,2.694,5.811s-2.007,7.977-13.523,2.905" transform="translate(-139.41 -105.956)" fill="#ff7e7d"/>
        <path id="Trazado_900841" data-name="Trazado 900841" d="M456.487,263.446c-3.7.74-9.192-.527-13.523,1.163s-7.925,6.655-13,18.806-9.72,20.708-9.72,20.708c-2.852-6.445-9.825-20.392-10.566-21.87s-1.268,1.162-5.176,2.429-8.559.74-9.4.106,0,2.747,2.324,8.876,7.711,22.927,11.411,29.161,14.793,12.362,22.821,1.374a109.7,109.7,0,0,0,12.784-24.3l6.762,34.126h47.757l.422-28.209s11.623,22.715,8.664,28.209c7.078,0,19.441.211,19.441.211a22.042,22.042,0,0,0-.937-12.218c-2.85-7.835-6.456-17.56-8.677-22.859-4.121-9.827-9.3-23.139-12.362-26.943s-4.981-6.8-17.328-9.4c-1-.212-1.216.632-4.861,2.482s-16.857,5.152-24.248.317c-1.266-.828-1.955-2.218-2.588-2.165" transform="translate(-150.198 -99.977)" fill="#5fb0a2"/>
        <path id="Trazado_900842" data-name="Trazado 900842" d="M514.294,265.575a1.036,1.036,0,1,1-1-1.294,1.178,1.178,0,0,1,1,1.294" transform="translate(-194.904 -100.548)" fill="#151748"/>
        <path id="Trazado_900843" data-name="Trazado 900843" d="M505.96,262.169c-.761,0-1.52-.727-2.321-2.218a.31.31,0,0,1,.546-.293c.9,1.673,1.522,1.889,1.8,1.891.486-.022.882-.711,1.128-1.285.783-1.825,1.982-4.751,1.994-4.78a.31.31,0,1,1,.574.235c-.012.03-1.213,2.959-2,4.789-.46,1.073-1.022,1.631-1.67,1.66h-.052" transform="translate(-191.599 -97.128)"/>
        <path id="Trazado_900844" data-name="Trazado 900844" d="M519.129,262.884q-.19,0-.378-.014c-2.475-.19-3.264-2.971-3.96-5.424-.143-.506-.282-1-.432-1.442a.31.31,0,0,1,.588-.2c.152.455.294.955.44,1.47.641,2.259,1.368,4.819,3.411,4.976,2.756.208,5.722-2.258,7.034-3.751a.31.31,0,1,1,.466.409c-1.33,1.514-4.28,3.974-7.169,3.974" transform="translate(-195.686 -97.243)"/>
        <path id="Trazado_900845" data-name="Trazado 900845" d="M473.649,317.289a.31.31,0,0,1-.3-.243c-.4-1.839-.809-3.606-1.185-5.229-.758-3.274-1.357-5.861-1.516-7.4a.31.31,0,0,1,.616-.064c.156,1.506.78,4.2,1.5,7.329.377,1.625.786,3.4,1.186,5.237a.309.309,0,0,1-.237.368.3.3,0,0,1-.066.007" transform="translate(-179.061 -115.686)"/>
        <path id="Trazado_900846" data-name="Trazado 900846" d="M560.358,326.72a.31.31,0,0,1-.291-.2,120.207,120.207,0,0,0-6.239-12.767c-.4-.75-.756-1.406-1.035-1.935a.31.31,0,1,1,.548-.288c.278.526.63,1.182,1.032,1.93a120.587,120.587,0,0,1,6.275,12.846.31.31,0,0,1-.29.417" transform="translate(-210.301 -118.46)"/>
        <path id="Trazado_900847" data-name="Trazado 900847" d="M378.761,289.575a.309.309,0,0,1-.209-.082,13.857,13.857,0,0,1-3.1-5.116.31.31,0,0,1,.6-.156,13.306,13.306,0,0,0,2.921,4.816.31.31,0,0,1-.209.538" transform="translate(-142.84 -108.046)"/>
        <path id="Trazado_900848" data-name="Trazado 900848" d="M386.738,290.014a.309.309,0,0,1-.143-.035c-2.627-1.366-3.552-4.417-4-5.884l-.065-.216a.309.309,0,0,1,.592-.182l.066.217c.42,1.386,1.294,4.269,3.689,5.515a.31.31,0,0,1-.142.584" transform="translate(-145.533 -107.852)"/>
        <path id="Trazado_900849" data-name="Trazado 900849" d="M397.52,290.391a3.931,3.931,0,0,1-1.722-.379c-1.256-.6-2.163-1.856-2.777-3.831a.31.31,0,0,1,.592-.184,5.245,5.245,0,0,0,2.453,3.456,4.283,4.283,0,0,0,3.478-.113.31.31,0,1,1,.226.577,6.191,6.191,0,0,1-2.249.473" transform="translate(-149.523 -108.727)"/>
        <path id="Trazado_900850" data-name="Trazado 900850" d="M400.544,287.019a.311.311,0,0,1-.277-.171c-.024-.049-.594-1.191-1.019-2.357a.31.31,0,0,1,.582-.212c.413,1.133.985,2.281.99,2.292a.31.31,0,0,1-.277.449" transform="translate(-151.89 -108.079)"/>
        <path id="Trazado_900851" data-name="Trazado 900851" d="M393.145,293.04a.31.31,0,0,1-.061-.613,6.556,6.556,0,0,0,1.976-1.2.31.31,0,0,1,.4.475,7.063,7.063,0,0,1-2.251,1.335.3.3,0,0,1-.061.006" transform="translate(-149.457 -110.771)"/>
        <path id="Trazado_900852" data-name="Trazado 900852" d="M240.93,198.01A21.132,21.132,0,1,1,219.8,176.879,21.131,21.131,0,0,1,240.93,198.01" transform="translate(-75.585 -67.295)" fill="#aad5ce"/>
        <path id="Trazado_900853" data-name="Trazado 900853" d="M250.738,186.882a21.113,21.113,0,0,0-17.962-10V198.01s11.982-6.477,17.962-11.128" transform="translate(-88.562 -67.295)" fill="#5fb0a2"/>
        <path id="Trazado_900854" data-name="Trazado 900854" d="M232.775,203.676l20.875,3.287a21.153,21.153,0,0,0-3.417-15.192c-6.071,4.172-17.459,11.905-17.459,11.905" transform="translate(-88.561 -72.961)" fill="#151748"/>
        <path id="Trazado_900855" data-name="Trazado 900855" d="M75.235,159.175c-1.821-4.481-9.108-12.9-20.239-8.065S43.36,165.178,39.514,177.006,29.393,201.2,27.471,207.291s-.909,15.949,8.7,14.157c-.4,7.886,11.456,9.276,16.545,6.272a14.042,14.042,0,0,0,6.815-14.342c4.15,1.7,15.86-2.348,11.9-14.4-5.73-17.414-7.646-36.313,1.322-36.313,5.92-4.435,2.483-3.489,2.483-3.489" transform="translate(-10.146 -56.938)" fill="#151748"/>
        <path id="Trazado_900856" data-name="Trazado 900856" d="M105.333,164.829c-1.548-1.686-3.87-2.981-5.806-.09-1.683,2.513-2.419,5.6.872,6.263,2.158.434,5.708-3.162,4.934-6.173" transform="translate(-37.322 -62.026)" fill="#5fb0a2"/>
        <path id="Trazado_900857" data-name="Trazado 900857" d="M113.717,220.036c.423-1.9,1.81-11.738,1.81-11.738l5.283-7.819c-5.785-6.075,2.852-15.743,7.5-7.819,2.113-.528,1.69-17.011,4.965-19.44s13.1-1.691,13.1-1.691c2.641,3.17,3.487,7.713,2.852,12.784s-1.585,6.551.846,8.981,4.542,4.227.739,6.974c-2.325,1.584-2.43,2.218-2.852,5.176s-.74,6.34-5.706,7.608a26.647,26.647,0,0,1-10.143.739c-.74-.105-1.9,5.495-2.43,8.452s-15.968-2.207-15.968-2.207" transform="translate(-43.265 -65.219)" fill="#ff7e7d"/>
        <path id="Trazado_900858" data-name="Trazado 900858" d="M208.217,260.65c3.064-3.381,5.072-7.185,9.4-7.819s7.29-.845,9.509-1.479,2.642-1.479,3.91,0c.633-4.332,2.747-6.128,3.487-3.17,1.584-3.064,3.8-2.746,3.274-.105,2.431-2.325,4.332-1.794,3.593.634s-2.536,6.972-5.811,8.346-10.566-.318-13.629,3.064a100.279,100.279,0,0,0-6.339,8.03Z" transform="translate(-79.218 -93.589)" fill="#ff7e7d"/>
        <path id="Trazado_900859" data-name="Trazado 900859" d="M233.692,259.318a.31.31,0,0,1-.033-.618c2.377-.255,5.917-1.4,6.508-2.316.645-1,.618-1.769-.08-2.276a.31.31,0,1,1,.364-.5c.569.414,1.358,1.369.237,3.113-.839,1.3-4.979,2.384-6.963,2.6l-.033,0" transform="translate(-88.792 -96.465)"/>
        <path id="Trazado_900860" data-name="Trazado 900860" d="M244.522,255.224a.31.31,0,1,1,0-.62,4.515,4.515,0,0,0,3.931-1.89c.6-.752,1.079-1.426,1.5-2.02a13.463,13.463,0,0,1,1.537-1.924.31.31,0,1,1,.423.452,13.206,13.206,0,0,0-1.456,1.832c-.429.6-.917,1.281-1.523,2.045a5.133,5.133,0,0,1-4.416,2.124" transform="translate(-92.913 -94.615)"/>
        <path id="Trazado_900861" data-name="Trazado 900861" d="M246.994,254.478a.306.306,0,0,1-.175-.055.31.31,0,0,1-.08-.431,11.475,11.475,0,0,0,.753-1.842,13.976,13.976,0,0,1,2.021-4.215.31.31,0,0,1,.456.42,13.694,13.694,0,0,0-1.893,4,10.893,10.893,0,0,1-.826,1.984.311.311,0,0,1-.256.134" transform="translate(-93.853 -94.291)"/>
        <path id="Trazado_900862" data-name="Trazado 900862" d="M145.325,260.816c1.664-1.9,3.407-4.754,5.547-2.932s8.32,5.943,9.747,7.052,3.17,1.743,1.426,4.2-18.146,23.852-25.357,30.9-13.551,8.4-23.693-3.091c-1.982,4.279-8.558,6.815-9.668,11.332s-.844,18.569-.844,18.569L63.6,326.639S71.032,297.3,74.36,288.665s4.8-16.728,12.081-28.964c3.058-5.14,5.7-6.9,7.28-13.475.238-1.426.343-2.723,2.323-2.168s13.7,3.842,14.891,4.476-.4,3.486-2.061,9.746c5.151,4.121,11.331,12.758,14.422,16.8s6.023,6.577,8.717,3.566,13.313-17.83,13.313-17.83" transform="translate(-24.198 -92.804)" fill="#7967cc"/>
        <path id="Trazado_900863" data-name="Trazado 900863" d="M133.606,318.95a.307.307,0,0,1-.221-.093c-3.4-3.475-14.9-16.088-16.585-18.252a.31.31,0,1,1,.489-.38c1.676,2.155,13.15,14.732,16.539,18.2a.31.31,0,0,1-.221.527" transform="translate(-44.413 -114.177)"/>
        <path id="Trazado_900864" data-name="Trazado 900864" d="M133.257,266.34a.308.308,0,0,1-.2-.076,13.312,13.312,0,0,0-6.928-3.014.31.31,0,1,1,0-.62,13.794,13.794,0,0,1,7.336,3.166.31.31,0,0,1-.2.543" transform="translate(-47.867 -99.92)"/>
        <path id="Trazado_900865" data-name="Trazado 900865" d="M108.407,203.179c1.48-.105,2.932-1.8,5.151-8.03a7.02,7.02,0,0,1,1.373-9.509c2.853-2.219,4.86.107,6.34,2.748s2.43,2.958,3.7,2.219,4.928-6.1.7-17.408c-.687-2.009.776-3.934,4.158-3.617s7.079.317,9.932-2.43c.845-1.268-1-4.718-7.584-7.661-5.047-2.256-21.185-4.763-30.345,4.808-6.326,6.609-7.347,12.732-7.152,16.935.31,6.66,5.488,17.175,13.728,21.947" transform="translate(-36.013 -59.89)" fill="#151748"/>
        <path id="Trazado_900866" data-name="Trazado 900866" d="M127.847,219.185a4.688,4.688,0,0,1-4.344-2.791.31.31,0,1,1,.554-.277c1.164,2.328,3.505,3.043,6.262,1.912a.31.31,0,1,1,.235.574,7.189,7.189,0,0,1-2.707.582" transform="translate(-46.975 -82.158)"/>
        <path id="Trazado_900867" data-name="Trazado 900867" d="M166.582,224.006a.293.293,0,0,1-.04,0c-1.654-.217-3.135-2.258-3.869-4.186a.31.31,0,0,1,.579-.22c.647,1.7,1.978,3.608,3.37,3.791a.31.31,0,0,1-.04.617" transform="translate(-61.882 -83.472)"/>
        <path id="Trazado_900868" data-name="Trazado 900868" d="M140.493,238.572l-.036,0a16.057,16.057,0,0,1-6.337-2.758.31.31,0,0,1,.383-.488,15.569,15.569,0,0,0,6.025,2.63.31.31,0,0,1-.035.618" transform="translate(-50.982 -89.506)"/>
        <path id="Trazado_900869" data-name="Trazado 900869" d="M157.718,191.891a.31.31,0,0,1-.2-.545,8.206,8.206,0,0,1,5.936-1.9.31.31,0,0,1,.28.337.313.313,0,0,1-.337.28,7.554,7.554,0,0,0-5.475,1.749.309.309,0,0,1-.2.075" transform="translate(-59.887 -72.065)"/>
        <path id="Trazado_900870" data-name="Trazado 900870" d="M161.939,201.473a.31.31,0,0,1-.2-.548,13.839,13.839,0,0,0,1.377-1.612.31.31,0,1,1,.5.371,14.744,14.744,0,0,1-1.475,1.717.309.309,0,0,1-.2.072" transform="translate(-61.493 -75.783)"/>
        <path id="Trazado_900871" data-name="Trazado 900871" d="M161.64,201.693c-.849-.077-2.166,3.275-.9,3.487s2.061-3.381.9-3.487" transform="translate(-60.956 -76.735)"/>
        <path id="Rectángulo_404639" data-name="Rectángulo 404639" d="M12.278,0h21.3a12.28,12.28,0,0,1,12.28,12.28V34A12.278,12.278,0,0,1,33.577,46.277h-21.3A12.278,12.278,0,0,1,0,34V12.278A12.278,12.278,0,0,1,12.278,0Z" transform="translate(216.821 124.014)" fill="#f1efef"/>
        <path id="Trazado_900872" data-name="Trazado 900872" d="M370.519,245.612a3.709,3.709,0,0,1-7.418,0V229.758a3.709,3.709,0,0,1,7.418,0Z" transform="translate(-138.145 -86.002)" fill="#aad5ce"/>
        <path id="Trazado_900873" data-name="Trazado 900873" d="M387.25,241.962a3.71,3.71,0,0,1-7.419,0v-21.8a3.71,3.71,0,0,1,7.419,0Z" transform="translate(-144.51 -82.352)" fill="#54478d"/>
        <path id="Trazado_900874" data-name="Trazado 900874" d="M403.982,238.653a3.709,3.709,0,0,1-7.418,0V211.469a3.709,3.709,0,0,1,7.418,0Z" transform="translate(-150.876 -79.044)" fill="#151748"/>
        <path id="Trazado_900875" data-name="Trazado 900875" d="M401.5,378.357H34.587a.62.62,0,0,1,0-1.239H401.5a.62.62,0,0,1,0,1.239" transform="translate(-12.923 -143.478)" fill="#151748"/>
      </g>
    </g>
  </g>
</svg>
