<svg xmlns="http://www.w3.org/2000/svg" xmlns:xlink="http://www.w3.org/1999/xlink" width="505" height="370.308" viewBox="0 0 505 370.308">
  <defs>
    <clipPath id="clip-path">
      <rect id="Rectángulo_9053" data-name="Rectángulo 9053" width="471.134" height="370.308" fill="none" opacity="0"/>
    </clipPath>
  </defs>
  <g id="Grupo_70473" data-name="Grupo 70473" transform="translate(-180 -2949.207)">
    <g id="Grupo_70472" data-name="Grupo 70472" transform="translate(471.454 2967.371)">
      <g id="Grupo_58631" data-name="Grupo 58631">
        <path id="Trazado_111056" data-name="Trazado 111056" d="M13624.6,3202.23h206.36v196.54a16.22,16.22,0,0,1-16.22,16.22H13624.6V3202.23Z" transform="translate(-13624.6 -3202.23)" fill="#e2dacc"/>
        <g id="Grupo_58630" data-name="Grupo 58630" transform="translate(22.681 62.54)">
          <path id="Trazado_111057" data-name="Trazado 111057" d="M13442.9,3052.89c0,.43-37.3.78-83.3.78s-83.3-.35-83.3-.78,37.29-.78,83.3-.78S13442.9,3052.46,13442.9,3052.89Z" transform="translate(-13276.28 -3052.11)" fill="#8454ee"/>
          <path id="Trazado_111058" data-name="Trazado 111058" d="M13360.6,3067.3c0,.43-18.43.78-41.15.78s-41.16-.35-41.16-.78,18.42-.78,41.16-.78S13360.6,3066.87,13360.6,3067.3Z" transform="translate(-13276.28 -3052.11)" fill="#8454ee"/>
          <path id="Trazado_111059" data-name="Trazado 111059" d="M13393.5,3066c0,.43-4.88.78-10.9.78s-10.9-.35-10.9-.78,4.88-.78,10.9-.78S13393.5,3065.54,13393.5,3066Z" transform="translate(-13276.28 -3052.11)" fill="#8454ee"/>
          <path id="Trazado_111060" data-name="Trazado 111060" d="M13447.3,3065.08c0,.43-9.66.78-21.58.78s-21.58-.35-21.58-.78,9.66-.78,21.58-.78S13447.3,3064.65,13447.3,3065.08Z" transform="translate(-13276.28 -3052.11)" fill="#8454ee"/>
          <path id="Trazado_111061" data-name="Trazado 111061" d="M13353.7,3081.1c0,.43-17.34.78-38.71.78s-38.71-.35-38.71-.78,17.33-.79,38.71-.79S13353.7,3080.66,13353.7,3081.1Z" transform="translate(-13276.28 -3052.11)" fill="#8454ee"/>
          <path id="Trazado_111062" data-name="Trazado 111062" d="M13447.3,3080.7c0,.43-18.93.78-42.27.78s-42.27-.35-42.27-.78,18.93-.78,42.27-.78S13447.3,3080.27,13447.3,3080.7Z" transform="translate(-13276.28 -3052.11)" fill="#8454ee"/>
          <path id="Trazado_111063" data-name="Trazado 111063" d="M13447.3,3094.58c0,.43-8.43.78-18.82.78s-18.82-.35-18.82-.78,8.42-.78,18.82-.78S13447.3,3094.15,13447.3,3094.58Z" transform="translate(-13276.28 -3052.11)" fill="#8454ee"/>
        </g>
        <path id="Trazado_111064" data-name="Trazado 111064" d="M13369.5,3037.44c0,.43-20.42.78-45.61.78s-45.6-.35-45.6-.78,20.41-.78,45.6-.78S13369.5,3037,13369.5,3037.44Z" transform="translate(-13253.6 -2989.57)" fill="#fd9827"/>
      </g>
      <text id="Retorno" transform="translate(58.883 13.184)" fill="#5ab4f9" font-size="18" font-family="Roboto-Black, Roboto" font-weight="800"><tspan x="-32.322" y="19">Retorno</tspan></text>
    </g>
    <g id="Grupo_70236" data-name="Grupo 70236" transform="translate(180 2960)">
      <rect id="Rectángulo_31121" data-name="Rectángulo 31121" width="504.165" height="348.721" transform="translate(0 0)" fill="none"/>
    </g>
    <g id="Grupo_58634" data-name="Grupo 58634" transform="translate(180 3008.426)">
      <g id="Grupo_58632" data-name="Grupo 58632">
        <rect id="Rectángulo_9042" data-name="Rectángulo 9042" width="342.525" height="226.504" rx="14.57" transform="translate(13.823)" fill="#344154"/>
        <path id="Trazado_111065" data-name="Trazado 111065" d="M13375,3583.9h371.1v5.593a14.223,14.223,0,0,1-14.223,14.223h-342.653a14.223,14.223,0,0,1-14.223-14.222Z" transform="translate(-13375 -3374.151)" fill="#344154"/>
        <rect id="Rectángulo_9043" data-name="Rectángulo 9043" width="323.173" height="191.283" transform="translate(23.492 8.997)" fill="#8454ee"/>
        <path id="Trazado_111066" data-name="Trazado 111066" d="M13194,3371.2h5.665l15.661-.064,52.353-.112h.392l-.2.328c-.655,1.135-1.366,2.341-2.077,3.564l-2.2,3.763-.064.112h-.128l-64.794-.12h-.057v-.048l-3.4-5.521-.847-1.4-.279-.464.328.488c.207.335.511.8.9,1.406l3.46,5.378-.079-.04,64.794-.128-.192.112,2.2-3.763,2.077-3.556.192.328-52.138-.112-15.733-.064h-5.41Z" transform="translate(-13042.182 -3161.447)" fill="#8454ee"/>
      </g>
      <g id="Grupo_58633" data-name="Grupo 58633" transform="translate(13.823 209.541)">
        <line id="Línea_352" data-name="Línea 352" x2="342.549" transform="translate(0 0.208)" fill="#344154"/>
        <path id="Trazado_111067" data-name="Trazado 111067" d="M13363.857,3371.188c0,.12-76.709.216-171.252.216s-171.266-.1-171.266-.216,76.707-.208,171.266-.208S13363.857,3371.076,13363.857,3371.188Z" transform="translate(-13021.308 -3370.98)" fill="#8454ee"/>
      </g>
    </g>
    <g id="Grupo_58636" data-name="Grupo 58636" transform="translate(208.311 3010.546)">
      <path id="Trazado_111068" data-name="Trazado 111068" d="M13396.718,3072.19h0a9.589,9.589,0,0,1,9.589,9.588v19.633H13377.7V3083.3a11.092,11.092,0,0,1,11.083-11.091Z" transform="translate(-13219.857 -3071.927)" fill="#344154"/>
      <path id="Trazado_111069" data-name="Trazado 111069" d="M13371.174,3072.124c0,.12-27,.184-60.288.16s-60.3-.152-60.3-.264,26.992-.184,60.3-.152S13371.174,3072.012,13371.174,3072.124Z" transform="translate(-13194.313 -3071.86)" fill="#344154"/>
      <path id="Trazado_111070" data-name="Trazado 111070" d="M13356.9,3072.14l-11.929-.08-17.332.1h-127.319a19.576,19.576,0,0,0-19.576,19.576v210.4h164.891V3082.9C13346.109,3072.164,13356.9,3072.14,13356.9,3072.14Z" transform="translate(-13180.276 -3071.901)" fill="#fafafa"/>
      <path id="Trazado_111071" data-name="Trazado 111071" d="M13356.78,3072.1l-99.416.216-49.717.04h-6.208c-1.046,0-2.062.04-3.085.1a19.982,19.982,0,0,0-3.012.543,19.226,19.226,0,0,0-13.183,11.826,15.027,15.027,0,0,0-.5,1.454l-.384,1.478a21.834,21.834,0,0,0-.352,3.044c-.089,4.115,0,8.278-.04,12.417l.136,198.842-.4-.392,164.891.1-.3.288.079-118.258.1-59.129.063-29.564v-11.083a12.81,12.81,0,0,1,.08-1.846,10.738,10.738,0,0,1,.287-1.83,9.76,9.76,0,0,1,4-6.016,11.574,11.574,0,0,1,3.315-1.6A13.974,13.974,0,0,1,13356.78,3072.1Zm0,0a14.4,14.4,0,0,0-3.627.647,11.618,11.618,0,0,0-3.3,1.6,9.737,9.737,0,0,0-3.994,6.009,10.069,10.069,0,0,0-.28,1.813,11.891,11.891,0,0,0-.07,1.846V3095.1l.056,29.565.1,59.129.079,118.258v.3h-.288l-164.891.1h-.4v-.4l.136-198.842c0-4.147,0-8.278.057-12.441a21.427,21.427,0,0,1,.366-3.116l.393-1.526c.12-.511.344-.991.512-1.486a19.715,19.715,0,0,1,13.535-12.114,21.3,21.3,0,0,1,3.085-.551c1.047-.056,2.1-.12,3.133-.1h55.924Z" transform="translate(-13180.16 -3071.863)" fill="#344154"/>
      <path id="Trazado_111072" data-name="Trazado 111072" d="M13340.969,3122.123c0,.344-15.87.623-35.446.623s-35.453-.28-35.453-.623,15.869-.623,35.453-.623S13340.969,3121.78,13340.969,3122.123Z" transform="translate(-13198.228 -3081.836)" fill="#fd9827"/>
      <path id="Trazado_111073" data-name="Trazado 111073" d="M13299.2,3136.3c0,.343-6.136.623-13.7.623s-13.711-.28-13.711-.623,6.136-.624,13.711-.624S13299.2,3135.936,13299.2,3136.3Z" transform="translate(-13198.573 -3084.685)" fill="#8454ee"/>
      <path id="Trazado_111074" data-name="Trazado 111074" d="M13249.808,3179.543c0,.344-11.658.624-26.025.624s-26.032-.28-26.032-.624,11.649-.623,26.032-.623S13249.808,3179.2,13249.808,3179.543Z" transform="translate(-13183.694 -3093.375)" fill="#8454ee"/>
      <path id="Trazado_111075" data-name="Trazado 111075" d="M13323.607,3179.543c0,.344-11.657.624-26.032.624s-26.025-.28-26.025-.624,11.65-.623,26.025-.623S13323.607,3179.2,13323.607,3179.543Z" transform="translate(-13198.525 -3093.375)" fill="#fd9827"/>
      <path id="Trazado_111076" data-name="Trazado 111076" d="M13249.808,3191.093c0,.343-11.658.623-26.025.623s-26.032-.28-26.032-.623,11.649-.624,26.032-.624S13249.808,3190.75,13249.808,3191.093Z" transform="translate(-13183.694 -3095.696)" fill="#8454ee"/>
      <path id="Trazado_111077" data-name="Trazado 111077" d="M13249.808,3202.643c0,.344-11.658.623-26.025.623s-26.032-.28-26.032-.623,11.649-.623,26.032-.623S13249.808,3202.3,13249.808,3202.643Z" transform="translate(-13183.694 -3098.017)" fill="#fd9827"/>
      <path id="Trazado_111078" data-name="Trazado 111078" d="M13299.2,3159.843c0,.344-6.136.623-13.7.623s-13.711-.28-13.711-.623,6.136-.623,13.711-.623S13299.2,3159.484,13299.2,3159.843Z" transform="translate(-13198.573 -3089.416)" fill="#8454ee"/>
      <path id="Trazado_111079" data-name="Trazado 111079" d="M13361,3179.543c0,.344-4.092.624-9.141.624s-9.133-.28-9.133-.624,4.09-.623,9.133-.623S13361,3179.2,13361,3179.543Z" transform="translate(-13212.83 -3093.375)" fill="#8454ee"/>
      <path id="Trazado_111080" data-name="Trazado 111080" d="M13359.969,3136.3c0,.343-10.53.623-23.516.623s-23.523-.28-23.523-.623,10.531-.624,23.523-.624S13359.969,3135.936,13359.969,3136.3Z" transform="translate(-13206.841 -3084.685)" fill="#8454ee"/>
      <path id="Trazado_111081" data-name="Trazado 111081" d="M13349.553,3147.563c0,.344-17.4.623-38.857.623s-38.865-.28-38.865-.623,17.4-.623,38.865-.623S13349.553,3147.22,13349.553,3147.563Z" transform="translate(-13198.582 -3086.948)" fill="#8454ee"/>
      <path id="Trazado_111082" data-name="Trazado 111082" d="M13346.7,3191.093c0,.343-16.836.623-37.6.623s-37.555-.28-37.555-.623,16.827-.624,37.555-.624S13346.7,3190.75,13346.7,3191.093Z" transform="translate(-13198.523 -3095.696)" fill="#8454ee"/>
      <path id="Trazado_111083" data-name="Trazado 111083" d="M13347.853,3224.523c0,.344-15.8.624-35.285.624s-35.278-.28-35.278-.624,15.789-.623,35.278-.623S13347.853,3224.18,13347.853,3224.523Z" transform="translate(-13199.679 -3102.414)" fill="#fd9827"/>
      <path id="Trazado_111084" data-name="Trazado 111084" d="M13347.853,3235.763c0,.343-15.8.623-35.285.623s-35.278-.28-35.278-.623,15.789-.624,35.278-.624S13347.853,3235.419,13347.853,3235.763Z" transform="translate(-13199.679 -3104.672)" fill="#8454ee"/>
      <path id="Trazado_111085" data-name="Trazado 111085" d="M13347.853,3247c0,.344-15.8.624-35.285.624s-35.278-.28-35.278-.624,15.789-.623,35.278-.623S13347.853,3246.66,13347.853,3247Z" transform="translate(-13199.679 -3106.931)" fill="#8454ee"/>
      <path id="Trazado_111086" data-name="Trazado 111086" d="M13347.853,3258.243c0,.344-15.8.623-35.285.623s-35.278-.28-35.278-.623,15.789-.623,35.278-.623S13347.853,3257.924,13347.853,3258.243Z" transform="translate(-13199.679 -3109.19)" fill="#8454ee"/>
      <path id="Trazado_111087" data-name="Trazado 111087" d="M13317.973,3269.483c0,.176-2.276.327-5.953.439s-8.749.184-14.382.184-10.691-.072-14.383-.184-5.945-.264-5.945-.439,2.269-.328,5.945-.44,8.789-.184,14.383-.184,10.683.072,14.382.184S13317.973,3269.315,13317.973,3269.483Z" transform="translate(-13199.683 -3111.449)" fill="#8454ee"/>
      <path id="Trazado_111088" data-name="Trazado 111088" d="M13334.327,3203.243c0,.343-13.584.623-30.364.623s-30.363-.28-30.363-.623,13.584-.624,30.363-.624S13334.327,3202.924,13334.327,3203.243Z" transform="translate(-13198.938 -3098.137)" fill="#8454ee"/>
      <g id="Grupo_58635" data-name="Grupo 58635" transform="translate(74.614 208.382)">
        <path id="Trazado_111089" data-name="Trazado 111089" d="M13276.384,3334.072a1.422,1.422,0,1,1-1.423-1.422A1.422,1.422,0,0,1,13276.384,3334.072Z" transform="translate(-13273.539 -3332.65)" fill="#344154"/>
        <path id="Trazado_111090" data-name="Trazado 111090" d="M13286.984,3334.072a1.422,1.422,0,1,1-1.422-1.422A1.422,1.422,0,0,1,13286.984,3334.072Z" transform="translate(-13275.669 -3332.65)" fill="#344154"/>
        <path id="Trazado_111091" data-name="Trazado 111091" d="M13297.584,3334.072a1.423,1.423,0,1,1-1.423-1.422A1.423,1.423,0,0,1,13297.584,3334.072Z" transform="translate(-13277.799 -3332.65)" fill="#344154"/>
      </g>
      <path id="Trazado_111092" data-name="Trazado 111092" d="M13324.107,3292.9c0,.344-11.649.623-26.024.623s-26.033-.28-26.033-.623,11.65-.623,26.033-.623S13324.107,3292.56,13324.107,3292.9Z" transform="translate(-13198.626 -3116.155)" fill="#fd9827"/>
      <path id="Trazado_111093" data-name="Trazado 111093" d="M13347.188,3304.453c0,.344-16.836.623-37.6.623s-37.6-.28-37.6-.623,16.836-.623,37.6-.623S13347.188,3304.11,13347.188,3304.453Z" transform="translate(-13198.613 -3118.476)" fill="#8454ee"/>
    </g>
    <g id="Grupo_58646" data-name="Grupo 58646" transform="translate(525.872 3159.292)">
      <g id="Grupo_58638" data-name="Grupo 58638" transform="translate(27.084 17.26)">
        <rect id="Rectángulo_9044" data-name="Rectángulo 9044" width="91.157" height="114.012" transform="translate(0 91.155) rotate(-89.63)" fill="#e2dacc"/>
        <rect id="Rectángulo_9045" data-name="Rectángulo 9045" width="79.68" height="106.004" transform="translate(3.95 85.511) rotate(-89.63)" fill="#fd9827"/>
        <path id="Trazado_111094" data-name="Trazado 111094" d="M13791.5,3607.784l37.326-49.295,22.688,31.142,15.621-16.459,30.254,35.3Z" transform="translate(-13788.261 -3522.476)" fill="#fd9827" opacity="0.2"/>
        <g id="Grupo_58637" data-name="Grupo 58637" transform="translate(56.576 21.773)" opacity="0.2">
          <path id="Trazado_111095" data-name="Trazado 111095" d="M13469.646,3345.572a8.354,8.354,0,1,1-8.222-8.4,8.361,8.361,0,0,1,8.222,8.4Z" transform="translate(-13452.938 -3337.169)" fill="#fd9827"/>
        </g>
      </g>
      <g id="Grupo_58640" data-name="Grupo 58640" transform="translate(24.807 7.778)">
        <rect id="Rectángulo_9046" data-name="Rectángulo 9046" width="91.157" height="114.012" transform="translate(0 91.155) rotate(-89.63)" fill="#e2dacc"/>
        <rect id="Rectángulo_9047" data-name="Rectángulo 9047" width="79.68" height="106.004" transform="translate(3.982 85.526) rotate(-89.63)" fill="#fd9827"/>
        <path id="Trazado_111096" data-name="Trazado 111096" d="M13781.3,3601.988l37.324-49.278,22.691,31.125,15.619-16.459,30.419,35.3Z" transform="translate(-13778.084 -3516.718)" fill="#fd9827" opacity="0.2"/>
        <g id="Grupo_58639" data-name="Grupo 58639" transform="translate(56.555 21.735)" opacity="0.2">
          <path id="Trazado_111097" data-name="Trazado 111097" d="M13459.444,3339.782a8.353,8.353,0,1,1-8.223-8.4A8.351,8.351,0,0,1,13459.444,3339.782Z" transform="translate(-13442.739 -3331.379)" fill="#fd9827"/>
        </g>
      </g>
      <g id="Grupo_58642" data-name="Grupo 58642" transform="translate(16.392)">
        <rect id="Rectángulo_9048" data-name="Rectángulo 9048" width="91.157" height="114.012" transform="translate(0 91.155) rotate(-89.63)" fill="#e2dacc"/>
        <rect id="Rectángulo_9049" data-name="Rectángulo 9049" width="79.68" height="106.004" transform="translate(3.966 85.359) rotate(-89.63)" fill="#fd9827"/>
        <path id="Trazado_111098" data-name="Trazado 111098" d="M13772.2,3597.214l37.324-49.295,22.854,31.143,15.619-16.475,30.256,35.3Z" transform="translate(-13769.085 -3512.026)" fill="#fd9827" opacity="0.2"/>
        <g id="Grupo_58641" data-name="Grupo 58641" transform="translate(56.453 21.637)" opacity="0.2">
          <path id="Trazado_111099" data-name="Trazado 111099" d="M13450.346,3334.992a8.353,8.353,0,1,1-8.223-8.4,8.355,8.355,0,0,1,8.223,8.4Z" transform="translate(-13433.64 -3326.59)" fill="#fd9827"/>
        </g>
      </g>
      <g id="Grupo_58644" data-name="Grupo 58644" transform="translate(12.218 9.683)">
        <rect id="Rectángulo_9050" data-name="Rectángulo 9050" width="91.157" height="114.012" transform="translate(0 91.155) rotate(-89.63)" fill="#e2dacc"/>
        <rect id="Rectángulo_9051" data-name="Rectángulo 9051" width="79.68" height="106.004" transform="translate(3.982 85.507) rotate(-89.63)" fill="#8454ee"/>
        <path id="Trazado_111100" data-name="Trazado 111100" d="M13762.1,3603.158l37.324-49.279,22.691,31.126,15.62-16.459,30.255,35.3Z" transform="translate(-13758.862 -3517.869)" fill="#fd9827" opacity="0.2"/>
        <g id="Grupo_58643" data-name="Grupo 58643" transform="translate(56.577 21.754)" opacity="0.2">
          <path id="Trazado_111101" data-name="Trazado 111101" d="M13440.245,3340.952a8.353,8.353,0,1,1-8.223-8.4,8.352,8.352,0,0,1,8.223,8.4Z" transform="translate(-13423.539 -3332.549)" fill="#fd9827"/>
        </g>
      </g>
      <g id="Grupo_58645" data-name="Grupo 58645" transform="translate(0 44.397)">
        <rect id="Rectángulo_9052" data-name="Rectángulo 9052" width="65.819" height="88.016" transform="translate(92.475)" fill="#344154"/>
        <path id="Trazado_111102" data-name="Trazado 111102" d="M13381.7,3339.85v88.017h98.182V3339.85Zm59.529,20.833h-20.844c-2.4-.167-4.291-2.831-4.291-6.059s1.887-5.892,4.291-6.059h20.844c2.406.167,4.293,2.83,4.293,6.059S13443.637,3360.515,13441.23,3360.683Z" transform="translate(-13381.701 -3339.833)" fill="#fd9827"/>
      </g>
    </g>
    <g id="Grupo_58664" data-name="Grupo 58664" transform="translate(196.993 3125.995)">
      <g id="Grupo_58663" data-name="Grupo 58663">
        <g id="Grupo_58660" data-name="Grupo 58660" transform="translate(0 41.217)">
          <rect id="Rectángulo_9054" data-name="Rectángulo 9054" width="50.205" height="137.364" fill="#5ab4f9"/>
          <rect id="Rectángulo_9055" data-name="Rectángulo 9055" width="31.587" height="59.653" transform="translate(9.224 9.029)" fill="#e2dacc"/>
          <path id="Trazado_111143" data-name="Trazado 111143" d="M13070.264,3375.031a12.4,12.4,0,1,1-3.63-8.78A12.412,12.412,0,0,1,13070.264,3375.031Z" transform="translate(-13032.806 -3266.711)" fill="#e2dacc"/>
          <rect id="Rectángulo_9056" data-name="Rectángulo 9056" width="19.749" height="5.074" transform="translate(15.234 20.029)" fill="#5ab4f9"/>
          <rect id="Rectángulo_9057" data-name="Rectángulo 9057" width="19.749" height="5.074" transform="translate(15.234 30.749)" fill="#5ab4f9"/>
        </g>
        <g id="Grupo_58661" data-name="Grupo 58661" transform="translate(54.369 18.463)">
          <rect id="Rectángulo_9058" data-name="Rectángulo 9058" width="50.205" height="160.146" fill="#5ab4f9"/>
          <rect id="Rectángulo_9059" data-name="Rectángulo 9059" width="31.587" height="59.653" transform="translate(9.365 9.029)" fill="#e2dacc"/>
          <path id="Trazado_111144" data-name="Trazado 111144" d="M13109.264,3375.052a12.412,12.412,0,1,1-12.411-12.411A12.411,12.411,0,0,1,13109.264,3375.052Z" transform="translate(-13071.665 -3243.949)" fill="#e2dacc"/>
          <rect id="Rectángulo_9060" data-name="Rectángulo 9060" width="19.749" height="5.074" transform="translate(15.235 20.029)" fill="#5ab4f9"/>
          <rect id="Rectángulo_9061" data-name="Rectángulo 9061" width="19.749" height="5.074" transform="translate(15.235 30.749)" fill="#5ab4f9"/>
        </g>
        <g id="Grupo_58662" data-name="Grupo 58662" transform="translate(108.878)">
          <rect id="Rectángulo_9062" data-name="Rectángulo 9062" width="50.205" height="178.609" fill="#5ab4f9"/>
          <rect id="Rectángulo_9063" data-name="Rectángulo 9063" width="31.587" height="59.653" transform="translate(9.225 9.029)" fill="#e2dacc"/>
          <path id="Trazado_111145" data-name="Trazado 111145" d="M13148.163,3375.052a12.411,12.411,0,1,1-12.411-12.411A12.411,12.411,0,0,1,13148.163,3375.052Z" transform="translate(-13110.705 -3225.486)" fill="#e2dacc"/>
          <rect id="Rectángulo_9064" data-name="Rectángulo 9064" width="19.749" height="5.074" transform="translate(15.235 20.029)" fill="#5ab4f9"/>
          <rect id="Rectángulo_9065" data-name="Rectángulo 9065" width="19.749" height="5.074" transform="translate(15.235 30.749)" fill="#5ab4f9"/>
        </g>
      </g>
    </g>
    <g id="Grupo_58659" data-name="Grupo 58659" transform="translate(213.866 2949.207)" clip-path="url(#clip-path)">
      <g id="Grupo_58658" data-name="Grupo 58658" transform="translate(-7.269 24.1)">
        <g id="Grupo_58651" data-name="Grupo 58651" transform="translate(0 139.232)">
          <g id="Grupo_58647" data-name="Grupo 58647" transform="translate(0 185.301)">
            <path id="Trazado_111103" data-name="Trazado 111103" d="M13567.245,3392.446l-160.885-8.783c-1.021-2.062-1.7-3.253-1.7-3.253l-43.528.777-14.184-.777s-.225.388-.569,1.044l-146.371,2.6c-29.179,0-59.857,15.878-59.857,36.147-.374,19.305,10.117,40.271,36.264,39.8l199.431-.6,199.428.6c26.146.469,33.021-13.588,33.111-30.283C13611.224,3398.671,13589.46,3392.7,13567.245,3392.446Z" transform="translate(-13140.145 -3380.41)" fill="#8454ee"/>
            <path id="Trazado_111104" data-name="Trazado 111104" d="M13176.4,3453.624h3.782l10.865-.08,40.136-.161,133.9-.161-.556.536c-.271-3.9-.571-8.033-.855-12.277-.6-8.608-1.2-17.069-1.757-25.129l.5.469-123.361-12.25-36.549-3.722-9.846-1.058-2.552-.294a5.886,5.886,0,0,1-.87-.134,7.087,7.087,0,0,1,.87,0l2.567.2,9.875.883,36.594,3.427,123.393,11.915h.464v.429c.569,8.033,1.154,16.507,1.771,25.116.286,4.2.585,8.381.855,12.276v.536h-.6l-133.9-.161-40.136-.147-10.867-.094h-2.821Z" transform="translate(-13121.981 -3373.993)" fill="#344154"/>
            <path id="Trazado_111105" data-name="Trazado 111105" d="M13218.086,3404.76c-.121.134-2.115-1.339-5.643-3.213a65.179,65.179,0,0,0-30.467-7.819c-4.114,0-6.666.214-6.7,0a6.177,6.177,0,0,1,1.771-.375,43.514,43.514,0,0,1,4.906-.389,57.817,57.817,0,0,1,30.919,7.926,38.393,38.393,0,0,1,3.931,2.678A12.3,12.3,0,0,1,13218.086,3404.76Z" transform="translate(-13122.544 -3376.163)" fill="#344154"/>
            <path id="Trazado_111106" data-name="Trazado 111106" d="M13463.693,3396.073c0,.267-31.669,7.109-70.873,15.275s-71.056,14.579-71.13,14.312,31.655-7.109,70.875-15.289S13463.693,3395.791,13463.693,3396.073Z" transform="translate(-13049.2 -3375.107)" fill="#344154"/>
            <path id="Trazado_111107" data-name="Trazado 111107" d="M13406.02,3394c.1.308-6.124,1.433-12.428,5.355s-9.816,8.568-10.1,8.368a9.4,9.4,0,0,1,2.165-3.146,33.613,33.613,0,0,1,16.3-9.894A12.023,12.023,0,0,1,13406.02,3394Z" transform="translate(-13018.242 -3375.806)" fill="#344154"/>
          </g>
          <path id="Trazado_111108" data-name="Trazado 111108" d="M13379.545,3272.3l51.031,79.135a30.44,30.44,0,0,1,1.021,31.783h0c-6.574,11.685-20.14,18.916-34.792,18.542l-78.244-1.968-2.07-25.437,68.923-11.768-46.529-71.732Z" transform="translate(-13051.806 -3231.735)" fill="#ffbf9d"/>
          <path id="Trazado_111109" data-name="Trazado 111109" d="M13245.68,3407.718l71.954,16.989,1.5-19.239-66.311-34.353,48.434-80.18-40.57-18.636-51.031,79.135h0a33.493,33.493,0,0,0-1.922,31.474c4.644,10.223,14.15,18.071,25.937,21.408Z" transform="translate(-13107.809 -3231.735)" fill="#ffbf9d"/>
          <path id="Trazado_111110" data-name="Trazado 111110" d="M13403.853,3333.372l49.169-23.094a218.068,218.068,0,0,0-21.012-31.341c-15.25-18.743-38.859-31.93-65.681-36.937h0l-56.571.6a82.69,82.69,0,0,0-20.174,4.137v-.187c-30.693,6.038-64.766,65.761-64.766,65.761l44.759,21.019.99,6.279a40.715,40.715,0,0,0,11.663,22.371l-13.046,76.458,145.263,2.677-18.493-54.756Z" transform="translate(-13097.728 -3242)" fill="#fd9827"/>
          <path id="Trazado_111111" data-name="Trazado 111111" d="M13268.424,3346.153a11.252,11.252,0,0,1-2.16-1.459,30.11,30.11,0,0,1-4.94-4.927,29.52,29.52,0,0,1-6-20.845,62.416,62.416,0,0,1,3.33-11.62c1.306-3.495,2.628-6.573,3.769-9.158s2.145-4.632,2.866-6.051a9.689,9.689,0,0,1,1.243-2.143,11.807,11.807,0,0,1-.838,2.29l-2.521,6.158c-1.051,2.6-2.3,5.7-3.542,9.184a67.174,67.174,0,0,0-3.182,11.46,29.754,29.754,0,0,0,5.6,20.323A57.974,57.974,0,0,0,13268.424,3346.153Z" transform="translate(-13082.523 -3225.756)" fill="#344154"/>
          <g id="Grupo_58648" data-name="Grupo 58648" transform="translate(155.882 129.621)">
            <path id="Trazado_111112" data-name="Trazado 111112" d="M13623.255,3636.761,13615,3551.48h176.96l-11.708,86.338Z" transform="translate(-13615 -3551.48)" fill="#344154"/>
            <path id="Trazado_111113" data-name="Trazado 111113" d="M13318.022,3375.335c0,5.555-5.048,10.057-11.275,10.055s-11.272-4.508-11.267-10.062,5.06-10.053,11.284-10.046a11.989,11.989,0,0,1,7.967,2.946A9.513,9.513,0,0,1,13318.022,3375.335Z" transform="translate(-13218.21 -3329.856)" fill="#fafafa"/>
          </g>
          <g id="Grupo_58650" data-name="Grupo 58650" transform="translate(241.286 231.556)">
            <path id="Trazado_111114" data-name="Trazado 111114" d="M13671.9,3627.621l30.02,3.735v29.132l-27.617-.643Z" transform="translate(-13671.9 -3627.621)" fill="#ffbf9d"/>
            <g id="Grupo_58649" data-name="Grupo 58649" transform="translate(30.019 3.749)">
              <path id="Trazado_111115" data-name="Trazado 111115" d="M13320.9,3417.76h13.509a16.435,16.435,0,0,1,7.5,1.781l7.128,3.667a116.434,116.434,0,0,0,12.444,5.354c8.208,2.357,22.033,5.517,24.931,7.525,8.315,5.717,5.794,12.464,1.23,13.174-4.007.616-66.716-2.329-66.716-2.329Z" transform="translate(-13320.9 -3417.76)" fill="#fd9827"/>
              <path id="Trazado_111116" data-name="Trazado 111116" d="M13336.209,3441.555c-.284.067-1.319-3.293-1.5-7.564s.644-7.685.945-7.631,0,3.427.18,7.6S13336.512,3441.5,13336.209,3441.555Z" transform="translate(-13313.997 -3414.847)" fill="#344154"/>
              <path id="Trazado_111117" data-name="Trazado 111117" d="M13340.173,3441.107c-.315,0-.542-3.106-.511-6.948s.315-6.948.63-6.948.542,3.12.5,6.962S13340.473,3441.12,13340.173,3441.107Z" transform="translate(-13311.505 -3414.558)" fill="#344154"/>
              <path id="Trazado_111118" data-name="Trazado 111118" d="M13345.487,3442.089c-.315,0-.84-3.173-1.186-7.136s-.376-7.176,0-7.2.839,3.173,1.186,7.122S13345.788,3442.062,13345.487,3442.089Z" transform="translate(-13309.315 -3414.376)" fill="#344154"/>
              <path id="Trazado_111119" data-name="Trazado 111119" d="M13336.287,3434.987a10.183,10.183,0,0,1-2.763-.777,26.524,26.524,0,0,1-6.754-3.722c-.63-.482-1.274-1.017-1.922-1.606a7.084,7.084,0,0,1-1.726-2.182,2.757,2.757,0,0,1,.374-2.986,2.7,2.7,0,0,1,1.683-.83,5.019,5.019,0,0,1,1.817.187,12.407,12.407,0,0,1,8.762,9.895,11.605,11.605,0,0,1-5.927,11.446,9.105,9.105,0,0,1-3.106,1.246,4.123,4.123,0,0,1-1.758-.081,2.269,2.269,0,0,1-1.365-1.071,2.723,2.723,0,0,1,.4-2.772,8.925,8.925,0,0,1,1.724-1.861,21.449,21.449,0,0,1,6.654-3.882,9.59,9.59,0,0,1,2.79-.71c0,.081-.959.349-2.612,1.072a22.2,22.2,0,0,0-6.259,4.016,8.374,8.374,0,0,0-1.5,1.74,2.13,2.13,0,0,0-.314,2.036,1.9,1.9,0,0,0,2.1.642,8.215,8.215,0,0,0,2.7-1.138,10.727,10.727,0,0,0,5.465-10.546,11.45,11.45,0,0,0-8.029-9.147,2.315,2.315,0,0,0-2.419.321,1.99,1.99,0,0,0-.27,2.129,12.145,12.145,0,0,0,3.3,3.548,37.9,37.9,0,0,0,8.943,5.035Z" transform="translate(-13319.928 -3416.03)" fill="#344154"/>
            </g>
            <path id="Trazado_111120" data-name="Trazado 111120" d="M13382.321,3449.123a7.929,7.929,0,0,0,1.638-1.834,6.246,6.246,0,0,0-.885-6.063,15.122,15.122,0,0,0-8.347-5.625c-3.812-1.218-8.36-1.807-12.967-3.092a95.96,95.96,0,0,1-22.3-9.064c-2.655-1.512-4.7-2.865-6.079-3.829a11.747,11.747,0,0,1-2.055-1.606,13.515,13.515,0,0,1,2.313,1.339c1.5.857,3.556,2.115,6.228,3.534a108.3,108.3,0,0,0,22.229,8.7c4.5,1.339,9,1.874,13,3.2a15.476,15.476,0,0,1,8.691,6.132,6.463,6.463,0,0,1,.571,6.6,4.463,4.463,0,0,1-1.385,1.338C13382.624,3449.07,13382.474,3449.15,13382.321,3449.123Z" transform="translate(-13285.664 -3413.927)" fill="#344154"/>
          </g>
          <path id="Trazado_111121" data-name="Trazado 111121" d="M13405.15,3257.742a1.409,1.409,0,0,1,0,.415,5.131,5.131,0,0,1-.1,1.191c-.105,1.125-.271,2.677-.481,4.659-.464,4.137-1.125,10.068-1.966,17.5v.456l-.45-.214-26.086-12.25.615-.147-14.168,21.313-.3.456-.479-.321-23.851-16.32h.677l-10.387,7.27-14.125,9.948-.524.361-.3-.522c-4.713-7.752-9.232-15.222-13.508-22.264l.675.2-28.623,11.38-.524.2-.09-.5c-1.667-8.756-3.107-16.373-4.322-22.759l.45.214-16.391,5.583-4.367,1.433-1.127.348a1.25,1.25,0,0,1-.391.094l.361-.161,1.1-.429,4.293-1.579,16.283-5.824.361-.134.076.348c1.274,6.332,2.806,13.937,4.5,22.679l-.629-.295,28.518-11.513.435-.174.24.375c4.277,7.042,8.826,14.5,13.509,22.25l-.84-.16,14.17-9.894,10.386-7.269.345-.241.348.241,23.819,16.36-.765.134,14.273-21.26.227-.348.39.187,25.966,12.451-.5.228c.959-7.417,1.741-13.388,2.279-17.4.286-1.981.5-3.521.66-4.646a7,7,0,0,1,.182-1.191,1.826,1.826,0,0,1,.158-.455Z" transform="translate(-13087.616 -3236.803)" fill="#e2dacc"/>
          <path id="Trazado_111122" data-name="Trazado 111122" d="M13429.666,3273.972a3.478,3.478,0,0,1-.119.563c-.122.415-.271.95-.452,1.633-.45,1.5-1.064,3.6-1.861,6.305-1.665,5.543-4.067,13.509-7.068,23.456l-.12.375-.406-.174-30.467-13.04.6-.147-25.682,32.666-.376.469-.464-.415-24.677-22.3-5.179-4.686.706.081-33.262,18.6-.464.268-.287-.442-17.921-28.235.556.188-34.191,10.5-.315.094-.121-.281c-3.227-8.381-5.793-15.021-7.5-19.626l-1.965-5.221-.479-1.339a2,2,0,0,1-.135-.469,1.622,1.622,0,0,1,.223.429c.136.348.331.776.573,1.339l2.131,5.168c1.846,4.592,4.5,11.192,7.878,19.533l-.435-.187,34.117-10.71.361-.121.194.308,18.012,28.182-.751-.174,33.23-18.636.374-.214.315.294q2.6,2.3,5.194,4.686l24.644,22.318-.838.067,25.8-32.586.225-.308.36.16,30.4,13.227-.511.214c3.137-9.907,5.642-17.846,7.4-23.375.872-2.678,1.5-4.78,2.026-6.265.239-.67.421-1.191.556-1.606a2.183,2.183,0,0,1,.179-.55Z" transform="translate(-13091.12 -3231.573)" fill="#e2dacc"/>
        </g>
        <g id="Grupo_58657" data-name="Grupo 58657" transform="translate(192.397)">
          <path id="Trazado_111123" data-name="Trazado 111123" d="M13387.765,3185.178a34.285,34.285,0,0,1-24.15-6.8c7.867,3.535,18.358-1.338,21.119-8.8s.5-21.421-6.38-26.281a29.852,29.852,0,0,0-23.7-4.552c-8.106,1.941-16.69,12.919-19.346,20.082l.147.214c-1.245-.442-2.491-.856-3.767-1.231a72.317,72.317,0,0,0-27.96-3.026,48.205,48.205,0,0,0-25.52,10.041l54.937,78.774c9.979-.79,18.821-6.788,24.014-14.406s7.235-16.694,7.73-25.624a62.959,62.959,0,0,0,0-6.761l17.666,2.53a38.263,38.263,0,0,0-11.753-9.371c6.222,1.959,13.143,0,16.962-4.793Z" transform="translate(-13263.379 -3138.002)" fill="#344154"/>
          <g id="Grupo_58656" data-name="Grupo 58656" transform="translate(2.287 28.611)">
            <g id="Grupo_58655" data-name="Grupo 58655">
              <g id="Grupo_58654" data-name="Grupo 58654">
                <path id="Trazado_111124" data-name="Trazado 111124" d="M13322.458,3300.183c14.894-.3,26.843-11.067,27.019-24.353l1.275-98h0c.089-4.047-3.307-7.482-7.818-7.912l-46.412-10.47c-14.858-1.339-24.749,14.927-25.694,28.235-1.038,14.727-1.651,32.854.3,43.885,3.946,22.184,23.008,24.995,23.008,24.995s0,8.6.076,19.1a23.426,23.426,0,0,0,8.349,17.532,29.509,29.509,0,0,0,19.869,6.981Z" transform="translate(-13269.854 -3159.373)" fill="#ffbf9d"/>
                <g id="Grupo_58652" data-name="Grupo 58652" transform="translate(5.385 34.777)">
                  <path id="Trazado_111125" data-name="Trazado 111125" d="M13277,3191.894a3.007,3.007,0,0,0,3.077,2.865,3.248,3.248,0,0,0,2.26-.648,2.567,2.567,0,0,0,1.025-1.909,3.034,3.034,0,0,0-3.077-2.879,3.243,3.243,0,0,0-2.265.653A2.573,2.573,0,0,0,13277,3191.894Z" transform="translate(-13271.658 -3184.007)" fill="#344154"/>
                  <path id="Trazado_111126" data-name="Trazado 111126" d="M13273.531,3188.282c.405.375,2.821-1.218,6.244-1.218s6,1.54,6.319,1.165c.18-.161-.211-.83-1.307-1.54a9.5,9.5,0,0,0-5.058-1.339,9.035,9.035,0,0,0-4.968,1.433C13273.681,3187.452,13273.23,3188.122,13273.531,3188.282Z" transform="translate(-13273.439 -3185.349)" fill="#344154"/>
                </g>
                <g id="Grupo_58653" data-name="Grupo 58653" transform="translate(39.061 35.393)">
                  <path id="Trazado_111127" data-name="Trazado 111127" d="M13298.7,3191.894a2.983,2.983,0,0,0,3,2.865,3.244,3.244,0,0,0,2.262-.646,2.568,2.568,0,0,0,1.027-1.911,3.007,3.007,0,0,0-3-2.877,3.246,3.246,0,0,0-2.268.651A2.574,2.574,0,0,0,13298.7,3191.894Z" transform="translate(-13294.464 -3184.623)" fill="#344154"/>
                  <path id="Trazado_111128" data-name="Trazado 111128" d="M13295.914,3188.742c.39.375,2.808-1.218,6.245-1.218s6,1.54,6.3,1.165c.2-.161-.208-.83-1.306-1.539a9.488,9.488,0,0,0-5.058-1.34,9.079,9.079,0,0,0-4.968,1.42C13296.064,3187.859,13295.762,3188.542,13295.914,3188.742Z" transform="translate(-13295.877 -3185.809)" fill="#344154"/>
                </g>
                <path id="Trazado_111129" data-name="Trazado 111129" d="M13290.5,3211.371a25.783,25.783,0,0,0-5.57-.9c-.885-.081-1.71-.228-1.86-.763a3.678,3.678,0,0,1,.585-2.316c.825-1.888,1.681-3.883,2.6-5.958,3.587-8.475,6.2-15.436,5.808-15.557s-3.6,6.694-7.2,15.1q-1.3,3.133-2.476,6a4.137,4.137,0,0,0-.467,3.066,2.184,2.184,0,0,0,1.5,1.138,7.326,7.326,0,0,0,1.5.187,25.209,25.209,0,0,0,5.584,0Z" transform="translate(-13263.864 -3150.392)" fill="#344154"/>
                <path id="Trazado_111130" data-name="Trazado 111130" d="M13286.1,3234a69.256,69.256,0,0,0,33.289-7.913s-8.074,15.236-33.021,13.162Z" transform="translate(-13261.713 -3136.77)" fill="#ff9a6c"/>
                <path id="Trazado_111131" data-name="Trazado 111131" d="M13288.715,3210.957a6.59,6.59,0,0,1,5.541-2.049,5.926,5.926,0,0,1,3.9,1.875,2.922,2.922,0,0,1,.27,3.641,4.5,4.5,0,0,1-4.5,1.017,13.252,13.252,0,0,1-4.383-2.343,3.236,3.236,0,0,1-.978-.9.917.917,0,0,1,0-1.138" transform="translate(-13260.574 -3142.602)" fill="#ff9a6c"/>
                <path id="Trazado_111132" data-name="Trazado 111132" d="M13298.053,3206.5c-.556,0-.569,3.293-3.751,5.663s-7.159,1.981-7.19,2.45c0,.214.885.643,2.565.683a9.96,9.96,0,0,0,6-1.861,7.052,7.052,0,0,0,2.914-4.739C13298.653,3207.3,13298.2,3206.486,13298.053,3206.5Z" transform="translate(-13261.207 -3143.406)" fill="#344154"/>
              </g>
              <path id="Trazado_111133" data-name="Trazado 111133" d="M13294.907,3184.584c.329.83,3.767.428,7.791.87s7.278,1.406,7.8.656c.241-.348-.314-1.138-1.636-1.941a14.178,14.178,0,0,0-5.795-1.808,14.4,14.4,0,0,0-6.095.643C13295.508,3183.486,13294.757,3184.142,13294.907,3184.584Z" transform="translate(-13257.311 -3151.613)" fill="#344154"/>
              <path id="Trazado_111134" data-name="Trazado 111134" d="M13273.838,3184.107c.616.7,3,0,5.809,0s5.254.469,5.81-.254c.24-.362-.135-1.058-1.186-1.714a9.309,9.309,0,0,0-9.366.255C13273.838,3183.063,13273.538,3183.772,13273.838,3184.107Z" transform="translate(-13267.912 -3152.046)" fill="#344154"/>
            </g>
            <path id="Trazado_111135" data-name="Trazado 111135" d="M13322.254,3193.911a6.894,6.894,0,0,1,6.5.294c4.751,2.457,6.9,7.561,5.133,12.2s-6.95,7.521-12.4,6.893" transform="translate(-13243.984 -3147.9)" fill="#ffbf9d"/>
            <path id="Trazado_111136" data-name="Trazado 111136" d="M13323.286,3205.437c0-.161.977.188,2.176-.295a4.114,4.114,0,0,0,2.127-3.811,4.264,4.264,0,0,0-2.651-3.539c-1.246-.455-2.163-.227-2.205-.4s.84-.7,2.476-.375a4.523,4.523,0,0,1,3.661,4.258,4.372,4.372,0,0,1-3.1,4.619C13324.036,3206.293,13323.136,3205.531,13323.286,3205.437Z" transform="translate(-13243.364 -3146.654)" fill="#ff9a6c"/>
          </g>
          <path id="Trazado_111137" data-name="Trazado 111137" d="M13328.963,3207.08a5.027,5.027,0,0,1,1.141.709l3,2.223,10.732,8.126.359.268-.314.335c-3.993,4.271-8.437,9.639-13.509,15.235-1.125,1.258-2.266,2.49-3.361,3.655l-.917.964v-1.272c-.45-9.023-.811-17.016-1.006-22.759,0-2.678-.134-4.994-.179-6.761a11.231,11.231,0,0,1,.073-2.463,11.431,11.431,0,0,1,.33,2.449c.135,1.767.315,4.017.524,6.694.39,5.73.885,13.723,1.366,22.759l-.977-.294,3.332-3.642c4.983-5.582,9.487-10.911,13.6-15.155v.6l-10.5-8.407-2.882-2.4a5.183,5.183,0,0,1-.81-.87Z" transform="translate(-13240.001 -3115.188)" fill="#8454ee"/>
          <path id="Trazado_111138" data-name="Trazado 111138" d="M13307.011,3152.19a101.2,101.2,0,0,0-18.134,1.767,31.5,31.5,0,0,0-15.67,7.873,15.241,15.241,0,0,0-4.334,15.128,13.354,13.354,0,0,0,13.776,8.555c4.578-.536,9.006-3.561,13.389-2.37s6.484,5.69,10.775,6.4,8.029-2.678,12.322-3.026c4.743-.375,8.857,3.093,10.957,6.908s2.913,8.1,5.044,11.9c1.351,2.424,3.451,4.753,6.393,5.436a9.576,9.576,0,0,0,7.762-1.953,15.954,15.954,0,0,0,4.5-6.185,31.188,31.188,0,0,0-2.534-30.563c-6.159-9.272-16.832-15.437-28.838-16.657" transform="translate(-13268.328 -3133.195)" fill="#344154"/>
          <path id="Trazado_111139" data-name="Trazado 111139" d="M13343.436,3175.274c-.2,0-.765-1.794-2.3-4.512a34.883,34.883,0,0,0-19.224-15.5c-3.184-1.071-5.3-1.406-5.254-1.58s.54,0,1.5.08a25.282,25.282,0,0,1,4.009.831,31.874,31.874,0,0,1,19.693,15.878,19.215,19.215,0,0,1,1.349,3.468A5.585,5.585,0,0,1,13343.436,3175.274Z" transform="translate(-13244.117 -3132.716)" fill="#fd9827"/>
          <path id="Trazado_111140" data-name="Trazado 111140" d="M13359.023,3146.229a43.851,43.851,0,0,0-6-1.661,26.612,26.612,0,0,0-14.588,1.968,31.5,31.5,0,0,0-11.272,8.741c-2.311,2.8-3.377,4.74-3.557,4.673a4.231,4.231,0,0,1,.6-1.446,25.982,25.982,0,0,1,2.311-3.628,29.156,29.156,0,0,1,11.423-9.238,25.549,25.549,0,0,1,15.236-1.753,18.284,18.284,0,0,1,4.412,1.46A5.223,5.223,0,0,1,13359.023,3146.229Z" transform="translate(-13240.642 -3136.164)" fill="#8454ee"/>
          <path id="Trazado_111141" data-name="Trazado 111141" d="M13335.678,3165a12.543,12.543,0,0,1,0,4.565,34.317,34.317,0,0,1-9.666,20,14.937,14.937,0,0,1-3.738,3.1c-.3-.214,5.555-4.993,9.275-12.839S13335.378,3165,13335.678,3165Z" transform="translate(-13241.312 -3128.855)" fill="#8454ee"/>
          <path id="Trazado_111142" data-name="Trazado 111142" d="M13334.736,3165.34c.074,0,.286.429.6,1.258a19.278,19.278,0,0,1,.979,3.655,28.856,28.856,0,0,1-6.666,23.537,22.445,22.445,0,0,1-2.808,2.8c-.722.6-1.156.91-1.2.857s1.4-1.513,3.363-4.016a31.846,31.846,0,0,0,6.512-23.027C13335.187,3167.254,13334.586,3165.38,13334.736,3165.34Z" transform="translate(-13239.618 -3128.74)" fill="#8454ee"/>
        </g>
      </g>
    </g>
  </g>
</svg>
