<svg xmlns="http://www.w3.org/2000/svg" width="610" height="82" viewBox="0 0 610 82">
  <g id="Grupo_1112062" data-name="Grupo 1112062" transform="translate(-786.839 -3125)">
    <g id="Grupo_70235" data-name="Grupo 70235" transform="translate(799.438 3137.515)">
      <path id="Trazado_901054" data-name="Trazado 901054" d="M11.485,17h-1.5V5.625h1.5Zm3.883-8.453.047,1.063a3.08,3.08,0,0,1,2.531-1.219q2.68,0,2.7,3.023V17H19.2V11.406a1.946,1.946,0,0,0-.418-1.352,1.675,1.675,0,0,0-1.277-.437,2.086,2.086,0,0,0-1.234.375,2.546,2.546,0,0,0-.828.984V17H14V8.547Zm10.25,6.492,2.094-6.492h1.477L26.157,17h-1.1L21.993,8.547H23.47Zm8.469,2.117a3.693,3.693,0,0,1-2.8-1.129,4.19,4.19,0,0,1-1.078-3.02v-.266a5.073,5.073,0,0,1,.48-2.246,3.748,3.748,0,0,1,1.344-1.547,3.378,3.378,0,0,1,1.871-.559A3.166,3.166,0,0,1,36.47,9.477a4.7,4.7,0,0,1,.914,3.109v.6H31.657a3,3,0,0,0,.73,2.02,2.3,2.3,0,0,0,1.777.77,2.517,2.517,0,0,0,1.3-.312,3.259,3.259,0,0,0,.93-.828l.883.688A3.55,3.55,0,0,1,34.087,17.156Zm-.18-7.578a1.928,1.928,0,0,0-1.469.637A3.1,3.1,0,0,0,31.7,12h4.234v-.109a2.753,2.753,0,0,0-.594-1.707A1.815,1.815,0,0,0,33.907,9.578Zm9.234.266a4.331,4.331,0,0,0-.711-.055A1.9,1.9,0,0,0,40.5,11v6H39.055V8.547h1.406l.023.977A2.251,2.251,0,0,1,42.5,8.391a1.477,1.477,0,0,1,.641.109Zm6.25,4.914a1.064,1.064,0,0,0-.441-.91,4.249,4.249,0,0,0-1.539-.559,7.277,7.277,0,0,1-1.742-.562,2.479,2.479,0,0,1-.953-.781,1.869,1.869,0,0,1-.309-1.078,2.193,2.193,0,0,1,.879-1.758,3.432,3.432,0,0,1,2.246-.719,3.532,3.532,0,0,1,2.332.742,2.357,2.357,0,0,1,.895,1.9H49.305a1.3,1.3,0,0,0-.5-1.023,1.888,1.888,0,0,0-1.27-.43,1.976,1.976,0,0,0-1.234.344,1.082,1.082,0,0,0-.445.9.877.877,0,0,0,.414.789,5.1,5.1,0,0,0,1.5.508,7.8,7.8,0,0,1,1.754.578,2.558,2.558,0,0,1,1,.809,1.988,1.988,0,0,1,.324,1.152,2.163,2.163,0,0,1-.906,1.816,3.8,3.8,0,0,1-2.352.684,4.257,4.257,0,0,1-1.8-.359,2.922,2.922,0,0,1-1.223-1,2.42,2.42,0,0,1-.441-1.395h1.445a1.5,1.5,0,0,0,.582,1.152,2.258,2.258,0,0,0,1.434.426,2.331,2.331,0,0,0,1.316-.332A1.02,1.02,0,0,0,49.391,14.758ZM54.29,17H52.845V8.547H54.29ZM52.727,6.3a.863.863,0,0,1,.215-.594.807.807,0,0,1,.637-.242.819.819,0,0,1,.641.242.854.854,0,0,1,.219.594.826.826,0,0,1-.219.586.834.834,0,0,1-.641.234.821.821,0,0,1-.637-.234A.834.834,0,0,1,52.727,6.3ZM56.22,12.7a4.993,4.993,0,0,1,.488-2.234A3.643,3.643,0,0,1,58.067,8.93a3.7,3.7,0,0,1,1.988-.539,3.565,3.565,0,0,1,2.793,1.2,4.6,4.6,0,0,1,1.066,3.18v.1a5.036,5.036,0,0,1-.473,2.215,3.589,3.589,0,0,1-1.352,1.527,3.743,3.743,0,0,1-2.02.547,3.556,3.556,0,0,1-2.785-1.2A4.575,4.575,0,0,1,56.22,12.8Zm1.453.172a3.616,3.616,0,0,0,.652,2.258,2.211,2.211,0,0,0,3.5-.012A3.955,3.955,0,0,0,62.47,12.7a3.61,3.61,0,0,0-.66-2.254,2.1,2.1,0,0,0-1.754-.863,2.075,2.075,0,0,0-1.727.852A3.925,3.925,0,0,0,57.673,12.867ZM60.712,5h1.75L60.368,7.3l-1.164,0Zm6.383,3.547.047,1.063a3.08,3.08,0,0,1,2.531-1.219q2.68,0,2.7,3.023V17H70.93V11.406a1.946,1.946,0,0,0-.418-1.352,1.675,1.675,0,0,0-1.277-.437A2.086,2.086,0,0,0,68,9.992a2.546,2.546,0,0,0-.828.984V17H65.727V8.547ZM78.174,19.17a3.856,3.856,0,0,1-.506,2.2,2.1,2.1,0,0,1-3.153.016,3.66,3.66,0,0,1-.529-2.1V18.158a3.77,3.77,0,0,1,.506-2.174,2.14,2.14,0,0,1,3.163-.025,3.638,3.638,0,0,1,.52,2.117Zm-.843-1.153a3.089,3.089,0,0,0-.3-1.561,1.035,1.035,0,0,0-.952-.49,1.022,1.022,0,0,0-.943.488,3.016,3.016,0,0,0-.305,1.5V19.3a3.139,3.139,0,0,0,.312,1.588,1.033,1.033,0,0,0,.946.513,1.019,1.019,0,0,0,.927-.483,3.025,3.025,0,0,0,.317-1.522Zm13.036-7.377H83.851V9.383h6.516Zm0,3.242H83.851v-1.25h6.516Z" transform="translate(0 16)" fill="#12263f"/>
      <path id="Trazado_901058" data-name="Trazado 901058" d="M8.2,10.9h3.172v1.367H8.2v3.594H6.746V12.266H3.574V10.9H6.746V7.578H8.2Z" transform="translate(261.419 16)" fill="#12263f"/>
      <path id="Trazado_901060" data-name="Trazado 901060" d="M8.2,10.9h3.172v1.367H8.2v3.594H6.746V12.266H3.574V10.9H6.746V7.578H8.2Z" transform="translate(420.739 16)" fill="#12263f"/>
      <path id="Trazado_901055" data-name="Trazado 901055" d="M59.3,11.977H54.528V17h-1.5V5.625h7.047V6.852H54.528v3.9H59.3ZM70.614,17H69.106L63.38,8.234V17H61.872V5.625H63.38l5.742,8.8v-8.8h1.492Zm9.094-5.258h-4.93v4.031H80.5V17H73.278V5.625h7.148V6.852H74.778v3.664h4.93ZM84.374,22h-.848V16.381l-1.7.624V16.24l2.415-.907h.132Z" transform="translate(112.621)" fill="#12263f"/>
      <path id="Trazado_901057" data-name="Trazado 901057" d="M61.282,11.977H56.509V17h-1.5V5.625h7.047V6.852H56.509v3.9h4.773ZM72.595,17H71.087L65.36,8.234V17H63.852V5.625H65.36l5.742,8.8v-8.8h1.492Zm9.094-5.258h-4.93v4.031h5.727V17H75.259V5.625h7.148V6.852H76.759v3.664h4.93ZM87.931,22H83.583v-.606l2.3-2.552a5.457,5.457,0,0,0,.7-.941,1.571,1.571,0,0,0,.194-.75,1.19,1.19,0,0,0-.314-.852,1.1,1.1,0,0,0-.838-.333,1.3,1.3,0,0,0-.977.358,1.366,1.366,0,0,0-.349,1h-.843a1.957,1.957,0,0,1,.59-1.481,2.188,2.188,0,0,1,1.579-.565,2.1,2.1,0,0,1,1.463.485,1.655,1.655,0,0,1,.538,1.292,3.8,3.8,0,0,1-1.249,2.333L84.6,21.312h3.331Z" transform="translate(278.65)" fill="#12263f"/>
      <path id="Trazado_901061" data-name="Trazado 901061" d="M59.347,11.977H54.574V17h-1.5V5.625h7.047V6.852H54.574v3.9h4.773ZM70.66,17H69.152L63.425,8.234V17H61.917V5.625h1.508l5.742,8.8v-8.8H70.66Zm9.094-5.258h-4.93v4.031H80.55V17H73.324V5.625h7.148V6.852H74.824v3.664h4.93Zm2.779,5.327.027.62a1.8,1.8,0,0,1,1.476-.711q1.563,0,1.577,1.764V22H84.77V18.737a1.135,1.135,0,0,0-.244-.788.977.977,0,0,0-.745-.255,1.217,1.217,0,0,0-.72.219,1.485,1.485,0,0,0-.483.574V22h-.843V17.069Z" transform="translate(445.839)" fill="#12263f"/>
      <path id="Trazado_901056" data-name="Trazado 901056" d="M41,12.383a12.079,12.079,0,0,1,.473-3.391,9.85,9.85,0,0,1,1.41-2.953,6,6,0,0,1,1.945-1.875l.3.953a6.222,6.222,0,0,0-1.871,2.672,11.583,11.583,0,0,0-.8,4.023l-.008.664a11.643,11.643,0,0,0,1.1,5.234,6.252,6.252,0,0,0,1.578,2.078l-.3.883a6.192,6.192,0,0,1-1.984-1.937A10.859,10.859,0,0,1,41,12.383ZM51.126,17H49.673V7.367l-2.914,1.07V7.125L50.9,5.57h.227Zm8.523-6.1h3.172v1.367H59.649v3.594H58.2V12.266H55.024V10.9H58.2V7.578h1.453ZM72.665,6.852H69.009V17H67.516V6.852H63.868V5.625h8.8ZM75.962,17h-1.5V5.625h1.5Zm6.914-4.6H80.2V17H78.7V5.625h3.766a4.457,4.457,0,0,1,2.957.875,3.148,3.148,0,0,1,1.035,2.547A3.062,3.062,0,0,1,85.88,10.9a3.428,3.428,0,0,1-1.6,1.18l2.672,4.828V17H85.345ZM80.2,11.172h2.3a2.6,2.6,0,0,0,1.777-.579,1.959,1.959,0,0,0,.66-1.55,2.062,2.062,0,0,0-.629-1.62A2.663,2.663,0,0,0,82.5,6.852H80.2Zm11.461,1.289a12.084,12.084,0,0,1-.457,3.34,9.876,9.876,0,0,1-1.4,2.949,6.127,6.127,0,0,1-1.973,1.922l-.3-.883a6.281,6.281,0,0,0,1.934-2.863,12.387,12.387,0,0,0,.746-4.309v-.25a12.861,12.861,0,0,0-.344-3.051,10.3,10.3,0,0,0-.957-2.527,5.838,5.838,0,0,0-1.379-1.742l.3-.883A6.1,6.1,0,0,1,89.8,6.07a9.9,9.9,0,0,1,1.4,2.945A12.363,12.363,0,0,1,91.665,12.461ZM96.12,12h-.848V6.381l-1.7.624V6.24l2.415-.907h.132Z" transform="translate(112.621 33)" fill="#12263f"/>
      <path id="Trazado_901059" data-name="Trazado 901059" d="M41,12.383a12.079,12.079,0,0,1,.473-3.391,9.85,9.85,0,0,1,1.41-2.953,6,6,0,0,1,1.945-1.875l.3.953a6.222,6.222,0,0,0-1.871,2.672,11.583,11.583,0,0,0-.8,4.023l-.008.664a11.643,11.643,0,0,0,1.1,5.234,6.252,6.252,0,0,0,1.578,2.078l-.3.883a6.192,6.192,0,0,1-1.984-1.937A10.859,10.859,0,0,1,41,12.383ZM51.126,17H49.673V7.367l-2.914,1.07V7.125L50.9,5.57h.227Zm8.523-6.1h3.172v1.367H59.649v3.594H58.2V12.266H55.024V10.9H58.2V7.578h1.453ZM72.665,6.852H69.009V17H67.516V6.852H63.868V5.625h8.8ZM75.962,17h-1.5V5.625h1.5Zm6.914-4.6H80.2V17H78.7V5.625h3.766a4.457,4.457,0,0,1,2.957.875,3.148,3.148,0,0,1,1.035,2.547A3.062,3.062,0,0,1,85.88,10.9a3.428,3.428,0,0,1-1.6,1.18l2.672,4.828V17H85.345ZM80.2,11.172h2.3a2.6,2.6,0,0,0,1.777-.579,1.959,1.959,0,0,0,.66-1.55,2.062,2.062,0,0,0-.629-1.62A2.663,2.663,0,0,0,82.5,6.852H80.2Zm11.461,1.289a12.084,12.084,0,0,1-.457,3.34,9.876,9.876,0,0,1-1.4,2.949,6.127,6.127,0,0,1-1.973,1.922l-.3-.883a6.281,6.281,0,0,0,1.934-2.863,12.387,12.387,0,0,0,.746-4.309v-.25a12.861,12.861,0,0,0-.344-3.051,10.3,10.3,0,0,0-.957-2.527,5.838,5.838,0,0,0-1.379-1.742l.3-.883A6.1,6.1,0,0,1,89.8,6.07a9.9,9.9,0,0,1,1.4,2.945A12.363,12.363,0,0,1,91.665,12.461ZM97.7,12H93.349v-.606l2.3-2.552a5.457,5.457,0,0,0,.7-.941,1.571,1.571,0,0,0,.194-.75,1.19,1.19,0,0,0-.314-.852,1.1,1.1,0,0,0-.838-.333,1.3,1.3,0,0,0-.977.358,1.366,1.366,0,0,0-.349,1h-.843a1.957,1.957,0,0,1,.59-1.481,2.188,2.188,0,0,1,1.579-.565,2.1,2.1,0,0,1,1.463.485,1.655,1.655,0,0,1,.538,1.292,3.8,3.8,0,0,1-1.249,2.333l-1.777,1.928H97.7Z" transform="translate(278.65 33)" fill="#12263f"/>
      <path id="Trazado_901062" data-name="Trazado 901062" d="M43.027,12.383A12.079,12.079,0,0,1,43.5,8.992a9.85,9.85,0,0,1,1.41-2.953,6,6,0,0,1,1.945-1.875l.3.953a6.222,6.222,0,0,0-1.871,2.672,11.583,11.583,0,0,0-.8,4.023l-.008.664a11.643,11.643,0,0,0,1.1,5.234,6.252,6.252,0,0,0,1.578,2.078l-.3.883a6.192,6.192,0,0,1-1.984-1.937A10.859,10.859,0,0,1,43.027,12.383ZM53.152,17H51.7V7.367l-2.914,1.07V7.125L52.925,5.57h.227Zm8.523-6.1h3.172v1.367H61.675v3.594H60.222V12.266H57.05V10.9h3.172V7.578h1.453ZM74.691,6.852H71.035V17H69.542V6.852H65.894V5.625h8.8ZM77.988,17h-1.5V5.625h1.5ZM84.9,12.4H82.23V17H80.722V5.625h3.766a4.457,4.457,0,0,1,2.957.875A3.148,3.148,0,0,1,88.48,9.047a3.062,3.062,0,0,1-.574,1.852,3.428,3.428,0,0,1-1.6,1.18l2.672,4.828V17H87.371ZM82.23,11.172h2.3a2.6,2.6,0,0,0,1.777-.579,1.959,1.959,0,0,0,.66-1.55,2.062,2.062,0,0,0-.629-1.62,2.663,2.663,0,0,0-1.816-.571h-2.3Zm11.461,1.289a12.084,12.084,0,0,1-.457,3.34,9.876,9.876,0,0,1-1.4,2.949,6.127,6.127,0,0,1-1.973,1.922l-.3-.883a6.281,6.281,0,0,0,1.934-2.863,12.387,12.387,0,0,0,.746-4.309v-.25a12.861,12.861,0,0,0-.344-3.051,10.3,10.3,0,0,0-.957-2.527,5.838,5.838,0,0,0-1.379-1.742l.3-.883A6.1,6.1,0,0,1,91.828,6.07a9.9,9.9,0,0,1,1.4,2.945A12.363,12.363,0,0,1,93.691,12.461Zm2.568-5.392.027.62a1.8,1.8,0,0,1,1.476-.711q1.563,0,1.577,1.764V12H98.5V8.737a1.135,1.135,0,0,0-.244-.788.977.977,0,0,0-.745-.255,1.217,1.217,0,0,0-.72.219,1.485,1.485,0,0,0-.483.574V12h-.843V7.069Z" transform="translate(445.839 33)" fill="#12263f"/>
      <line id="Línea_419" data-name="Línea 419" x2="129" transform="translate(118.97 28.5)" fill="none" stroke="#a66d58" stroke-width="2"/>
      <line id="Línea_422" data-name="Línea 422" x2="129" transform="translate(285.404 28.5)" fill="none" stroke="#a66d58" stroke-width="2"/>
      <line id="Línea_423" data-name="Línea 423" x2="129" transform="translate(452.246 28.5)" fill="none" stroke="#a66d58" stroke-width="2"/>
    </g>
    <g id="Rectángulo_404669" data-name="Rectángulo 404669" transform="translate(786.839 3125)" fill="none" stroke="#a66d58" stroke-width="2">
      <rect width="610" height="82" rx="13" stroke="none"/>
      <rect x="1" y="1" width="608" height="80" rx="12" fill="none"/>
    </g>
  </g>
</svg>
