<svg xmlns="http://www.w3.org/2000/svg" xmlns:xlink="http://www.w3.org/1999/xlink" width="228" height="217" viewBox="0 0 228 217">
  <defs>
    <clipPath id="clip-path">
      <rect id="Rectángulo_404642" data-name="Rectángulo 404642" width="116.876" height="188.273" fill="none"/>
    </clipPath>
    <clipPath id="clip-path-2">
      <path id="Trazado_900903" data-name="Trazado 900903" d="M30.321,90.366c-3.273,5.786-7.569,11.968-9.449,19.323C18.69,118.22,6.216,190.705,5.188,206.223c2.688.648,6.719.229,8.417.135,5.4-15.486,21.737-72.208,24.054-81.964a1.264,1.264,0,0,1,2.492.36c-1.316,11.141,2.037,52.271,2.037,82.828,1.41.718,7.537.2,9.166,0,1.771-19.109,11.571-92.293-2.616-115.742a114.882,114.882,0,0,0-16.366-1.5c-.672,0-1.354.01-2.051.031" transform="translate(-5.188 -90.335)" fill="none"/>
    </clipPath>
    <clipPath id="clip-path-4">
      <rect id="Rectángulo_404649" data-name="Rectángulo 404649" width="138.694" height="91.468" fill="none"/>
    </clipPath>
    <clipPath id="clip-path-5">
      <rect id="Rectángulo_404657" data-name="Rectángulo 404657" width="90.112" height="59.763" fill="none"/>
    </clipPath>
    <clipPath id="clip-path-7">
      <rect id="Rectángulo_404651" data-name="Rectángulo 404651" width="38.286" height="38.286" fill="none"/>
    </clipPath>
  </defs>
  <g id="Grupo_1112039" data-name="Grupo 1112039" transform="translate(-508.125 -4597)">
    <rect id="Rectángulo_404650" data-name="Rectángulo 404650" width="228" height="217" rx="8" transform="translate(508.125 4597)" fill="#bce0fc"/>
    <g id="Grupo_1112038" data-name="Grupo 1112038" transform="translate(523.558 4625.538)">
      <g id="Grupo_1112030" data-name="Grupo 1112030" transform="translate(0 0)">
        <g id="Grupo_1112027" data-name="Grupo 1112027">
          <g id="Grupo_1112022" data-name="Grupo 1112022">
            <g id="Grupo_1112021" data-name="Grupo 1112021" clip-path="url(#clip-path)">
              <path id="Trazado_900876" data-name="Trazado 900876" d="M111.857,61.822S91.509,83.214,87.894,79.748l6.6-12.461c.028.331,14.275-10.833,14.275-10.833s2.922-7.334,4.058-7.327c1.114.007-1.23,4.181-.832,4.719s7.362-8.33,8.157-7.255c.428.578-4.357,5.274-3.961,6.035.206.395,5.566-2.975,6.124-2.812,1.557.456-5.953,4.017-5.509,4.243S122.8,50.842,122.884,52c.05.717-5.1,3.22-5.015,3.711s2.95-1.407,3.884-1.044-3.85,2.738-4.165,3.136a19.581,19.581,0,0,1-5.73,4.018" transform="translate(-33.659 -17.808)" fill="#ffb264"/>
              <path id="Trazado_900877" data-name="Trazado 900877" d="M75.747,46.058s4.954,1.658,6.138,5.415,6.47,15.036,6.47,15.036L81.227,79.691s-20.555-26.248-5.48-33.633" transform="translate(-26.892 -17.638)" fill="#ffb264"/>
              <path id="Trazado_900878" data-name="Trazado 900878" d="M74.07,44.017C79.4,43.2,82.354,49.41,87.112,60.881l-12.177,9.77S57.478,46.57,74.07,44.017" transform="translate(-25.625 -16.829)" fill="#fff"/>
              <path id="Trazado_900879" data-name="Trazado 900879" d="M67.137,4.079A12.267,12.267,0,0,0,53.837.768l-.081.027a7.462,7.462,0,0,0-5.108,7.267,13.369,13.369,0,0,0,1.523,5.884c2.176,3.9,6.3,5.551,10.609,5.3a2.7,2.7,0,0,1,2.1.7l5-8.577c.6-1.195.742-5.438-.742-7.292" transform="translate(-18.628 0)" fill="#151f36"/>
              <path id="Trazado_900880" data-name="Trazado 900880" d="M35.889,17.1a4.73,4.73,0,1,1,4.73,4.73,4.73,4.73,0,0,1-4.73-4.73" transform="translate(-13.744 -4.738)" fill="#151f36"/>
              <path id="Trazado_900881" data-name="Trazado 900881" d="M55.65,15.215c-.054.168-.662-1.137-.829-1.2-.695-.252-2.249-.974-3.127.766a2.933,2.933,0,0,0,1.533,3.857,4.8,4.8,0,0,1,1.41,1.076c1.3,2.53-.415,7.908-.6,9.964-.4,4.541-4.089-.439-4.089-.439s12.289,9.665,14.1,4.264c-1.483-2.6-2.407-10.767-1.1-10.279,1.708.639,5.3-1.513,5.738-9.289-1.993-5.78-4.484-6.676-4.51-7.127-.173,4.039-2.465,6.729-8.528,8.4" transform="translate(-19.129 -2.608)" fill="#ffb264"/>
              <path id="Trazado_900882" data-name="Trazado 900882" d="M53.753,20.729s1.919-1.918,2.2,1.672" transform="translate(-20.585 -7.743)" fill="#e68522"/>
              <path id="Trazado_900883" data-name="Trazado 900883" d="M66.88,21.63a1.737,1.737,0,1,1-2.2,1.1,1.738,1.738,0,0,1,2.2-1.1" transform="translate(-24.737 -8.249)" fill="#e68522"/>
              <path id="Trazado_900884" data-name="Trazado 900884" d="M78.449,24.628a1.737,1.737,0,0,1,.529-3.208,8.459,8.459,0,0,1-.529,3.208" transform="translate(-29.71 -8.203)" fill="#e68522"/>
              <path id="Trazado_900885" data-name="Trazado 900885" d="M75.05,20.418l-.241,1.92,1-.073A.245.245,0,0,0,76,21.889Z" transform="translate(-28.649 -7.819)" fill="#e68522"/>
              <path id="Trazado_900886" data-name="Trazado 900886" d="M70.337,16.906c-.324.225.178-.785.619-.9a.777.777,0,0,1,.982.482,2.428,2.428,0,0,0-1.6.418" transform="translate(-26.896 -6.117)"/>
              <path id="Trazado_900887" data-name="Trazado 900887" d="M78.061,16.738c.322.228-.17-.787-.611-.906a.777.777,0,0,0-.986.472,2.426,2.426,0,0,1,1.6.434" transform="translate(-29.282 -6.05)"/>
              <path id="Trazado_900888" data-name="Trazado 900888" d="M71.973,20.047c.014.341.159.612.325.605s.288-.289.274-.629-.159-.612-.325-.605-.288.288-.274.629" transform="translate(-27.562 -7.436)"/>
              <path id="Trazado_900889" data-name="Trazado 900889" d="M76.352,19.62c.013.326.152.584.31.578s.275-.276.262-.6-.152-.584-.31-.578-.275.276-.262.6" transform="translate(-29.239 -7.283)"/>
              <path id="Trazado_900890" data-name="Trazado 900890" d="M67.718,32.414s-2.407-.852-3.94-1.514,2.261,5.649,3.94,1.514" transform="translate(-24.287 -11.815)" fill="#e68522"/>
              <path id="Trazado_900891" data-name="Trazado 900891" d="M65.272,275.986l1.2,8.524s1.925,5.653,3.713,3.465a17.631,17.631,0,0,1,3.557-3.345l.587-8.862Z" transform="translate(-24.996 -105.607)" fill="#ffaa06"/>
              <path id="Trazado_900892" data-name="Trazado 900892" d="M14.359,275.061l-2.652,8.5s-2.019,1.77-2.748,1.725c-1.325-.083-2.021-2.371-2.021-2.371l-.218-7.857Z" transform="translate(-2.573 -105.336)" fill="#ffaa06"/>
              <path id="Trazado_900893" data-name="Trazado 900893" d="M74.513,289.181l7.139,5.787c.365.271.1.728-.418.732l-10.538.086a.617.617,0,0,1-.566-.287l-.795-1.63c-.23-.471-.687-.509-.645-.01l-.389,1.573c.021.248-2.5.18-2.521-.046a44.452,44.452,0,0,1,.4-7.247.526.526,0,0,1,.472-.365h0a.716.716,0,0,1,.589.162c.711.688,2.985,2.759,4.2,2.34a8.914,8.914,0,0,0,2.192-1.074.748.748,0,0,1,.876-.022" transform="translate(-25.178 -110.201)" fill="#d4603f"/>
              <path id="Trazado_900894" data-name="Trazado 900894" d="M4.267,287.282l-4.054,6.79A1.324,1.324,0,0,0,.8,295.986c1.267.754,2.3,2.26,3.1,2.281,1.441.04,3.681-1.477,4.987-2.047.876-.382,1.562-.942,1.454-1.675l-1.008-6.81c-.012-.085-.161-.115-.234-.049l-1.552,1.407a1.822,1.822,0,0,1-2.231-.153c-.245-.394-.819-1.664-.819-1.664a.159.159,0,0,0-.234.006" transform="translate(0 -109.996)" fill="#d4603f"/>
              <path id="Trazado_900895" data-name="Trazado 900895" d="M30.321,90.366c-3.273,5.786-7.569,11.968-9.45,19.323-2.181,8.531-14.654,81.016-15.683,96.534,2.688.648,6.718.23,8.417.135,5.4-15.487,21.737-72.208,24.054-81.964a1.264,1.264,0,0,1,2.493.36c-1.316,11.141,2.037,52.27,2.037,82.827,1.41.718,7.537.2,9.165,0,1.771-19.109,11.572-92.293-2.616-115.742C42.25,90.944,36.9,90.17,30.321,90.366" transform="translate(-1.987 -34.594)" fill="#1b314f"/>
            </g>
          </g>
          <g id="Grupo_1112024" data-name="Grupo 1112024" transform="translate(3.201 55.741)">
            <g id="Grupo_1112023" data-name="Grupo 1112023" clip-path="url(#clip-path-2)">
              <path id="Trazado_900896" data-name="Trazado 900896" d="M46.872,88.155c.035,2.973,1.507,5.624,3,8.107a42.863,42.863,0,0,0,4.866,6.71c3.594,3.976,8.323,6.956,13.778,7.3a13.769,13.769,0,0,0,8.427-2.1c.248-.162.017-.563-.234-.4-4.433,2.9-10.24,2.521-14.846.218-4.693-2.345-8.186-6.535-10.937-10.9-1.7-2.7-3.554-5.653-3.592-8.938a.232.232,0,0,0-.463,0" transform="translate(-21.151 -89.415)" fill="#4475ab"/>
              <path id="Trazado_900897" data-name="Trazado 900897" d="M24.031,111.015c2.97,6.712,6.033,13.668,6.179,21.132a22.544,22.544,0,0,1-2.085,10.324,21.641,21.641,0,0,1-5.629,7.042,29.852,29.852,0,0,1-9.152,5.119c-.279.1-.159.547.123.446C19.293,153,24.8,149.3,27.928,143.832c3.633-6.353,3.221-14.069,1.248-20.882a97.008,97.008,0,0,0-4.745-12.169c-.12-.271-.52-.036-.4.234" transform="translate(-8.251 -98.119)" fill="#4475ab"/>
              <path id="Trazado_900898" data-name="Trazado 900898" d="M81.653,139.755c-5.024,3.626-7.237,10.038-6.8,16.076.513,7.072,4.474,13.431,9.105,18.585a29.746,29.746,0,0,0,9.515,7.5c.269.123.5-.276.234-.4a27.477,27.477,0,0,1-8.278-6.19,44.511,44.511,0,0,1-6.347-8.245c-3.287-5.612-4.9-12.252-2.954-18.608a15.89,15.89,0,0,1,5.757-8.313c.239-.173.008-.574-.234-.4" transform="translate(-31.846 -109.244)" fill="#4475ab"/>
              <path id="Trazado_900899" data-name="Trazado 900899" d="M12.324,209.96a38.619,38.619,0,0,1,13.685,16.993c.112.272.56.153.446-.123a39.176,39.176,0,0,0-13.9-17.27c-.246-.17-.478.231-.234.4" transform="translate(-7.881 -135.977)" fill="#4475ab"/>
              <path id="Trazado_900900" data-name="Trazado 900900" d="M5.184,221.85a53.685,53.685,0,0,1,14.03,27.3,52.472,52.472,0,0,1,.877,8.867.232.232,0,0,0,.463,0,54.112,54.112,0,0,0-9.415-29.6,53.15,53.15,0,0,0-5.627-6.9c-.207-.215-.534.112-.327.327" transform="translate(-5.161 -140.547)" fill="#4475ab"/>
              <path id="Trazado_900901" data-name="Trazado 900901" d="M81.639,216.548a46.316,46.316,0,0,0-20.348,32.38,43.549,43.549,0,0,0-.1,11.043c.035.292.5.3.463,0A45.87,45.87,0,0,1,73.52,223.986a43.112,43.112,0,0,1,8.353-7.038c.249-.161.017-.562-.234-.4" transform="translate(-26.517 -138.655)" fill="#4475ab"/>
              <path id="Trazado_900902" data-name="Trazado 900902" d="M76.8,274.129a14.474,14.474,0,0,1-1.429-5.807,7.6,7.6,0,0,1,2.454-5.067,35.363,35.363,0,0,1,9.415-6.4c.267-.133.033-.532-.233-.4a44,44,0,0,0-5.556,3.283,24.561,24.561,0,0,0-4.464,3.736,7.722,7.722,0,0,0-2.074,4.709,14.447,14.447,0,0,0,1.441,6.069c.11.273.558.154.446-.123" transform="translate(-31.886 -153.941)" fill="#4475ab"/>
            </g>
          </g>
          <g id="Grupo_1112026" data-name="Grupo 1112026">
            <g id="Grupo_1112025" data-name="Grupo 1112025" clip-path="url(#clip-path)">
              <path id="Trazado_900904" data-name="Trazado 900904" d="M56.683,41.521c.636.509,6.646,14.688,6.421,19.18-.227,4.525,2.129,13.157,2.129,13.157s-7.329,2.751-26.7-.3c-4.783-10.313-7.516-22.465-1.138-28.892,0,0,8.763-5.514,10.405-5.635,0,0,5.805,8.4,8.2,8.371,1.088-.015.808-4.276.684-5.882" transform="translate(-12.889 -14.948)" fill="#fff"/>
              <path id="Trazado_900905" data-name="Trazado 900905" d="M55.011,37.617l.137-3.42,12.311,3.009-.821,3.967s4.1,9.439-1.095,7.934S55.011,37.617,55.011,37.617" transform="translate(-21.067 -13.096)" fill="#fff"/>
              <path id="Trazado_900906" data-name="Trazado 900906" d="M40.315,54.661C41.511,60.8,44,66.642,45.708,72.65c.607,2.126,1.187,4.259,1.754,6.4-2.239-.226-4.815-.556-7.786-1.024-3.786-8.163-4.01-19.7-.776-27.337l1.416,3.977" transform="translate(-14.032 -19.41)" fill="#39194b"/>
              <path id="Trazado_900907" data-name="Trazado 900907" d="M63.507,95.186s-26.708,5.273-28.178.486L33.438,80.764l11.671-3.4L46.476,88c-.137.3,20.387,2.4,20.387,2.4s4.156-.035,6.493,1.088c.123.059,4.719,3.488,6.156,5.54l-8.747.626c-.921-.019-7.258-2.473-7.258-2.473" transform="translate(-12.805 -29.626)" fill="#ffb264"/>
              <path id="Trazado_900908" data-name="Trazado 900908" d="M40.978,46.257s4.2,3.049,3.4,6.908-.3,13.137-.3,13.137L31.73,69.485s-7.515-24.115,9.248-23.227" transform="translate(-11.508 -17.705)" fill="#fff"/>
              <rect id="Rectángulo_404643" data-name="Rectángulo 404643" width="24.068" height="2.822" transform="translate(39.208 66.686)" fill="#000307"/>
              <path id="Trazado_900909" data-name="Trazado 900909" d="M63.541,108.073H79.267l-1.237,2.822H63.541Z" transform="translate(-24.334 -41.387)" fill="#fff"/>
              <path id="Trazado_900910" data-name="Trazado 900910" d="M127.759,96.411H89.827l9.156-26.16h37.933Z" transform="translate(-34.4 -26.903)" fill="#fff"/>
              <path id="Trazado_900911" data-name="Trazado 900911" d="M128.644,91.162a2.381,2.381,0,1,0-2.381,2.382,2.382,2.382,0,0,0,2.381-2.382" transform="translate(-47.441 -33.999)" fill="#000307"/>
              <rect id="Rectángulo_404644" data-name="Rectángulo 404644" width="84.299" height="3.787" transform="translate(32.577 69.498)" fill="#4475ab"/>
            </g>
          </g>
        </g>
        <g id="Grupo_1112029" data-name="Grupo 1112029" transform="translate(47.529 73.168)">
          <g id="Grupo_1112028" data-name="Grupo 1112028" clip-path="url(#clip-path-4)">
            <path id="Trazado_900912" data-name="Trazado 900912" d="M175.738,84.791H76.47v-61A4.834,4.834,0,0,1,81.3,18.955h89.6a4.834,4.834,0,0,1,4.834,4.834Z" transform="translate(-37.044 -9.182)" fill="#fff"/>
            <line id="Línea_451" data-name="Línea 451" x2="99.268" transform="translate(39.426 17.488)" fill="none" stroke="#f5c679" stroke-miterlimit="10" stroke-width="1"/>
            <path id="Trazado_900913" data-name="Trazado 900913" d="M90.561,24.67A2.057,2.057,0,1,0,88.5,26.727a2.058,2.058,0,0,0,2.058-2.057" transform="translate(-41.877 -10.954)" fill="#f5c679"/>
            <path id="Trazado_900914" data-name="Trazado 900914" d="M105.193,24.67a2.057,2.057,0,1,0-2.057,2.057,2.058,2.058,0,0,0,2.057-2.057" transform="translate(-48.965 -10.954)" fill="#e37059"/>
            <path id="Trazado_900915" data-name="Trazado 900915" d="M119.825,24.67a2.057,2.057,0,1,0-2.058,2.057,2.058,2.058,0,0,0,2.058-2.057" transform="translate(-56.053 -10.954)" fill="#4475ab"/>
            <path id="Trazado_900916" data-name="Trazado 900916" d="M100.413,58.527V95.9h78.523" transform="translate(-48.643 -28.352)" fill="none" stroke="#f5c679" stroke-miterlimit="10" stroke-width="1"/>
            <path id="Trazado_900917" data-name="Trazado 900917" d="M100.413,83.671s5.029-16.726,13.03-16.459c10.287.343,9.6,17.83,15.773,17.145,11.241-1.249,8.23-27.431,20.231-24.689,5.313,1.215,3.476,25.055,8.572,28.8,3.207,2.359,10.231-6.7,13.373-8.572a9.4,9.4,0,0,1,6.515-1.029l.343,17.145-77.838.343Z" transform="translate(-48.643 -28.807)" fill="#f5c679"/>
            <path id="Trazado_900918" data-name="Trazado 900918" d="M187.249,50.032h11.332a2.4,2.4,0,0,0,0-4.794H187.249a2.4,2.4,0,1,0,0,4.794" transform="translate(-89.548 -21.915)" fill="#4475ab"/>
            <rect id="Rectángulo_404646" data-name="Rectángulo 404646" width="2.113" height="2.113" transform="translate(104.179 30.766)" fill="#f5c679"/>
            <rect id="Rectángulo_404647" data-name="Rectángulo 404647" width="2.113" height="2.113" transform="translate(107.542 30.766)" fill="#f5c679"/>
            <rect id="Rectángulo_404648" data-name="Rectángulo 404648" width="2.113" height="2.113" transform="translate(107.542 33.902)" fill="#f5c679"/>
            <path id="Trazado_900919" data-name="Trazado 900919" d="M15.283,0V75.78a15.43,15.43,0,0,0,15.43,15.431H76.661A15.43,15.43,0,0,0,92.091,75.78" transform="translate(-7.404)" fill="none" stroke="#fff" stroke-miterlimit="10" stroke-width="1"/>
            <path id="Trazado_900920" data-name="Trazado 900920" d="M15.552,62.985a4.458,4.458,0,1,0-4.458,4.458,4.458,4.458,0,0,0,4.458-4.458" transform="translate(-3.215 -28.352)" fill="#fff"/>
            <path id="Trazado_900921" data-name="Trazado 900921" d="M15.743,60.012a7.621,7.621,0,1,0-7.622,7.622A7.622,7.622,0,0,0,15.743,60.012Z" transform="translate(-0.242 -25.379)" fill="none" stroke="#fff" stroke-miterlimit="10" stroke-width="1"/>
          </g>
        </g>
      </g>
      <g id="Grupo_1112037" data-name="Grupo 1112037" transform="translate(105.916 3.852)">
        <g id="Grupo_1112036" data-name="Grupo 1112036" clip-path="url(#clip-path-5)">
          <g id="Grupo_1112035" data-name="Grupo 1112035" transform="translate(0 0)">
            <g id="Grupo_1112034" data-name="Grupo 1112034" clip-path="url(#clip-path-5)">
              <path id="Trazado_900922" data-name="Trazado 900922" d="M90.112,59.763H0V4.388A4.388,4.388,0,0,1,4.388,0H85.723a4.388,4.388,0,0,1,4.388,4.388Z" transform="translate(0 0)" fill="#fff"/>
              <line id="Línea_452" data-name="Línea 452" x2="90.112" transform="translate(0 7.003)" fill="none" stroke="#f5c679" stroke-miterlimit="10" stroke-width="0.892"/>
              <path id="Trazado_900923" data-name="Trazado 900923" d="M12.638,5.132A1.868,1.868,0,1,0,10.771,7a1.868,1.868,0,0,0,1.867-1.867" transform="translate(-4.234 -1.553)" fill="#f5c679"/>
              <path id="Trazado_900924" data-name="Trazado 900924" d="M25.7,5.132A1.868,1.868,0,1,0,23.83,7,1.867,1.867,0,0,0,25.7,5.132" transform="translate(-10.445 -1.553)" fill="#e37059"/>
              <path id="Trazado_900925" data-name="Trazado 900925" d="M38.755,5.132A1.868,1.868,0,1,0,36.888,7a1.867,1.867,0,0,0,1.867-1.867" transform="translate(-16.655 -1.553)" fill="#4475ab"/>
              <g id="Grupo_1112033" data-name="Grupo 1112033" transform="translate(13.592 13.54)" opacity="0.88">
                <g id="Grupo_1112032" data-name="Grupo 1112032">
                  <g id="Grupo_1112031" data-name="Grupo 1112031" clip-path="url(#clip-path-7)">
                    <path id="Trazado_900926" data-name="Trazado 900926" d="M34.954,44.766A10.111,10.111,0,0,1,45.062,34.85V25.82A19.143,19.143,0,0,0,25.919,44.963c0-.244,4.434-.253,9.035-.2" transform="translate(-25.919 -25.82)" fill="#ffb264"/>
                    <path id="Trazado_900927" data-name="Trazado 900927" d="M72.536,62.324A10.113,10.113,0,0,1,62.423,72.437v9.03A19.143,19.143,0,0,0,81.566,62.324Z" transform="translate(-43.28 -43.181)" fill="#ffb264"/>
                    <path id="Trazado_900928" data-name="Trazado 900928" d="M34.949,62.119c0-.066,0-.132,0-.2-4.6-.057-9.035-.047-9.035.2A19.143,19.143,0,0,0,45.062,81.262v-9.03A10.113,10.113,0,0,1,34.949,62.119" transform="translate(-25.919 -42.976)" fill="#4475ab"/>
                    <path id="Trazado_900929" data-name="Trazado 900929" d="M72.536,44.963h9.03A19.143,19.143,0,0,0,62.423,25.82v9.03A10.113,10.113,0,0,1,72.536,44.963" transform="translate(-43.28 -25.82)" fill="#4475ab"/>
                    <path id="Trazado_900930" data-name="Trazado 900930" d="M57.048,51.017a5.928,5.928,0,0,0-5.926,5.814c2.907.036,5.926.116,5.926.116Z" transform="translate(-37.906 -37.803)" fill="#1b314f"/>
                    <path id="Trazado_900931" data-name="Trazado 900931" d="M62.423,68.253a5.929,5.929,0,0,0,5.929-5.929H62.423Z" transform="translate(-43.28 -43.181)" fill="#1b314f"/>
                    <path id="Trazado_900932" data-name="Trazado 900932" d="M51.119,62.1c0,.039,0,.077,0,.116a5.929,5.929,0,0,0,5.929,5.929V62.219s-3.02-.08-5.926-.116" transform="translate(-37.903 -43.076)" fill="#1b314f"/>
                    <path id="Trazado_900933" data-name="Trazado 900933" d="M62.423,51.017v5.929h5.929a5.929,5.929,0,0,0-5.929-5.929" transform="translate(-43.28 -37.803)" fill="#d4603f"/>
                  </g>
                </g>
              </g>
              <rect id="Rectángulo_404652" data-name="Rectángulo 404652" width="8.654" height="1.129" transform="translate(62.565 19.881)" fill="#ffb264"/>
              <rect id="Rectángulo_404653" data-name="Rectángulo 404653" width="19.713" height="1.129" transform="translate(62.565 22.89)" fill="#ffb264"/>
              <rect id="Rectángulo_404654" data-name="Rectángulo 404654" width="27.184" height="14.111" transform="translate(59.348 15.719)" fill="none" stroke="#f5c679" stroke-miterlimit="10" stroke-width="0.892"/>
              <rect id="Rectángulo_404655" data-name="Rectángulo 404655" width="8.654" height="1.129" transform="translate(67.648 44.576)" fill="#ffb264"/>
              <path id="Trazado_900934" data-name="Trazado 900934" d="M120.479,84.575a1.971,1.971,0,1,0-1.971,1.971,1.971,1.971,0,0,0,1.971-1.971" transform="translate(-55.424 -39.286)" fill="#4475ab"/>
            </g>
          </g>
        </g>
      </g>
    </g>
  </g>
</svg>
