<svg xmlns="http://www.w3.org/2000/svg" width="290.524" height="437" viewBox="0 0 290.524 437">
  <g id="Grupo_1111910" data-name="Grupo 1111910" transform="translate(-368 -2379)">
    <rect id="Rectángulo_404555" data-name="Rectángulo 404555" width="179" height="401" rx="89.5" transform="translate(421 2398)" fill="#feead2"/>
    <g id="Grupo_70270" data-name="Grupo 70270" transform="translate(-547.563 -462)">
      <g id="Grupo_70264" data-name="Grupo 70264" transform="translate(915.563 2841)">
        <rect id="Rectángulo_31121" data-name="Rectángulo 31121" width="290.524" height="437" transform="translate(0 0)" fill="none"/>
      </g>
      <g id="Grupo_68414" data-name="Grupo 68414" transform="translate(941.127 2841)">
        <rect id="Rectángulo_31400" data-name="Rectángulo 31400" width="243.015" height="435.842" transform="translate(0)" fill="none"/>
        <g id="Grupo_63545" data-name="Grupo 63545" transform="translate(151.692 331.452)">
          <g id="Grupo_63544" data-name="Grupo 63544">
            <path id="Trazado_140317" data-name="Trazado 140317" d="M1641.11,4355.048v14.2h3.279a19.716,19.716,0,0,1,0-4.53c.311-1.7,3.873-5.992,3.766-9.695Z" transform="translate(-1638.879 -4264.691)" fill="#e2dacc"/>
            <path id="Trazado_140318" data-name="Trazado 140318" d="M1687.43,4355.048v14.2h3.279a19.716,19.716,0,0,1,0-4.53c.312-1.7,3.868-5.992,3.766-9.695Z" transform="translate(-1658.968 -4264.691)" fill="#839eb6"/>
            <path id="Trazado_140319" data-name="Trazado 140319" d="M1727.372,4355.048v14.2h-3.262a20.086,20.086,0,0,0,0-4.53c-.317-1.7-3.873-5.992-3.771-9.695Z" transform="translate(-1673.24 -4264.691)" fill="#e2dacc"/>
            <path id="Trazado_140320" data-name="Trazado 140320" d="M1767.453,4355.048v14.2h-3.279a20.079,20.079,0,0,0,0-4.53c-.311-1.7-3.873-5.992-3.766-9.695Z" transform="translate(-1690.618 -4264.691)" fill="#839eb6"/>
            <rect id="Rectángulo_15044" data-name="Rectángulo 15044" width="78.556" height="70.543" transform="translate(0 20.273)" fill="#e2dacc"/>
            <path id="Trazado_140321" data-name="Trazado 140321" d="M2109.51,4443.966l.589,70.543h20.579V4443.96Z" transform="translate(-2052.122 -4423.692)" fill="#839eb6"/>
            <rect id="Rectángulo_15045" data-name="Rectángulo 15045" width="50.434" height="17.951" transform="translate(3.534 25.46)" fill="#e2dacc"/>
            <rect id="Rectángulo_15046" data-name="Rectángulo 15046" width="50.434" height="17.951" transform="translate(3.534 46.991)" fill="#e2dacc"/>
            <rect id="Rectángulo_15047" data-name="Rectángulo 15047" width="50.434" height="17.951" transform="translate(3.534 68.516)" fill="#e2dacc"/>
            <g id="Grupo_63543" data-name="Grupo 63543" transform="translate(20.692)">
              <path id="Trazado_140322" data-name="Trazado 140322" d="M2046.884,4408.169l-2.174,20.188h27.873l2.311-20.188Z" transform="translate(-2044.71 -4408.169)" fill="#839eb6"/>
              <path id="Trazado_140323" data-name="Trazado 140323" d="M2048.952,4410.729l-2.112,17.668h25.155l2.033-17.668Z" transform="translate(-2045.634 -4409.28)" fill="#fff"/>
              <path id="Trazado_140324" data-name="Trazado 140324" d="M2057.052,4415.98l-1.3,11.723h15.873l.815-11.723Z" transform="translate(-2049.498 -4411.557)" fill="#e2dacc"/>
            </g>
            <path id="Trazado_140325" data-name="Trazado 140325" d="M2095.244,4423.52l5.759,11.575-7.073-.08,1.314-11.5" transform="translate(-2045.365 -4414.828)" fill="#e2dacc"/>
          </g>
          <path id="Trazado_140326" data-name="Trazado 140326" d="M1688.372,4256.586a1.846,1.846,0,1,1-1.846-1.846,1.846,1.846,0,0,1,1.846,1.846Z" transform="translate(-1657.775 -4221.199)" fill="#839eb6"/>
          <path id="Trazado_140327" data-name="Trazado 140327" d="M1688.372,4294.956a1.846,1.846,0,1,1-1.846-1.846,1.846,1.846,0,0,1,1.846,1.846Z" transform="translate(-1657.775 -4237.839)" fill="#839eb6"/>
          <path id="Trazado_140328" data-name="Trazado 140328" d="M1688.372,4333.356a1.846,1.846,0,1,1-1.846-1.846,1.846,1.846,0,0,1,1.846,1.846Z" transform="translate(-1657.775 -4254.494)" fill="#839eb6"/>
        </g>
        <g id="Grupo_63546" data-name="Grupo 63546" transform="translate(7.03 159.643)">
          <path id="Trazado_140329" data-name="Trazado 140329" d="M2069.305,4241.131l-44.625-.431,1.243,58.158,44.626.165Z" transform="translate(-2024.68 -4240.7)" fill="#839eb6"/>
          <path id="Trazado_140330" data-name="Trazado 140330" d="M2068.475,4245.266l-39.065-1.016,1.129,52.745,39.054.482Z" transform="translate(-2026.726 -4242.236)" fill="#fafafa"/>
          <path id="Trazado_140331" data-name="Trazado 140331" d="M2066.744,4259.59l-25.924-.431.794,36.87,25.9-.556Z" transform="translate(-2031.662 -4248.685)" fill="#e2dacc"/>
          <path id="Trazado_140332" data-name="Trazado 140332" d="M2041.614,4296.029l25.487-19.5-26.281-17.374Z" transform="translate(-2031.662 -4248.685)" fill="#e2dacc"/>
        </g>
        <g id="Grupo_63547" data-name="Grupo 63547" transform="translate(198.367 7.065)">
          <path id="Trazado_140333" data-name="Trazado 140333" d="M2411.926,4187.75l-39.156-.38,1.095,51.02,39.144.142Z" transform="translate(-2372.77 -4187.37)" fill="#839eb6"/>
          <path id="Trazado_140334" data-name="Trazado 140334" d="M2411.191,4191.37l-34.271-.89.993,46.271,34.26.426Z" transform="translate(-2374.565 -4188.715)" fill="#fafafa"/>
          <path id="Trazado_140335" data-name="Trazado 140335" d="M2409.675,4203.94l-22.735-.38.692,32.347,22.719-.488Z" transform="translate(-2378.9 -4194.374)" fill="#e2dacc"/>
          <path id="Trazado_140336" data-name="Trazado 140336" d="M2387.632,4235.907l22.361-17.1-23.053-15.246Z" transform="translate(-2378.9 -4194.374)" fill="#e2dacc"/>
        </g>
        <g id="Grupo_63548" data-name="Grupo 63548" transform="translate(62.869 385.645)">
          <path id="Trazado_140337" data-name="Trazado 140337" d="M1993.477,4313.479c-.165.5,5.674,22.7,5.674,22.7l4.006-.834-5.509-21.862Z" transform="translate(-1993.474 -4300.94)" fill="#e2dacc"/>
          <path id="Trazado_140338" data-name="Trazado 140338" d="M2413.082,4520.55l-8.011,25.868h4.675l7.677-24.035Z" transform="translate(-2382.036 -4511.183)" fill="#e2dacc"/>
          <path id="Trazado_140339" data-name="Trazado 140339" d="M2425.13,4513.48l-9.18,29.879h4.675l8.846-28.041Z" transform="translate(-2386.743 -4508.125)" fill="#e2dacc"/>
          <path id="Trazado_140340" data-name="Trazado 140340" d="M2369.48,4562.9l4.676,16.188h23.53l4.341-16.188Z" transform="translate(-2366.639 -4529.503)" fill="#839eb6"/>
          <path id="Trazado_140341" data-name="Trazado 140341" d="M2010.941,4324.777a1.53,1.53,0,0,1-.051-.164l-.125-.494c-.108-.46-.255-1.095-.448-1.912l-1.617-7.07c-1.345-6.008-3.206-14.31-5.282-23.575l.142.114h-4.119l.142-.176c2.094,9.271,3.972,17.589,5.317,23.592.658,2.985,1.191,5.4,1.56,7.087.176.823.312,1.47.414,1.923.04.21.074.375.1.505a.566.566,0,0,1,0,.17,1.518,1.518,0,0,1-.051-.165c-.034-.125-.074-.29-.125-.494-.114-.459-.267-1.1-.465-1.912-.391-1.7-.953-4.091-1.651-7.07-1.379-6.008-3.28-14.31-5.4-23.575l-.045-.182h4.426v.12c2.037,9.271,3.87,17.589,5.192,23.592.641,2.984,1.135,5.4,1.526,7.087.17.823.3,1.469.4,1.923l.1.505A.569.569,0,0,1,2010.941,4324.777Z" transform="translate(-1995.964 -4291.38)" fill="#839eb6"/>
        </g>
        <g id="Grupo_63559" data-name="Grupo 63559" transform="translate(39.792 3.319)">
          <rect id="Rectángulo_15048" data-name="Rectángulo 15048" width="176.444" height="241.773" transform="translate(0 19.186)" fill="#8454ee"/>
          <path id="Trazado_140358" data-name="Trazado 140358" d="M2289.47,4450.075H2134.7V4232.45h154.77v217.625Z" transform="translate(-2120.003 -4203.493)" fill="#839eb6"/>
          <path id="Trazado_140359" data-name="Trazado 140359" d="M2286.63,4444.96H2133.25V4228.5h153.38v216.46Z" transform="translate(-2119.608 -4202.417)" fill="#e2dacc"/>
          <g id="Grupo_63552" data-name="Grupo 63552" transform="translate(10.673 26.469)">
            <path id="Trazado_140360" data-name="Trazado 140360" d="M2269.08,4428.322l-17.665,14.384H2129.32V4229.25H2284.1v186.9Z" transform="translate(-2129.211 -4229.09)" fill="#fafafa"/>
            <path id="Trazado_140361" data-name="Trazado 140361" d="M1898.039,4215.6l.946-.785,2.83-2.314,11.2-9.116v.051c0-30.7-.058-98.95-.109-186.9l.167.167H1758.3l.189-.189c0,80.244,0,154.246-.044,213.448l-.145-.145,122.095.087h-.044l13.271-10.768,3.325-2.685c.728-.6,1.113-.888,1.113-.888s-.364.313-1.091.917l-3.3,2.714-13.249,10.813h0l-122.094.086h-.153V4016.37H1913.3v.175c-.051,87.978-.095,156.2-.109,186.9h0l-11.343,9.1-2.852,2.292C1898.366,4215.354,1898.039,4215.6,1898.039,4215.6Z" transform="translate(-1758.17 -4016.37)" fill="#344154"/>
          </g>
          <path id="Trazado_140362" data-name="Trazado 140362" d="M2202.978,4208.75h42.308a10.3,10.3,0,0,1,10.295,10.295v11.416h-63.343v-10.979a10.738,10.738,0,0,1,10.739-10.73Z" transform="translate(-2135.677 -4197.035)" fill="#fd9827"/>
          <path id="Trazado_140363" data-name="Trazado 140363" d="M2212.684,4204.364l-2.314-11.715h36.466l-2.022,11.715Z" transform="translate(-2140.617 -4192.649)" fill="#fd9827"/>
          <g id="Grupo_63553" data-name="Grupo 63553" transform="translate(26.971 60.644)">
            <path id="Trazado_140364" data-name="Trazado 140364" d="M1806.639,4089.417H1780.57V4063.34h26.069Zm-25.342-.728h24.614v-24.621H1781.3Z" transform="translate(-1780.57 -4063.34)" fill="#fd9827"/>
            <path id="Trazado_140365" data-name="Trazado 140365" d="M1912.693,4071.929c0,.109-18.189.189-40.541.189s-40.533-.08-40.533-.189,18.146-.189,40.533-.189S1912.693,4071.82,1912.693,4071.929Z" transform="translate(-1794.477 -4065.628)" fill="#344154"/>
            <path id="Trazado_140366" data-name="Trazado 140366" d="M1912.693,4079.369c0,.1-18.189.189-40.541.189s-40.533-.088-40.533-.189,18.146-.189,40.533-.189S1912.693,4079.26,1912.693,4079.369Z" transform="translate(-1794.477 -4067.655)" fill="#344154"/>
            <path id="Trazado_140367" data-name="Trazado 140367" d="M1912.693,4086.819c0,.1-18.189.189-40.541.189s-40.533-.088-40.533-.189,18.146-.189,40.533-.189S1912.693,4086.71,1912.693,4086.819Z" transform="translate(-1794.477 -4069.685)" fill="#344154"/>
            <path id="Trazado_140368" data-name="Trazado 140368" d="M1912.693,4094.259c0,.109-18.189.189-40.541.189s-40.533-.08-40.533-.189,18.146-.189,40.533-.189S1912.693,4094.157,1912.693,4094.259Z" transform="translate(-1794.477 -4071.711)" fill="#344154"/>
          </g>
          <g id="Grupo_63554" data-name="Grupo 63554" transform="translate(26.971 100.828)">
            <path id="Trazado_140369" data-name="Trazado 140369" d="M1806.639,4144.646H1780.57V4118.57h26.069Zm-25.342-.728h24.614V4119.3H1781.3Z" transform="translate(-1780.57 -4118.57)" fill="#fd9827"/>
            <path id="Trazado_140370" data-name="Trazado 140370" d="M2158.69,4345.418l3.463-3.718,5.77,4.62,13.206-12.82,3.165,3.726-16.625,16.4Z" transform="translate(-2153.51 -4331.849)" fill="#fd9827"/>
            <path id="Trazado_140371" data-name="Trazado 140371" d="M1912.693,4127.149c0,.109-18.189.189-40.541.189s-40.533-.08-40.533-.189,18.146-.189,40.533-.189S1912.693,4127.047,1912.693,4127.149Z" transform="translate(-1794.477 -4120.856)" fill="#344154"/>
            <path id="Trazado_140372" data-name="Trazado 140372" d="M1912.693,4134.6c0,.109-18.189.188-40.541.188s-40.533-.08-40.533-.188,18.146-.189,40.533-.189S1912.693,4134.5,1912.693,4134.6Z" transform="translate(-1794.477 -4122.886)" fill="#344154"/>
            <path id="Trazado_140373" data-name="Trazado 140373" d="M1912.693,4142.05c0,.1-18.189.188-40.541.188s-40.533-.087-40.533-.188,18.146-.189,40.533-.189S1912.693,4141.962,1912.693,4142.05Z" transform="translate(-1794.477 -4124.916)" fill="#344154"/>
            <path id="Trazado_140374" data-name="Trazado 140374" d="M1912.693,4149.5c0,.1-18.189.188-40.541.188s-40.533-.087-40.533-.188,18.146-.189,40.533-.189S1912.693,4149.39,1912.693,4149.5Z" transform="translate(-1794.477 -4126.945)" fill="#344154"/>
          </g>
          <g id="Grupo_63555" data-name="Grupo 63555" transform="translate(26.971 62.381)">
            <path id="Trazado_140375" data-name="Trazado 140375" d="M1806.639,4198.091H1780.57V4172h26.069Zm-25.342-.728h24.614v-24.636H1781.3Z" transform="translate(-1780.57 -4094.678)" fill="#fd9827"/>
            <path id="Trazado_140376" data-name="Trazado 140376" d="M2158.69,4398.865l3.463-3.717,5.77,4.619,13.206-12.827,3.165,3.732-16.625,16.4Z" transform="translate(-2153.51 -4386.939)" fill="#fd9827"/>
            <path id="Trazado_140377" data-name="Trazado 140377" d="M1912.693,4180.6c0,.109-18.189.189-40.541.189s-40.533-.08-40.533-.189,18.146-.188,40.533-.188S1912.693,4180.5,1912.693,4180.6Z" transform="translate(-1794.477 -4096.971)" fill="#344154"/>
            <path id="Trazado_140378" data-name="Trazado 140378" d="M1912.693,4188.049c0,.1-18.189.189-40.541.189s-40.533-.087-40.533-.189,18.146-.189,40.533-.189S1912.693,4187.962,1912.693,4188.049Z" transform="translate(-1794.477 -4099)" fill="#344154"/>
            <path id="Trazado_140379" data-name="Trazado 140379" d="M1912.693,4195.5c0,.1-18.189.188-40.541.188s-40.533-.087-40.533-.188,18.146-.189,40.533-.189S1912.693,4195.39,1912.693,4195.5Z" transform="translate(-1794.477 -4101.029)" fill="#344154"/>
            <path id="Trazado_140380" data-name="Trazado 140380" d="M1912.693,4202.93c0,.109-18.189.189-40.541.189s-40.533-.08-40.533-.189,18.146-.189,40.533-.189S1912.693,4202.834,1912.693,4202.93Z" transform="translate(-1794.477 -4103.054)" fill="#344154"/>
          </g>
          <g id="Grupo_63556" data-name="Grupo 63556" transform="translate(26.971 177.259)">
            <path id="Trazado_140381" data-name="Trazado 140381" d="M1806.639,4249.7H1780.57V4223.62h26.069Zm-25.342-.728h24.614v-24.621H1781.3Z" transform="translate(-1780.57 -4223.62)" fill="#fd9827"/>
            <path id="Trazado_140382" data-name="Trazado 140382" d="M2158.69,4450.475l3.463-3.718,5.77,4.613,13.206-12.82,3.165,3.733-16.625,16.4Z" transform="translate(-2153.51 -4436.898)" fill="#fd9827"/>
            <path id="Trazado_140383" data-name="Trazado 140383" d="M1912.693,4232.209c0,.1-18.189.188-40.541.188s-40.533-.087-40.533-.188,18.146-.189,40.533-.189S1912.693,4232.1,1912.693,4232.209Z" transform="translate(-1794.477 -4225.908)" fill="#344154"/>
            <path id="Trazado_140384" data-name="Trazado 140384" d="M1912.693,4239.659c0,.1-18.189.189-40.541.189s-40.533-.087-40.533-.189,18.146-.189,40.533-.189S1912.693,4239.55,1912.693,4239.659Z" transform="translate(-1794.477 -4227.938)" fill="#344154"/>
            <path id="Trazado_140385" data-name="Trazado 140385" d="M1912.693,4247.1c0,.109-18.189.189-40.541.189s-40.533-.08-40.533-.189,18.146-.188,40.533-.188S1912.693,4246.976,1912.693,4247.1Z" transform="translate(-1794.477 -4229.965)" fill="#344154"/>
            <path id="Trazado_140386" data-name="Trazado 140386" d="M1912.693,4254.549c0,.1-18.189.189-40.541.189s-40.533-.088-40.533-.189,18.146-.189,40.533-.189S1912.693,4254.447,1912.693,4254.549Z" transform="translate(-1794.477 -4231.994)" fill="#344154"/>
          </g>
          <path id="Trazado_140387" data-name="Trazado 140387" d="M2297.447,4474.06,2280.48,4509.2h12.114Z" transform="translate(-2159.717 -4269.313)" fill="#839eb6"/>
          <g id="Grupo_63557" data-name="Grupo 63557" transform="translate(132.861 204.732)">
            <path id="Trazado_140388" data-name="Trazado 140388" d="M2297.13,4509.471l4.853-35.142,27.829,8.585Z" transform="translate(-2297.113 -4474.119)" fill="#fafafa"/>
            <path id="Trazado_140389" data-name="Trazado 140389" d="M1926.124,4296.754l9.357-7.7,23.2-19,.066.32L1948,4267.069l-17.076-5.282.226-.145c-1.455,10.186-2.7,18.953-3.587,25.166-.873,6.039-1.324,9.161-1.455,9.946a1.51,1.51,0,0,1,0-.152l.065-.487c.058-.452.138-1.091.247-1.914.226-1.7.546-4.162.953-7.239.844-6.272,2.023-15.083,3.4-25.371v-.211l.2.066,17.091,5.259,10.739,3.318.335.1-.269.218-23.486,18.917-6.861,5.515-1.833,1.455c-.189.161-.349.277-.466.371S1926.124,4296.754,1926.124,4296.754Z" transform="translate(-1926.107 -4261.38)" fill="#344154"/>
          </g>
          <g id="Grupo_63558" data-name="Grupo 63558" transform="translate(101.693 0)" opacity="0.3">
            <path id="Trazado_140390" data-name="Trazado 140390" d="M2256.278,4192.649l-2.008,11.715h2.5l2.023-11.715h-3.187" transform="translate(-2254.27 -4192.649)" fill="#fd9827"/>
          </g>
        </g>
        <g id="Grupo_63576" data-name="Grupo 63576" transform="translate(4.325 212.408)">
          <g id="Grupo_63560" data-name="Grupo 63560" transform="translate(17.817 5.854)">
            <path id="Trazado_140391" data-name="Trazado 140391" d="M1737.146,4135.224h0a6.549,6.549,0,0,0,7.036-6.279c.138-3.558.262-7.16.262-7.16s5.4-.509,5.821-5.82.211-17.68.211-17.68h0a18.627,18.627,0,0,0-18.815,1.208l.328,18.808v10.114C1731.995,4131.782,1733.762,4134.961,1737.146,4135.224Z" transform="translate(-1720.374 -4086.611)" fill="#ffbf9d"/>
            <path id="Trazado_140392" data-name="Trazado 140392" d="M1743.857,4107.7a2.735,2.735,0,0,0-3.638-.793,3.1,3.1,0,0,0-1.033,3.878,4.079,4.079,0,0,0,2.619,1.986,2.052,2.052,0,0,1,1.608,2.183,6.865,6.865,0,0,1-1.877,3.726,9.892,9.892,0,0,1-6.184,2.91c-2.277.269-4.882-.211-6.206-2.082-.968-1.36-1.033-3.135-1.069-4.8q-.124-5.915-.247-11.823a17.24,17.24,0,0,1,.269-4.242,5.716,5.716,0,0,1,2.241-3.506c1.3-.851,2.91-.924,4.423-1.4,1.855-.6,3.427-1.826,5.158-2.713s3.849-1.412,5.588-.539c1.251.626,2.088,1.87,3.3,2.561,1.732.982,4.082.727,4.918,3.3a4.3,4.3,0,0,1,0,2.721c-1.171,3.456-5.449,4.846-8.535,3.354a8.407,8.407,0,0,1-.1,3.74c-.2.589-.262,1.492-1.186,1.505" transform="translate(-1719.322 -4084.906)" fill="#344154"/>
            <path id="Trazado_140393" data-name="Trazado 140393" d="M1726.212,4094.79a18.178,18.178,0,0,0,1.717-5.369,6.155,6.155,0,0,0-1.681-5.187,5.092,5.092,0,0,0-3.521-1.244,5.943,5.943,0,0,0-5.37,4.249,6.409,6.409,0,0,0,2.182,6.548,6.964,6.964,0,0,0,6.927.9" transform="translate(-1716.425 -4082.986)" fill="#344154"/>
            <path id="Trazado_140394" data-name="Trazado 140394" d="M1730.052,4096.53a2.634,2.634,0,0,1-2.532,2.474,9.715,9.715,0,0,0,1.455-1.019,11.416,11.416,0,0,0,1.077-1.455Z" transform="translate(-1719.246 -4086.676)" fill="#fd9827"/>
            <path id="Trazado_140395" data-name="Trazado 140395" d="M1726.349,4096.5a5.088,5.088,0,0,1-1.455,1.063,4.1,4.1,0,0,1-1.906.538,2.648,2.648,0,0,1-2.234-1,2.952,2.952,0,0,1-.393-2.415,4.683,4.683,0,0,1,.895-1.768,5.447,5.447,0,0,1,1.266-1.274c.051,0-.422.546-1.048,1.455a4.823,4.823,0,0,0-.771,1.688,2.66,2.66,0,0,0,.357,2.117,2.342,2.342,0,0,0,1.921.874,4.066,4.066,0,0,0,1.8-.429C1725.753,4096.852,1726.313,4096.445,1726.349,4096.5Z" transform="translate(-1717.268 -4085.345)" fill="#344154"/>
            <path id="Trazado_140396" data-name="Trazado 140396" d="M1716.149,4104.591a2.477,2.477,0,0,1,.255.589,5.905,5.905,0,0,0,.793,1.521,2.182,2.182,0,0,0,2.088.967,2.908,2.908,0,0,0,2.015-2.03,20.441,20.441,0,0,0,.546-3.105,4.787,4.787,0,0,1,1.019-2.445,2.635,2.635,0,0,1,1.557-.888,1.021,1.021,0,0,1,.655.058c0,.036-.24,0-.626.088a2.635,2.635,0,0,0-1.383.917,4.707,4.707,0,0,0-.88,2.329,18.387,18.387,0,0,1-.531,3.172,3.189,3.189,0,0,1-2.306,2.248,2.141,2.141,0,0,1-1.455-.284,2.908,2.908,0,0,1-.917-.866,5.3,5.3,0,0,1-.728-1.637A1.655,1.655,0,0,1,1716.149,4104.591Z" transform="translate(-1716.148 -4087.394)" fill="#344154"/>
          </g>
          <path id="Trazado_140397" data-name="Trazado 140397" d="M1712.086,4168.3s-2.728,19.95,0,22.482,5.341,1.688,5.341,1.688l5.188-4.366,1.019-19.833Z" transform="translate(-1696.894 -4100.366)" fill="#ffbf9d"/>
          <g id="Grupo_63561" data-name="Grupo 63561" transform="translate(58.286 0)">
            <path id="Trazado_140398" data-name="Trazado 140398" d="M2160.99,4299.525l3.463-3.718,5.77,4.62,13.206-12.826,3.165,3.732-16.625,16.4Z" transform="translate(-2147.734 -4287.601)" fill="#fd9827"/>
            <path id="Trazado_140399" data-name="Trazado 140399" d="M1801.295,4092.728l-5.02,3.216c-.225-1.979-1.739-3.951-1.666-2.955s0,6.17,0,6.17L1785.652,4118a8.906,8.906,0,0,1-5.522,5.3l-8.36,2.488,3.267,11.045,11.641-3.85a10.033,10.033,0,0,0,6.366-6.381l8-24.395a37.66,37.66,0,0,0,1.3-4.8C1802.677,4095.369,1801.295,4092.728,1801.295,4092.728Z" transform="translate(-1771.77 -4079.784)" fill="#ffbf9d"/>
          </g>
          <g id="Grupo_63565" data-name="Grupo 63565" transform="translate(36.03 213.383)">
            <g id="Grupo_63563" data-name="Grupo 63563" transform="translate(0.058)">
              <path id="Trazado_140400" data-name="Trazado 140400" d="M1751.853,4373.808l-.131-5.588-10.463.167.094,8.178h.655c2.91.117,14.7.378,16.625-.241C1760.773,4375.67,1751.853,4373.808,1751.853,4373.808Z" transform="translate(-1741.26 -4368.22)" fill="#fd9827"/>
              <g id="Grupo_63562" data-name="Grupo 63562" transform="translate(0.058 5.278)" opacity="0.5">
                <path id="Trazado_140401" data-name="Trazado 140401" d="M1745.174,4378.4a3.639,3.639,0,0,0-1.375-2.182,3.549,3.549,0,0,0-2.459-.728l.044,2.909Z" transform="translate(-1741.34 -4375.475)" fill="#fff"/>
              </g>
            </g>
            <g id="Grupo_63564" data-name="Grupo 63564" transform="translate(0.153 6.65)" opacity="0.4">
              <path id="Trazado_140402" data-name="Trazado 140402" d="M1756.247,4377.359s3.129.851,2.75,1.369-12.325.727-17.607.327v-.232l13.94-.1S1755.657,4377.4,1756.247,4377.359Z" transform="translate(-1741.39 -4377.359)" fill="#fff"/>
            </g>
            <path id="Trazado_140403" data-name="Trazado 140403" d="M1741.18,4379.248a.943.943,0,0,0,.182,0h.517l1.906.051c1.608,0,3.827.051,6.279,0s4.679-.116,6.279-.2l1.906-.109.516-.043a.552.552,0,0,0,.175,0h-.7l-1.9.065c-1.608.058-3.827.124-6.279.16s-4.671.036-6.279,0h-2.6Z" transform="translate(-1741.18 -4371.143)" fill="#344154"/>
            <path id="Trazado_140404" data-name="Trazado 140404" d="M1760.567,4378.845a3.91,3.91,0,0,1,.342-.917,4.075,4.075,0,0,1,.633-.727,1.389,1.389,0,0,0-.728.668A1.456,1.456,0,0,0,1760.567,4378.845Z" transform="translate(-1746.459 -4370.667)" fill="#344154"/>
            <path id="Trazado_140405" data-name="Trazado 140405" d="M1756.288,4377.04a2.111,2.111,0,0,0,.327-.408c.153-.247.24-.452.211-.474s-.175.168-.32.409S1756.259,4377.025,1756.288,4377.04Z" transform="translate(-1745.295 -4370.382)" fill="#344154"/>
            <path id="Trazado_140406" data-name="Trazado 140406" d="M1755.118,4376.545a1.793,1.793,0,0,0,.364-.248c.182-.16.3-.32.276-.349s-.189.088-.364.255S1755.089,4376.523,1755.118,4376.545Z" transform="translate(-1744.976 -4370.324)" fill="#344154"/>
            <path id="Trazado_140407" data-name="Trazado 140407" d="M1754.36,4375.4a1.415,1.415,0,0,0,.546.059,1.172,1.172,0,0,0,.546-.066,1.128,1.128,0,0,0-.546-.058,1.2,1.2,0,0,0-.546.065Z" transform="translate(-1744.77 -4370.155)" fill="#344154"/>
            <path id="Trazado_140408" data-name="Trazado 140408" d="M1754.09,4374.47a1,1,0,0,0,.611.167,1.042,1.042,0,0,0,.633-.095,4.957,4.957,0,0,0-.626,0A3.062,3.062,0,0,0,1754.09,4374.47Z" transform="translate(-1744.697 -4369.923)" fill="#344154"/>
            <path id="Trazado_140409" data-name="Trazado 140409" d="M1756.76,4375.757a1.837,1.837,0,0,0,.67,0,4.035,4.035,0,0,0,.727-.167,2.2,2.2,0,0,0,.408-.175.374.374,0,0,0,.167-.218.262.262,0,0,0-.109-.262,1.222,1.222,0,0,0-1.521.385,1.278,1.278,0,0,0-.211.451.436.436,0,0,0,0,.182,2.105,2.105,0,0,1,.3-.582,1.167,1.167,0,0,1,.568-.378,1.041,1.041,0,0,1,.807.036c.1.08.066.2-.051.277a1.757,1.757,0,0,1-.378.167,5.065,5.065,0,0,1-.691.2A6.774,6.774,0,0,0,1756.76,4375.757Z" transform="translate(-1745.424 -4370.017)" fill="#344154"/>
            <path id="Trazado_140410" data-name="Trazado 140410" d="M1756.665,4375.667a.662.662,0,0,0,.073-.466,1.1,1.1,0,0,0-.2-.488.649.649,0,0,0-.56-.334.266.266,0,0,0-.168.114.261.261,0,0,0-.036.2.727.727,0,0,0,.117.3,1.845,1.845,0,0,0,.327.4,1.048,1.048,0,0,0,.385.27s-.131-.124-.32-.334a2.333,2.333,0,0,1-.291-.393c-.094-.146-.16-.4,0-.429s.342.146.444.276a1.121,1.121,0,0,1,.2.436A2.674,2.674,0,0,1,1756.665,4375.667Z" transform="translate(-1745.155 -4369.897)" fill="#344154"/>
            <path id="Trazado_140411" data-name="Trazado 140411" d="M1741.42,4375.368a4.338,4.338,0,0,1,.771,0,3.318,3.318,0,0,1,1.7.669,3.361,3.361,0,0,1,1.077,1.455c.167.443.189.729.211.729a.548.548,0,0,0,0-.212,2.969,2.969,0,0,0-.124-.561,3.167,3.167,0,0,0-2.852-2.2,2.689,2.689,0,0,0-.574,0A.648.648,0,0,0,1741.42,4375.368Z" transform="translate(-1741.245 -4370.129)" fill="#344154"/>
            <path id="Trazado_140412" data-name="Trazado 140412" d="M1742.793,4369.411a16.954,16.954,0,0,0-.058,2.182,17.554,17.554,0,0,0,.065,2.147,16.826,16.826,0,0,0,.058-2.147,19.671,19.671,0,0,0-.066-2.183Z" transform="translate(-1741.6 -4368.544)" fill="#344154"/>
            <path id="Trazado_140413" data-name="Trazado 140413" d="M1748.39,4378.049a5.731,5.731,0,0,0,1.535.131,6.377,6.377,0,0,0,1.528-.146c0-.037-.691,0-1.528,0A12.8,12.8,0,0,0,1748.39,4378.049Z" transform="translate(-1743.144 -4370.889)" fill="#344154"/>
            <path id="Trazado_140414" data-name="Trazado 140414" d="M1745.58,4378.1s.058.146.124.3.117.3.153.291.051-.168,0-.342S1745.6,4378.069,1745.58,4378.1Z" transform="translate(-1742.378 -4370.91)" fill="#344154"/>
            <path id="Trazado_140415" data-name="Trazado 140415" d="M1744.49,4376.788a.644.644,0,0,0,.16.248c.116.109.218.175.24.146s-.044-.131-.153-.24S1744.519,4376.767,1744.49,4376.788Z" transform="translate(-1742.082 -4370.553)" fill="#344154"/>
            <path id="Trazado_140416" data-name="Trazado 140416" d="M1743,4376.186c0,.036.153.036.306.087s.262.132.291.109-.058-.167-.255-.232S1743,4376.157,1743,4376.186Z" transform="translate(-1741.676 -4370.373)" fill="#344154"/>
            <path id="Trazado_140417" data-name="Trazado 140417" d="M1741.88,4375.983a.293.293,0,0,0,.131.116.278.278,0,0,0,.182,0c.015,0-.051-.088-.138-.124S1741.887,4375.911,1741.88,4375.983Z" transform="translate(-1741.37 -4370.323)" fill="#344154"/>
          </g>
          <g id="Grupo_63569" data-name="Grupo 63569" transform="translate(0 206.173)">
            <g id="Grupo_63567" data-name="Grupo 63567" transform="translate(0)">
              <path id="Trazado_140418" data-name="Trazado 140418" d="M1701.409,4369.318l3.551-4.315-8.047-6.693-5.253,6.257.466.444c2.117,1.972,10.914,9.88,12.762,10.667C1706.961,4376.55,1701.409,4369.318,1701.409,4369.318Z" transform="translate(-1691.66 -4358.31)" fill="#fd9827"/>
              <g id="Grupo_63566" data-name="Grupo 63566" transform="translate(0.102 3.871)" opacity="0.5">
                <path id="Trazado_140419" data-name="Trazado 140419" d="M1694.667,4368.38a3.635,3.635,0,0,0,.4-2.567,3.543,3.543,0,0,0-1.4-2.183l-1.87,2.249Z" transform="translate(-1691.8 -4363.629)" fill="#fff"/>
              </g>
            </g>
            <g id="Grupo_63568" data-name="Grupo 63568" transform="translate(0 6.09)" opacity="0.4">
              <path id="Trazado_140420" data-name="Trazado 140420" d="M1704.021,4375.251s1.819,2.685,1.193,2.829-9.808-7.5-13.555-11.233l.16-.167,10.63,9.016S1703.548,4374.916,1704.021,4375.251Z" transform="translate(-1691.66 -4366.68)" fill="#fff"/>
            </g>
            <path id="Trazado_140421" data-name="Trazado 140421" d="M1691.71,4366.53l.124.124.378.357,1.411,1.28c1.193,1.076,2.867,2.539,4.751,4.111s3.638,2.961,4.889,3.943l1.513,1.157.415.313c.095.065.145.1.153.095l-.138-.117-.4-.328-1.455-1.193c-1.259-1-2.983-2.4-4.867-3.973s-3.565-3.019-4.773-4.075l-1.455-1.251-.393-.334A.733.733,0,0,0,1691.71,4366.53Z" transform="translate(-1691.673 -4360.549)" fill="#344154"/>
            <path id="Trazado_140422" data-name="Trazado 140422" d="M1706.34,4378.986a4.509,4.509,0,0,1,.859-.465,3.852,3.852,0,0,1,.96-.146A1.69,1.69,0,0,0,1706.34,4378.986Z" transform="translate(-1695.659 -4363.758)" fill="#344154"/>
            <path id="Trazado_140423" data-name="Trazado 140423" d="M1704.46,4374.749a1.247,1.247,0,0,0,.509-.094c.276-.088.487-.189.473-.219a1.022,1.022,0,0,0-.509.1C1704.664,4374.625,1704.453,4374.712,1704.46,4374.749Z" transform="translate(-1695.147 -4362.7)" fill="#344154"/>
            <path id="Trazado_140424" data-name="Trazado 140424" d="M1704,4373.62c0,.036.2.058.444.043a.911.911,0,0,0,.437-.072,1.619,1.619,0,0,0-.444-.051C1704.2,4373.547,1704,4373.583,1704,4373.62Z" transform="translate(-1695.022 -4362.458)" fill="#344154"/>
            <path id="Trazado_140425" data-name="Trazado 140425" d="M1704.26,4372.138a2.459,2.459,0,0,0,.378.4c.233.2.437.335.458.306s-.145-.2-.378-.4S1704.289,4372.109,1704.26,4372.138Z" transform="translate(-1695.093 -4362.076)" fill="#344154"/>
            <path id="Trazado_140426" data-name="Trazado 140426" d="M1704.68,4371.24a1.575,1.575,0,0,0,.9.867,4.654,4.654,0,0,0-.451-.43C1704.884,4371.444,1704.716,4371.218,1704.68,4371.24Z" transform="translate(-1695.207 -4361.832)" fill="#344154"/>
            <path id="Trazado_140427" data-name="Trazado 140427" d="M1705.623,4374.15a2.173,2.173,0,0,0,.517.429,4.087,4.087,0,0,0,.655.335,2.055,2.055,0,0,0,.422.131.385.385,0,0,0,.262-.051.27.27,0,0,0,.095-.276,1.245,1.245,0,0,0-1.4-.728,1.362,1.362,0,0,0-.458.2.454.454,0,0,0-.131.131,2.093,2.093,0,0,1,.6-.248,1.294,1.294,0,0,1,.684.08,1.1,1.1,0,0,1,.582.561.167.167,0,0,1-.218.175,1.845,1.845,0,0,1-.393-.117,4.134,4.134,0,0,1-.647-.306C1705.834,4374.3,1705.638,4374.135,1705.623,4374.15Z" transform="translate(-1695.452 -4362.574)" fill="#344154"/>
            <path id="Trazado_140428" data-name="Trazado 140428" d="M1705.732,4373.863a.73.73,0,0,0,.364-.312,1.138,1.138,0,0,0,.175-.495.727.727,0,0,0-.211-.619.269.269,0,0,0-.364.1.73.73,0,0,0-.1.306,2.078,2.078,0,0,0,0,.517.945.945,0,0,0,.116.451v-.458a2.465,2.465,0,0,1,.044-.487c0-.167.131-.408.284-.32s.16.334.152.5a1.062,1.062,0,0,1-.131.458C1705.885,4373.747,1705.718,4373.841,1705.732,4373.863Z" transform="translate(-1695.451 -4362.149)" fill="#344154"/>
            <path id="Trazado_140429" data-name="Trazado 140429" d="M1694.46,4363.69a3.855,3.855,0,0,1,.575.517,3.274,3.274,0,0,1,.728,3.435c-.168.444-.349.691-.328.727s.058-.051.138-.16a2.6,2.6,0,0,0,.269-.51,3.178,3.178,0,0,0,.189-1.877,3.281,3.281,0,0,0-.909-1.651,3.145,3.145,0,0,0-.451-.356.569.569,0,0,0-.211-.124Z" transform="translate(-1692.423 -4359.775)" fill="#344154"/>
            <path id="Trazado_140430" data-name="Trazado 140430" d="M1698.388,4360.049a17.948,17.948,0,0,0-1.455,1.593,20.354,20.354,0,0,0-1.353,1.674,17.871,17.871,0,0,0,1.455-1.593A20.3,20.3,0,0,0,1698.388,4360.049Z" transform="translate(-1692.728 -4358.783)" fill="#344154"/>
            <path id="Trazado_140431" data-name="Trazado 140431" d="M1698,4370.24a6.232,6.232,0,0,0,1.077,1.1,6.083,6.083,0,0,0,1.259.887c0-.037-.531-.436-1.171-.989A13.491,13.491,0,0,0,1698,4370.24Z" transform="translate(-1693.387 -4361.559)" fill="#344154"/>
            <path id="Trazado_140432" data-name="Trazado 140432" d="M1695.792,4368.43s-.051.153-.095.313-.109.3-.08.32.145-.094.2-.284S1695.828,4368.43,1695.792,4368.43Z" transform="translate(-1692.736 -4361.067)" fill="#344154"/>
            <path id="Trazado_140433" data-name="Trazado 140433" d="M1695.874,4366.74c-.036,0-.051.131-.036.283s.051.277.087.27.051-.131,0-.284S1695.911,4366.733,1695.874,4366.74Z" transform="translate(-1692.797 -4360.606)" fill="#344154"/>
            <path id="Trazado_140434" data-name="Trazado 140434" d="M1695.11,4365.3a2.843,2.843,0,0,1,.175.262c.08.138.116.27.153.27s.058-.167-.043-.335S1695.124,4365.268,1695.11,4365.3Z" transform="translate(-1692.6 -4360.211)" fill="#344154"/>
            <path id="Trazado_140435" data-name="Trazado 140435" d="M1694.46,4364.388v.175c0,.08.109.138.138.116s0-.094,0-.174S1694.489,4364.365,1694.46,4364.388Z" transform="translate(-1692.423 -4359.964)" fill="#344154"/>
          </g>
          <g id="Grupo_63570" data-name="Grupo 63570" transform="translate(0.888 94.265)">
            <path id="Trazado_140436" data-name="Trazado 140436" d="M1723.525,4212.518s-3.485,14.748-2.5,17.658,7.37,4.606,7.37,4.606l-.218,40.373-35.3,43.654,13.031,10.667s38.219-43.727,41.6-51.657-2.183-65.948-2.183-65.948Z" transform="translate(-1692.88 -4206.508)" fill="#344154"/>
            <path id="Trazado_140437" data-name="Trazado 140437" d="M1748.734,4204.5l1.724,122.618-17.956.087-9.015-99.86h0c-1.906-1.819-4.591-4.933-4.22-11.881l.437-8.068Z" transform="translate(-1700.059 -4204.5)" fill="#344154"/>
            <path id="Trazado_140438" data-name="Trazado 140438" d="M1733.75,4289.264s0-.065.1-.182l.342-.5c.327-.466.779-1.1,1.331-1.892l4.875-6.744v.094c-.393-4.257-.866-9.422-1.375-14.981-.655-7.275-1.179-13.9-1.455-18.691-.16-2.394-.262-4.366-.32-5.675,0-.641-.044-1.15-.051-1.543a2.2,2.2,0,0,1,0-.538,3.413,3.413,0,0,1,.065.53c0,.393.073.9.124,1.542.109,1.383.255,3.3.444,5.661.378,4.78.946,11.386,1.6,18.676.487,5.588.982,10.739,1.31,15.018v.087l-4.984,6.672-1.4,1.833-.378.48C1733.8,4289.213,1733.757,4289.271,1733.75,4289.264Z" transform="translate(-1704.014 -4213.792)" fill="#8454ee"/>
            <path id="Trazado_140439" data-name="Trazado 140439" d="M1737.81,4237.863a24.493,24.493,0,0,1-4.758-.728,25.055,25.055,0,0,1-4.642-1.266,38.474,38.474,0,0,1,4.722.895,40.312,40.312,0,0,1,4.678,1.1Z" transform="translate(-1702.559 -4213.045)" fill="#8454ee"/>
            <path id="Trazado_140440" data-name="Trazado 140440" d="M1754.547,4295.521a14.333,14.333,0,0,0-9.837-.785,4.134,4.134,0,0,1,1.4-.546,11.189,11.189,0,0,1,3.638-.312,10.938,10.938,0,0,1,3.521.88A4.046,4.046,0,0,1,1754.547,4295.521Z" transform="translate(-1706.999 -4228.839)" fill="#8454ee"/>
            <path id="Trazado_140441" data-name="Trazado 140441" d="M1758.377,4304c.08.058-4.969,6.839-11.285,15.141s-11.5,14.98-11.583,14.916,4.97-6.839,11.285-15.141S1758.3,4303.906,1758.377,4304Z" transform="translate(-1704.493 -4231.606)" fill="#8454ee"/>
            <path id="Trazado_140442" data-name="Trazado 140442" d="M1760.208,4216.644a3.052,3.052,0,0,1-1.011,1.332,5,5,0,0,1-7.319-.771,2.948,2.948,0,0,1-.728-1.514,15.688,15.688,0,0,0,.917,1.346,5,5,0,0,0,6.948.728A8.168,8.168,0,0,0,1760.208,4216.644Z" transform="translate(-1708.754 -4207.549)" fill="#8454ee"/>
          </g>
          <path id="Trazado_140443" data-name="Trazado 140443" d="M1728.045,4122.137a15.657,15.657,0,0,1-.851-21.827" transform="translate(-1700.245 -4081.851)" fill="#344154"/>
          <g id="Grupo_63575" data-name="Grupo 63575" transform="translate(13.002 43.436)">
            <g id="Grupo_63574" data-name="Grupo 63574">
              <path id="Trazado_140444" data-name="Trazado 140444" d="M1714.237,4146s-3.9,4.409-4.708,21.267c0,0,11.11,2.111,11.314,1.5S1714.237,4146,1714.237,4146Z" transform="translate(-1709.53 -4137.735)" fill="#fd9827"/>
              <g id="Grupo_63571" data-name="Grupo 63571" transform="translate(0 8.266)" opacity="0.3">
                <path id="Trazado_140445" data-name="Trazado 140445" d="M1714.237,4146s-3.9,4.409-4.708,21.267c0,0,11.11,2.111,11.314,1.5S1714.237,4146,1714.237,4146Z" transform="translate(-1709.53 -4146)" fill="#fd9827"/>
              </g>
              <g id="Grupo_63573" data-name="Grupo 63573" transform="translate(3.518)">
                <path id="Trazado_140446" data-name="Trazado 140446" d="M1720.32,4175.26" transform="translate(-1715.987 -4145.706)" fill="#8454ee"/>
                <path id="Trazado_140447" data-name="Trazado 140447" d="M1717.359,4192.024h34.116l-.553-5.326s-3.9-20.278-3.871-20.539l.611-1.3a12.841,12.841,0,0,0,.153-10.724h0l16.734-5.712-4.089-13.788c-7.581,1.28-19.041,2.707-19.041,2.707l-1.7.146s-11.83.618-12.085.647c-4.948.6-10.7.976-12.805,6.272-1.128,2.831-.058,7.08,1.783,11.467l4.365,13.453c1.746,7.4-1.041,7.05-2.576,14.493C1718.152,4184.952,1717.337,4190.991,1717.359,4192.024Z" transform="translate(-1714.365 -4134.64)" fill="#fd9827"/>
                <g id="Grupo_63572" data-name="Grupo 63572" opacity="0.3">
                  <path id="Trazado_140448" data-name="Trazado 140448" d="M1717.359,4192.024h34.116l-.553-5.326s-3.9-20.278-3.871-20.539l.611-1.3a12.841,12.841,0,0,0,.153-10.724h0l16.734-5.712-4.089-13.788c-7.581,1.28-19.041,2.707-19.041,2.707l-1.7.146s-11.83.618-12.085.647c-4.948.6-10.7.976-12.805,6.272-1.128,2.831-.058,7.08,1.783,11.467l4.365,13.453c1.746,7.4-1.041,7.05-2.576,14.493C1718.152,4184.952,1717.337,4190.991,1717.359,4192.024Z" transform="translate(-1714.365 -4134.64)" fill="#fd9827"/>
                </g>
              </g>
              <path id="Trazado_140449" data-name="Trazado 140449" d="M1775.912,4153.89a2.9,2.9,0,0,1-.727.313c-.48.174-1.186.421-2.059.727-1.746.6-4.176,1.375-6.854,2.233s-5.093,1.7-6.766,2.408c-.859.342-1.535.648-2.008.852a3.486,3.486,0,0,1-.728.3,3.215,3.215,0,0,1,.684-.429c.458-.247,1.12-.589,1.964-.968a64.43,64.43,0,0,1,6.759-2.524c2.685-.859,5.093-1.6,6.89-2.125.88-.262,1.6-.466,2.1-.6A3.423,3.423,0,0,1,1775.912,4153.89Z" transform="translate(-1722.399 -4139.884)" fill="#344154"/>
            </g>
            <path id="Trazado_140450" data-name="Trazado 140450" d="M1763.469,4143.74c0,.1-10.091.188-22.555.188s-22.555-.087-22.555-.188,10.084-.189,22.555-.189S1763.469,4143.63,1763.469,4143.74Z" transform="translate(-1711.935 -4137.068)" fill="#fafafa"/>
            <path id="Trazado_140451" data-name="Trazado 140451" d="M1763.017,4152.929c0,.1-11.226.189-25.072.189s-25.065-.087-25.065-.189,11.219-.188,25.065-.188S1763.017,4152.834,1763.017,4152.929Z" transform="translate(-1710.443 -4139.571)" fill="#fafafa"/>
            <path id="Trazado_140452" data-name="Trazado 140452" d="M1715.153,4163.419a11.225,11.225,0,0,1-4.184,0,11.65,11.65,0,0,1,4.184,0Z" transform="translate(-1709.922 -4142.428)" fill="#fafafa"/>
            <path id="Trazado_140453" data-name="Trazado 140453" d="M1749.5,4163.739c0,.109-7.341.188-16.392.188s-16.392-.08-16.392-.188,7.334-.189,16.392-.189S1749.5,4163.637,1749.5,4163.739Z" transform="translate(-1711.489 -4142.516)" fill="#fafafa"/>
            <path id="Trazado_140454" data-name="Trazado 140454" d="M1749.77,4174.539c0,.1-6.592.189-14.711.189s-14.719-.088-14.719-.189,6.585-.188,14.719-.188S1749.77,4174.438,1749.77,4174.539Z" transform="translate(-1712.475 -4145.458)" fill="#fafafa"/>
            <path id="Trazado_140455" data-name="Trazado 140455" d="M1750.5,4184.539c0,.109-5.966.189-13.329.189s-13.344-.08-13.344-.189,5.974-.189,13.344-.189S1750.5,4184.438,1750.5,4184.539Z" transform="translate(-1713.425 -4148.182)" fill="#fafafa"/>
            <path id="Trazado_140456" data-name="Trazado 140456" d="M1751.415,4192.639c0,.1-6.388.189-14.268.189s-14.268-.088-14.268-.189,6.388-.189,14.268-.189S1751.415,4192.537,1751.415,4192.639Z" transform="translate(-1713.167 -4150.388)" fill="#fafafa"/>
            <path id="Trazado_140457" data-name="Trazado 140457" d="M1752.484,4202.93c0,.1-7.276.189-16.233.189s-16.232-.087-16.232-.189,7.276-.189,16.232-.189S1752.484,4202.85,1752.484,4202.93Z" transform="translate(-1712.388 -4153.192)" fill="#fafafa"/>
            <path id="Trazado_140458" data-name="Trazado 140458" d="M1720.879,4174.862a2.389,2.389,0,0,1-.305-.669c-.2-.524-.437-1.142-.728-1.862-.6-1.572-1.455-3.747-2.321-6.162s-1.608-4.635-2.066-6.265c-.226-.808-.4-1.456-.495-1.936a3.051,3.051,0,0,1-.124-.728,26.2,26.2,0,0,1,.873,2.59c.524,1.6,1.288,3.792,2.183,6.206s1.681,4.605,2.183,6.2c.269.8.473,1.455.6,1.906A3.016,3.016,0,0,1,1720.879,4174.862Z" transform="translate(-1710.977 -4140.796)" fill="#344154"/>
          </g>
        </g>
      </g>
    </g>
  </g>
</svg>
