<svg xmlns="http://www.w3.org/2000/svg" xmlns:xlink="http://www.w3.org/1999/xlink" width="295.592" height="285.715" viewBox="0 0 295.592 285.715">
  <defs>
    <clipPath id="clip-path">
      <path id="Trazado_141553" data-name="Trazado 141553" d="M246.212,390.9a12.116,12.116,0,1,1-3.072-16.862A12.123,12.123,0,0,1,246.212,390.9Z" transform="translate(-224.121 -371.887)" fill="#a77d59" stroke="#263238" stroke-linecap="round" stroke-linejoin="round" stroke-width="1"/>
    </clipPath>
    <clipPath id="clip-path-2">
      <path id="Trazado_141585" data-name="Trazado 141585" d="M374.977,89.2l-9.3,90.71-5.717,55.8-79.894-8.184-15.546-1.592-9.954-1.02,8.822-86.118L269.583,78.4Z" transform="translate(-254.57 -78.4)" fill="#fff" stroke="#263238" stroke-linecap="round" stroke-linejoin="round" stroke-width="1"/>
    </clipPath>
    <clipPath id="clip-path-3">
      <circle id="Elipse_4817" data-name="Elipse 4817" cx="19.272" cy="19.272" r="19.272" transform="matrix(0.768, -0.64, 0.64, 0.768, 0, 24.671)" fill="#a77d59" stroke="#263238" stroke-miterlimit="10" stroke-width="1"/>
    </clipPath>
    <clipPath id="clip-path-4">
      <path id="Trazado_141610" data-name="Trazado 141610" d="M366.937,200.736l-2.18,4.951-58.684,78.245-6.536-4.166,8.874-11.133,52.709-66.117,4.649-2.953A1.651,1.651,0,0,1,366.937,200.736Z" transform="translate(-299.536 -199.562)" fill="#a77d59" stroke="#263238" stroke-linecap="round" stroke-linejoin="round" stroke-width="1"/>
    </clipPath>
    <clipPath id="clip-path-5">
      <path id="Trazado_141614" data-name="Trazado 141614" d="M319.291,292.173a231.706,231.706,0,0,1-12.852,22.2l-4.5,1.164S291.609,325.8,285.308,330.92a14.131,14.131,0,0,1-3.08-2.586s8.949-17.182,18.847-28.058A12.631,12.631,0,0,1,304.323,302a15.95,15.95,0,0,1,3.39,3.253l11.034-13.882Z" transform="translate(-282.228 -291.371)" fill="#a77d59" stroke="#263238" stroke-linecap="round" stroke-linejoin="round" stroke-width="1"/>
    </clipPath>
    <clipPath id="clip-path-6">
      <path id="Trazado_141648" data-name="Trazado 141648" d="M217.881,203.049,129.356,240.3l-9.125,3.842-17.2-40.861L63.1,108.4l97.65-41.1Z" transform="translate(-63.1 -67.3)" fill="#fff" stroke="#263238" stroke-linecap="round" stroke-linejoin="round" stroke-width="1"/>
    </clipPath>
  </defs>
  <g id="Grupo_1099943" data-name="Grupo 1099943" transform="translate(-600 -392)">
    <g id="Grupo_70071" data-name="Grupo 70071" transform="translate(601 392)">
      <rect id="Rectángulo_31121" data-name="Rectángulo 31121" width="292.08" height="285.715" rx="25" fill="#feead2"/>
    </g>
    <g id="Grupo_70584" data-name="Grupo 70584" transform="translate(600 400)">
      <g id="Background_Simple" data-name="Background Simple" transform="translate(0 0)">
        <g id="Grupo_70475" data-name="Grupo 70475">
          <path id="Trazado_141544" data-name="Trazado 141544" d="M158.738,50.924c81.6-7.267,81.739,38.772,118.507,81.663s44.636,62.338,30.775,111.78-60.568,88.2-118.349,66.242-90.881-.871-127.326-20.373-49.978-57.179-23.3-101.585S58.12,59.885,158.738,50.924Z" transform="translate(-25.059 -50.162)" fill="#fd9827"/>
        </g>
      </g>
      <g id="Doodles" transform="translate(1.821 3.089)">
        <g id="Grupo_70481" data-name="Grupo 70481" transform="translate(0 0)">
          <g id="Grupo_70476" data-name="Grupo 70476" transform="translate(133.684)">
            <rect id="Rectángulo_31985" data-name="Rectángulo 31985" width="20.416" height="20.416" rx="5.09" transform="translate(0 4.207) rotate(-11.893)" fill="none" stroke="#263238" stroke-linecap="round" stroke-linejoin="round" stroke-width="1"/>
            <line id="Línea_425" data-name="Línea 425" x2="1.716" y2="8.146" transform="translate(11.235 8.019)" fill="none" stroke="#263238" stroke-linecap="round" stroke-linejoin="round" stroke-width="1"/>
            <line id="Línea_426" data-name="Línea 426" x1="8.146" y2="1.716" transform="translate(8.019 11.235)" fill="none" stroke="#263238" stroke-linecap="round" stroke-linejoin="round" stroke-width="1"/>
          </g>
          <g id="Grupo_70477" data-name="Grupo 70477" transform="translate(268.994 143.507)">
            <rect id="Rectángulo_31986" data-name="Rectángulo 31986" width="20.416" height="20.416" rx="5.09" transform="translate(0 4.207) rotate(-11.893)" fill="none" stroke="#263238" stroke-linecap="round" stroke-linejoin="round" stroke-width="1"/>
            <line id="Línea_427" data-name="Línea 427" x1="4.547" y2="6.974" transform="translate(9.819 8.606)" fill="none" stroke="#263238" stroke-linecap="round" stroke-linejoin="round" stroke-width="1"/>
            <line id="Línea_428" data-name="Línea 428" x1="6.974" y1="4.547" transform="translate(8.606 9.819)" fill="none" stroke="#263238" stroke-linecap="round" stroke-linejoin="round" stroke-width="1"/>
          </g>
          <g id="Grupo_70478" data-name="Grupo 70478" transform="translate(86.675 229.867)">
            <rect id="Rectángulo_31987" data-name="Rectángulo 31987" width="20.416" height="20.416" rx="5.09" transform="translate(1.177 0) rotate(3.304)" fill="none" stroke="#263238" stroke-linecap="round" stroke-linejoin="round" stroke-width="1"/>
            <line id="Línea_429" data-name="Línea 429" x1="8.311" y1="0.48" transform="translate(6.624 10.539)" fill="none" stroke="#263238" stroke-linecap="round" stroke-linejoin="round" stroke-width="1"/>
          </g>
          <g id="Grupo_70480" data-name="Grupo 70480" transform="translate(0 130.741)">
            <rect id="Rectángulo_31988" data-name="Rectángulo 31988" width="20.416" height="20.416" rx="5.09" transform="translate(6.42 0) rotate(18.329)" fill="none" stroke="#263238" stroke-linecap="round" stroke-linejoin="round" stroke-width="1"/>
            <line id="Línea_430" data-name="Línea 430" x1="10.415" y2="5.232" transform="translate(7.693 10.284)" fill="none" stroke="#263238" stroke-linecap="round" stroke-linejoin="round" stroke-width="1"/>
            <g id="Grupo_70479" data-name="Grupo 70479" transform="translate(9.38 7.331)">
              <path id="Trazado_141546" data-name="Trazado 141546" d="M44.836,265.53a1.453,1.453,0,1,1-1.951-.646A1.454,1.454,0,0,1,44.836,265.53Z" transform="translate(-42.084 -264.729)" fill="none" stroke="#263238" stroke-linecap="round" stroke-linejoin="round" stroke-width="1"/>
              <path id="Trazado_141547" data-name="Trazado 141547" d="M51.12,278.041a1.453,1.453,0,1,1-1.951-.647A1.453,1.453,0,0,1,51.12,278.041Z" transform="translate(-44.234 -269.009)" fill="none" stroke="#263238" stroke-linecap="round" stroke-linejoin="round" stroke-width="1"/>
            </g>
          </g>
        </g>
      </g>
      <g id="Coins" transform="translate(113.655 200.485)">
        <g id="Grupo_70484" data-name="Grupo 70484" transform="translate(17.306 11.174)">
          <path id="Trazado_141548" data-name="Trazado 141548" d="M246.212,390.9a12.116,12.116,0,1,1-3.072-16.862A12.123,12.123,0,0,1,246.212,390.9Z" transform="translate(-224.121 -371.887)" fill="#a77d59"/>
          <g id="Grupo_70483" data-name="Grupo 70483" clip-path="url(#clip-path)">
            <path id="Trazado_141549" data-name="Trazado 141549" d="M245.633,390.807a10.2,10.2,0,1,1-2.588-14.188A10.2,10.2,0,0,1,245.633,390.807Z" transform="translate(-225.122 -372.886)" fill="rgba(0,0,0,0.7)" opacity="0.3"/>
            <path id="Trazado_141550" data-name="Trazado 141550" d="M245.633,390.807a10.2,10.2,0,1,1-2.588-14.188A10.2,10.2,0,0,1,245.633,390.807Z" transform="translate(-225.122 -372.886)" fill="none" stroke="#263238" stroke-linecap="round" stroke-linejoin="round" stroke-width="1"/>
            <g id="Grupo_70482" data-name="Grupo 70482" transform="translate(7.592 6.323)">
              <path id="Trazado_141551" data-name="Trazado 141551" d="M242.806,382.206l.489-.708,1.224.846-.489.708c.911.951.891,2.144,0,3.437l-.207.3-1.415-.979.272-.394c.471-.681.378-1.127-.1-1.457s-.928-.259-1.4.421-.527,1.345-.076,2.843c.548,1.827.452,2.866-.3,3.955-.893,1.293-2.026,1.737-3.237,1.22l-.48.695-1.224-.847.48-.694c-.924-.961-.895-2.167,0-3.459l.451-.653,1.415.978-.517.748c-.47.681-.341,1.132.136,1.461s.945.291,1.415-.389.537-1.358.076-2.843c-.557-1.812-.451-2.866.3-3.955C240.5,382.162,241.6,381.712,242.806,382.206Z" transform="translate(-235.661 -381.498)" fill="#a77d59" stroke="#263238" stroke-linecap="round" stroke-linejoin="round" stroke-width="1"/>
            </g>
            <path id="Trazado_141552" data-name="Trazado 141552" d="M232.864,374.453a16.327,16.327,0,0,1-7.987,14.046,12.112,12.112,0,0,1,7.888-15.829A15.926,15.926,0,0,1,232.864,374.453Z" transform="translate(-224.121 -372.155)" fill="rgba(0,0,0,0.7)" opacity="0.2"/>
          </g>
          <path id="Trazado_141554" data-name="Trazado 141554" d="M246.212,390.9a12.116,12.116,0,1,1-3.072-16.862A12.123,12.123,0,0,1,246.212,390.9Z" transform="translate(-224.121 -371.887)" fill="none" stroke="#263238" stroke-linecap="round" stroke-linejoin="round" stroke-width="1"/>
        </g>
        <g id="Grupo_70486" data-name="Grupo 70486" transform="translate(0 0.975)">
          <circle id="Elipse_4811" data-name="Elipse 4811" cx="12.122" cy="12.122" r="12.122" fill="#a77d59" stroke="#263238" stroke-linecap="round" stroke-linejoin="round" stroke-width="1"/>
          <circle id="Elipse_4812" data-name="Elipse 4812" cx="10.198" cy="10.198" r="10.198" transform="translate(1.924 1.924)" fill="rgba(0,0,0,0.7)" opacity="0.3"/>
          <circle id="Elipse_4813" data-name="Elipse 4813" cx="10.198" cy="10.198" r="10.198" transform="translate(1.924 1.924)" fill="none" stroke="#263238" stroke-linecap="round" stroke-linejoin="round" stroke-width="1"/>
          <g id="Grupo_70485" data-name="Grupo 70485" transform="translate(9.409 5.587)">
            <path id="Trazado_141555" data-name="Trazado 141555" d="M214.085,365.737v-.861h1.489v.861c1.291.264,1.953,1.257,1.953,2.828v.364h-1.72v-.48c0-.828-.331-1.141-.91-1.141s-.911.314-.911,1.141.332,1.406,1.555,2.382c1.489,1.191,2,2.1,2,3.424,0,1.572-.678,2.58-1.969,2.845v.844h-1.489V377.1c-1.307-.264-1.968-1.273-1.968-2.845v-.794h1.72v.909c0,.828.364,1.125.943,1.125s.943-.3.943-1.125-.331-1.422-1.555-2.382c-1.488-1.174-2-2.1-2-3.424C212.166,367.01,212.812,366.017,214.085,365.737Z" transform="translate(-212.117 -364.876)" fill="#a77d59" stroke="#263238" stroke-linecap="round" stroke-linejoin="round" stroke-width="1"/>
          </g>
        </g>
        <g id="Grupo_70488" data-name="Grupo 70488" transform="translate(53.213 0)">
          <circle id="Elipse_4814" data-name="Elipse 4814" cx="12.122" cy="12.122" r="12.122" transform="translate(0 20.412) rotate(-57.348)" fill="#a77d59" stroke="#263238" stroke-linecap="round" stroke-linejoin="round" stroke-width="1"/>
          <path id="Trazado_141556" data-name="Trazado 141556" d="M306.324,368.113a10.2,10.2,0,1,1-14.412-.532A10.2,10.2,0,0,1,306.324,368.113Z" transform="translate(-282.106 -358.307)" fill="rgba(0,0,0,0.7)" opacity="0.3"/>
          <path id="Trazado_141557" data-name="Trazado 141557" d="M306.324,368.113a10.2,10.2,0,1,1-14.412-.532A10.2,10.2,0,0,1,306.324,368.113Z" transform="translate(-282.106 -358.307)" fill="none" stroke="#263238" stroke-linecap="round" stroke-linejoin="round" stroke-width="1"/>
          <g id="Grupo_70487" data-name="Grupo 70487" transform="translate(11.754 11.452)">
            <path id="Trazado_141558" data-name="Trazado 141558" d="M297.152,373.952l-.586-.63,1.091-1.013.586.63c1.125-.684,2.285-.408,3.355.744l.248.267-1.26,1.17-.326-.351c-.563-.607-1.019-.611-1.443-.217s-.453.849.11,1.455,1.2.8,2.76.688c1.9-.141,2.9.176,3.8,1.147,1.07,1.151,1.259,2.352.493,3.424l.574.618-1.091,1.013-.574-.618c-1.137.7-2.309.407-3.378-.745l-.54-.582,1.26-1.171.619.666c.563.607,1.032.577,1.456.183s.488-.859-.075-1.466-1.21-.817-2.76-.687c-1.89.153-2.9-.177-3.8-1.147C296.613,376.191,296.41,375.025,297.152,373.952Z" transform="translate(-296.566 -372.309)" fill="#a77d59" stroke="#263238" stroke-linecap="round" stroke-linejoin="round" stroke-width="1"/>
          </g>
        </g>
      </g>
      <g id="Right_hand" data-name="Right hand" transform="translate(150.993 18.578)">
        <g id="Grupo_70554" data-name="Grupo 70554" transform="translate(0 0)">
          <path id="Trazado_141559" data-name="Trazado 141559" d="M294.406,300.254s-.05,25.155,0,26.624,1.954,10.3,1.954,10.3l-6.108,11.26,5.259,4.239,10.231-10.056s8.712,5.382,10.3,13.078,11.07,13.3,20.906,34.617,21.054-47.694,21.054-47.694L327.66,304.416Z" transform="translate(-266.777 -154.299)" fill="rgba(0,0,0,0.7)" opacity="0.2"/>
          <g id="Grupo_70542" data-name="Grupo 70542">
            <path id="Trazado_141560" data-name="Trazado 141560" d="M374.977,89.2l-9.3,90.71-5.717,55.8-79.894-8.184-15.546-1.592-9.954-1.02,8.822-86.118L269.583,78.4Z" transform="translate(-254.57 -78.4)" fill="#fff"/>
            <g id="Grupo_70541" data-name="Grupo 70541" clip-path="url(#clip-path-2)">
              <path id="Trazado_141561" data-name="Trazado 141561" d="M366.514,97.529l-45.495-4.662a1.554,1.554,0,0,0-.317,3.093l45.495,4.662a1.554,1.554,0,1,0,.317-3.092Z" transform="translate(-276.717 -83.346)" fill="#263238"/>
              <path id="Trazado_141562" data-name="Trazado 141562" d="M360.511,106.631,337.763,104.3a.777.777,0,0,0-.159,1.547l22.748,2.331a.777.777,0,1,0,.159-1.546Z" transform="translate(-282.738 -87.259)" fill="#263238"/>
              <g id="Grupo_70489" data-name="Grupo 70489" transform="translate(14.943 78.75)">
                <path id="Trazado_141563" data-name="Trazado 141563" d="M371.985,205.671l-73.84-7.566a.777.777,0,1,0-.158,1.546l73.839,7.566a.777.777,0,0,0,.159-1.546Z" transform="translate(-284.128 -198.101)" fill="#263238"/>
                <path id="Trazado_141564" data-name="Trazado 141564" d="M364.867,213.482l-85.861-8.8a.777.777,0,1,0-.158,1.546l85.861,8.8a.777.777,0,0,0,.158-1.547Z" transform="translate(-277.58 -200.351)" fill="#263238"/>
                <path id="Trazado_141565" data-name="Trazado 141565" d="M339.958,219.47l-61.818-6.335a.777.777,0,0,0-.158,1.546l61.818,6.335a.777.777,0,1,0,.158-1.546Z" transform="translate(-277.284 -203.243)" fill="#263238"/>
              </g>
              <rect id="Rectángulo_31989" data-name="Rectángulo 31989" width="24.647" height="87.01" transform="translate(12.321 119.16) rotate(-84.149)" fill="#bfbfbf" stroke="#263238" stroke-miterlimit="10" stroke-width="1"/>
              <g id="Grupo_70515" data-name="Grupo 70515" transform="translate(15.049 24.34)">
                <g id="Grupo_70493" data-name="Grupo 70493" transform="translate(0 0)">
                  <g id="Grupo_70491" data-name="Grupo 70491">
                    <circle id="Elipse_4815" data-name="Elipse 4815" cx="19.272" cy="19.272" r="19.272" transform="matrix(0.768, -0.64, 0.64, 0.768, 0, 24.671)" fill="#a77d59"/>
                    <g id="Grupo_70490" data-name="Grupo 70490" clip-path="url(#clip-path-3)">
                      <circle id="Elipse_4816" data-name="Elipse 4816" cx="19.272" cy="19.272" r="19.272" transform="matrix(0.768, -0.64, 0.64, 0.768, 0, 24.671)" fill="#fff" opacity="0.5"/>
                    </g>
                    <circle id="Elipse_4818" data-name="Elipse 4818" cx="19.272" cy="19.272" r="19.272" transform="matrix(0.768, -0.64, 0.64, 0.768, 0, 24.671)" fill="none" stroke="#263238" stroke-miterlimit="10" stroke-width="1"/>
                  </g>
                  <g id="Grupo_70492" data-name="Grupo 70492" transform="translate(8.737 8.737)">
                    <path id="Trazado_141566" data-name="Trazado 141566" d="M319.543,150.67l16.026,8.063a18.414,18.414,0,0,0-2.12-19.385Z" transform="translate(-300.584 -132.328)" fill="#fff"/>
                    <path id="Trazado_141567" data-name="Trazado 141567" d="M319.7,146.784l13.419-10.924a18.377,18.377,0,0,0-7.5-5.339l-2.42,6.645Z" transform="translate(-300.639 -129.308)" fill="#a77d59"/>
                    <path id="Trazado_141568" data-name="Trazado 141568" d="M321.165,128.876l-1.628,15.882L325,129.753A18.412,18.412,0,0,0,321.165,128.876Z" transform="translate(-300.582 -128.745)" fill="#757575"/>
                    <path id="Trazado_141569" data-name="Trazado 141569" d="M308.848,146.876l1.858-18.13a18.4,18.4,0,0,0-18.454,25.668Z" transform="translate(-290.725 -128.677)" fill="#999"/>
                    <path id="Trazado_141570" data-name="Trazado 141570" d="M308.177,175.133a18.409,18.409,0,0,0,18.18-9.769l-16.31-8.206L293.42,164.71A18.4,18.4,0,0,0,308.177,175.133Z" transform="translate(-291.647 -138.421)" fill="#bfbfbf"/>
                  </g>
                </g>
                <g id="Grupo_70514" data-name="Grupo 70514" transform="translate(52.377 14.361)">
                  <g id="Grupo_70497" data-name="Grupo 70497" transform="translate(2.77 0)">
                    <rect id="Rectángulo_31990" data-name="Rectángulo 31990" width="3.033" height="3.033" rx="0.626" transform="translate(0.309 0) rotate(5.851)" fill="#a77d59" stroke="#263238" stroke-miterlimit="10" stroke-width="1"/>
                    <g id="Grupo_70496" data-name="Grupo 70496" transform="translate(4.667 0.912)">
                      <g id="Grupo_70494" data-name="Grupo 70494" transform="translate(0.155)">
                        <path id="Trazado_141571" data-name="Trazado 141571" d="M397.236,142.21l-28.325-2.9a.349.349,0,0,1,.071-.693l28.325,2.9a.349.349,0,1,1-.071.693Z" transform="translate(-368.597 -138.612)" fill="#263238"/>
                      </g>
                      <g id="Grupo_70495" data-name="Grupo 70495" transform="translate(0 1.509)">
                        <path id="Trazado_141572" data-name="Trazado 141572" d="M394.227,144.22,368.675,141.6a.349.349,0,0,1,.071-.693l25.552,2.618a.349.349,0,0,1-.071.693Z" transform="translate(-368.362 -140.906)" fill="#263238"/>
                      </g>
                    </g>
                  </g>
                  <g id="Grupo_70501" data-name="Grupo 70501" transform="translate(2.078 6.758)">
                    <rect id="Rectángulo_31991" data-name="Rectángulo 31991" width="3.033" height="3.033" rx="0.626" transform="matrix(0.995, 0.102, -0.102, 0.995, 0.309, 0)" fill="#757575" stroke="#263238" stroke-linecap="round" stroke-linejoin="round" stroke-width="1"/>
                    <g id="Grupo_70500" data-name="Grupo 70500" transform="translate(4.666 0.912)">
                      <g id="Grupo_70498" data-name="Grupo 70498" transform="translate(0.155)">
                        <path id="Trazado_141573" data-name="Trazado 141573" d="M396.183,152.483l-28.325-2.9a.349.349,0,1,1,.071-.693l28.325,2.9a.349.349,0,1,1-.071.693Z" transform="translate(-367.544 -148.885)" fill="#263238"/>
                      </g>
                      <g id="Grupo_70499" data-name="Grupo 70499" transform="translate(0 1.509)">
                        <path id="Trazado_141574" data-name="Trazado 141574" d="M393.174,154.492l-25.552-2.618a.349.349,0,1,1,.072-.693l25.551,2.618a.349.349,0,1,1-.071.693Z" transform="translate(-367.309 -151.178)" fill="#263238"/>
                      </g>
                    </g>
                  </g>
                  <g id="Grupo_70505" data-name="Grupo 70505" transform="translate(1.385 13.517)">
                    <rect id="Rectángulo_31992" data-name="Rectángulo 31992" width="3.033" height="3.033" rx="0.626" transform="matrix(0.995, 0.102, -0.102, 0.995, 0.309, 0)" fill="#999" stroke="#263238" stroke-linecap="round" stroke-linejoin="round" stroke-width="1"/>
                    <g id="Grupo_70504" data-name="Grupo 70504" transform="translate(4.667 0.912)">
                      <g id="Grupo_70502" data-name="Grupo 70502" transform="translate(0.155)">
                        <path id="Trazado_141575" data-name="Trazado 141575" d="M395.131,162.756l-28.325-2.9a.349.349,0,0,1,.071-.693l28.325,2.9a.349.349,0,0,1-.071.693Z" transform="translate(-366.492 -159.158)" fill="#263238"/>
                      </g>
                      <g id="Grupo_70503" data-name="Grupo 70503" transform="translate(0 1.509)">
                        <path id="Trazado_141576" data-name="Trazado 141576" d="M392.122,164.765l-25.552-2.618a.349.349,0,0,1,.071-.693l25.552,2.618a.349.349,0,1,1-.071.693Z" transform="translate(-366.257 -161.451)" fill="#263238"/>
                      </g>
                    </g>
                  </g>
                  <g id="Grupo_70509" data-name="Grupo 70509" transform="translate(0.693 20.275)">
                    <rect id="Rectángulo_31993" data-name="Rectángulo 31993" width="3.033" height="3.033" rx="0.626" transform="matrix(0.995, 0.102, -0.102, 0.995, 0.309, 0)" fill="#bfbfbf" stroke="#263238" stroke-miterlimit="10" stroke-width="1"/>
                    <g id="Grupo_70508" data-name="Grupo 70508" transform="translate(4.667 0.912)">
                      <g id="Grupo_70506" data-name="Grupo 70506" transform="translate(0.155)">
                        <path id="Trazado_141577" data-name="Trazado 141577" d="M394.078,173.029l-28.325-2.9a.349.349,0,1,1,.071-.693l28.325,2.9a.349.349,0,0,1-.071.693Z" transform="translate(-365.439 -169.431)" fill="#263238"/>
                      </g>
                      <g id="Grupo_70507" data-name="Grupo 70507" transform="translate(0 1.509)">
                        <path id="Trazado_141578" data-name="Trazado 141578" d="M391.069,175.038l-25.552-2.618a.349.349,0,0,1,.071-.693l25.552,2.618a.349.349,0,0,1-.071.693Z" transform="translate(-365.204 -171.724)" fill="#263238"/>
                      </g>
                    </g>
                  </g>
                  <g id="Grupo_70513" data-name="Grupo 70513" transform="translate(0 27.033)">
                    <rect id="Rectángulo_31994" data-name="Rectángulo 31994" width="3.033" height="3.033" rx="0.626" transform="translate(0.309 0) rotate(5.85)" fill="#fff" stroke="#263238" stroke-linecap="round" stroke-linejoin="round" stroke-width="1"/>
                    <g id="Grupo_70512" data-name="Grupo 70512" transform="translate(4.666 0.912)">
                      <g id="Grupo_70510" data-name="Grupo 70510" transform="translate(0.155)">
                        <path id="Trazado_141579" data-name="Trazado 141579" d="M393.025,183.3,364.7,180.4a.349.349,0,1,1,.071-.693l28.325,2.9a.349.349,0,1,1-.071.693Z" transform="translate(-364.386 -179.703)" fill="#263238"/>
                      </g>
                      <g id="Grupo_70511" data-name="Grupo 70511" transform="translate(0 1.509)">
                        <path id="Trazado_141580" data-name="Trazado 141580" d="M390.016,185.311l-25.552-2.618a.349.349,0,1,1,.071-.693l25.552,2.618a.349.349,0,0,1-.071.693Z" transform="translate(-364.151 -181.997)" fill="#263238"/>
                      </g>
                    </g>
                  </g>
                </g>
              </g>
              <g id="Grupo_70539" data-name="Grupo 70539" transform="translate(15.595 101.402)">
                <g id="Grupo_70516" data-name="Grupo 70516" transform="translate(72.692 9.1)">
                  <rect id="Rectángulo_31995" data-name="Rectángulo 31995" width="1.626" height="9.295" transform="translate(1.617 9.412) rotate(-174.148)" fill="#757575" stroke="#263238" stroke-linecap="round" stroke-linejoin="round" stroke-width="1"/>
                  <rect id="Rectángulo_31996" data-name="Rectángulo 31996" width="1.626" height="4.375" transform="translate(1.76 8.019) rotate(-174.15)" fill="#a77d59" stroke="#263238" stroke-miterlimit="10" stroke-width="1"/>
                </g>
                <g id="Grupo_70517" data-name="Grupo 70517" transform="translate(76.572 7.14)">
                  <rect id="Rectángulo_31997" data-name="Rectángulo 31997" width="1.626" height="9.295" transform="translate(1.617 9.412) rotate(-174.15)" fill="#757575" stroke="#263238" stroke-linecap="round" stroke-linejoin="round" stroke-width="1"/>
                  <rect id="Rectángulo_31998" data-name="Rectángulo 31998" width="4.375" height="1.626" transform="translate(0.25 6.809) rotate(-84.148)" fill="#a77d59" stroke="#263238" stroke-miterlimit="10" stroke-width="1"/>
                </g>
                <g id="Grupo_70518" data-name="Grupo 70518" transform="translate(80.031 9.287)">
                  <rect id="Rectángulo_31999" data-name="Rectángulo 31999" width="1.626" height="9.295" transform="translate(1.617 9.412) rotate(-174.15)" fill="#757575" stroke="#263238" stroke-linecap="round" stroke-linejoin="round" stroke-width="1"/>
                  <rect id="Rectángulo_32000" data-name="Rectángulo 32000" width="1.626" height="4.375" transform="translate(1.974 5.93) rotate(-174.148)" fill="#a77d59" stroke="#263238" stroke-miterlimit="10" stroke-width="1"/>
                </g>
                <g id="Grupo_70519" data-name="Grupo 70519" transform="translate(69.239 6.9)">
                  <rect id="Rectángulo_32001" data-name="Rectángulo 32001" width="1.626" height="9.295" transform="translate(1.617 9.412) rotate(-174.148)" fill="#757575" stroke="#263238" stroke-linecap="round" stroke-linejoin="round" stroke-width="1"/>
                  <rect id="Rectángulo_32002" data-name="Rectángulo 32002" width="1.626" height="4.375" transform="translate(1.76 8.019) rotate(-174.15)" fill="#a77d59" stroke="#263238" stroke-miterlimit="10" stroke-width="1"/>
                </g>
                <g id="Grupo_70520" data-name="Grupo 70520" transform="translate(65.318 9.263)">
                  <rect id="Rectángulo_32003" data-name="Rectángulo 32003" width="1.626" height="9.295" transform="translate(1.617 9.412) rotate(-174.15)" fill="#757575" stroke="#263238" stroke-linecap="round" stroke-linejoin="round" stroke-width="1"/>
                  <rect id="Rectángulo_32004" data-name="Rectángulo 32004" width="1.626" height="4.375" transform="translate(1.724 8.368) rotate(-174.148)" fill="#a77d59" stroke="#263238" stroke-miterlimit="10" stroke-width="1"/>
                </g>
                <g id="Grupo_70521" data-name="Grupo 70521" transform="translate(61.922 6.502)">
                  <rect id="Rectángulo_32005" data-name="Rectángulo 32005" width="1.626" height="9.295" transform="translate(1.617 9.412) rotate(-174.15)" fill="#757575" stroke="#263238" stroke-linecap="round" stroke-linejoin="round" stroke-width="1"/>
                  <rect id="Rectángulo_32006" data-name="Rectángulo 32006" width="1.626" height="4.375" transform="translate(1.653 9.064) rotate(-174.148)" fill="#a77d59" stroke="#263238" stroke-miterlimit="10" stroke-width="1"/>
                </g>
                <g id="Grupo_70522" data-name="Grupo 70522" transform="translate(57.785 10.964)">
                  <rect id="Rectángulo_32007" data-name="Rectángulo 32007" width="1.626" height="9.295" transform="translate(1.617 9.412) rotate(-174.148)" fill="#757575" stroke="#263238" stroke-linecap="round" stroke-linejoin="round" stroke-width="1"/>
                  <rect id="Rectángulo_32008" data-name="Rectángulo 32008" width="1.626" height="4.375" transform="translate(1.653 9.064) rotate(-174.148)" fill="#a77d59" stroke="#263238" stroke-miterlimit="10" stroke-width="1"/>
                </g>
                <g id="Grupo_70523" data-name="Grupo 70523" transform="translate(54.741 4.767)">
                  <rect id="Rectángulo_32009" data-name="Rectángulo 32009" width="1.626" height="9.295" transform="translate(1.617 9.412) rotate(-174.15)" fill="#757575" stroke="#263238" stroke-linecap="round" stroke-linejoin="round" stroke-width="1"/>
                  <rect id="Rectángulo_32010" data-name="Rectángulo 32010" width="1.626" height="4.375" transform="translate(1.76 8.019) rotate(-174.15)" fill="#a77d59" stroke="#263238" stroke-miterlimit="10" stroke-width="1"/>
                </g>
                <g id="Grupo_70524" data-name="Grupo 70524" transform="translate(51.156 3.855)">
                  <rect id="Rectángulo_32011" data-name="Rectángulo 32011" width="1.626" height="9.295" transform="translate(1.617 9.412) rotate(-174.148)" fill="#757575" stroke="#263238" stroke-linecap="round" stroke-linejoin="round" stroke-width="1"/>
                  <rect id="Rectángulo_32012" data-name="Rectángulo 32012" width="1.626" height="4.375" transform="translate(1.974 5.93) rotate(-174.15)" fill="#a77d59" stroke="#263238" stroke-miterlimit="10" stroke-width="1"/>
                </g>
                <g id="Grupo_70525" data-name="Grupo 70525" transform="translate(46.92 9.285)">
                  <rect id="Rectángulo_32013" data-name="Rectángulo 32013" width="1.626" height="9.295" transform="translate(1.617 9.412) rotate(-174.15)" fill="#757575" stroke="#263238" stroke-linecap="round" stroke-linejoin="round" stroke-width="1"/>
                  <rect id="Rectángulo_32014" data-name="Rectángulo 32014" width="1.626" height="4.375" transform="translate(2.01 5.582) rotate(-174.15)" fill="#a77d59" stroke="#263238" stroke-miterlimit="10" stroke-width="1"/>
                </g>
                <g id="Grupo_70526" data-name="Grupo 70526" transform="translate(43.696 4.848)">
                  <rect id="Rectángulo_32015" data-name="Rectángulo 32015" width="1.626" height="9.295" transform="translate(1.617 9.412) rotate(-174.15)" fill="#757575" stroke="#263238" stroke-linecap="round" stroke-linejoin="round" stroke-width="1"/>
                  <rect id="Rectángulo_32016" data-name="Rectángulo 32016" width="1.626" height="4.375" transform="translate(1.796 7.671) rotate(-174.15)" fill="#a77d59" stroke="#263238" stroke-miterlimit="10" stroke-width="1"/>
                </g>
                <g id="Grupo_70527" data-name="Grupo 70527" transform="translate(39.808 6.887)">
                  <rect id="Rectángulo_32017" data-name="Rectángulo 32017" width="1.626" height="9.295" transform="translate(1.617 9.412) rotate(-174.148)" fill="#757575" stroke="#263238" stroke-linecap="round" stroke-linejoin="round" stroke-width="1"/>
                  <rect id="Rectángulo_32018" data-name="Rectángulo 32018" width="1.626" height="4.375" transform="matrix(-0.995, -0.102, 0.102, -0.995, 1.76, 8.019)" fill="#a77d59" stroke="#263238" stroke-miterlimit="10" stroke-width="1"/>
                </g>
                <g id="Grupo_70528" data-name="Grupo 70528" transform="translate(35.741 10.666)">
                  <rect id="Rectángulo_32019" data-name="Rectángulo 32019" width="1.626" height="9.295" transform="translate(1.617 9.412) rotate(-174.148)" fill="#757575" stroke="#263238" stroke-linecap="round" stroke-linejoin="round" stroke-width="1"/>
                  <rect id="Rectángulo_32020" data-name="Rectángulo 32020" width="1.626" height="4.375" transform="translate(1.618 9.412) rotate(-174.15)" fill="#a77d59" stroke="#263238" stroke-miterlimit="10" stroke-width="1"/>
                </g>
                <g id="Grupo_70529" data-name="Grupo 70529" transform="translate(32.701 4.436)">
                  <rect id="Rectángulo_32021" data-name="Rectángulo 32021" width="1.626" height="9.295" transform="translate(1.617 9.412) rotate(-174.15)" fill="#757575" stroke="#263238" stroke-linecap="round" stroke-linejoin="round" stroke-width="1"/>
                  <rect id="Rectángulo_32022" data-name="Rectángulo 32022" width="1.626" height="4.375" transform="translate(1.724 8.367) rotate(-174.15)" fill="#a77d59" stroke="#263238" stroke-miterlimit="10" stroke-width="1"/>
                </g>
                <g id="Grupo_70530" data-name="Grupo 70530" transform="translate(29.476 0)">
                  <rect id="Rectángulo_32023" data-name="Rectángulo 32023" width="1.626" height="9.295" transform="matrix(-0.995, -0.102, 0.102, -0.995, 1.617, 9.412)" fill="#757575" stroke="#263238" stroke-linecap="round" stroke-linejoin="round" stroke-width="1"/>
                  <rect id="Rectángulo_32024" data-name="Rectángulo 32024" width="1.626" height="4.375" transform="translate(1.725 8.368) rotate(-174.15)" fill="#a77d59" stroke="#263238" stroke-miterlimit="10" stroke-width="1"/>
                </g>
                <g id="Grupo_70531" data-name="Grupo 70531" transform="translate(25.334 4.521)">
                  <rect id="Rectángulo_32025" data-name="Rectángulo 32025" width="1.626" height="9.295" transform="translate(1.617 9.412) rotate(-174.15)" fill="#757575" stroke="#263238" stroke-linecap="round" stroke-linejoin="round" stroke-width="1"/>
                  <rect id="Rectángulo_32026" data-name="Rectángulo 32026" width="1.626" height="4.375" transform="translate(1.974 5.93) rotate(-174.148)" fill="#a77d59" stroke="#263238" stroke-miterlimit="10" stroke-width="1"/>
                </g>
                <g id="Grupo_70532" data-name="Grupo 70532" transform="translate(21.158 9.374)">
                  <rect id="Rectángulo_32027" data-name="Rectángulo 32027" width="1.626" height="9.295" transform="translate(1.617 9.412) rotate(-174.15)" fill="#757575" stroke="#263238" stroke-linecap="round" stroke-linejoin="round" stroke-width="1"/>
                  <rect id="Rectángulo_32028" data-name="Rectángulo 32028" width="1.626" height="4.375" transform="translate(2.046 5.233) rotate(-174.15)" fill="#a77d59" stroke="#263238" stroke-miterlimit="10" stroke-width="1"/>
                </g>
                <g id="Grupo_70533" data-name="Grupo 70533" transform="translate(18.053 3.775)">
                  <rect id="Rectángulo_32029" data-name="Rectángulo 32029" width="1.626" height="9.295" transform="translate(1.617 9.412) rotate(-174.15)" fill="#757575" stroke="#263238" stroke-linecap="round" stroke-linejoin="round" stroke-width="1"/>
                  <rect id="Rectángulo_32030" data-name="Rectángulo 32030" width="1.626" height="4.375" transform="translate(1.76 8.019) rotate(-174.148)" fill="#a77d59" stroke="#263238" stroke-miterlimit="10" stroke-width="1"/>
                </g>
                <g id="Grupo_70534" data-name="Grupo 70534" transform="translate(14.569 1.863)">
                  <rect id="Rectángulo_32031" data-name="Rectángulo 32031" width="1.626" height="9.295" transform="translate(1.617 9.412) rotate(-174.148)" fill="#757575" stroke="#263238" stroke-linecap="round" stroke-linejoin="round" stroke-width="1"/>
                  <rect id="Rectángulo_32032" data-name="Rectángulo 32032" width="1.626" height="4.375" transform="translate(2.01 5.582) rotate(-174.15)" fill="#a77d59" stroke="#263238" stroke-miterlimit="10" stroke-width="1"/>
                </g>
                <g id="Grupo_70535" data-name="Grupo 70535" transform="translate(10.633 4.374)">
                  <rect id="Rectángulo_32033" data-name="Rectángulo 32033" width="1.626" height="9.295" transform="translate(1.617 9.412) rotate(-174.148)" fill="#757575" stroke="#263238" stroke-linecap="round" stroke-linejoin="round" stroke-width="1"/>
                  <rect id="Rectángulo_32034" data-name="Rectángulo 32034" width="1.626" height="4.375" transform="translate(1.618 9.412) rotate(-174.15)" fill="#a77d59" stroke="#263238" stroke-miterlimit="10" stroke-width="1"/>
                </g>
                <g id="Grupo_70536" data-name="Grupo 70536" transform="translate(7.288 1.117)">
                  <rect id="Rectángulo_32035" data-name="Rectángulo 32035" width="1.626" height="9.295" transform="translate(1.617 9.412) rotate(-174.15)" fill="#757575" stroke="#263238" stroke-linecap="round" stroke-linejoin="round" stroke-width="1"/>
                  <rect id="Rectángulo_32036" data-name="Rectángulo 32036" width="1.626" height="4.375" transform="translate(1.689 8.716) rotate(-174.148)" fill="#a77d59" stroke="#263238" stroke-miterlimit="10" stroke-width="1"/>
                </g>
                <g id="Grupo_70537" data-name="Grupo 70537" transform="translate(3.519 1.991)">
                  <rect id="Rectángulo_32037" data-name="Rectángulo 32037" width="1.626" height="9.295" transform="translate(1.617 9.412) rotate(-174.15)" fill="#757575" stroke="#263238" stroke-linecap="round" stroke-linejoin="round" stroke-width="1"/>
                  <rect id="Rectángulo_32038" data-name="Rectángulo 32038" width="1.626" height="4.375" transform="translate(1.653 9.064) rotate(-174.15)" fill="#a77d59" stroke="#263238" stroke-miterlimit="10" stroke-width="1"/>
                </g>
                <g id="Grupo_70538" data-name="Grupo 70538" transform="translate(0 0.431)">
                  <rect id="Rectángulo_32039" data-name="Rectángulo 32039" width="1.626" height="9.295" transform="translate(1.617 9.412) rotate(-174.15)" fill="#757575" stroke="#263238" stroke-linecap="round" stroke-linejoin="round" stroke-width="1"/>
                  <rect id="Rectángulo_32040" data-name="Rectángulo 32040" width="1.626" height="4.375" transform="translate(2.081 4.885) rotate(-174.15)" fill="#a77d59" stroke="#263238" stroke-miterlimit="10" stroke-width="1"/>
                </g>
              </g>
              <g id="Grupo_70540" data-name="Grupo 70540" transform="translate(10.354 123.53)">
                <path id="Trazado_141581" data-name="Trazado 141581" d="M365.01,273.738l-73.84-7.566a.777.777,0,0,0-.158,1.546l73.839,7.567a.777.777,0,0,0,.159-1.547Z" transform="translate(-277.153 -266.168)" fill="#263238"/>
                <path id="Trazado_141582" data-name="Trazado 141582" d="M357.892,281.549l-85.861-8.8a.777.777,0,1,0-.158,1.546l85.861,8.8a.777.777,0,0,0,.158-1.546Z" transform="translate(-270.605 -268.419)" fill="#263238"/>
                <path id="Trazado_141583" data-name="Trazado 141583" d="M320.961,286.3l-49.8-5.1a.777.777,0,0,0-.158,1.547l49.8,5.1a.777.777,0,0,0,.159-1.547Z" transform="translate(-270.309 -271.31)" fill="#263238"/>
              </g>
              <path id="Trazado_141584" data-name="Trazado 141584" d="M360.924,198.68c-2.546-.2-3.428,3.855-3.428,3.855s-4.026-5.276-3.388-17.684c0,0-1.967-5.5-7.237-2.178s-10.73,15.033-9.428,27.789L327.2,176.457c-3.539.75-10.73,5.507-8.835,28.473l-11.178-11.816a4.212,4.212,0,0,0-4.737,1.7c-1.711,2.684-.895,21.855.52,29.026s-2.191,21.579-2.191,21.579-3.854-16.315-10.829-20.444L263.392,170.2l-8.822,86.118,9.954,1.02,15.985-7.781c-.089,3.6-.176,6.906-.439,9.373l79.894,8.184,5.717-55.8C363.74,204.358,361.885,198.752,360.924,198.68Z" transform="translate(-254.57 -109.806)" fill="rgba(0,0,0,0.7)" opacity="0.2"/>
            </g>
            <path id="Trazado_141586" data-name="Trazado 141586" d="M374.977,89.2l-9.3,90.71-5.717,55.8-79.894-8.184-15.546-1.592-9.954-1.02,8.822-86.118L269.583,78.4Z" transform="translate(-254.57 -78.4)" fill="none" stroke="#263238" stroke-linecap="round" stroke-linejoin="round" stroke-width="1"/>
          </g>
          <g id="Grupo_70553" data-name="Grupo 70553" transform="translate(18.196 66.638)">
            <g id="Grupo_70546" data-name="Grupo 70546" transform="translate(7.035)">
              <g id="Grupo_70543" data-name="Grupo 70543" transform="translate(0.005)">
                <path id="Trazado_141587" data-name="Trazado 141587" d="M386.784,357.373l-46.71,7.947s-8.131-43.19-12.98-49.993-3.96-9.605-6.316-14.191c-1.421-2.77-8.546-7.934-14.138-13.033h-.007c-.487-.441-.961-.882-1.414-1.322-.2-.178-.382-.368-.566-.546-.743-.737-1.434-1.454-2.046-2.158q-.336-.375-.632-.75a10.654,10.654,0,0,1-2.263-4.007,1.017,1.017,0,0,1-.039-.2,1.7,1.7,0,0,1-.039-.243c-.125-1.02-.257-2.184-.388-3.447-.026-.25-.053-.513-.086-.776-.013-.105-.026-.2-.039-.316-.112-1.053-.237-2.171-.382-3.322-.145-1.2-.3-2.454-.487-3.711-.059-.434-.118-.868-.191-1.309,0-.007,0-.013-.007-.013-.072-.487-.151-.974-.23-1.467l-.217-1.263c-.013-.072-.033-.138-.039-.2-.092-.493-.184-.974-.276-1.461a.663.663,0,0,1-.033-.164c-.092-.428-.178-.849-.276-1.276-.2-.954-.434-1.888-.684-2.8a34.683,34.683,0,0,0-1.743-5c-3.368-7.52,1.013-4.8-1.625-24.151,0,0,1.941-4.487,7.474-.9a14.817,14.817,0,0,1,1.237.9h.007a15.552,15.552,0,0,1,2.941,3.145,18.17,18.17,0,0,1,2.539,5.237,22.772,22.772,0,0,1,.75,9.408s4.158,14.25,6.349,17.493,11.25-15.388,10.664-17.559a29.326,29.326,0,0,1-.467-2.947c-.039-.322-.079-.664-.125-1.026s-.085-.737-.125-1.125c-.026-.184-.046-.382-.072-.572-.007-.079-.013-.158-.026-.23-.079-.743-.171-1.533-.257-2.349-.02-.23-.046-.447-.072-.671-.04-.388-.079-.789-.118-1.184a1.671,1.671,0,0,1-.02-.2c-.026-.224-.053-.454-.072-.691-.053-.461-.1-.928-.145-1.395-.046-.4-.079-.8-.118-1.2-.079-.757-.151-1.513-.224-2.243-.053-.546-.105-1.086-.151-1.612-.013-.118-.026-.237-.033-.349-.276-2.895-.493-5.276-.572-6.289,0,0-6.585-9.75-7.263-14.342s-.618-9.428,2.138-11.395c6.526-4.645,4.618,2.842,7.539,5.941s7.4,8.178,9.941,9.763c2.342,1.487,4.434,7.263,4.73,8.105-.336-1.263-3.684-13.684-3.757-16.184-.086-2.638-2.1-16.552,1.322-21.546s7.967-1.118,8.388-.132.546,14.467,1.75,18.224,6.243,19.388,6.243,19.388.211-15.21,1.349-22.02,4.092-12.131,6.987-12.434,5.572,2.888,5.572,2.888-1.145,10.855-.816,13.362-.474,11.559.9,16.427c0,0-.158-12.967,1.855-14.625s3.743-2.454,4.875-1.336,1.375,8.8,2.526,13.414,1.007,10.895,1.763,18.1,3.737,17.2,3.145,22.921-2.414,19.895-3.882,28.217a177.068,177.068,0,0,1-5.21,19.723,40.887,40.887,0,0,1,1.375,11.513C373.429,321.241,386.784,357.373,386.784,357.373Z" transform="translate(-292.93 -179.69)" fill="#ffcfb4"/>
              </g>
              <g id="Grupo_70544" data-name="Grupo 70544" transform="translate(3.372 14.484)">
                <path id="Trazado_141588" data-name="Trazado 141588" d="M369.14,209.128c.9,2.779,3.885,12.067,5.374,16.7,0,0-6.53,4.8-6.368,9.259s-1.2,13.462-4.128,13.2-2.667-18.984-3.624-22.13c.6,1.35.982,2.451,1.059,2.668-.217-.807-3.706-13.7-3.78-16.25-.017-.6-.138-1.794-.273-3.34l0-.03s6.489-6.212,11.256-2.409v.006A15.982,15.982,0,0,0,369.14,209.128Z" transform="translate(-318.353 -203.028)" fill="#e2b88e" opacity="0.4"/>
                <path id="Trazado_141589" data-name="Trazado 141589" d="M397.888,213.161c-3.04,2.882-7.626,7.977-8.206,12.893,0,0,1.695,13.718.97,19.7L384.726,227.2s.213-15.212,1.351-22.019c.03-.186.065-.378.1-.563a27.058,27.058,0,0,1,11.9-2.909,53.221,53.221,0,0,0-.259,7.285A39.733,39.733,0,0,1,397.888,213.161Z" transform="translate(-327.701 -201.706)" fill="#e2b88e" opacity="0.4"/>
                <path id="Trazado_141590" data-name="Trazado 141590" d="M408.54,215.3l-.006.006-.019.017c-.07.05-.248.19-.51.411a8.7,8.7,0,0,1,.519-.858Z" transform="translate(-335.665 -206.212)" fill="#e2b88e" opacity="0.4"/>
                <path id="Trazado_141591" data-name="Trazado 141591" d="M409.1,252.663S405.193,238,405.124,226.2c-.028-4.366.476-8.349,1.888-11.041l.007-.005a8.7,8.7,0,0,1,.519-.858l.016.424a10.767,10.767,0,0,1,2.328-1.54c-1.1,1.712-2.362,5.061-.9,10.5C411.276,232.207,409.281,242.619,409.1,252.663Z" transform="translate(-334.679 -205.631)" fill="#e2b88e" opacity="0.4"/>
                <path id="Trazado_141592" data-name="Trazado 141592" d="M318.567,294.324s1.05,13.97-10.178,18.971h-.007c-.487-.441-.957-.882-1.414-1.322-.195-.182-.383-.368-.566-.549-.741-.736-1.436-1.457-2.047-2.16-.226-.256-.435-.5-.632-.747a10.66,10.66,0,0,1-2.261-4.007,1.324,1.324,0,0,1-.042-.2,2.037,2.037,0,0,1-.039-.244c-.125-1.019-.253-2.183-.387-3.451-.027-.249-.053-.511-.086-.774-.012-.1-.024-.207-.035-.317-.117-1.055-.243-2.17-.384-3.323-.144-1.2-.3-2.452-.487-3.71-.064-.434-.128-.873-.192-1.307,0-.006,0-.012-.005-.013-.073-.488-.152-.978-.231-1.467-.071-.422-.148-.844-.219-1.266-.014-.067-.028-.135-.036-.2-.091-.489-.182-.974-.28-1.458a1.463,1.463,0,0,1-.032-.165c-.089-.429-.178-.853-.273-1.276q-.321-1.428-.688-2.8c4.441-4.274,14.693-1.593,9.731-11.493,0,0,2.5-8.473-4.389-17.661h.006c4.713,3.8,7.124,10.474,6.234,17.793,0,0,4.157,14.245,6.349,17.491s11.247-15.388,10.66-17.561c-.112-.431-.278-1.494-.461-2.946-.04-.324-.08-.665-.124-1.025s-.088-.737-.131-1.128c-.025-.184-.043-.378-.068-.568-.007-.079-.014-.158-.028-.232-.081-.749-.166-1.536-.255-2.352-.022-.226-.045-.445-.074-.67-.037-.39-.079-.786-.121-1.182-.009-.061-.011-.128-.018-.195-.023-.226-.051-.457-.072-.695-.051-.463-.095-.926-.145-1.395-.042-.4-.078-.8-.12-1.207-.075-.755-.149-1.511-.22-2.241-.051-.548-.1-1.09-.155-1.608-.011-.122-.022-.237-.033-.353.183.865,3.519,16.743,5.423,20.443C331.987,277.568,323.691,297.617,318.567,294.324Z" transform="translate(-298.047 -219.363)" fill="#e2b88e" opacity="0.4"/>
                <path id="Trazado_141593" data-name="Trazado 141593" d="M410.43,318.9a177.614,177.614,0,0,1-5.205,19.724,40.82,40.82,0,0,1,1.37,11.514c-.089,1.459.816,5.147,2.174,9.753-.392-1.011-4.586-11.88-4.517-15.672.08-3.978-1.051-5.077-3.269-9.965s-5.6-4.351-5.6-4.351-1.305,12.2-4.367,4.181-3.652-17.337,4.067-49.705c0,0,1.167,4.061.191,16.121s1.905,15.711,1.905,15.711a112.351,112.351,0,0,0,10.257-23.918s-1,14.074-1.886,20.485,3.162-7.428,5.993-15.977c2.659-8.022,2.756-11.073,1.744-16.783.752,4.023,1.316,7.86,1.029,10.663C413.724,296.391,411.9,310.577,410.43,318.9Z" transform="translate(-329.128 -228.498)" fill="#e2b88e" opacity="0.4"/>
                <path id="Trazado_141594" data-name="Trazado 141594" d="M341.4,380.356c2.277,3.62,7.851,8.4,11.17,21.634S353.8,429.7,353.8,429.7Z" transform="translate(-312.878 -262.824)" fill="#e2b88e" opacity="0.4"/>
              </g>
              <path id="Trazado_141595" data-name="Trazado 141595" d="M307.127,260.62s-11.651,5.9-12.572,15.77c-3.368-7.52,1.013-4.8-1.625-24.151,0,0,1.941-4.487,7.474-.9a14.824,14.824,0,0,1,1.237.9h.007a15.552,15.552,0,0,1,2.941,3.145Z" transform="translate(-292.925 -203.726)" fill="rgba(0,0,0,0.7)" opacity="0.2"/>
              <g id="Grupo_70545" data-name="Grupo 70545" transform="translate(0 0.002)">
                <path id="Trazado_141596" data-name="Trazado 141596" d="M340.07,365.323s-8.127-43.192-12.978-50-3.961-9.605-6.314-14.189-20.349-15.747-21.146-22.262-1.709-19-5.079-26.522,1.014-4.8-1.631-24.153c0,0,1.951-4.482,7.479-.9s8.441,10.754,7.474,18.694c0,0,4.156,14.242,6.351,17.49s11.242-15.389,10.657-17.564-2.322-20.7-2.594-24.081c0,0-6.586-9.754-7.262-14.345s-.619-9.428,2.136-11.389c6.527-4.647,4.615,2.839,7.538,5.944s7.4,8.17,9.939,9.762,4.765,8.2,4.765,8.2-3.713-13.645-3.791-16.285-2.1-16.552,1.322-21.542,7.972-1.12,8.391-.136.549,14.464,1.756,18.22,6.234,19.392,6.234,19.392.215-15.209,1.351-22.017,4.1-12.135,6.99-12.437,5.57,2.888,5.57,2.888-1.145,10.855-.82,13.359-.47,11.556.908,16.431c0,0-.162-12.97,1.855-14.628s3.743-2.451,4.872-1.334,1.376,8.8,2.53,13.417,1.008,10.9,1.763,18.1,3.734,17.2,3.145,22.916-2.418,19.9-3.888,28.225a178.385,178.385,0,0,1-5.2,19.723,40.8,40.8,0,0,1,1.369,11.51c-.334,5.428,13.016,41.557,13.016,41.557" transform="translate(-292.922 -179.693)" fill="none" stroke="#263238" stroke-linecap="round" stroke-linejoin="round" stroke-width="1"/>
                <path id="Trazado_141597" data-name="Trazado 141597" d="M384.723,240.451c1.361,3.2,4.724,16.694,5.926,18.564a6.369,6.369,0,0,0,2.565,2.432" transform="translate(-324.328 -200.479)" fill="none" stroke="#263238" stroke-linecap="round" stroke-linejoin="round" stroke-width="1"/>
                <path id="Trazado_141598" data-name="Trazado 141598" d="M405.99,237.752s-.289,2.766,1.205,11.584,2.222,12.575,3.059,14.542" transform="translate(-331.596 -199.556)" fill="none" stroke="#263238" stroke-linecap="round" stroke-linejoin="round" stroke-width="1"/>
                <path id="Trazado_141599" data-name="Trazado 141599" d="M363.577,240.983c1.826,5.374,2.857,13.939,3.9,16.518s1.965,3.114,1.965,3.114" transform="translate(-317.094 -200.661)" fill="none" stroke="#263238" stroke-linecap="round" stroke-linejoin="round" stroke-width="1"/>
                <path id="Trazado_141600" data-name="Trazado 141600" d="M368.07,260.585a8.132,8.132,0,0,1,2.524,3.188" transform="translate(-318.631 -207.367)" fill="none" stroke="#263238" stroke-linecap="round" stroke-linejoin="round" stroke-width="1"/>
                <path id="Trazado_141601" data-name="Trazado 141601" d="M325.3,307.061s1,7.126,5.465,6.562" transform="translate(-304.001 -223.267)" fill="none" stroke="#263238" stroke-linecap="round" stroke-linejoin="round" stroke-width="1"/>
                <path id="Trazado_141602" data-name="Trazado 141602" d="M341.119,280.364s1.157,8.47-.74,12.065" transform="translate(-309.158 -214.134)" fill="none" stroke="#263238" stroke-linecap="round" stroke-linejoin="round" stroke-width="1"/>
                <path id="Trazado_141603" data-name="Trazado 141603" d="M393.395,280.477s3,1.837.994,7.222-5.5,27.123-5.5,27.123" transform="translate(-325.755 -214.173)" fill="none" stroke="#263238" stroke-linecap="round" stroke-linejoin="round" stroke-width="1"/>
                <path id="Trazado_141604" data-name="Trazado 141604" d="M412.465,289.121c1.258,4.867,1.37,4.993-.674,10.975s-5.337,20.627-5.337,20.627" transform="translate(-331.763 -217.13)" fill="none" stroke="#263238" stroke-linecap="round" stroke-linejoin="round" stroke-width="1"/>
                <path id="Trazado_141605" data-name="Trazado 141605" d="M413.207,365.353s-1.962-3.961-.341-7.215" transform="translate(-333.737 -240.741)" fill="none" stroke="#263238" stroke-linecap="round" stroke-linejoin="round" stroke-width="1"/>
                <path id="Trazado_141606" data-name="Trazado 141606" d="M344.86,385.859a54.178,54.178,0,0,1,7.117,14.765" transform="translate(-310.691 -250.225)" fill="none" stroke="#263238" stroke-linecap="round" stroke-linejoin="round" stroke-width="1"/>
              </g>
            </g>
            <g id="Grupo_70551" data-name="Grupo 70551" transform="translate(0 12.015)">
              <path id="Trazado_141607" data-name="Trazado 141607" d="M400.341,199.45l1.339-1.325.609-.172-.04.656-1.234,1.571Z" transform="translate(-322.636 -197.953)" fill="#757575" stroke="#263238" stroke-linecap="round" stroke-linejoin="round" stroke-width="1"/>
              <g id="Grupo_70548" data-name="Grupo 70548" transform="translate(11.387 1.058)">
                <path id="Trazado_141608" data-name="Trazado 141608" d="M366.937,200.736l-2.18,4.951-58.684,78.245-6.536-4.166,8.874-11.133,52.709-66.117,4.649-2.953A1.651,1.651,0,0,1,366.937,200.736Z" transform="translate(-299.536 -199.562)" fill="#a77d59"/>
                <g id="Grupo_70547" data-name="Grupo 70547" clip-path="url(#clip-path-4)">
                  <path id="Trazado_141609" data-name="Trazado 141609" d="M366.937,200.736l-2.18,4.951-58.684,78.245-6.536-4.166,8.874-11.133c4.076-.422,4.757,1.987,4.757,1.987l50.559-65.989a3.378,3.378,0,0,0-2.607-2.115l4.649-2.953A1.651,1.651,0,0,1,366.937,200.736Z" transform="translate(-299.536 -199.562)" fill="rgba(0,0,0,0.7)" opacity="0.3"/>
                </g>
                <path id="Trazado_141611" data-name="Trazado 141611" d="M366.937,200.736l-2.18,4.951-58.684,78.245-6.536-4.166,8.874-11.133,52.709-66.117,4.649-2.953A1.651,1.651,0,0,1,366.937,200.736Z" transform="translate(-299.536 -199.562)" fill="none" stroke="#263238" stroke-linecap="round" stroke-linejoin="round" stroke-width="1"/>
              </g>
              <g id="Grupo_70550" data-name="Grupo 70550" transform="translate(0 61.458)">
                <path id="Trazado_141612" data-name="Trazado 141612" d="M319.291,292.173a231.706,231.706,0,0,1-12.852,22.2l-4.5,1.164S291.609,325.8,285.308,330.92a14.131,14.131,0,0,1-3.08-2.586s8.949-17.182,18.847-28.058A12.631,12.631,0,0,1,304.323,302a15.95,15.95,0,0,1,3.39,3.253l11.034-13.882Z" transform="translate(-282.228 -291.371)" fill="#a77d59"/>
                <g id="Grupo_70549" data-name="Grupo 70549" clip-path="url(#clip-path-5)">
                  <path id="Trazado_141613" data-name="Trazado 141613" d="M320.893,292.173a231.706,231.706,0,0,1-12.852,22.2l-4.5,1.164S293.211,325.8,286.91,330.92l.171-2.786c6.833-10.441,15.517-21.828,18.844-26.134a15.951,15.951,0,0,1,3.39,3.253l-6.132,8.183,3.513-.632,13.653-21.434Z" transform="translate(-283.83 -291.371)" fill="rgba(0,0,0,0.7)" opacity="0.3"/>
                </g>
                <path id="Trazado_141615" data-name="Trazado 141615" d="M319.291,292.173a231.706,231.706,0,0,1-12.852,22.2l-4.5,1.164S291.609,325.8,285.308,330.92a14.131,14.131,0,0,1-3.08-2.586s8.949-17.182,18.847-28.058A12.631,12.631,0,0,1,304.323,302a15.95,15.95,0,0,1,3.39,3.253l11.034-13.882Z" transform="translate(-282.228 -291.371)" fill="none" stroke="#263238" stroke-linecap="round" stroke-linejoin="round" stroke-width="1"/>
              </g>
            </g>
            <g id="Grupo_70552" data-name="Grupo 70552" transform="translate(28.78 14.934)">
              <path id="Trazado_141616" data-name="Trazado 141616" d="M356.572,247.409l-18.331,17.775-2.929,2.841c2.005-5.156,1.036-13.128.907-14.1v-.012c-.009-.055-.013-.086-.013-.086a.844.844,0,0,0-.016-.14c-.113-.431-.278-1.494-.461-2.946-.04-.324-.08-.665-.124-1.025s-.088-.737-.131-1.128c-.025-.184-.043-.378-.068-.568-.007-.079-.014-.158-.028-.232-.082-.743-.172-1.536-.255-2.352-.022-.226-.045-.445-.074-.67-.037-.39-.079-.786-.121-1.182-.009-.061-.011-.128-.018-.195-.023-.226-.051-.457-.072-.695-.051-.463-.095-.926-.145-1.395-.042-.4-.078-.8-.12-1.207-.075-.755-.149-1.511-.22-2.241q-.086-.823-.155-1.608c-.011-.122-.022-.237-.033-.353-.277-2.892-.494-5.272-.571-6.288,0,0-6.581-9.751-7.262-14.345s-.62-9.428,2.139-11.389c6.526-4.648,4.614,2.838,7.535,5.941s7.4,8.172,9.941,9.763,4.763,8.2,4.763,8.2c1.826,5.373,2.856,13.935,3.9,16.518S356.572,247.409,356.572,247.409Z" transform="translate(-325.974 -202.39)" fill="#ffcfb4"/>
              <path id="Trazado_141617" data-name="Trazado 141617" d="M368.07,260.585a8.132,8.132,0,0,1,2.524,3.188" transform="translate(-340.376 -222.299)" fill="none" stroke="#263238" stroke-linecap="round" stroke-linejoin="round" stroke-width="1"/>
              <path id="Trazado_141618" data-name="Trazado 141618" d="M336.008,209.814c2.909,3.1,7.376,8.141,9.917,9.749-.358-.18-5.031-2.458-7.644.076-2.717,2.642-4.686,9.968-4.686,9.968s-6.581-9.751-7.262-14.345-.62-9.428,2.139-11.389C335,199.225,333.087,206.711,336.008,209.814Z" transform="translate(-325.974 -202.39)" fill="#e2b88e" opacity="0.4"/>
              <path id="Trazado_141619" data-name="Trazado 141619" d="M342.5,282.607l-2.929,2.841c2.005-5.156,1.036-13.128.907-14.1v-.012a.95.95,0,0,0-.028-.226c-.113-.431-.278-1.494-.461-2.946-.04-.324-.08-.665-.124-1.025s-.088-.737-.131-1.128c-.025-.184-.043-.378-.068-.568-.007-.079-.014-.158-.028-.232-.081-.749-.166-1.536-.255-2.352-.022-.226-.045-.445-.074-.67-.037-.39-.079-.786-.121-1.182-.009-.061-.011-.128-.018-.195-.023-.226-.051-.457-.072-.695-.051-.463-.095-.926-.145-1.395-.042-.4-.078-.8-.12-1.207-.075-.755-.149-1.511-.22-2.241-.051-.548-.1-1.09-.155-1.608-.011-.122-.022-.237-.033-.353.183.865,3.519,16.743,5.423,20.443C344.568,275.161,343.9,278.77,342.5,282.607Z" transform="translate(-330.234 -219.813)" fill="#a77d59" opacity="0.4"/>
              <path id="Trazado_141620" data-name="Trazado 141620" d="M356.574,247.412s-.925-.536-1.964-3.114-2.07-11.143-3.9-16.518c0,0-2.229-6.609-4.765-8.2s-7.016-6.657-9.939-9.762-1.011-10.591-7.538-5.944c-2.755,1.961-2.813,6.8-2.136,11.389s7.262,14.345,7.262,14.345c.272,3.378,2.009,21.907,2.594,24.081" transform="translate(-325.975 -202.39)" fill="none" stroke="#263238" stroke-linecap="round" stroke-linejoin="round" stroke-width="1"/>
              <path id="Trazado_141621" data-name="Trazado 141621" d="M341.119,280.364s1.157,8.47-.74,12.065" transform="translate(-330.902 -229.066)" fill="none" stroke="#263238" stroke-linecap="round" stroke-linejoin="round" stroke-width="1"/>
            </g>
          </g>
        </g>
      </g>
      <g id="Left_hand" data-name="Left hand" transform="translate(7.086 11.275)">
        <g id="Grupo_70583" data-name="Grupo 70583">
          <path id="Trazado_141622" data-name="Trazado 141622" d="M142.619,290.133s4.164,19.336-4.858,33.4-15.963,17.82-19.086,22.017-15.342,27.666-15.342,27.666L89.058,330.937l14.276-52.309Z" transform="translate(-54.04 -139.598)" fill="rgba(0,0,0,0.7)" opacity="0.2"/>
          <g id="Grupo_70580" data-name="Grupo 70580" transform="translate(17.941)">
            <path id="Trazado_141623" data-name="Trazado 141623" d="M217.881,203.049,129.356,240.3l-9.125,3.842-17.2-40.861L63.1,108.4l97.65-41.1Z" transform="translate(-63.1 -67.3)" fill="#fff"/>
            <g id="Grupo_70579" data-name="Grupo 70579" clip-path="url(#clip-path-6)">
              <path id="Trazado_141624" data-name="Trazado 141624" d="M150.765,94.082l-42.152,17.74a1.554,1.554,0,1,0,1.206,2.865l42.152-17.739a1.555,1.555,0,1,0-1.206-2.866Z" transform="translate(-78.345 -76.421)" fill="#263238"/>
              <path id="Trazado_141625" data-name="Trazado 141625" d="M149.721,109.8l-21.076,8.87a.777.777,0,1,0,.6,1.432l21.076-8.87a.777.777,0,0,0-.6-1.433Z" transform="translate(-85.361 -81.82)" fill="#263238"/>
              <g id="Grupo_70565" data-name="Grupo 70565" transform="translate(35.171 75.381)">
                <g id="Grupo_70555" data-name="Grupo 70555" transform="translate(0 6.636)">
                  <path id="Trazado_141626" data-name="Trazado 141626" d="M186.259,191.966s.889,6.983-1.711,8.078c-2.374,1-5.5-2.748-8.23-1.6s-.576,11.048-3.209,12.156-5.805-2.959-8.076-2-.9,6.048-3.239,7.033c-1.932.813-4.7-3.235-6.908-4.123a1.691,1.691,0,0,0-1.316-.066c-2.317.975-1.167,11.609-3.166,12.451a3.752,3.752,0,0,1-1.774.29,13.1,13.1,0,0,0-2.255-.213,2.913,2.913,0,0,0-.843.215c-1.707.718-1.474,6.315-3.034,6.972s-3.1-.157-4.766.544-1.639,3.61-4.122,4.655l1.05,2.5,60.6-25.5" transform="translate(-122.394 -191.966)" fill="#bfbfbf" stroke="#263238" stroke-miterlimit="10" stroke-width="1"/>
                  <path id="Trazado_141627" data-name="Trazado 141627" d="M116.56,218.921l12.269,29.152,63.445-26.7" transform="translate(-116.56 -201.188)" fill="none" stroke="#263238" stroke-linecap="round" stroke-linejoin="round" stroke-width="1"/>
                  <path id="Trazado_141628" data-name="Trazado 141628" d="M191.135,208.422a10.33,10.33,0,0,0-.748-.8c-.784-.757-2.029-1.718-2.974-1.32-.924.389-1.007,1.926-.988,3.567.022,2,.2,4.148-.809,4.57-.854.359-1.622-.181-2.407-.771-.9-.672-1.824-1.407-2.932-.941-1.871.787-1.3,3.224-1.96,5.309a4.035,4.035,0,0,1-2.461,2.659c-1.616.68-3.255.012-4.8-1.041-2.607-1.778-4.947-4.655-6.464-4.018-2.412,1.016.249,7.545-2.345,8.637-1.45.61-4.449-3.962-7.363-7.891-2.3-3.111-4.555-5.818-5.938-5.237-3.129,1.317,2.027,16.928-.247,17.885-.022.009-.047.019-.07.026a2.4,2.4,0,0,1-2.255-.212c-.82-.464-1.487-1.123-2.393-.741-1.675.7-.692,6.825-2.539,7.6s-2.954-.347-5.032.527c-1.759.74-2.8,5-2.8,5l1.05,2.5,60.6-25.5" transform="translate(-122.394 -196.837)" fill="#757575" stroke="#263238" stroke-linecap="round" stroke-linejoin="round" stroke-width="1"/>
                </g>
                <path id="Trazado_141629" data-name="Trazado 141629" d="M190.347,241.179l-21.076,8.87a.777.777,0,0,0,.6,1.433l21.076-8.87a.777.777,0,0,0-.6-1.433Z" transform="translate(-134.43 -202.146)" fill="#263238"/>
                <g id="Grupo_70564" data-name="Grupo 70564" transform="translate(70.196)">
                  <g id="Grupo_70559" data-name="Grupo 70559" transform="translate(0)">
                    <rect id="Rectángulo_32041" data-name="Rectángulo 32041" width="3.033" height="3.033" rx="0.626" transform="matrix(0.922, -0.388, 0.388, 0.922, 0, 5.12)" fill="#bfbfbf" stroke="#263238" stroke-miterlimit="10" stroke-width="1"/>
                    <g id="Grupo_70558" data-name="Grupo 70558" transform="translate(4.521)">
                      <g id="Grupo_70556" data-name="Grupo 70556">
                        <path id="Trazado_141630" data-name="Trazado 141630" d="M239.037,182.55l-8.423,3.545a.349.349,0,0,1-.27-.643l8.423-3.545a.349.349,0,0,1,.27.643Z" transform="translate(-230.13 -181.88)" fill="#263238"/>
                      </g>
                      <g id="Grupo_70557" data-name="Grupo 70557" transform="translate(0.588 2.479)">
                        <path id="Trazado_141631" data-name="Trazado 141631" d="M237.362,186.318l-5.853,2.463a.349.349,0,1,1-.27-.643l5.853-2.463a.349.349,0,0,1,.27.643Z" transform="translate(-231.025 -185.648)" fill="#263238"/>
                      </g>
                    </g>
                  </g>
                  <g id="Grupo_70563" data-name="Grupo 70563" transform="translate(2.635 6.262)">
                    <rect id="Rectángulo_32042" data-name="Rectángulo 32042" width="3.033" height="3.033" rx="0.626" transform="matrix(0.922, -0.388, 0.388, 0.922, 0, 5.12)" fill="#757575" stroke="#263238" stroke-linecap="round" stroke-linejoin="round" stroke-width="1"/>
                    <g id="Grupo_70562" data-name="Grupo 70562" transform="translate(4.521)">
                      <g id="Grupo_70560" data-name="Grupo 70560">
                        <path id="Trazado_141632" data-name="Trazado 141632" d="M243.042,192.068l-8.423,3.545a.349.349,0,0,1-.27-.643l8.423-3.545a.349.349,0,1,1,.27.643Z" transform="translate(-234.136 -191.398)" fill="#263238"/>
                      </g>
                      <g id="Grupo_70561" data-name="Grupo 70561" transform="translate(0.588 2.479)">
                        <path id="Trazado_141633" data-name="Trazado 141633" d="M241.367,195.836l-5.853,2.463a.349.349,0,0,1-.27-.643l5.853-2.463a.349.349,0,1,1,.27.643Z" transform="translate(-235.03 -195.166)" fill="#263238"/>
                      </g>
                    </g>
                  </g>
                </g>
              </g>
              <g id="Grupo_70566" data-name="Grupo 70566" transform="translate(54.645 108.067)">
                <path id="Trazado_141634" data-name="Trazado 141634" d="M228.686,231.624l-68.414,28.792a.777.777,0,1,0,.6,1.433l68.414-28.792a.777.777,0,1,0-.6-1.433Z" transform="translate(-150.826 -231.563)" fill="#263238"/>
                <path id="Trazado_141635" data-name="Trazado 141635" d="M226.19,239.454l-79.553,33.48a.777.777,0,0,0,.6,1.433l79.553-33.48a.777.777,0,1,0-.6-1.433Z" transform="translate(-146.161 -234.242)" fill="#263238"/>
                <path id="Trazado_141636" data-name="Trazado 141636" d="M229.485,247.285l-79.553,33.479a.777.777,0,1,0,.6,1.433l79.553-33.48a.777.777,0,1,0-.6-1.432Z" transform="translate(-147.288 -236.921)" fill="#263238"/>
                <path id="Trazado_141637" data-name="Trazado 141637" d="M232.781,255.115,153.228,288.6a.777.777,0,1,0,.6,1.432l79.553-33.479a.777.777,0,0,0-.6-1.433Z" transform="translate(-148.416 -239.6)" fill="#263238"/>
                <path id="Trazado_141638" data-name="Trazado 141638" d="M202.66,284.321l-46.137,19.417a.777.777,0,0,0,.6,1.433l46.138-19.417a.777.777,0,1,0-.6-1.433Z" transform="translate(-149.543 -249.591)" fill="#263238"/>
              </g>
              <g id="Grupo_70578" data-name="Grupo 70578" transform="translate(18.486 33.204)">
                <g id="Grupo_70568" data-name="Grupo 70568" transform="translate(0 9.166)">
                  <g id="Grupo_70567" data-name="Grupo 70567" transform="translate(11.218)">
                    <path id="Trazado_141639" data-name="Trazado 141639" d="M160.9,131.7s.889,6.983-1.711,8.078c-2.374,1-5.5-2.748-8.23-1.6s-.576,11.048-3.209,12.156-5.805-2.959-8.076-2-.9,6.048-3.239,7.033c-1.932.813-4.7-3.235-6.908-4.123a1.691,1.691,0,0,0-1.316-.066c-2.317.975-1.167,11.609-3.166,12.451a3.736,3.736,0,0,1-1.774.29,13.226,13.226,0,0,0-2.255-.212,2.915,2.915,0,0,0-.843.216c-1.707.718-1.474,6.314-3.034,6.971s-3.1-.157-4.766.544-1.639,3.61-4.122,4.656l1.05,2.5,60.6-25.5" transform="translate(-108.251 -131.704)" fill="#bfbfbf" stroke="#263238" stroke-miterlimit="10" stroke-width="1"/>
                    <path id="Trazado_141640" data-name="Trazado 141640" d="M164.941,145.85s.555,3.384-.785,3.949c-1.111.468-1.794-.184-2.966-.227a3.9,3.9,0,0,0-1.695.348c-1.071.451-1.331,1.9-1.521,3.451-.234,1.912-.359,3.989-1.758,4.578a4.331,4.331,0,0,1-3.134-.211c-1.739-.607-3.571-1.566-5.337-.822a4.168,4.168,0,0,0-1.922,2.44c-1.1,2.718-1.443,6.653-2.633,7.153-1.691.712-4.789-2.2-6.291-1.563s-.886,3.24-2.1,3.753-1.914-1-4.059-.1-1.1,4.071-4.124,5.343-4.352-1.068-7.279.164-2.395,3.449-4.456,4.316-2.934-.64-4.411-.018c-1.431.6-1.824,2.957-1.847,3.1l.807,1.919,60.6-25.5" transform="translate(-108.377 -136.544)" fill="#263238" stroke="#263238" stroke-miterlimit="10" stroke-width="1"/>
                  </g>
                  <path id="Trazado_141641" data-name="Trazado 141641" d="M91.2,158.66l12.269,29.152,63.445-26.7" transform="translate(-91.199 -140.926)" fill="none" stroke="#263238" stroke-linecap="round" stroke-linejoin="round" stroke-width="1"/>
                </g>
                <path id="Trazado_141642" data-name="Trazado 141642" d="M164.7,180.229,143.62,189.1a.777.777,0,1,0,.6,1.432l21.077-8.87a.777.777,0,0,0-.6-1.433Z" transform="translate(-108.97 -139.118)" fill="#263238"/>
                <g id="Grupo_70577" data-name="Grupo 70577" transform="translate(69.131)">
                  <g id="Grupo_70572" data-name="Grupo 70572" transform="translate(0)">
                    <rect id="Rectángulo_32043" data-name="Rectángulo 32043" width="3.033" height="3.033" rx="0.626" transform="matrix(0.922, -0.388, 0.388, 0.922, 0, 5.12)" fill="#bfbfbf" stroke="#263238" stroke-miterlimit="10" stroke-width="1"/>
                    <g id="Grupo_70571" data-name="Grupo 70571" transform="translate(4.521)">
                      <g id="Grupo_70569" data-name="Grupo 70569">
                        <path id="Trazado_141643" data-name="Trazado 141643" d="M212.057,118.441l-8.423,3.545a.349.349,0,0,1-.27-.643l8.423-3.545a.349.349,0,1,1,.27.643Z" transform="translate(-203.151 -117.771)" fill="#263238"/>
                      </g>
                      <g id="Grupo_70570" data-name="Grupo 70570" transform="translate(0.588 2.48)">
                        <path id="Trazado_141644" data-name="Trazado 141644" d="M210.382,122.21l-5.853,2.463a.348.348,0,1,1-.27-.642l5.853-2.463a.348.348,0,1,1,.27.642Z" transform="translate(-204.045 -121.54)" fill="#263238"/>
                      </g>
                    </g>
                  </g>
                  <g id="Grupo_70576" data-name="Grupo 70576" transform="translate(2.635 6.262)">
                    <rect id="Rectángulo_32044" data-name="Rectángulo 32044" width="3.033" height="3.033" rx="0.626" transform="matrix(0.922, -0.388, 0.388, 0.922, 0, 5.12)" fill="#a77d59" stroke="#263238" stroke-miterlimit="10" stroke-width="1"/>
                    <g id="Grupo_70575" data-name="Grupo 70575" transform="translate(4.521)">
                      <g id="Grupo_70573" data-name="Grupo 70573">
                        <path id="Trazado_141645" data-name="Trazado 141645" d="M216.063,127.959,207.64,131.5a.349.349,0,0,1-.27-.643l8.422-3.545a.349.349,0,1,1,.27.643Z" transform="translate(-207.156 -127.289)" fill="#263238"/>
                      </g>
                      <g id="Grupo_70574" data-name="Grupo 70574" transform="translate(0.588 2.48)">
                        <path id="Trazado_141646" data-name="Trazado 141646" d="M214.387,131.728l-5.853,2.463a.348.348,0,1,1-.27-.642l5.853-2.463a.348.348,0,1,1,.27.642Z" transform="translate(-208.05 -131.058)" fill="#263238"/>
                      </g>
                    </g>
                  </g>
                </g>
              </g>
              <path id="Trazado_141647" data-name="Trazado 141647" d="M150.122,295.105,141,298.947l-17.2-40.861a10.124,10.124,0,0,0,2.875-5.638c1.026-5.474.3-23.072,14.006-24.888s2.145,29,2.776,34.875C144.037,267.783,151.846,283.329,150.122,295.105Z" transform="translate(-83.866 -122.1)" fill="rgba(0,0,0,0.7)" opacity="0.2"/>
            </g>
            <path id="Trazado_141649" data-name="Trazado 141649" d="M217.881,203.049,129.356,240.3l-9.125,3.842-17.2-40.861L63.1,108.4l97.65-41.1Z" transform="translate(-63.1 -67.3)" fill="none" stroke="#263238" stroke-linecap="round" stroke-linejoin="round" stroke-width="1"/>
          </g>
          <g id="Grupo_70582" data-name="Grupo 70582" transform="translate(0 94.227)">
            <path id="Trazado_141650" data-name="Trazado 141650" d="M114.514,258.861c1.536-5.253,7.536-22.114,6.749-29.569a7.286,7.286,0,0,0-.42-1.815c-2.106-5.566-10.714-5.028-14.018-.415-3.63,5.073-6.595,14.2-6.847,19.757a17.179,17.179,0,0,1-2.6,7.8c-.005.012-.005.018-.011.024a19.268,19.268,0,0,1-1.741,2.474L75.986,210.527a26.591,26.591,0,0,0-5.138,5.735,9.38,9.38,0,0,0-1.509,3.993c-.4,4.589-5.6,23.443-7.761,31.4-.041.171-.089.33-.131.489-2.078,7.645,3.408,36.04,1.839,44.288s-2.544,8.064-2.772,13.922c-.167,4.277-6.285,17.279-13.139,30.626-3.93,7.649-8.1,15.405-11.545,21.691l50.21-2.085c.87-6.1,1.762-12.54,2.577-18.772a70.117,70.117,0,0,1,1.5-7.706V334.1c1.109-4.473,2.458-8.52,3.279-10.889a102.594,102.594,0,0,0,2.62-10.589c5.839-6.181,13.5-15.9,15.715-22.478.006-.012.011-.03.016-.043a8.172,8.172,0,0,0,.5-4.272,19.793,19.793,0,0,1-.4-3.594c.006-.006.006-.006,0-.012A99.727,99.727,0,0,1,114.514,258.861Z" transform="translate(-35.83 -210.527)" fill="#ffcfb4"/>
            <path id="Trazado_141651" data-name="Trazado 141651" d="M115.574,254.644c-1.557,3.125-3.433,6.16-4.63,9.663s-2.483,4-6,6.738-6.079-1.774-6.079-1.774,4.649-4.832,3.1-7.519-7.332-9.383-6.989-13.075-3.509-11.967-3.509-11.967,8.767-5.148,7.066-11.161c-.929-3.293-5.519-6.8-9.481-9.288a26.591,26.591,0,0,1,5.138-5.735l19.636,46.591A19.268,19.268,0,0,0,115.574,254.644Z" transform="translate(-54.04 -210.527)" fill="#e2b88e" opacity="0.4"/>
            <path id="Trazado_141652" data-name="Trazado 141652" d="M71.523,304.61c.119.395,2.972,9.825.565,13.753-2.464,4.015-4.882,9.135-3.705,14.468.939,4.26-6.955,19.659-15,29.536,6.854-13.347,12.972-26.349,13.139-30.626.228-5.857,1.2-5.68,2.772-13.922s-3.917-36.642-1.839-44.288c.041-.159.089-.318.131-.489,1.533,8.663,5.1,25.919,6.084,31.467C74.914,311.576,71.655,304.889,71.523,304.61Z" transform="translate(-41.833 -231.914)" fill="#e2b88e" opacity="0.4"/>
            <path id="Trazado_141653" data-name="Trazado 141653" d="M108.44,381.514c5.833-25.122,25.473-44.388,28.132-49.966-2.218,6.582-9.876,16.3-15.715,22.478a102.59,102.59,0,0,1-2.62,10.589c-.821,2.368-2.17,6.416-3.279,10.889v.006C109.256,382.23,108.44,381.514,108.44,381.514Z" transform="translate(-60.671 -251.93)" fill="#e2b88e" opacity="0.4"/>
            <path id="Trazado_141654" data-name="Trazado 141654" d="M150.689,267.509a99.727,99.727,0,0,0-2.664,23.363c-1.032-4.474-3.022-10.155-3.351-18.07-.557-13.421,7.045-8.608,4.393-15.217s-10.209,1.864-6.485-12.134c2.72-10.218,10.459-10.122,14.435-9.326a7.287,7.287,0,0,1,.42,1.815C158.225,245.394,152.225,262.256,150.689,267.509Z" transform="translate(-72.005 -219.174)" fill="#e2b88e" opacity="0.4"/>
            <g id="Grupo_70581" data-name="Grupo 70581" transform="translate(7.635)">
              <path id="Trazado_141655" data-name="Trazado 141655" d="M47.436,348.814c6.3-11.5,12.419-23.339,16.831-36.1.529-1.836-.175-4.226.353-6.062,5.964-16.576-.8-33.833.309-50.812.932-6.691,3.071-13.431,5.21-20.173,1.007-4.88,1.385-10.338,3-15.243,1.661-3.7,3.3-8,6.822-9.893,6.71,15.378,13.4,30.824,19.636,46.591,2.817-1.629,3.27-5.276,3.749-8.32,1.51-7.32,3.045-14.036,5.813-20.2,2.818-4.955,9.987-7.067,14.389-3.016a6.859,6.859,0,0,1,2.012,4.755c-.857,8.5-3.524,17.079-6.216,25.052a66.016,66.016,0,0,0-2.593,10.389c.051,1.207.076,1.811.126,3.018-1.561,6.112-.128,11.5-.48,17.558-1.36,10.942-10.114,18.563-16.429,26.687-1.561,6.112-3.121,12.225-5.285,18.362-2.643,9.181-3.474,18.287-4.376,27.137" transform="translate(-47.436 -210.527)" fill="none" stroke="#263238" stroke-linecap="round" stroke-linejoin="round" stroke-width="1"/>
              <path id="Trazado_141656" data-name="Trazado 141656" d="M121.5,281.346a41.079,41.079,0,0,0-2.891,7.189c-.823,3.224-4.989,2.759-7.139,4.762" transform="translate(-69.343 -234.755)" fill="none" stroke="#263238" stroke-linecap="round" stroke-linejoin="round" stroke-width="1"/>
              <path id="Trazado_141657" data-name="Trazado 141657" d="M102.843,272.719s5.665,2,8.962,4.572a17.645,17.645,0,0,0,5.737,3.2" transform="translate(-66.391 -231.804)" fill="none" stroke="#263238" stroke-linecap="round" stroke-linejoin="round" stroke-width="1"/>
              <path id="Trazado_141658" data-name="Trazado 141658" d="M97.35,248.671s4.571,1.282,7.961-.33a30.408,30.408,0,0,1,.859-4.86" transform="translate(-64.512 -221.801)" fill="none" stroke="#263238" stroke-linecap="round" stroke-linejoin="round" stroke-width="1"/>
              <path id="Trazado_141659" data-name="Trazado 141659" d="M111.106,251.877s.047.637,2.378.664" transform="translate(-69.218 -224.673)" fill="none" stroke="#263238" stroke-linecap="round" stroke-linejoin="round" stroke-width="1"/>
              <path id="Trazado_141660" data-name="Trazado 141660" d="M123.576,365.72a31.161,31.161,0,0,0-7.185,11.334" transform="translate(-71.026 -263.62)" fill="none" stroke="#263238" stroke-linecap="round" stroke-linejoin="round" stroke-width="1"/>
              <path id="Trazado_141661" data-name="Trazado 141661" d="M74.352,275.924c-.2,3.939,4.423,17.945,5.828,24.9s1.929,11.882,1.929,11.882" transform="translate(-56.642 -232.9)" fill="none" stroke="#263238" stroke-linecap="round" stroke-linejoin="round" stroke-width="1"/>
            </g>
          </g>
        </g>
      </g>
    </g>
  </g>
</svg>
