<svg xmlns="http://www.w3.org/2000/svg" width="474.367" height="85" viewBox="0 0 474.367 85">
  <g id="Grupo_71128" data-name="Grupo 71128" transform="translate(-285 -6020)">
    <path id="Trazado_901037" data-name="Trazado 901037" d="M3.25,17H.984V8.547H3.25ZM.852,6.359a1.112,1.112,0,0,1,.34-.836A1.277,1.277,0,0,1,2.117,5.2a1.28,1.28,0,0,1,.922.328,1.105,1.105,0,0,1,.344.836,1.108,1.108,0,0,1-.348.844,1.283,1.283,0,0,1-.918.328A1.283,1.283,0,0,1,1.2,7.2,1.108,1.108,0,0,1,.852,6.359Zm11.438,4.813H5.3V9.328h6.984Zm0,3.383H5.3V12.711h6.984Zm6.063-2.18a11.99,11.99,0,0,1,.477-3.406,8.989,8.989,0,0,1,1.406-2.863,5.251,5.251,0,0,1,2.016-1.73l.438,1.219A5.438,5.438,0,0,0,20.906,8.2a12.082,12.082,0,0,0-.641,4.125v.242a12.313,12.313,0,0,0,.633,4.141,5.544,5.544,0,0,0,1.789,2.648l-.437,1.2a5.253,5.253,0,0,1-1.98-1.684,8.838,8.838,0,0,1-1.4-2.785,11.918,11.918,0,0,1-.516-3.3Zm10.023,1.8,2.578-8.555h2.609L29.6,17H27.156L23.211,5.625h2.6Zm13.1-1.828h-4.5V17H34.633V5.625h7.406v1.9H36.977v2.938h4.5Zm2.484,5.625h-1.68L46.469,5.625h1.68Zm9.617-3.8,2.578-8.555h2.609L54.8,17H52.359L48.414,5.625h2.6Zm12.094.477H61.563L60.781,17H58.289L62.523,5.625H64.7L68.953,17H66.461Zm-3.477-1.9h2.844L63.609,8.5Zm11.563-.2a11.377,11.377,0,0,1-.508,3.4,9.225,9.225,0,0,1-1.461,2.883,5.263,5.263,0,0,1-2.039,1.719l-.437-1.2a5.494,5.494,0,0,0,1.75-2.578,11.939,11.939,0,0,0,.664-4.008v-.414a12.209,12.209,0,0,0-.637-4.117A5.727,5.727,0,0,0,69.313,5.57l.438-1.2a5.265,5.265,0,0,1,2,1.672,9.106,9.106,0,0,1,1.461,2.82,11.3,11.3,0,0,1,.543,3.336Zm4.383-4.82L76.781,11.3h-1.8l2.336-5.68h1.641L81.3,11.3H79.508ZM82.6,12.375a11.99,11.99,0,0,1,.477-3.406,8.989,8.989,0,0,1,1.406-2.863A5.251,5.251,0,0,1,86.5,4.375l.438,1.219A5.438,5.438,0,0,0,85.156,8.2a12.082,12.082,0,0,0-.641,4.125v.242a12.313,12.313,0,0,0,.633,4.141,5.544,5.544,0,0,0,1.789,2.648l-.437,1.2a5.253,5.253,0,0,1-1.98-1.684,8.838,8.838,0,0,1-1.4-2.785,11.918,11.918,0,0,1-.516-3.3ZM93.508,17H91.25V8.3l-2.7.836V7.3l4.711-1.687h.242Zm4.5.977h-1.68l4.188-12.352h1.68Zm7.344-9.43.07.977a2.951,2.951,0,0,1,2.43-1.133,2.453,2.453,0,0,1,2,.789,3.682,3.682,0,0,1,.672,2.359V17h-2.258V11.594a1.465,1.465,0,0,0-.312-1.043,1.4,1.4,0,0,0-1.039-.324,1.553,1.553,0,0,0-1.43.813V17h-2.258V8.547Zm10.773,4.008a11.377,11.377,0,0,1-.508,3.4,9.225,9.225,0,0,1-1.461,2.883,5.263,5.263,0,0,1-2.039,1.719l-.437-1.2a5.494,5.494,0,0,0,1.75-2.578,11.939,11.939,0,0,0,.664-4.008v-.414a12.209,12.209,0,0,0-.637-4.117A5.727,5.727,0,0,0,111.68,5.57l.438-1.2a5.265,5.265,0,0,1,2,1.672,9.106,9.106,0,0,1,1.461,2.82,11.3,11.3,0,0,1,.543,3.336Zm14.149-.211h-8.091V10.5h8.091ZM141.344,17h-2.258V8.3l-2.7.836V7.3L141.1,5.609h.242Z" transform="translate(297 6038)" fill="#12263f"/>
    <g id="Rectángulo_31917" data-name="Rectángulo 31917" transform="translate(285 6022)" fill="none" stroke="#a66d58" stroke-width="1">
      <rect width="172" height="51" rx="9" stroke="none"/>
      <rect x="0.5" y="0.5" width="171" height="50" rx="8.5" fill="none"/>
    </g>
    <path id="Trazado_901038" data-name="Trazado 901038" d="M3.25,17H.984V8.547H3.25ZM.852,6.359a1.112,1.112,0,0,1,.34-.836A1.277,1.277,0,0,1,2.117,5.2a1.28,1.28,0,0,1,.922.328,1.105,1.105,0,0,1,.344.836,1.108,1.108,0,0,1-.348.844,1.283,1.283,0,0,1-.918.328A1.283,1.283,0,0,1,1.2,7.2,1.108,1.108,0,0,1,.852,6.359Zm15.422,4.813H9.289V9.328h6.984Zm0,3.383H9.289V12.711h6.984Zm6.063-2.18a11.99,11.99,0,0,1,.477-3.406,8.989,8.989,0,0,1,1.406-2.863,5.251,5.251,0,0,1,2.016-1.73l.438,1.219A5.438,5.438,0,0,0,24.891,8.2a12.082,12.082,0,0,0-.641,4.125v.242a12.313,12.313,0,0,0,.633,4.141,5.544,5.544,0,0,0,1.789,2.648l-.437,1.2a5.253,5.253,0,0,1-1.98-1.684,8.838,8.838,0,0,1-1.4-2.785,11.918,11.918,0,0,1-.516-3.3Zm10.82,1.633a1.43,1.43,0,0,0-.355-1.02,3.222,3.222,0,0,0-1.207-.7,14.24,14.24,0,0,1-1.469-.637,4.679,4.679,0,0,1-1.059-.727,2.919,2.919,0,0,1-.687-.965,3.238,3.238,0,0,1-.246-1.32,2.93,2.93,0,0,1,.844-2.164,3.56,3.56,0,0,1,2.242-.984V3.82h1.25v1.7a3.263,3.263,0,0,1,2.164,1.152,3.8,3.8,0,0,1,.781,2.48H33.156a2.156,2.156,0,0,0-.387-1.4,1.278,1.278,0,0,0-1.035-.465,1.317,1.317,0,0,0-.992.363,1.383,1.383,0,0,0-.352,1,1.321,1.321,0,0,0,.344.953,3.788,3.788,0,0,0,1.277.734,14.187,14.187,0,0,1,1.535.707,4.431,4.431,0,0,1,1.016.75,2.9,2.9,0,0,1,.633.953,3.277,3.277,0,0,1,.219,1.246,2.917,2.917,0,0,1-.828,2.156,3.632,3.632,0,0,1-2.281.977V18.68H31.063V17.133A3.758,3.758,0,0,1,28.582,16,3.664,3.664,0,0,1,27.7,13.43h2.258a2.077,2.077,0,0,0,.441,1.426,1.61,1.61,0,0,0,1.27.5,1.551,1.551,0,0,0,1.086-.363A1.261,1.261,0,0,0,33.156,14.008Zm15.18-5.359a2.646,2.646,0,0,1-.414,1.469,2.98,2.98,0,0,1-1.141,1.023,3.3,3.3,0,0,1,1.313,1.1,2.816,2.816,0,0,1,.484,1.645,2.981,2.981,0,0,1-1.031,2.395,4.183,4.183,0,0,1-2.8.879,4.2,4.2,0,0,1-2.812-.883,2.974,2.974,0,0,1-1.039-2.391,2.834,2.834,0,0,1,.484-1.648,3.239,3.239,0,0,1,1.3-1.094,2.95,2.95,0,0,1-1.137-1.023,2.664,2.664,0,0,1-.41-1.469A2.948,2.948,0,0,1,42.1,6.332a4.457,4.457,0,0,1,5.262-.008A2.937,2.937,0,0,1,48.336,8.648Zm-2.023,5.07a1.638,1.638,0,0,0-.43-1.187,1.719,1.719,0,0,0-2.3,0,1.635,1.635,0,0,0-.43,1.191,1.634,1.634,0,0,0,.422,1.172,1.762,1.762,0,0,0,2.324.016A1.631,1.631,0,0,0,46.313,13.719Zm-.234-4.961a1.563,1.563,0,0,0-.352-1.066A1.43,1.43,0,0,0,43.75,7.68,1.553,1.553,0,0,0,43.4,8.758a1.633,1.633,0,0,0,.352,1.094,1.391,1.391,0,0,0,1.98,0A1.645,1.645,0,0,0,46.078,8.758Zm10.148-3.25V7.367h-.219a3.836,3.836,0,0,0-2.465.8,3.238,3.238,0,0,0-1.121,2.148,3.075,3.075,0,0,1,2.289-.922,2.9,2.9,0,0,1,2.359,1.063,4.259,4.259,0,0,1,.875,2.8,4.19,4.19,0,0,1-.48,2.008,3.446,3.446,0,0,1-1.359,1.4,3.949,3.949,0,0,1-1.988.5,3.689,3.689,0,0,1-2.9-1.25,4.852,4.852,0,0,1-1.105-3.336v-.812a7.3,7.3,0,0,1,.7-3.27,5.127,5.127,0,0,1,2.008-2.2,5.884,5.884,0,0,1,3.035-.785Zm-2.2,5.7a1.8,1.8,0,0,0-.992.285,1.715,1.715,0,0,0-.656.753v.686A3.04,3.04,0,0,0,52.82,14.7a1.439,1.439,0,0,0,1.25.635,1.423,1.423,0,0,0,1.176-.573,2.337,2.337,0,0,0,.449-1.485,2.333,2.333,0,0,0-.453-1.5A1.477,1.477,0,0,0,54.023,11.211ZM66.7,8.648a2.646,2.646,0,0,1-.414,1.469,2.98,2.98,0,0,1-1.141,1.023,3.3,3.3,0,0,1,1.313,1.1,2.816,2.816,0,0,1,.484,1.645,2.981,2.981,0,0,1-1.031,2.395,4.918,4.918,0,0,1-5.617,0,2.974,2.974,0,0,1-1.039-2.391,2.834,2.834,0,0,1,.484-1.648,3.239,3.239,0,0,1,1.3-1.094A2.95,2.95,0,0,1,59.9,10.117a2.664,2.664,0,0,1-.41-1.469,2.948,2.948,0,0,1,.969-2.316,4.457,4.457,0,0,1,5.262-.008A2.937,2.937,0,0,1,66.7,8.648Zm-2.023,5.07a1.638,1.638,0,0,0-.43-1.187,1.719,1.719,0,0,0-2.3,0,1.635,1.635,0,0,0-.43,1.191,1.634,1.634,0,0,0,.422,1.172,1.762,1.762,0,0,0,2.324.016A1.631,1.631,0,0,0,64.672,13.719Zm-.234-4.961a1.563,1.563,0,0,0-.352-1.066,1.43,1.43,0,0,0-1.977-.012,1.553,1.553,0,0,0-.352,1.078,1.633,1.633,0,0,0,.352,1.094,1.391,1.391,0,0,0,1.98,0A1.645,1.645,0,0,0,64.438,8.758Zm4.234,7.133a1.137,1.137,0,0,1,.363-.875,1.412,1.412,0,0,1,1.828,0,1.137,1.137,0,0,1,.363.875,1.121,1.121,0,0,1-.359.863,1.435,1.435,0,0,1-1.836,0A1.121,1.121,0,0,1,68.672,15.891ZM80.906,17h-7.8V15.453l3.68-3.922a9.078,9.078,0,0,0,1.121-1.445,2.322,2.322,0,0,0,.363-1.172,1.738,1.738,0,0,0-.383-1.191A1.382,1.382,0,0,0,76.8,7.289a1.49,1.49,0,0,0-1.207.527A2.089,2.089,0,0,0,75.148,9.2H72.883a3.729,3.729,0,0,1,.5-1.9,3.5,3.5,0,0,1,1.4-1.348,4.262,4.262,0,0,1,2.055-.488,4.036,4.036,0,0,1,2.73.844A2.985,2.985,0,0,1,80.539,8.7a3.825,3.825,0,0,1-.437,1.719,9.551,9.551,0,0,1-1.5,2.039L76.016,15.18h4.891Zm6.867,0H85.516V8.3l-2.7.836V7.3l4.711-1.687h.242Zm8.977-4.547a2.851,2.851,0,0,1-2.062.867,3.049,3.049,0,0,1-2.414-1.035,4.091,4.091,0,0,1-.906-2.793,4.357,4.357,0,0,1,.488-2.051,3.582,3.582,0,0,1,1.363-1.453,3.782,3.782,0,0,1,1.969-.52,3.617,3.617,0,0,1,2,.563,3.7,3.7,0,0,1,1.359,1.617,5.806,5.806,0,0,1,.492,2.414V10.9a6.579,6.579,0,0,1-1.414,4.469A5.346,5.346,0,0,1,93.617,17.1l-.555.008V15.227l.5-.008Q96.508,15.086,96.75,12.453Zm-1.508-.859a1.579,1.579,0,0,0,.941-.281,1.879,1.879,0,0,0,.6-.68V9.7a3.1,3.1,0,0,0-.437-1.781,1.358,1.358,0,0,0-1.172-.633,1.318,1.318,0,0,0-1.117.621,2.641,2.641,0,0,0-.437,1.559A2.57,2.57,0,0,0,94.043,11,1.387,1.387,0,0,0,95.242,11.594Zm10.2,6.383h-1.68l4.188-12.352h1.68Zm14.555-3.969a1.43,1.43,0,0,0-.355-1.02,3.222,3.222,0,0,0-1.207-.7,14.24,14.24,0,0,1-1.469-.637,4.679,4.679,0,0,1-1.059-.727,2.919,2.919,0,0,1-.687-.965,3.238,3.238,0,0,1-.246-1.32,2.93,2.93,0,0,1,.844-2.164,3.56,3.56,0,0,1,2.242-.984V3.82h1.25v1.7a3.263,3.263,0,0,1,2.164,1.152,3.8,3.8,0,0,1,.781,2.48h-2.258a2.156,2.156,0,0,0-.387-1.4,1.278,1.278,0,0,0-1.035-.465,1.317,1.317,0,0,0-.992.363,1.383,1.383,0,0,0-.352,1,1.321,1.321,0,0,0,.344.953,3.788,3.788,0,0,0,1.277.734,14.186,14.186,0,0,1,1.535.707,4.431,4.431,0,0,1,1.016.75,2.9,2.9,0,0,1,.633.953,3.277,3.277,0,0,1,.219,1.246,2.917,2.917,0,0,1-.828,2.156,3.632,3.632,0,0,1-2.281.977V18.68H117.9V17.133A3.758,3.758,0,0,1,115.418,16a3.664,3.664,0,0,1-.879-2.566H116.8a2.077,2.077,0,0,0,.441,1.426,1.61,1.61,0,0,0,1.27.5,1.551,1.551,0,0,0,1.086-.363A1.261,1.261,0,0,0,119.992,14.008Zm15.5-7.123L131.094,17h-2.383l4.406-9.555h-5.656V5.625h8.031Zm1.781,4.521.656-5.781H144.3V7.508h-4.523L139.5,9.953a3.58,3.58,0,0,1,1.711-.43,3.279,3.279,0,0,1,2.547,1.008,4.026,4.026,0,0,1,.922,2.82,4.124,4.124,0,0,1-.465,1.973,3.281,3.281,0,0,1-1.332,1.352,4.158,4.158,0,0,1-2.047.48,4.416,4.416,0,0,1-1.914-.418,3.4,3.4,0,0,1-1.395-1.176,3.2,3.2,0,0,1-.543-1.727h2.234a1.669,1.669,0,0,0,.5,1.105,1.573,1.573,0,0,0,1.113.395,1.388,1.388,0,0,0,1.18-.551,2.551,2.551,0,0,0,.414-1.559,2.11,2.11,0,0,0-.477-1.484,1.749,1.749,0,0,0-1.352-.516,1.954,1.954,0,0,0-1.3.422l-.219.2Zm16.5.891a5.762,5.762,0,0,1-.977,3.609,3.9,3.9,0,0,1-5.7.023,5.594,5.594,0,0,1-1.008-3.516V10.32a5.687,5.687,0,0,1,.988-3.617,3.91,3.91,0,0,1,5.691-.012,5.576,5.576,0,0,1,1.008,3.512Zm-2.258-2.3a4.165,4.165,0,0,0-.387-2.061,1.307,1.307,0,0,0-1.207-.645,1.284,1.284,0,0,0-1.176.614,3.9,3.9,0,0,0-.4,1.92v2.768a4.372,4.372,0,0,0,.379,2.068,1.29,1.29,0,0,0,1.215.676,1.268,1.268,0,0,0,1.2-.649,4.268,4.268,0,0,0,.383-1.986Zm3.992,5.9a1.137,1.137,0,0,1,.363-.875,1.412,1.412,0,0,1,1.828,0,1.137,1.137,0,0,1,.363.875,1.121,1.121,0,0,1-.359.863,1.435,1.435,0,0,1-1.836,0A1.121,1.121,0,0,1,155.508,15.891ZM167.6,12.3a5.762,5.762,0,0,1-.977,3.609,3.9,3.9,0,0,1-5.7.023,5.594,5.594,0,0,1-1.008-3.516V10.32A5.687,5.687,0,0,1,160.9,6.7a3.91,3.91,0,0,1,5.691-.012A5.576,5.576,0,0,1,167.6,10.2Zm-2.258-2.3a4.165,4.165,0,0,0-.387-2.061,1.307,1.307,0,0,0-1.207-.645,1.284,1.284,0,0,0-1.176.614,3.9,3.9,0,0,0-.4,1.92v2.768a4.372,4.372,0,0,0,.379,2.068,1.29,1.29,0,0,0,1.215.676,1.268,1.268,0,0,0,1.2-.649,4.268,4.268,0,0,0,.383-1.986Zm11.438,2.3a5.762,5.762,0,0,1-.977,3.609,3.9,3.9,0,0,1-5.7.023,5.594,5.594,0,0,1-1.008-3.516V10.32a5.687,5.687,0,0,1,.988-3.617,3.91,3.91,0,0,1,5.691-.012,5.576,5.576,0,0,1,1.008,3.512Zm-2.258-2.3a4.165,4.165,0,0,0-.387-2.061,1.307,1.307,0,0,0-1.207-.645,1.284,1.284,0,0,0-1.176.614,3.9,3.9,0,0,0-.4,1.92v2.768a4.372,4.372,0,0,0,.379,2.068,1.29,1.29,0,0,0,1.215.676,1.268,1.268,0,0,0,1.2-.649,4.268,4.268,0,0,0,.383-1.986Zm11.438,2.3a5.762,5.762,0,0,1-.977,3.609,3.9,3.9,0,0,1-5.7.023,5.594,5.594,0,0,1-1.008-3.516V10.32a5.687,5.687,0,0,1,.988-3.617,3.91,3.91,0,0,1,5.691-.012,5.576,5.576,0,0,1,1.008,3.512Zm-2.258-2.3a4.165,4.165,0,0,0-.387-2.061,1.307,1.307,0,0,0-1.207-.645,1.284,1.284,0,0,0-1.176.614,3.9,3.9,0,0,0-.4,1.92v2.768a4.372,4.372,0,0,0,.379,2.068,1.29,1.29,0,0,0,1.215.676,1.268,1.268,0,0,0,1.2-.649A4.268,4.268,0,0,0,183.7,12.7Zm7.766,2.56a11.377,11.377,0,0,1-.508,3.4,9.225,9.225,0,0,1-1.461,2.883,5.264,5.264,0,0,1-2.039,1.719l-.437-1.2a5.494,5.494,0,0,0,1.75-2.578,11.939,11.939,0,0,0,.664-4.008v-.414a12.208,12.208,0,0,0-.637-4.117,5.727,5.727,0,0,0-1.777-2.672l.438-1.2a5.265,5.265,0,0,1,2,1.672,9.106,9.106,0,0,1,1.461,2.82,11.3,11.3,0,0,1,.543,3.336Zm8.367-4.82-1.359,3.57h-1.8l2.336-5.68h1.641l2.336,5.68H201.2Zm4.461,4.641a11.99,11.99,0,0,1,.477-3.406,8.989,8.989,0,0,1,1.406-2.863,5.251,5.251,0,0,1,2.016-1.73l.438,1.219A5.438,5.438,0,0,0,206.852,8.2a12.082,12.082,0,0,0-.641,4.125v.242a12.313,12.313,0,0,0,.633,4.141,5.544,5.544,0,0,0,1.789,2.648l-.437,1.2a5.253,5.253,0,0,1-1.98-1.684,8.838,8.838,0,0,1-1.4-2.785,11.918,11.918,0,0,1-.516-3.3ZM215.2,17h-2.258V8.3l-2.7.836V7.3l4.711-1.687h.242Zm4.5.977h-1.68l4.188-12.352h1.68Zm7.469-7.664h1.2a1.7,1.7,0,0,0,1.273-.43,1.574,1.574,0,0,0,.414-1.141,1.392,1.392,0,0,0-.41-1.07,1.59,1.59,0,0,0-1.129-.383,1.666,1.666,0,0,0-1.086.355A1.137,1.137,0,0,0,227,8.57h-2.258a2.777,2.777,0,0,1,.48-1.6,3.2,3.2,0,0,1,1.344-1.105,4.485,4.485,0,0,1,1.9-.4,4.253,4.253,0,0,1,2.828.863,2.945,2.945,0,0,1,1.023,2.379,2.394,2.394,0,0,1-.477,1.438,3.1,3.1,0,0,1-1.25,1.008,2.826,2.826,0,0,1,1.434,1.031,2.8,2.8,0,0,1,.473,1.625,2.994,2.994,0,0,1-1.105,2.43,4.445,4.445,0,0,1-2.926.914,4.214,4.214,0,0,1-2.785-.9,2.934,2.934,0,0,1-1.082-2.375h2.258a1.308,1.308,0,0,0,.48,1.047,2,2,0,0,0,2.445-.02,1.47,1.47,0,0,0,.457-1.129q0-1.7-1.875-1.7h-1.2Zm10.867,2.242a11.377,11.377,0,0,1-.508,3.4,9.225,9.225,0,0,1-1.461,2.883,5.264,5.264,0,0,1-2.039,1.719l-.437-1.2a5.494,5.494,0,0,0,1.75-2.578,11.939,11.939,0,0,0,.664-4.008v-.414a12.208,12.208,0,0,0-.637-4.117,5.727,5.727,0,0,0-1.777-2.672l.438-1.2a5.265,5.265,0,0,1,2,1.672,9.106,9.106,0,0,1,1.461,2.82,11.3,11.3,0,0,1,.543,3.336Zm10.125.484h-4.4v-1.82h4.4Zm7.2,3.961h-2.258V8.3l-2.7.836V7.3l4.711-1.687h.242ZM3.25,41H.984V32.547H3.25ZM.852,30.359a1.112,1.112,0,0,1,.34-.836,1.277,1.277,0,0,1,.926-.328,1.28,1.28,0,0,1,.922.328,1.193,1.193,0,0,1,0,1.68,1.283,1.283,0,0,1-.918.328A1.283,1.283,0,0,1,1.2,31.2,1.108,1.108,0,0,1,.852,30.359Zm19.406,4.813H13.273V33.328h6.984Zm0,3.383H13.273V36.711h6.984Zm10.188-3.148.656-5.781h6.375v1.883H32.953l-.281,2.445a3.58,3.58,0,0,1,1.711-.43,3.279,3.279,0,0,1,2.547,1.008,4.026,4.026,0,0,1,.922,2.82,4.124,4.124,0,0,1-.465,1.973,3.281,3.281,0,0,1-1.332,1.352,4.158,4.158,0,0,1-2.047.48,4.416,4.416,0,0,1-1.914-.418A3.4,3.4,0,0,1,30.7,39.563a3.2,3.2,0,0,1-.543-1.727h2.234a1.669,1.669,0,0,0,.5,1.105A1.573,1.573,0,0,0,34,39.336a1.388,1.388,0,0,0,1.18-.551,2.551,2.551,0,0,0,.414-1.559,2.11,2.11,0,0,0-.477-1.484,1.749,1.749,0,0,0-1.352-.516,1.954,1.954,0,0,0-1.3.422l-.219.2Zm8.813-3.594a2.249,2.249,0,0,1,.68-1.7,2.465,2.465,0,0,1,1.781-.652,2.5,2.5,0,0,1,1.8.645,2.292,2.292,0,0,1,.68,1.746v.563a2.221,2.221,0,0,1-.68,1.7,2.806,2.806,0,0,1-3.574,0,2.275,2.275,0,0,1-.684-1.738Zm1.5.6a1.053,1.053,0,0,0,.27.754.928.928,0,0,0,.707.285.885.885,0,0,0,.7-.289,1.119,1.119,0,0,0,.258-.773v-.578a1.1,1.1,0,0,0-.258-.758,1,1,0,0,0-1.406,0,1.119,1.119,0,0,0-.266.793Zm3.938,5.8a2.22,2.22,0,0,1,.688-1.7,2.5,2.5,0,0,1,1.781-.645,2.525,2.525,0,0,1,1.793.637,2.279,2.279,0,0,1,.684,1.754v.563a2.237,2.237,0,0,1-.672,1.691,2.476,2.476,0,0,1-1.789.645,2.506,2.506,0,0,1-1.8-.648,2.265,2.265,0,0,1-.68-1.719Zm1.5.609a1.044,1.044,0,0,0,.281.734.917.917,0,0,0,.7.3q.953,0,.953-1.055v-.594a1.062,1.062,0,0,0-.266-.754,1.009,1.009,0,0,0-1.406,0,1.1,1.1,0,0,0-.266.777ZM42.18,40.148l-1.1-.594,5.555-8.891,1.1.594Z" transform="translate(504 6026.5)" fill="#12263f"/>
    <line id="Línea_401" data-name="Línea 401" y2="53" transform="translate(473 6020)" fill="none" stroke="#a66d58" stroke-width="2" stroke-dasharray="2"/>
    <g id="Grupo_1111408" data-name="Grupo 1111408" transform="translate(-547 3600)">
      <path id="Trazado_900407" data-name="Trazado 900407" d="M0,0H174V22H0Z" transform="translate(832 2483)" fill="#dee4f0"/>
      <path id="Trazado_901039" data-name="Trazado 901039" d="M6.17,9.918H2.292V14H1.073V4.758H6.8v1H2.292V8.922H6.17Zm6,3.4a2.494,2.494,0,0,1-2.012.806,2.135,2.135,0,0,1-1.673-.638A2.761,2.761,0,0,1,7.909,11.6V7.132H9.083v4.437q0,1.562,1.27,1.562a1.758,1.758,0,0,0,1.79-1v-5h1.174V14H12.2Zm5.776.806a3,3,0,0,1-2.272-.917,3.4,3.4,0,0,1-.876-2.453v-.216a4.121,4.121,0,0,1,.39-1.825,3.045,3.045,0,0,1,1.092-1.257A2.745,2.745,0,0,1,17.805,7a2.572,2.572,0,0,1,2.082.882,3.82,3.82,0,0,1,.743,2.526V10.9H15.977a2.441,2.441,0,0,0,.594,1.641,1.866,1.866,0,0,0,1.444.625,2.045,2.045,0,0,0,1.054-.254,2.648,2.648,0,0,0,.755-.673l.717.559A2.884,2.884,0,0,1,17.951,14.127ZM17.805,7.97a1.566,1.566,0,0,0-1.193.517,2.515,2.515,0,0,0-.6,1.45h3.44V9.849a2.237,2.237,0,0,0-.482-1.387A1.475,1.475,0,0,0,17.805,7.97ZM23.1,7.132,23.137,8A2.5,2.5,0,0,1,25.194,7q2.177,0,2.2,2.457V14H26.216V9.455a1.581,1.581,0,0,0-.34-1.1A1.361,1.361,0,0,0,24.838,8a1.7,1.7,0,0,0-1,.3,2.069,2.069,0,0,0-.673.8V14H21.988V7.132Zm7.655-1.663V7.132h1.282V8.04H30.754V12.3a.953.953,0,0,0,.171.62.721.721,0,0,0,.584.207,2.843,2.843,0,0,0,.559-.076V14a3.424,3.424,0,0,1-.9.126,1.462,1.462,0,0,1-1.187-.476,2.045,2.045,0,0,1-.4-1.352V8.04H28.33V7.132h1.25V5.469Zm5.5,8.658a3,3,0,0,1-2.272-.917,3.4,3.4,0,0,1-.876-2.453v-.216a4.121,4.121,0,0,1,.39-1.825,3.045,3.045,0,0,1,1.092-1.257A2.745,2.745,0,0,1,36.112,7a2.572,2.572,0,0,1,2.082.882,3.82,3.82,0,0,1,.743,2.526V10.9H34.284a2.441,2.441,0,0,0,.594,1.641,1.866,1.866,0,0,0,1.444.625,2.045,2.045,0,0,0,1.054-.254,2.648,2.648,0,0,0,.755-.673l.717.559A2.884,2.884,0,0,1,36.258,14.127ZM36.112,7.97a1.566,1.566,0,0,0-1.193.517,2.515,2.515,0,0,0-.6,1.45h3.44V9.849a2.237,2.237,0,0,0-.482-1.387A1.475,1.475,0,0,0,36.112,7.97Zm4.145,5.415a.735.735,0,0,1,.181-.508.689.689,0,0,1,.543-.2.71.71,0,0,1,.549.2.721.721,0,0,1,.187.508.681.681,0,0,1-.187.489.723.723,0,0,1-.549.2.653.653,0,0,1-.724-.686Zm.006-5.6a.735.735,0,0,1,.181-.508.689.689,0,0,1,.543-.2.71.71,0,0,1,.549.2.721.721,0,0,1,.187.508.681.681,0,0,1-.187.489.723.723,0,0,1-.549.2.653.653,0,0,1-.724-.686ZM52.978,5.754H50.007V14H48.794V5.754H45.83v-1h7.147Zm4.037,8.373a3,3,0,0,1-2.272-.917,3.4,3.4,0,0,1-.876-2.453v-.216a4.121,4.121,0,0,1,.39-1.825,3.045,3.045,0,0,1,1.092-1.257A2.745,2.745,0,0,1,56.869,7a2.572,2.572,0,0,1,2.082.882,3.82,3.82,0,0,1,.743,2.526V10.9H55.041a2.441,2.441,0,0,0,.594,1.641,1.866,1.866,0,0,0,1.444.625,2.045,2.045,0,0,0,1.054-.254,2.648,2.648,0,0,0,.755-.673l.717.559A2.884,2.884,0,0,1,57.015,14.127ZM56.869,7.97a1.566,1.566,0,0,0-1.193.517,2.515,2.515,0,0,0-.6,1.45h3.44V9.849a2.237,2.237,0,0,0-.482-1.387A1.475,1.475,0,0,0,56.869,7.97ZM62.328,14H61.153V4.25h1.174Zm3.155,0H64.308V4.25h1.174Zm1.568-3.5a4.057,4.057,0,0,1,.4-1.815,2.96,2.96,0,0,1,1.1-1.244A3.007,3.007,0,0,1,70.167,7a2.9,2.9,0,0,1,2.269.971A3.736,3.736,0,0,1,73.3,10.56v.083a4.092,4.092,0,0,1-.384,1.8,2.916,2.916,0,0,1-1.1,1.241,3.041,3.041,0,0,1-1.641.444,2.889,2.889,0,0,1-2.263-.971,3.718,3.718,0,0,1-.866-2.571Zm1.181.14a2.938,2.938,0,0,0,.53,1.834,1.8,1.8,0,0,0,2.841-.01,3.213,3.213,0,0,0,.527-1.965,2.933,2.933,0,0,0-.536-1.831,1.705,1.705,0,0,0-1.425-.7,1.686,1.686,0,0,0-1.4.692A3.189,3.189,0,0,0,68.231,10.642Zm6.506,5.2-.667-.457a3.063,3.063,0,0,0,.622-1.714V12.61h1.149v.92a2.891,2.891,0,0,1-.314,1.282A3,3,0,0,1,74.737,15.841ZM81.955,13h4.38v1h-5.6V4.758h1.225Zm5.611.381a.735.735,0,0,1,.181-.508.689.689,0,0,1,.543-.2.71.71,0,0,1,.549.2.721.721,0,0,1,.187.508.681.681,0,0,1-.187.489.723.723,0,0,1-.549.2.653.653,0,0,1-.724-.686Zm6.8.616V4.758h3.021a3.507,3.507,0,0,1,2.263.622,2.242,2.242,0,0,1,.759,1.841,1.877,1.877,0,0,1-.368,1.146,2.387,2.387,0,0,1-1,.771,2.143,2.143,0,0,1,1.184.8,2.286,2.286,0,0,1,.435,1.4,2.472,2.472,0,0,1-.806,1.955A3.334,3.334,0,0,1,97.57,14Zm1.219-4.323V13H97.6a1.938,1.938,0,0,0,1.343-.441,1.549,1.549,0,0,0,.492-1.216q0-1.669-1.815-1.669Zm0-.978h1.841A1.93,1.93,0,0,0,98.7,8.3a1.344,1.344,0,0,0,.479-1.088,1.321,1.321,0,0,0-.444-1.11,2.182,2.182,0,0,0-1.352-.347h-1.8Zm6.716,4.685a.735.735,0,0,1,.181-.508.689.689,0,0,1,.543-.2.71.71,0,0,1,.549.2.721.721,0,0,1,.187.508.681.681,0,0,1-.187.489.723.723,0,0,1-.549.2.653.653,0,0,1-.724-.686Zm6.57-3.136a9.814,9.814,0,0,1,.384-2.755,8,8,0,0,1,1.146-2.4,4.874,4.874,0,0,1,1.581-1.523l.241.774a5.056,5.056,0,0,0-1.52,2.171,9.411,9.411,0,0,0-.651,3.269l-.006.54a9.46,9.46,0,0,0,.9,4.253,5.079,5.079,0,0,0,1.282,1.688l-.241.717a5.031,5.031,0,0,1-1.612-1.574A8.823,8.823,0,0,1,108.869,10.249ZM119.292,14h-6.056v-.844l3.2-3.555a7.6,7.6,0,0,0,.981-1.311,2.188,2.188,0,0,0,.27-1.044,1.658,1.658,0,0,0-.438-1.187A1.531,1.531,0,0,0,116.08,5.6a1.814,1.814,0,0,0-1.362.5,1.9,1.9,0,0,0-.486,1.387h-1.174a2.726,2.726,0,0,1,.822-2.063,3.047,3.047,0,0,1,2.2-.787,2.928,2.928,0,0,1,2.038.676,2.306,2.306,0,0,1,.749,1.8,5.287,5.287,0,0,1-1.739,3.25l-2.476,2.685h4.64Zm7.04-3.942a5.371,5.371,0,0,1-.7,3.066,2.928,2.928,0,0,1-4.393.022,5.1,5.1,0,0,1-.736-2.929V8.649a5.251,5.251,0,0,1,.7-3.028,2.98,2.98,0,0,1,4.405-.035,5.068,5.068,0,0,1,.724,2.948Zm-1.174-1.606a4.3,4.3,0,0,0-.419-2.174,1.442,1.442,0,0,0-1.327-.682,1.423,1.423,0,0,0-1.314.679,4.2,4.2,0,0,0-.425,2.088v1.879a4.372,4.372,0,0,0,.435,2.212,1.439,1.439,0,0,0,1.317.714,1.42,1.42,0,0,0,1.292-.673,4.214,4.214,0,0,0,.441-2.12ZM131.695,14h-1.181V6.173l-2.368.87V5.977l3.364-1.263h.184Zm7.941-4.062a2.873,2.873,0,0,1-.879.7,2.385,2.385,0,0,1-1.12.267,2.463,2.463,0,0,1-1.393-.394,2.558,2.558,0,0,1-.917-1.108A3.776,3.776,0,0,1,135,7.83a3.847,3.847,0,0,1,.352-1.669,2.588,2.588,0,0,1,1-1.136,2.851,2.851,0,0,1,1.511-.394,2.581,2.581,0,0,1,2.161,1.025,4.471,4.471,0,0,1,.79,2.8v.343a5.974,5.974,0,0,1-1.066,3.939,4.1,4.1,0,0,1-3.218,1.273H136.3v-1h.248a3.233,3.233,0,0,0,2.234-.757A3.248,3.248,0,0,0,139.636,9.938Zm-1.809,0a1.813,1.813,0,0,0,1.089-.362,2.133,2.133,0,0,0,.727-.9v-.47a3.232,3.232,0,0,0-.5-1.879,1.533,1.533,0,0,0-2.514-.13,2.448,2.448,0,0,0-.47,1.565,2.548,2.548,0,0,0,.454,1.558A1.437,1.437,0,0,0,137.827,9.938Zm7.439.375a9.819,9.819,0,0,1-.371,2.714,8.024,8.024,0,0,1-1.136,2.4,4.978,4.978,0,0,1-1.6,1.562l-.248-.717a5.1,5.1,0,0,0,1.571-2.326,10.065,10.065,0,0,0,.606-3.5v-.2a10.449,10.449,0,0,0-.279-2.479,8.366,8.366,0,0,0-.778-2.053,4.743,4.743,0,0,0-1.12-1.416l.248-.717a4.959,4.959,0,0,1,1.6,1.549,8.041,8.041,0,0,1,1.136,2.393A10.045,10.045,0,0,1,145.266,10.312Zm1.834,3.072a.735.735,0,0,1,.181-.508.689.689,0,0,1,.543-.2.71.71,0,0,1,.549.2.721.721,0,0,1,.187.508.682.682,0,0,1-.187.489.723.723,0,0,1-.549.2.653.653,0,0,1-.724-.686Z" transform="translate(842 2487)" fill="#12263f"/>
    </g>
  </g>
</svg>
