<svg xmlns="http://www.w3.org/2000/svg" width="400" height="95.244" viewBox="0 0 400 95.244">
  <g id="Grupo_1111884" data-name="Grupo 1111884" transform="translate(-1020 -10435)">
    <rect id="Rectángulo_404538" data-name="Rectángulo 404538" width="400" height="61" rx="30.5" transform="translate(1020 10454)" fill="#fed5a7"/>
    <g id="Fill_Outline" data-name="Fill Outline" transform="translate(1094.579 10433)">
      <g id="Color" transform="translate(2.575 3.587)">
        <path id="Trazado_900428" data-name="Trazado 900428" d="M9,19h9.524V41.223H9Z" transform="translate(2.124 6.397)" fill="#48cae4"/>
        <path id="Trazado_900429" data-name="Trazado 900429" d="M9,19h9.524v7.937H9Z" transform="translate(2.124 6.397)" fill="#ffea00"/>
        <path id="Trazado_900430" data-name="Trazado 900430" d="M18.524,31.7v9.524H9V19h4.762v7.937A4.762,4.762,0,0,0,18.524,31.7Z" transform="translate(2.124 6.397)" fill="#00b4d8"/>
        <path id="Trazado_900431" data-name="Trazado 900431" d="M19,10h9.524V35.4H19Z" transform="translate(7.998 1.111)" fill="#48cae4"/>
        <path id="Trazado_900432" data-name="Trazado 900432" d="M19,10h9.524v6.349H19Z" transform="translate(7.998 1.111)" fill="#ffea00"/>
        <path id="Trazado_900433" data-name="Trazado 900433" d="M28.524,24.286V35.4H19V10h4.762v9.524a4.762,4.762,0,0,0,4.762,4.762Z" transform="translate(7.998 1.111)" fill="#00b4d8"/>
        <path id="Trazado_900434" data-name="Trazado 900434" d="M19,10h4.762v6.349H19Z" transform="translate(7.998 1.111)" fill="#ffd000"/>
        <path id="Trazado_900435" data-name="Trazado 900435" d="M29,13h9.524V35.223H29Z" transform="translate(13.871 2.873)" fill="#48cae4"/>
        <path id="Trazado_900436" data-name="Trazado 900436" d="M29,13h9.524v7.937H29Z" transform="translate(13.871 2.873)" fill="#ffea00"/>
        <path id="Trazado_900437" data-name="Trazado 900437" d="M38.524,28.873v6.349H29V13h4.762V24.111A4.762,4.762,0,0,0,38.524,28.873Z" transform="translate(13.871 2.873)" fill="#00b4d8"/>
        <path id="Trazado_900438" data-name="Trazado 900438" d="M48.524,3H39V34.746l9.524-4.762Z" transform="translate(19.744 -3)" fill="#48cae4"/>
        <path id="Trazado_900439" data-name="Trazado 900439" d="M39,3h9.524V9.349H39Z" transform="translate(19.744 -3)" fill="#ffea00"/>
        <path id="Trazado_900440" data-name="Trazado 900440" d="M48.524,20.461v9.524L39,34.746V3h4.762V15.7A4.762,4.762,0,0,0,48.524,20.461Z" transform="translate(19.744 -3)" fill="#00b4d8"/>
        <path id="Trazado_900441" data-name="Trazado 900441" d="M89.641,5h-12.7l4.1,4.1L49.165,40.986,37.593,29.415,6.829,51.632l3.718,5.149,26.38-19.053L49.165,49.967,85.536,13.594l4.1,4.1Z" transform="translate(0.849 -1.825)" fill="#ef5350"/>
        <path id="Trazado_900442" data-name="Trazado 900442" d="M89.641,5V17.7L85.53,13.587,49.164,49.969,36.926,37.731,10.544,56.779,6.83,51.636,9.084,50l.317.429a1.957,1.957,0,0,0,2.73.444L33.64,35.334a4.762,4.762,0,0,1,6.159.508l6.016,6a4.743,4.743,0,0,0,6.714.016L89.593,5Z" transform="translate(0.85 -1.825)" fill="#e53935"/>
        <circle id="Elipse_12756" data-name="Elipse 12756" cx="7.937" cy="7.937" r="7.937" transform="translate(1.6)" fill="#48cae4"/>
        <path id="Trazado_900443" data-name="Trazado 900443" d="M49,57h6.349v6.349H49Z" transform="translate(25.617 28.715)" fill="#ade8f4"/>
        <path id="Trazado_900444" data-name="Trazado 900444" d="M53,57h6.349v6.349H53Z" transform="translate(27.967 28.715)" fill="#48cae4"/>
        <path id="Trazado_900445" data-name="Trazado 900445" d="M57,57h6.349v6.349H57Z" transform="translate(30.316 28.715)" fill="#00b4d8"/>
        <path id="Trazado_900446" data-name="Trazado 900446" d="M55.4,40.071,40,59.676,25.716,53.327,49.191,33.989a4.337,4.337,0,0,1,6.225.746l.043.057a4.335,4.335,0,0,1-.06,5.279Z" transform="translate(11.942 14.62)" fill="#ffa200"/>
        <path id="Trazado_900447" data-name="Trazado 900447" d="M64.163,39.244,48.76,58.849,29.712,57.262l28.235-24a4.335,4.335,0,0,1,6.216,5.983Z" transform="translate(14.289 14.167)" fill="#ffd000"/>
        <path id="Trazado_900448" data-name="Trazado 900448" d="M65.091,36.205a4.3,4.3,0,0,1-.921,2.683l-15.413,19.6L29.71,56.9,44.837,44.047l.7.27a6.325,6.325,0,0,0,6.619-1.19L63.472,32.84a3.783,3.783,0,0,1,.746.762,4.319,4.319,0,0,1,.873,2.6Z" transform="translate(14.288 14.526)" fill="#ffa200"/>
        <path id="Trazado_900449" data-name="Trazado 900449" d="M73.163,37.244,57.76,56.849,38.712,55.262l28.235-24a4.335,4.335,0,0,1,6.216,5.983Z" transform="translate(19.575 12.993)" fill="#ffea00"/>
        <path id="Trazado_900450" data-name="Trazado 900450" d="M74.091,34.193a4.3,4.3,0,0,1-.921,2.683l-15.413,19.6L38.71,54.892l6.254-5.318h.016a15.888,15.888,0,0,0,10.572-3.921L72.52,30.86a3.826,3.826,0,0,1,.7.73A4.319,4.319,0,0,1,74.091,34.193Z" transform="translate(19.574 13.363)" fill="#ffd000"/>
        <path id="Trazado_900451" data-name="Trazado 900451" d="M93.512,37.2a4.267,4.267,0,0,0-5.573.016L72.385,50.182H55.718A3.968,3.968,0,0,0,59.667,45.8a4.127,4.127,0,0,0-4.176-3.559H44.823A26.62,26.62,0,0,0,31.889,45.2l-3.325,1.76A55.223,55.223,0,0,0,3,75.579H34.289l.754-1.887A11.111,11.111,0,0,1,43.924,66.8l23.088-3.016a20.635,20.635,0,0,0,11.922-5.873L93.66,43.2a4.138,4.138,0,0,0-.148-5.994Z" transform="translate(-1.4 16.485)" fill="#ffea00"/>
        <path id="Trazado_900452" data-name="Trazado 900452" d="M93.652,42.949,78.938,57.664a20.635,20.635,0,0,1-11.921,5.873l-23.1,3.016a11.119,11.119,0,0,0-8.873,6.889l-.762,1.889H3A54.9,54.9,0,0,1,17.778,54.2,22.173,22.173,0,0,0,36.334,64.219h.413a11.06,11.06,0,0,1,5.587-2.429l23.1-3.016A20.635,20.635,0,0,0,77.35,52.9L92.065,38.187a4.2,4.2,0,0,0,1-1.587,4.784,4.784,0,0,1,.444.349,4.127,4.127,0,0,1,.143,6Z" transform="translate(-1.4 16.734)" fill="#ffd000"/>
        <path id="Trazado_900453" data-name="Trazado 900453" d="M42.238,40.12a3.713,3.713,0,0,1,.048.6,3.956,3.956,0,0,1-3.968,3.968h-7.6v.046A3.175,3.175,0,0,0,28,47.866H41.032a3.968,3.968,0,0,0,1.206-7.746Z" transform="translate(13.283 18.801)" fill="#ffd000"/>
        <circle id="Elipse_12757" data-name="Elipse 12757" cx="14.286" cy="14.286" r="14.286" transform="translate(0.013 41.27)" fill="#ffea00"/>
        <path id="Trazado_900454" data-name="Trazado 900454" d="M29.307,48.689A14.286,14.286,0,1,1,10.418,29.8,14.273,14.273,0,0,0,29.307,48.689Z" transform="translate(-1.992 12.74)" fill="#ffd000"/>
        <circle id="Elipse_12758" data-name="Elipse 12758" cx="11.111" cy="11.111" r="11.111" transform="translate(3.188 44.445)" fill="#ffd000"/>
        <path id="Trazado_900455" data-name="Trazado 900455" d="M15.111,31a11.1,11.1,0,1,0,7.859,3.252A11.111,11.111,0,0,0,15.111,31ZM22.3,49.254h-.048A14.286,14.286,0,0,1,7.968,34.968v-.048A11.083,11.083,0,0,1,22.3,49.254Z" transform="translate(-0.812 13.445)" fill="#ffb700"/>
        <path id="Trazado_900456" data-name="Trazado 900456" d="M18.682,12.132A7.937,7.937,0,1,1,6.365,3.91a7.811,7.811,0,0,0-.19,1.73,7.937,7.937,0,0,0,12.508,6.492Z" transform="translate(-1.399 -2.466)" fill="#00b4d8"/>
        <path id="Trazado_900457" data-name="Trazado 900457" d="M15.937,8.711a7.962,7.962,0,0,1-4.81,7.3L8,8.711,15.7,6.79A7.672,7.672,0,0,1,15.937,8.711Z" transform="translate(1.537 -0.774)" fill="#ffea00"/>
        <g id="Grupo_1111867" data-name="Grupo 1111867" transform="translate(10.791)">
          <path id="Trazado_900458" data-name="Trazado 900458" d="M15.282,9.09a7.964,7.964,0,0,1-4.619,5.572L8.79,10.3a7.671,7.671,0,0,0,1.921.238A7.983,7.983,0,0,0,15.282,9.09Z" transform="translate(-8.79 0.577)" fill="#ffd000"/>
          <path id="Trazado_900459" data-name="Trazado 900459" d="M39,3h4.762V9.349H39Z" transform="translate(8.953 -3)" fill="#ffd000"/>
          <path id="Trazado_900460" data-name="Trazado 900460" d="M29,13h4.762v7.937H29Z" transform="translate(3.08 2.873)" fill="#ffd000"/>
          <path id="Trazado_900461" data-name="Trazado 900461" d="M9,19h4.762v7.937H9Z" transform="translate(-8.667 6.397)" fill="#ffd000"/>
        </g>
      </g>
      <g id="Outline_copy" data-name="Outline copy" transform="translate(1 2)">
        <path id="Trazado_900462" data-name="Trazado 900462" d="M75.609,30.643l-5.413,4.6c-.1-.159-.189-.317-.3-.467a5.922,5.922,0,0,0-8.572-.952L58.747,36.01a5.921,5.921,0,0,0-8.5-1.019L38.382,44.74H33.537a30.119,30.119,0,0,0-10.268,1.63,1.588,1.588,0,1,0,1.07,2.991,26.985,26.985,0,0,1,9.2-1.446H44.206a2.54,2.54,0,0,1,2.589,2.13,2.381,2.381,0,0,1-2.362,2.632H30.94a1.587,1.587,0,1,0,0,3.175H61.1a1.587,1.587,0,0,0,1.017-.368L77.673,42.522a2.7,2.7,0,0,1,3.492-.067,2.552,2.552,0,0,1,.843,1.84,2.519,2.519,0,0,1-.746,1.857l-6.9,6.9a1.588,1.588,0,0,0,2.246,2.244L83.506,48.4a5.714,5.714,0,0,0-.2-8.283c-.043-.04-.094-.067-.138-.1l.94-1.2a5.921,5.921,0,0,0-8.491-8.172ZM63.377,36.235a2.749,2.749,0,0,1,3.978.444,2.6,2.6,0,0,1,.362.67L49.687,52.676H49.45a5.581,5.581,0,0,0,.51-2.949,5.157,5.157,0,0,0-.476-1.675Zm-19.172,8.5H43.38l8.878-7.3a2.738,2.738,0,0,1,2.064-.608,2.771,2.771,0,0,1,1.914,1.137c.027.035.033.087.059.124l-8.929,7.589a5.915,5.915,0,0,0-3.16-.94ZM81.641,33.5a2.754,2.754,0,0,1-.036,3.348l-1.476,1.871a6.019,6.019,0,0,0-4.5,1.359l-15.1,12.594H54.587L77.663,33.06a2.749,2.749,0,0,1,3.978.444Z" transform="translate(11.461 13.991)"/>
        <path id="Trazado_900463" data-name="Trazado 900463" d="M72.4,49.48a1.587,1.587,0,1,0-2.245-2.245l-3.333,3.334A19.14,19.14,0,0,1,55.82,55.992L32.73,59.008a12.71,12.71,0,0,0-10.148,7.875l-.756,1.889a1.588,1.588,0,1,0,2.949,1.178l.754-1.887a9.524,9.524,0,0,1,7.61-5.906L56.229,59.14a22.327,22.327,0,0,0,12.84-6.321Z" transform="translate(11.166 24.294)"/>
        <path id="Trazado_900464" data-name="Trazado 900464" d="M40.185,41.569,51.466,52.852a1.587,1.587,0,0,0,2.244,0l15.08-15.08a1.587,1.587,0,1,0-2.245-2.245L52.588,49.485,41.477,38.374a1.587,1.587,0,0,0-2.052-.159L27.153,47.078a15.95,15.95,0,0,0-2.779-1.9l16.481-11.9L51.471,43.885a1.587,1.587,0,0,0,2.244,0l31.878-31.9a1.587,1.587,0,0,0,0-2.244l-1.4-1.4h7.279v7.279l-1.4-1.4a1.587,1.587,0,0,0-2.244,0l-16.8,16.8a1.587,1.587,0,1,0,2.245,2.245L88.96,17.6l2.983,2.983a1.587,1.587,0,0,0,2.71-1.122V6.762a1.587,1.587,0,0,0-1.587-1.587h-12.7a1.587,1.587,0,0,0-1.122,2.71l2.983,2.983-9.8,9.8V3.587A1.587,1.587,0,0,0,70.843,2H61.319a1.587,1.587,0,0,0-1.587,1.587V14.7a1.587,1.587,0,1,0,3.175,0V11.524h6.349V23.838l-6.349,6.349v-9.14a1.587,1.587,0,1,0-3.175,0V33.361l-3.175,3.175V19.461a1.587,1.587,0,0,0-1.587-1.587H45.445a1.587,1.587,0,0,0-1.587,1.587V31.773l-1.719-1.719a1.587,1.587,0,0,0-1.456-.416V14.7A1.587,1.587,0,0,0,39.1,13.111H29.572A1.587,1.587,0,0,0,27.985,14.7V27.4a1.587,1.587,0,1,0,3.175,0V22.635h6.349v9.118l-6.349,4.584V33.746a1.587,1.587,0,1,0-3.175,0v4.884L24.81,40.923V28.985A1.587,1.587,0,0,0,23.223,27.4H13.7a1.587,1.587,0,0,0-1.587,1.587V44.031a15.918,15.918,0,0,0-3.679,1.686A1.587,1.587,0,1,0,10.124,48.4,12.729,12.729,0,1,1,6.131,52.4,1.587,1.587,0,1,0,3.446,50.7a15.837,15.837,0,0,0,12.7,24.278A56.861,56.861,0,0,0,2.7,95.073a1.587,1.587,0,1,0,2.956,1.159A53.732,53.732,0,0,1,21.58,74.366c.03-.025.043-.06.07-.087a15.838,15.838,0,0,0,7.714-24.9ZM62.906,8.349V5.175h6.349V8.349Zm-15.873,12.7h6.349V25.81H47.033Zm0,7.937h6.349V39.71l-.794.794-5.556-5.556ZM31.159,19.461V16.286h6.349v3.175ZM15.286,30.572h6.349v4.762H15.286Zm0,12.811V38.508h6.349v4.708l-.738.532c-.017.014-.025.033-.043.048a15.77,15.77,0,0,0-3.981-.525A15.554,15.554,0,0,0,15.286,43.383Z" transform="translate(-1 -2)"/>
        <path id="Trazado_900465" data-name="Trazado 900465" d="M46.71,37.17,64.17,19.71a1.587,1.587,0,1,0-2.245-2.245L44.465,34.926A1.587,1.587,0,1,0,46.71,37.17Z" transform="translate(24.256 6.81)"/>
        <path id="Trazado_900466" data-name="Trazado 900466" d="M23.468,36.083l3.679-2.452,5.429,5.429a1.587,1.587,0,1,0,2.245-2.245l-6.349-6.349a1.587,1.587,0,0,0-2-.2l-4.762,3.175a1.588,1.588,0,0,0,1.762,2.641Z" transform="translate(10.747 14.445)"/>
        <path id="Trazado_900467" data-name="Trazado 900467" d="M11.524,21.048A9.524,9.524,0,1,0,2,11.524a9.524,9.524,0,0,0,9.524,9.524Zm2.194-8.435,4.156-1.035A6.319,6.319,0,0,1,15.4,16.524ZM11.524,5.175A6.325,6.325,0,0,1,17.08,8.508L11.14,9.984a1.587,1.587,0,0,0-1.075,2.165l2.411,5.627a6.265,6.265,0,0,1-.952.1,6.349,6.349,0,1,1,0-12.7Z" transform="translate(-0.412 -2)"/>
        <path id="Trazado_900468" data-name="Trazado 900468" d="M68.635,56H49.587A1.587,1.587,0,0,0,48,57.587v6.349a1.587,1.587,0,0,0,1.587,1.587H68.635a1.587,1.587,0,0,0,1.587-1.587V57.587A1.587,1.587,0,0,0,68.635,56ZM51.175,59.175h3.175v3.175H51.175Zm6.349,0H60.7v3.175H57.524Zm9.524,3.175H63.873V59.175h3.175Z" transform="translate(26.605 29.715)"/>
        <path id="Trazado_900469" data-name="Trazado 900469" d="M12.762,46.873a1.587,1.587,0,0,1-1.587-1.587,1.587,1.587,0,1,0-3.175,0,4.762,4.762,0,0,0,3.175,4.47v1.879a1.587,1.587,0,0,0,3.175,0V49.756a4.751,4.751,0,0,0-1.587-9.232,1.587,1.587,0,1,1,1.587-1.587,1.587,1.587,0,0,0,3.175,0,4.762,4.762,0,0,0-3.175-4.47V32.587a1.587,1.587,0,0,0-3.175,0v1.879A4.751,4.751,0,0,0,12.762,43.7a1.587,1.587,0,1,1,0,3.175Z" transform="translate(3.112 15.032)"/>
      </g>
    </g>
    <g id="Grupo_1111883" data-name="Grupo 1111883" transform="translate(1242.242 10431.468)">
      <g id="Color-2" data-name="Color" transform="translate(3.322 5.634)">
        <g id="Grupo_1111881" data-name="Grupo 1111881" transform="translate(0)">
          <g id="Grupo_1111878" data-name="Grupo 1111878" transform="translate(16.653 22.877)">
            <g id="Grupo_1111868" data-name="Grupo 1111868" transform="translate(32.681)">
              <path id="Trazado_900470" data-name="Trazado 900470" d="M68.949,28.8H36.268A3.267,3.267,0,0,1,33,25.536V22.268A3.267,3.267,0,0,1,36.268,19H68.949a3.267,3.267,0,0,1,3.268,3.268v3.268A3.267,3.267,0,0,1,68.949,28.8Z" transform="translate(-33 -19)" fill="#ffc857"/>
              <path id="Trazado_900471" data-name="Trazado 900471" d="M41.17,23.9A3.267,3.267,0,0,1,37.9,20.634V19H36.268A3.267,3.267,0,0,0,33,22.268v3.268A3.267,3.267,0,0,0,36.268,28.8H68.949a3.267,3.267,0,0,0,3.268-3.268V23.9Z" transform="translate(-33 -19)" fill="#ffb41f"/>
            </g>
            <g id="Grupo_1111869" data-name="Grupo 1111869" transform="translate(39.218 9.804)">
              <path id="Trazado_900472" data-name="Trazado 900472" d="M72.949,34.8H40.268A3.267,3.267,0,0,1,37,31.536V28.268A3.267,3.267,0,0,1,40.268,25H72.949a3.267,3.267,0,0,1,3.268,3.268v3.268A3.267,3.267,0,0,1,72.949,34.8Z" transform="translate(-37 -25)" fill="#ffc857"/>
              <path id="Trazado_900473" data-name="Trazado 900473" d="M45.17,29.9A3.267,3.267,0,0,1,41.9,26.634V25H40.268A3.267,3.267,0,0,0,37,28.268v3.268A3.267,3.267,0,0,0,40.268,34.8H72.949a3.267,3.267,0,0,0,3.268-3.268V29.9Z" transform="translate(-37 -25)" fill="#ffb41f"/>
            </g>
            <g id="Grupo_1111870" data-name="Grupo 1111870" transform="translate(24.511 19.609)">
              <path id="Trazado_900474" data-name="Trazado 900474" d="M63.949,40.8H31.268A3.267,3.267,0,0,1,28,37.536V34.268A3.267,3.267,0,0,1,31.268,31H63.949a3.267,3.267,0,0,1,3.268,3.268v3.268A3.267,3.267,0,0,1,63.949,40.8Z" transform="translate(-28 -31)" fill="#ffc857"/>
              <path id="Trazado_900475" data-name="Trazado 900475" d="M36.17,35.9A3.267,3.267,0,0,1,32.9,32.634V31H31.268A3.267,3.267,0,0,0,28,34.268v3.268A3.267,3.267,0,0,0,31.268,40.8H63.949a3.267,3.267,0,0,0,3.268-3.268V35.9Z" transform="translate(-28 -31)" fill="#ffb41f"/>
            </g>
            <g id="Grupo_1111871" data-name="Grupo 1111871" transform="translate(39.218 29.413)">
              <path id="Trazado_900476" data-name="Trazado 900476" d="M72.949,46.8H40.268A3.267,3.267,0,0,1,37,43.536V40.268A3.267,3.267,0,0,1,40.268,37H72.949a3.267,3.267,0,0,1,3.268,3.268v3.268A3.267,3.267,0,0,1,72.949,46.8Z" transform="translate(-37 -37)" fill="#ffc857"/>
              <path id="Trazado_900477" data-name="Trazado 900477" d="M45.17,41.9A3.267,3.267,0,0,1,41.9,38.634V37H40.268A3.267,3.267,0,0,0,37,40.268v3.268A3.267,3.267,0,0,0,40.268,46.8H72.949a3.267,3.267,0,0,0,3.268-3.268V41.9Z" transform="translate(-37 -37)" fill="#ffb41f"/>
            </g>
            <g id="Grupo_1111872" data-name="Grupo 1111872" transform="translate(39.218 39.218)">
              <path id="Trazado_900478" data-name="Trazado 900478" d="M72.949,52.8H40.268A3.267,3.267,0,0,1,37,49.536V46.268A3.267,3.267,0,0,1,40.268,43H72.949a3.267,3.267,0,0,1,3.268,3.268v3.268A3.267,3.267,0,0,1,72.949,52.8Z" transform="translate(-37 -43)" fill="#ffc857"/>
              <path id="Trazado_900479" data-name="Trazado 900479" d="M45.17,47.9A3.267,3.267,0,0,1,41.9,44.634V43H40.268A3.267,3.267,0,0,0,37,46.268v3.268A3.267,3.267,0,0,0,40.268,52.8H72.949a3.267,3.267,0,0,0,3.268-3.268V47.9Z" transform="translate(-37 -43)" fill="#ffb41f"/>
            </g>
            <g id="Grupo_1111873" data-name="Grupo 1111873" transform="translate(39.218 49.022)">
              <path id="Trazado_900480" data-name="Trazado 900480" d="M72.949,58.8H40.268A3.267,3.267,0,0,1,37,55.536V52.268A3.267,3.267,0,0,1,40.268,49H72.949a3.267,3.267,0,0,1,3.268,3.268v3.268A3.267,3.267,0,0,1,72.949,58.8Z" transform="translate(-37 -49)" fill="#ffc857"/>
              <path id="Trazado_900481" data-name="Trazado 900481" d="M45.17,53.9A3.267,3.267,0,0,1,41.9,50.634V49H40.268A3.267,3.267,0,0,0,37,52.268v3.268A3.267,3.267,0,0,0,40.268,58.8H72.949a3.267,3.267,0,0,0,3.268-3.268V53.9Z" transform="translate(-37 -49)" fill="#ffb41f"/>
            </g>
            <g id="Grupo_1111874" data-name="Grupo 1111874" transform="translate(39.218 58.826)">
              <path id="Trazado_900482" data-name="Trazado 900482" d="M72.949,64.8H40.268A3.267,3.267,0,0,1,37,61.536V58.268A3.267,3.267,0,0,1,40.268,55H72.949a3.267,3.267,0,0,1,3.268,3.268v3.268A3.267,3.267,0,0,1,72.949,64.8Z" transform="translate(-37 -55)" fill="#ffc857"/>
              <path id="Trazado_900483" data-name="Trazado 900483" d="M45.17,59.9A3.267,3.267,0,0,1,41.9,56.634V55H40.268A3.267,3.267,0,0,0,37,58.268v3.268A3.267,3.267,0,0,0,40.268,64.8H72.949a3.267,3.267,0,0,0,3.268-3.268V59.9Z" transform="translate(-37 -55)" fill="#ffb41f"/>
            </g>
            <g id="Grupo_1111875" data-name="Grupo 1111875" transform="translate(0 39.218)">
              <path id="Trazado_900484" data-name="Trazado 900484" d="M48.949,52.8H16.268A3.267,3.267,0,0,1,13,49.536V46.268A3.267,3.267,0,0,1,16.268,43H48.949a3.267,3.267,0,0,1,3.268,3.268v3.268A3.267,3.267,0,0,1,48.949,52.8Z" transform="translate(-13 -43)" fill="#ffc857"/>
              <path id="Trazado_900485" data-name="Trazado 900485" d="M21.17,47.9A3.267,3.267,0,0,1,17.9,44.634V43H16.268A3.267,3.267,0,0,0,13,46.268v3.268A3.267,3.267,0,0,0,16.268,52.8H48.949a3.267,3.267,0,0,0,3.268-3.268V47.9Z" transform="translate(-13 -43)" fill="#ffb41f"/>
            </g>
            <g id="Grupo_1111876" data-name="Grupo 1111876" transform="translate(0 49.022)">
              <path id="Trazado_900486" data-name="Trazado 900486" d="M48.949,58.8H16.268A3.267,3.267,0,0,1,13,55.536V52.268A3.267,3.267,0,0,1,16.268,49H48.949a3.267,3.267,0,0,1,3.268,3.268v3.268A3.267,3.267,0,0,1,48.949,58.8Z" transform="translate(-13 -49)" fill="#ffc857"/>
              <path id="Trazado_900487" data-name="Trazado 900487" d="M21.17,53.9A3.267,3.267,0,0,1,17.9,50.634V49H16.268A3.267,3.267,0,0,0,13,52.268v3.268A3.267,3.267,0,0,0,16.268,58.8H48.949a3.267,3.267,0,0,0,3.268-3.268V53.9Z" transform="translate(-13 -49)" fill="#ffb41f"/>
            </g>
            <g id="Grupo_1111877" data-name="Grupo 1111877" transform="translate(0 58.826)">
              <path id="Trazado_900488" data-name="Trazado 900488" d="M48.949,64.8H16.268A3.267,3.267,0,0,1,13,61.536V58.268A3.267,3.267,0,0,1,16.268,55H48.949a3.267,3.267,0,0,1,3.268,3.268v3.268A3.267,3.267,0,0,1,48.949,64.8Z" transform="translate(-13 -55)" fill="#ffc857"/>
              <path id="Trazado_900489" data-name="Trazado 900489" d="M21.17,59.9A3.267,3.267,0,0,1,17.9,56.634V55H16.268A3.267,3.267,0,0,0,13,58.268v3.268A3.267,3.267,0,0,0,16.268,64.8H48.949a3.267,3.267,0,0,0,3.268-3.268V59.9Z" transform="translate(-13 -55)" fill="#ffb41f"/>
            </g>
          </g>
          <g id="Grupo_1111879" data-name="Grupo 1111879" transform="translate(0 48.616)">
            <circle id="Elipse_12759" data-name="Elipse 12759" cx="21.158" cy="21.158" r="21.158" transform="translate(0 0)" fill="#fd9"/>
            <path id="Trazado_900490" data-name="Trazado 900490" d="M38.949,62.467A21.193,21.193,0,0,1,18.511,35.492,21.234,21.234,0,1,0,44.682,61.663,21.274,21.274,0,0,1,38.949,62.467Z" transform="translate(-2.688 -34.283)" fill="#ffc857"/>
            <circle id="Elipse_12760" data-name="Elipse 12760" cx="14.546" cy="14.546" r="14.546" transform="translate(6.612 6.612)" fill="#ffc857"/>
            <path id="Trazado_900491" data-name="Trazado 900491" d="M34.9,59.58A21.214,21.214,0,0,1,15.247,39.924,14.7,14.7,0,1,0,34.9,59.58Z" transform="translate(-0.152 -31.472)" fill="#ffb41f"/>
          </g>
          <g id="Grupo_1111880" data-name="Grupo 1111880" transform="translate(3.58)">
            <path id="Trazado_900492" data-name="Trazado 900492" d="M40.949,22.975,22.975,5,5,22.975h9.8V47.486H31.145V22.975Z" transform="translate(-5 -5)" fill="#f47c94"/>
            <path id="Trazado_900493" data-name="Trazado 900493" d="M22.975,34.413V5L5,22.975h9.8V47.486H31.145v-4.9A8.171,8.171,0,0,1,22.975,34.413Z" transform="translate(-5 -5)" fill="#f15574"/>
          </g>
        </g>
      </g>
      <g id="Outline_copy-2" data-name="Outline_copy" transform="translate(2 4)">
        <g id="Grupo_1111882" data-name="Grupo 1111882">
          <path id="Trazado_900494" data-name="Trazado 900494" d="M100.044,35.975V32.707a4.908,4.908,0,0,0-4.9-4.9H93.207a4.847,4.847,0,0,0,.3-1.634V22.9a4.908,4.908,0,0,0-4.9-4.9H85.337A1.635,1.635,0,0,0,83.7,19.634V22.9a1.634,1.634,0,1,0,3.268,0V21.268h1.634A1.637,1.637,0,0,1,90.24,22.9V26.17A1.637,1.637,0,0,1,88.606,27.8H55.924A1.637,1.637,0,0,1,54.29,26.17V22.9a1.637,1.637,0,0,1,1.634-1.634h1.634V22.9a1.634,1.634,0,1,0,3.268,0V21.268h3.268V22.9a1.634,1.634,0,1,0,3.268,0V21.268h3.268V22.9a1.634,1.634,0,1,0,3.268,0V21.268h3.268V22.9a1.634,1.634,0,0,0,3.268,0V19.634A1.635,1.635,0,0,0,78.8,18H55.924a4.908,4.908,0,0,0-4.9,4.9V26.17a4.908,4.908,0,0,0,4.9,4.9h1.935a4.847,4.847,0,0,0-.3,1.634v3.268a4.847,4.847,0,0,0,.3,1.634H47.754a4.908,4.908,0,0,0-4.9,4.9v3.268a4.908,4.908,0,0,0,4.9,4.9H54.29a1.634,1.634,0,1,0,0-3.268H47.754a1.637,1.637,0,0,1-1.634-1.634V42.511a1.637,1.637,0,0,1,1.634-1.634h1.634v1.634a1.634,1.634,0,1,0,3.268,0V40.877h3.268v1.634a1.634,1.634,0,1,0,3.268,0V40.877H62.46v1.634a1.634,1.634,0,1,0,3.268,0V40.877H69v1.634a1.634,1.634,0,1,0,3.268,0V40.877h3.268v1.634a1.634,1.634,0,1,0,3.268,0V40.877h1.634a1.637,1.637,0,0,1,1.634,1.634v3.268a1.637,1.637,0,0,1-1.634,1.634H62.46a4.908,4.908,0,0,0-4.9,4.9v3.268a4.838,4.838,0,0,0,.521,2.155,4.838,4.838,0,0,0-2.155-.521H45.515A22.856,22.856,0,1,0,6.42,80.5a1.634,1.634,0,1,0,2.637-1.928,19.668,19.668,0,1,1,4.268,4.267A1.634,1.634,0,1,0,11.4,85.479,22.689,22.689,0,0,0,24.877,89.9H55.924a4.871,4.871,0,0,0,3.268-1.275A4.863,4.863,0,0,0,62.46,89.9H78.8a1.634,1.634,0,1,0,0-3.268H62.46A1.637,1.637,0,0,1,60.826,85V81.729a1.637,1.637,0,0,1,1.634-1.634h1.634v1.634a1.634,1.634,0,1,0,3.268,0V80.095h3.268v1.634a1.634,1.634,0,1,0,3.268,0V80.095h3.268v1.634a1.634,1.634,0,0,0,3.268,0V80.095H83.7v1.634a1.634,1.634,0,1,0,3.268,0V80.095H90.24v1.634a1.634,1.634,0,1,0,3.268,0V80.095h1.634a1.637,1.637,0,0,1,1.634,1.634V85a1.637,1.637,0,0,1-1.634,1.634h-9.8a1.634,1.634,0,0,0,0,3.268h9.8a4.908,4.908,0,0,0,4.9-4.9V81.729a4.871,4.871,0,0,0-1.275-3.268,4.863,4.863,0,0,0,1.275-3.268V71.924a4.871,4.871,0,0,0-1.275-3.268,4.863,4.863,0,0,0,1.275-3.268V62.12a4.871,4.871,0,0,0-1.275-3.268,4.863,4.863,0,0,0,1.275-3.268V52.315a4.908,4.908,0,0,0-4.9-4.9H85.037a4.847,4.847,0,0,0,.3-1.634V42.511a4.847,4.847,0,0,0-.3-1.634H95.142A4.908,4.908,0,0,0,100.044,35.975ZM65.729,63.754a1.635,1.635,0,0,0,1.634-1.634V60.486h3.268V62.12a1.634,1.634,0,1,0,3.268,0V60.486h3.268V62.12a1.634,1.634,0,1,0,3.268,0V60.486H83.7V62.12a1.634,1.634,0,1,0,3.268,0V60.486H90.24V62.12a1.634,1.634,0,1,0,3.268,0V60.486h1.634a1.637,1.637,0,0,1,1.634,1.634v3.268a1.637,1.637,0,0,1-1.634,1.634H62.46a1.637,1.637,0,0,1-1.634-1.634V62.12a1.637,1.637,0,0,1,1.634-1.634h1.634V62.12A1.635,1.635,0,0,0,65.729,63.754Zm-8.17,11.438a1.637,1.637,0,0,1-1.634,1.634H45.515a22.622,22.622,0,0,0,1.977-6.536h3.53v1.634a1.634,1.634,0,1,0,3.268,0V70.29h1.634a1.637,1.637,0,0,1,1.634,1.634ZM51.022,60.486V62.12a1.634,1.634,0,1,0,3.268,0V60.486h1.634a1.637,1.637,0,0,1,1.634,1.634v3.268a1.637,1.637,0,0,1-1.634,1.634h-8.17a22.742,22.742,0,0,0-.964-6.536Zm4.9,26.145H36.6a23.023,23.023,0,0,0,7.025-6.536h.861v1.634a1.634,1.634,0,1,0,3.268,0V80.095h3.268v1.634a1.634,1.634,0,1,0,3.268,0V80.095h1.634a1.637,1.637,0,0,1,1.634,1.634V85A1.637,1.637,0,0,1,55.924,86.631Zm6.536-9.8a1.637,1.637,0,0,1-1.634-1.634V71.924A1.637,1.637,0,0,1,62.46,70.29h1.634v1.634a1.634,1.634,0,1,0,3.268,0V70.29h3.268v1.634a1.634,1.634,0,1,0,3.268,0V70.29h3.268v1.634a1.634,1.634,0,0,0,3.268,0V70.29H83.7v1.634a1.634,1.634,0,1,0,3.268,0V70.29H90.24v1.634a1.634,1.634,0,1,0,3.268,0V70.29h1.634a1.637,1.637,0,0,1,1.634,1.634v3.268a1.637,1.637,0,0,1-1.634,1.634ZM96.776,52.315v3.268a1.637,1.637,0,0,1-1.634,1.634H62.46a1.637,1.637,0,0,1-1.634-1.634V52.315a1.637,1.637,0,0,1,1.634-1.634h1.634v1.634a1.634,1.634,0,1,0,3.268,0V50.681h3.268v1.634a1.634,1.634,0,1,0,3.268,0V50.681h3.268v1.634a1.634,1.634,0,0,0,3.268,0V50.681H83.7v1.634a1.634,1.634,0,1,0,3.268,0V50.681H90.24v1.634a1.634,1.634,0,1,0,3.268,0V50.681h1.634A1.637,1.637,0,0,1,96.776,52.315ZM62.46,37.609a1.637,1.637,0,0,1-1.634-1.634V32.707a1.637,1.637,0,0,1,1.634-1.634h1.634v1.634a1.634,1.634,0,1,0,3.268,0V31.073h3.268v1.634a1.634,1.634,0,1,0,3.268,0V31.073h3.268v1.634a1.634,1.634,0,0,0,3.268,0V31.073H83.7v1.634a1.634,1.634,0,1,0,3.268,0V31.073H90.24v1.634a1.634,1.634,0,1,0,3.268,0V31.073h1.634a1.637,1.637,0,0,1,1.634,1.634v3.268a1.637,1.637,0,0,1-1.634,1.634Z" transform="translate(-2 4.877)"/>
          <path id="Trazado_900495" data-name="Trazado 900495" d="M17.9,57.341a1.637,1.637,0,0,1-1.634-1.634,1.634,1.634,0,1,0-3.268,0,4.9,4.9,0,0,0,3.268,4.6v1.935a1.634,1.634,0,1,0,3.268,0V60.308A4.89,4.89,0,0,0,17.9,50.8a1.634,1.634,0,1,1,1.634-1.634,1.634,1.634,0,0,0,3.268,0,4.9,4.9,0,0,0-3.268-4.6V42.634a1.634,1.634,0,0,0-3.268,0v1.935a4.89,4.89,0,0,0,1.634,9.5,1.634,1.634,0,1,1,0,3.268Z" transform="translate(4.975 19.461)"/>
          <path id="Trazado_900496" data-name="Trazado 900496" d="M22.341,70.681A16.341,16.341,0,1,0,6,54.341,16.359,16.359,0,0,0,22.341,70.681Zm0-29.413A13.073,13.073,0,1,1,9.268,54.341,13.088,13.088,0,0,1,22.341,41.268Z" transform="translate(0.536 17.559)"/>
          <path id="Trazado_900497" data-name="Trazado 900497" d="M5.634,25.243H13.8v8.17a1.634,1.634,0,1,0,3.268,0v-9.8a1.635,1.635,0,0,0-1.634-1.634H9.579l14.03-14.03,14.03,14.03h-5.86a1.635,1.635,0,0,0-1.634,1.634V46.486H17.073V39.95a1.634,1.634,0,1,0-3.268,0v8.17a1.635,1.635,0,0,0,1.634,1.634H31.779a1.635,1.635,0,0,0,1.634-1.634V25.243h8.17a1.634,1.634,0,0,0,1.155-2.789L24.764,4.479a1.632,1.632,0,0,0-2.311,0L4.479,22.454a1.634,1.634,0,0,0,1.155,2.789Z" transform="translate(-0.732 -4)"/>
          <path id="Trazado_900498" data-name="Trazado 900498" d="M45.634,15.8a1.635,1.635,0,0,0,1.634-1.634V7.634a1.634,1.634,0,1,0-3.268,0V14.17A1.635,1.635,0,0,0,45.634,15.8Z" transform="translate(24.631 -2.731)"/>
          <path id="Trazado_900499" data-name="Trazado 900499" d="M50.632,16.171a1.633,1.633,0,0,0,1.361-.727l3.268-4.9a1.634,1.634,0,0,0-2.719-1.814l-3.268,4.9a1.634,1.634,0,0,0,1.358,2.541Z" transform="translate(27.801 -1.464)"/>
          <path id="Trazado_900500" data-name="Trazado 900500" d="M52.084,16.785a1.63,1.63,0,0,0,2.067,1.033l4.9-1.634a1.634,1.634,0,0,0-1.034-3.1l-4.9,1.634A1.635,1.635,0,0,0,52.084,16.785Z" transform="translate(29.703 1.706)"/>
          <path id="Trazado_900501" data-name="Trazado 900501" d="M40.543,15.444a1.634,1.634,0,0,0,2.719-1.814l-3.268-4.9a1.634,1.634,0,0,0-2.719,1.814Z" transform="translate(20.192 -1.464)"/>
          <path id="Trazado_900502" data-name="Trazado 900502" d="M34.118,16.185l4.9,1.634a1.635,1.635,0,0,0,1.034-3.1l-4.9-1.634a1.635,1.635,0,0,0-1.034,3.1Z" transform="translate(17.656 1.707)"/>
        </g>
      </g>
    </g>
  </g>
</svg>
