<svg xmlns="http://www.w3.org/2000/svg" width="87" height="87" viewBox="0 0 87 87">
  <g id="Grupo_25958" data-name="Grupo 25958" transform="translate(0 0.166)">
    <g id="Grupo_25954" data-name="Grupo 25954" transform="translate(0 -0.166)">
      <circle id="Elipse_497" data-name="Elipse 497" cx="43.5" cy="43.5" r="43.5" fill="#fd9827"/>
      <path id="Trazado_1178" data-name="Trazado 1178" d="M39.037,0A38.817,38.817,0,0,1,78.075,38.594,38.817,38.817,0,0,1,39.037,77.187,38.817,38.817,0,0,1,0,38.594,38.817,38.817,0,0,1,39.037,0Z" transform="translate(5.061 5.168)" fill="#fff"/>
    </g>
    <g id="Grupo_25939" data-name="Grupo 25939" transform="translate(18.075 18.293)">
      <path id="Trazado_68066" data-name="Trazado 68066" d="M1120.534,2406.3h-49.98a.6.6,0,0,1-.291-1.125l24.99-13.855a.6.6,0,0,1,.582,0l24.99,13.855a.6.6,0,0,1-.291,1.125Zm-47.66-1.2h45.34l-22.67-12.569Z" transform="translate(-1069.954 -2391.245)" fill="#344154"/>
      <path id="Trazado_68067" data-name="Trazado 68067" d="M1094.65,2408.316l15.711-8.71,15.711,8.71-7.955-2.293a28.011,28.011,0,0,0-15.512,0Z" transform="translate(-1084.771 -2396.261)" fill="#fd9827"/>
      <path id="Trazado_68068" data-name="Trazado 68068" d="M1122.333,2430.2h-42.781a.6.6,0,0,1-.6-.6v-3.123a.6.6,0,1,1,1.2,0V2429h41.581v-2.523a.6.6,0,1,1,1.2,0v3.123A.6.6,0,0,1,1122.333,2430.2Z" transform="translate(-1075.353 -2412.026)" fill="#344154"/>
      <path id="Trazado_68069" data-name="Trazado 68069" d="M1079.552,2494.89a.6.6,0,0,1-.6-.6v-3.971a.6.6,0,0,1,.6-.6H1106.9a.6.6,0,1,1,0,1.2h-26.749v3.371A.6.6,0,0,1,1079.552,2494.89Z" transform="translate(-1075.353 -2450.327)" fill="#344154"/>
      <path id="Trazado_68070" data-name="Trazado 68070" d="M1086.114,2438.912a1.964,1.964,0,0,1-1.867-1.36h-1.469a1.96,1.96,0,0,1-3.827-.6v-2.665a.6.6,0,0,1,.6-.6h7.922a.6.6,0,0,1,.6.6v2.665A1.962,1.962,0,0,1,1086.114,2438.912Zm-3.841-2.56h2.481a.6.6,0,0,1,.6.6.76.76,0,0,0,1.521,0v-2.065h-6.722v2.065a.76.76,0,0,0,1.521,0A.6.6,0,0,1,1082.273,2436.352Z" transform="translate(-1075.353 -2416.709)" fill="#344154"/>
      <path id="Trazado_68071" data-name="Trazado 68071" d="M1087.474,2484.882h-7.922a.6.6,0,0,1-.6-.6v-2.665a1.96,1.96,0,0,1,3.827-.6h1.469a1.96,1.96,0,0,1,3.827.6v2.665A.6.6,0,0,1,1087.474,2484.882Zm-7.322-1.2h6.722v-2.064a.76.76,0,1,0-1.521,0,.6.6,0,0,1-.6.6h-2.481a.6.6,0,0,1-.6-.6.76.76,0,1,0-1.521,0Z" transform="translate(-1075.353 -2444.29)" fill="#344154"/>
      <path id="Trazado_68072" data-name="Trazado 68072" d="M1131.045,2484.882h-7.923a.6.6,0,0,1-.6-.6v-2.665a1.96,1.96,0,0,1,3.827-.6h1.469a1.96,1.96,0,0,1,3.827.6v2.665A.6.6,0,0,1,1131.045,2484.882Zm-7.323-1.2h6.723v-2.064a.76.76,0,1,0-1.521,0,.6.6,0,0,1-.6.6h-2.481a.6.6,0,0,1-.6-.6.76.76,0,1,0-1.521,0Z" transform="translate(-1101.493 -2444.29)" fill="#344154"/>
      <path id="Trazado_68073" data-name="Trazado 68073" d="M1129.684,2438.912a1.964,1.964,0,0,1-1.866-1.36h-1.469a1.96,1.96,0,0,1-3.827-.6v-2.665a.6.6,0,0,1,.6-.6h7.923a.6.6,0,0,1,.6.6v2.665A1.963,1.963,0,0,1,1129.684,2438.912Zm-3.841-2.56h2.481a.6.6,0,0,1,.6.6.76.76,0,0,0,1.521,0v-2.065h-6.723v2.065a.76.76,0,0,0,1.521,0A.6.6,0,0,1,1125.843,2436.352Z" transform="translate(-1101.493 -2416.709)" fill="#344154"/>
      <path id="Trazado_68074" data-name="Trazado 68074" d="M1173.255,2438.912a1.964,1.964,0,0,1-1.866-1.36h-1.469a1.96,1.96,0,0,1-3.827-.6v-2.665a.6.6,0,0,1,.6-.6h7.922a.6.6,0,0,1,.6.6v2.665A1.962,1.962,0,0,1,1173.255,2438.912Zm-3.841-2.56h2.481a.6.6,0,0,1,.6.6.76.76,0,0,0,1.521,0v-2.065h-6.722v2.065a.76.76,0,0,0,1.521,0A.6.6,0,0,1,1169.414,2436.352Z" transform="translate(-1127.635 -2416.709)" fill="#344154"/>
      <g id="Grupo_25937" data-name="Grupo 25937" transform="translate(4.96 21.003)">
        <path id="Trazado_68075" data-name="Trazado 68075" d="M1082.953,2459.313a.6.6,0,0,1-.6-.6v-14.365a.6.6,0,0,1,1.2,0v14.365A.6.6,0,0,1,1082.953,2459.313Z" transform="translate(-1082.353 -2443.748)" fill="#344154"/>
        <path id="Trazado_68076" data-name="Trazado 68076" d="M1095.956,2459.313a.6.6,0,0,1-.6-.6v-14.365a.6.6,0,0,1,1.2,0v14.365A.6.6,0,0,1,1095.956,2459.313Z" transform="translate(-1090.154 -2443.748)" fill="#344154"/>
      </g>
      <path id="Trazado_68077" data-name="Trazado 68077" d="M1126.523,2459.313a.6.6,0,0,1-.6-.6v-14.365a.6.6,0,0,1,1.2,0v14.365A.6.6,0,0,1,1126.523,2459.313Z" transform="translate(-1103.534 -2422.746)" fill="#344154"/>
      <path id="Trazado_68078" data-name="Trazado 68078" d="M1139.526,2459.313a.6.6,0,0,1-.6-.6v-14.365a.6.6,0,0,1,1.2,0v14.365A.6.6,0,0,1,1139.526,2459.313Z" transform="translate(-1111.335 -2422.746)" fill="#344154"/>
      <path id="Trazado_68079" data-name="Trazado 68079" d="M1170.093,2453.7a.6.6,0,0,1-.6-.6v-8.751a.6.6,0,0,1,1.2,0v8.751A.6.6,0,0,1,1170.093,2453.7Z" transform="translate(-1129.675 -2422.746)" fill="#344154"/>
      <path id="Trazado_68080" data-name="Trazado 68080" d="M1183.1,2454.15a.6.6,0,0,1-.6-.6v-9.2a.6.6,0,0,1,1.2,0v9.2A.6.6,0,0,1,1183.1,2454.15Z" transform="translate(-1137.477 -2422.746)" fill="#344154"/>
      <path id="Trazado_68081" data-name="Trazado 68081" d="M1103.325,2504.243h-32.771a.6.6,0,0,1-.6-.6v-.07a3.931,3.931,0,0,1,3.927-3.927H1101.5a.6.6,0,1,1,0,1.2h-27.621a2.731,2.731,0,0,0-2.675,2.2h32.12a.6.6,0,0,1,0,1.2Z" transform="translate(-1069.954 -2456.283)" fill="#344154"/>
      <g id="Grupo_25938" data-name="Grupo 25938" transform="translate(37.617 36.823)">
        <path id="Trazado_68082" data-name="Trazado 68082" d="M1169.853,2492.277a.593.593,0,0,1-.288-.074.6.6,0,0,1-.237-.815l4.274-7.78a.6.6,0,1,1,1.052.578l-4.274,7.78A.6.6,0,0,1,1169.853,2492.277Z" transform="translate(-1167.148 -2483.297)" fill="#344154"/>
        <path id="Trazado_68083" data-name="Trazado 68083" d="M1180.507,2498.359a1.986,1.986,0,0,1-1.984-1.984v-.958a1.984,1.984,0,1,1,3.967,0v.958A1.986,1.986,0,0,1,1180.507,2498.359Zm0-3.725a.784.784,0,0,0-.784.784v.958a.783.783,0,1,0,1.567,0v-.958A.784.784,0,0,0,1180.507,2494.634Z" transform="translate(-1172.709 -2489.379)" fill="#344154"/>
        <path id="Trazado_68084" data-name="Trazado 68084" d="M1165.974,2488.222a1.986,1.986,0,0,1-1.984-1.983v-.958a1.984,1.984,0,0,1,3.967,0v.958A1.986,1.986,0,0,1,1165.974,2488.222Zm0-3.725a.784.784,0,0,0-.784.783v.958a.783.783,0,0,0,1.567,0v-.958A.784.784,0,0,0,1165.974,2484.5Z" transform="translate(-1163.99 -2483.297)" fill="#344154"/>
      </g>
      <path id="Trazado_68085" data-name="Trazado 68085" d="M1162.478,2489.943a9.159,9.159,0,1,1,9.159-9.159A9.17,9.17,0,0,1,1162.478,2489.943Zm0-17.118a7.959,7.959,0,1,0,7.959,7.959A7.968,7.968,0,0,0,1162.478,2472.825Z" transform="translate(-1119.97 -2439.471)" fill="#344154"/>
    </g>
  </g>
</svg>
