<svg xmlns="http://www.w3.org/2000/svg" width="87" height="87" viewBox="0 0 87 87">
  <g id="Grupo_25957" data-name="Grupo 25957" transform="translate(0 0.449)">
    <g id="Grupo_25953" data-name="Grupo 25953" transform="translate(0 -0.449)">
      <circle id="Elipse_497" data-name="Elipse 497" cx="43.5" cy="43.5" r="43.5" fill="#fd9827"/>
      <path id="Trazado_1178" data-name="Trazado 1178" d="M39.037,0A38.817,38.817,0,0,1,78.075,38.594,38.817,38.817,0,0,1,39.037,77.187,38.817,38.817,0,0,1,0,38.594,38.817,38.817,0,0,1,39.037,0Z" transform="translate(5.061 5.447)" fill="#fff"/>
    </g>
    <g id="Grupo_25943" data-name="Grupo 25943" transform="translate(20.967 20.46)">
      <g id="Grupo_25940" data-name="Grupo 25940" transform="translate(0 0)">
        <path id="Trazado_68086" data-name="Trazado 68086" d="M1119,2562.026h-6.63a.6.6,0,1,1,0-1.2H1119a.6.6,0,1,1,0,1.2Z" transform="translate(-1098.342 -2558.168)" fill="#344154"/>
        <path id="Trazado_68087" data-name="Trazado 68087" d="M1109.726,2599.962h-28.364a3.167,3.167,0,0,1-3.164-3.164v-39.452a3.167,3.167,0,0,1,3.164-3.164h28.364a3.167,3.167,0,0,1,3.163,3.164v5.56a.6.6,0,0,1-1.2,0v-5.56a1.966,1.966,0,0,0-1.963-1.964h-28.364a1.966,1.966,0,0,0-1.964,1.964V2596.8a1.965,1.965,0,0,0,1.964,1.963h28.364a1.965,1.965,0,0,0,1.963-1.963v-14.227a.6.6,0,0,1,1.2,0V2596.8A3.167,3.167,0,0,1,1109.726,2599.962Z" transform="translate(-1078.198 -2554.183)" fill="#344154"/>
        <path id="Trazado_68088" data-name="Trazado 68088" d="M1119,2660.18h-6.63a.6.6,0,1,1,0-1.2H1119a.6.6,0,1,1,0,1.2Z" transform="translate(-1098.342 -2617.058)" fill="#344154"/>
        <path id="Trazado_68089" data-name="Trazado 68089" d="M1112.29,2568.67H1078.8a.6.6,0,0,1,0-1.2h33.492a.6.6,0,1,1,0,1.2Z" transform="translate(-1078.198 -2562.155)" fill="#344154"/>
        <path id="Trazado_68090" data-name="Trazado 68090" d="M1112.29,2653.537H1078.8a.6.6,0,1,1,0-1.2h33.492a.6.6,0,1,1,0,1.2Z" transform="translate(-1078.198 -2613.073)" fill="#344154"/>
      </g>
      <g id="Grupo_25942" data-name="Grupo 25942" transform="translate(3.102 9.646)">
        <g id="Grupo_25941" data-name="Grupo 25941" transform="translate(7.098 4.263)">
          <path id="Trazado_68091" data-name="Trazado 68091" d="M1108.219,2619.17a.6.6,0,0,1-.6-.6v-12.028H1104.9v12.028a.6.6,0,0,1-1.2,0v-12.628a.6.6,0,0,1,.6-.6h3.923a.6.6,0,0,1,.6.6v12.628A.6.6,0,0,1,1108.219,2619.17Z" transform="translate(-1103.696 -2598.786)" fill="#344154"/>
          <path id="Trazado_68092" data-name="Trazado 68092" d="M1118.025,2619.3H1114.1a.6.6,0,1,1,0-1.2h3.923a.6.6,0,1,1,0,1.2Z" transform="translate(-1109.579 -2606.442)" fill="#344154"/>
          <path id="Trazado_68093" data-name="Trazado 68093" d="M1127.831,2609.337a.6.6,0,0,1-.6-.6v-18.583h-2.723v18.583a.6.6,0,1,1-1.2,0v-19.184a.6.6,0,0,1,.6-.6h3.923a.6.6,0,0,1,.6.6v19.184A.6.6,0,0,1,1127.831,2609.337Z" transform="translate(-1115.463 -2588.953)" fill="#344154"/>
        </g>
        <path id="Trazado_68094" data-name="Trazado 68094" d="M1113.867,2607.4h-22.713a.6.6,0,0,1-.6-.6V2586.24a.6.6,0,1,1,1.2,0V2606.2h22.113a.6.6,0,0,1,0,1.2Z" transform="translate(-1088.714 -2582.702)" fill="#344154"/>
        <path id="Trazado_68095" data-name="Trazado 68095" d="M1086.553,2581.377a.6.6,0,0,1-.424-1.025l1.88-1.881a.6.6,0,0,1,.424-.176h0a.6.6,0,0,1,.424.176l1.8,1.8a.6.6,0,0,1-.849.848l-1.376-1.376-1.457,1.457A.6.6,0,0,1,1086.553,2581.377Z" transform="translate(-1085.954 -2578.296)" fill="#344154"/>
        <path id="Trazado_68096" data-name="Trazado 68096" d="M1150.145,2637.189a.6.6,0,0,1-.424-1.024l1.376-1.376-1.457-1.457a.6.6,0,1,1,.849-.848l1.881,1.881a.6.6,0,0,1,0,.848l-1.8,1.8A.6.6,0,0,1,1150.145,2637.189Z" transform="translate(-1124.058 -2610.702)" fill="#344154"/>
      </g>
      <path id="Trazado_68097" data-name="Trazado 68097" d="M1166.781,2598.171a.6.6,0,0,1-.525-.889l4.736-8.622a.6.6,0,0,1,1.052.577l-4.736,8.622A.6.6,0,0,1,1166.781,2598.171Z" transform="translate(-1130.986 -2574.681)" fill="#344154"/>
      <path id="Trazado_68098" data-name="Trazado 68098" d="M1178.587,2604.912a2.136,2.136,0,0,1-2.133-2.134v-1.062a2.133,2.133,0,0,1,4.266,0v1.062A2.136,2.136,0,0,1,1178.587,2604.912Zm0-4.128a.934.934,0,0,0-.933.933v1.062a.933.933,0,1,0,1.866,0v-1.062A.934.934,0,0,0,1178.587,2600.784Z" transform="translate(-1137.149 -2581.423)" fill="#344154"/>
      <path id="Trazado_68099" data-name="Trazado 68099" d="M1162.482,2593.678a2.135,2.135,0,0,1-2.133-2.133v-1.062a2.133,2.133,0,1,1,4.266,0v1.062A2.136,2.136,0,0,1,1162.482,2593.678Zm0-4.128a.934.934,0,0,0-.933.933v1.062a.933.933,0,0,0,1.866,0v-1.062A.934.934,0,0,0,1162.482,2589.55Z" transform="translate(-1127.486 -2574.682)" fill="#344154"/>
      <path id="Trazado_68100" data-name="Trazado 68100" d="M1145.413,2599.661a.6.6,0,0,1-.6-.6V2582a1.51,1.51,0,0,1,1.508-1.509h20.122a1.511,1.511,0,0,1,1.509,1.509v13.048a1.51,1.51,0,0,1-1.509,1.508h-17.555a.312.312,0,0,0-.219.091l-2.832,2.837A.6.6,0,0,1,1145.413,2599.661Zm.908-17.969a.309.309,0,0,0-.308.308v15.61l1.808-1.811a1.521,1.521,0,0,1,1.067-.443h17.555a.308.308,0,0,0,.308-.308V2582a.309.309,0,0,0-.308-.308Z" transform="translate(-1118.165 -2569.968)" fill="#344154"/>
      <path id="Trazado_68101" data-name="Trazado 68101" d="M1188.82,2598.056h.048v-10.064h-4.192a11.213,11.213,0,0,1,2.644,4.682Z" transform="translate(-1142.082 -2574.468)" fill="#fd9827"/>
    </g>
  </g>
</svg>
