<svg xmlns="http://www.w3.org/2000/svg" width="87" height="87" viewBox="0 0 87 87">
  <g id="Grupo_71158" data-name="Grupo 71158" transform="translate(-414 -6212)">
    <circle id="Elipse_497" data-name="Elipse 497" cx="43.5" cy="43.5" r="43.5" transform="translate(414 6212)" fill="#fd9827"/>
    <path id="Trazado_1178" data-name="Trazado 1178" d="M39.037,0A39.037,39.037,0,1,1,0,39.037,39.037,39.037,0,0,1,39.037,0Z" transform="translate(419.061 6216.577)" fill="#fff"/>
    <g id="Grupo_71157" data-name="Grupo 71157" transform="translate(436.072 6233.784)">
      <path id="Trazado_143396" data-name="Trazado 143396" d="M428.317,337.746h1.4v1.4H406.913c0,.68,0,1.313,0,1.947a2.157,2.157,0,0,1-2.359,2.35q-7.624,0-15.248,0a2.162,2.162,0,0,1-2.369-2.384q0-8.025-.007-16.05a2.528,2.528,0,0,1,.785-1.912q2.3-2.27,4.572-4.57a2.481,2.481,0,0,1,1.872-.773c3.374.013,6.748.059,10.12-.017a2.344,2.344,0,0,1,2.612,2.843h-1.383c-.007-.137-.019-.28-.02-.423-.007-.753-.227-.969-.993-.97H394.071c0,1.105,0,2.171,0,3.236a2.187,2.187,0,0,1-2.462,2.472q-1.56,0-3.121.008a.542.542,0,0,0-.125.049v.458q0,7.78,0,15.56c0,.849.2,1.047,1.049,1.047h15.025c.849,0,1.049-.2,1.049-1.048,0-.579,0-1.157,0-1.763-.434-.062-.787-.152-1.066.375a2.032,2.032,0,0,1-2.388.92,2.134,2.134,0,0,1,.065-4.117,2.08,2.08,0,0,1,2.366.986.619.619,0,0,0,.65.375c1.529-.018,3.059-.008,4.653-.008v-.491c0-1.2,0-2.408,0-3.611,0-.641.25-.889.89-.891,1.112,0,2.224,0,3.39,0v-2.824c0-1.411.046-1.456,1.441-1.457q1.36,0,2.719-.009c.026,0,.052-.021.121-.052,0-1.048,0-2.114,0-3.179,0-.845.2-1.04,1.054-1.041h3.226v-.446c0-1.011-.006-2.021,0-3.032a.714.714,0,0,1,.8-.8q2.051-.011,4.1,0c.569,0,.8.285.8.932q0,7.8,0,15.6Zm-4.249-16.4v16.369h2.8V321.346Zm-4.287,4.271v12.088h2.794V325.618Zm-1.473,4.3h-2.8v7.793h2.8Zm-4.283,7.8V334.2h-2.8v3.522Zm-21.384-17.386-3.126,3.128c.813,0,1.654.023,2.493-.01a.641.641,0,0,0,.628-.687C392.652,321.95,392.641,321.136,392.641,320.332Zm10,17.406a.711.711,0,1,0,.7.708A.718.718,0,0,0,402.64,337.739Z" transform="translate(-386.93 -300.599)" fill="#344154"/>
      <path id="Trazado_143397" data-name="Trazado 143397" d="M547.33,143.1l-2.824,2.83c-.472.473-.94.951-1.42,1.418-1.378,1.34-.729,1.062-2.657,1.091-.742.011-1.485,0-2.276,0v12.813h-1.433v-12.81c-.5,0-.969-.021-1.435.016-.107.008-.215.207-.292.337a2.14,2.14,0,1,1-2.642-3.056,2.1,2.1,0,0,1,2.644.946.526.526,0,0,0,.538.334c1.843-.014,3.686,0,5.529-.015a.792.792,0,0,0,.509-.177c1.482-1.46,2.949-2.936,4.42-4.408a1.086,1.086,0,0,0,.092-.132,9.248,9.248,0,0,1-3.663-7.393,9.037,9.037,0,0,1,2.362-6.227A9.3,9.3,0,1,1,547.33,143.1Zm3.644-15.976c-2.831-.081-5.969,2.52-6.846,5.641a7.882,7.882,0,0,0,3.685,8.944,7.685,7.685,0,0,0,8.491-.555c-1.637-1.843-3.268-3.691-4.918-5.523a1.534,1.534,0,0,1-.421-1.12c.017-2.3.008-4.6.008-6.907Zm1.444,7.02h7.052a7.7,7.7,0,0,0-7.052-7.018Zm4.984,6.094a7.238,7.238,0,0,0,2.029-4.6h-6.12Zm-23.555,7.487a.711.711,0,1,0-.7.712A.718.718,0,0,0,533.847,147.73Z" transform="translate(-518.148 -125.577)" fill="#344154"/>
      <path id="Trazado_143398" data-name="Trazado 143398" d="M403.1,171.891c1.086-.93,2.152-1.832,3.2-2.757a.61.61,0,0,0,.081-.493,2.154,2.154,0,0,1,1.1-2.4,2.137,2.137,0,0,1,2.8,3.023,2.066,2.066,0,0,1-2.349.928.82.82,0,0,0-.9.206c-1.09.965-2.209,1.9-3.3,2.855a1.4,1.4,0,0,0-.352.535,2.11,2.11,0,0,1-1.843,1.47,2.015,2.015,0,0,1-2.069-1.105.492.492,0,0,0-.507-.311q-1.2.024-2.406,0a.457.457,0,0,0-.475.289,2.064,2.064,0,0,1-2.491,1.04.487.487,0,0,0-.574.156c-.517.533-1.038,1.063-1.577,1.574a.591.591,0,0,0-.18.691,1.973,1.973,0,0,1-.711,2.19,1.994,1.994,0,0,1-2.294.251,2.038,2.038,0,0,1-1.18-1.989,2.109,2.109,0,0,1,2.68-1.965.592.592,0,0,0,.689-.187c.523-.547,1.077-1.066,1.593-1.62a.607.607,0,0,0,.117-.485,2.15,2.15,0,0,1,3.961-1.631.6.6,0,0,0,.431.253c.816.024,1.634.02,2.451,0a.533.533,0,0,0,.389-.177C400.341,170.709,401.783,170.559,403.1,171.891Zm6.069-3.765a.711.711,0,1,0-.689.721A.715.715,0,0,0,409.169,168.125ZM393.48,173.1a.711.711,0,1,0,.734-.676A.718.718,0,0,0,393.48,173.1Zm7.853-.676a.71.71,0,1,0,.7.707A.716.716,0,0,0,401.333,172.42Zm-12.141,4.994a.71.71,0,1,0,.714.7A.715.715,0,0,0,389.192,177.414Z" transform="translate(-387.049 -162.391)" fill="#344154"/>
      <path id="Trazado_143399" data-name="Trazado 143399" d="M483.914,454.35v1.372h-8.505V454.35Z" transform="translate(-467.518 -425.029)" fill="#344154"/>
      <path id="Trazado_143400" data-name="Trazado 143400" d="M427.22,495.638v-1.371H434.3v1.371Z" transform="translate(-423.627 -461.386)" fill="#344154"/>
      <path id="Trazado_143402" data-name="Trazado 143402" d="M527.556,494.272v1.371h-4.23v-1.371Z" transform="translate(-511.162 -461.391)" fill="#344154"/>
      <path id="Trazado_143405" data-name="Trazado 143405" d="M430.146,455.677h-2.8V454.3h2.8Z" transform="translate(-423.742 -424.979)" fill="#344154"/>
      <path id="Trazado_143406" data-name="Trazado 143406" d="M427.391,534.185h2.792v1.388h-2.792Z" transform="translate(-423.783 -497.744)" fill="#344154"/>
      <path id="Trazado_143409" data-name="Trazado 143409" d="M419.048,346.845c0,.8.011,1.618,0,2.431a.641.641,0,0,1-.628.687c-.839.034-1.679.01-2.493.01Z" transform="translate(-413.336 -327.112)" fill="#fff"/>
      <path id="Trazado_143410" data-name="Trazado 143410" d="M555.746,542.02a.711.711,0,1,1-.719.691A.718.718,0,0,1,555.746,542.02Z" transform="translate(-540.035 -504.881)" fill="#fd9827"/>
      <path id="Trazado_143411" data-name="Trazado 143411" d="M548.446,366.73a.711.711,0,1,1-.7-.71A.719.719,0,0,1,548.446,366.73Z" transform="translate(-532.748 -344.577)" fill="#fff"/>
      <path id="Trazado_143412" data-name="Trazado 143412" d="M620.45,182.736a.711.711,0,1,1-.709-.7A.718.718,0,0,1,620.45,182.736Z" transform="translate(-598.33 -177.001)" fill="#fd9827"/>
      <path id="Trazado_143413" data-name="Trazado 143413" d="M459.029,238.707a.711.711,0,1,1,.664.744A.718.718,0,0,1,459.029,238.707Z" transform="translate(-452.598 -228.002)" fill="#fd9827"/>
      <path id="Trazado_143414" data-name="Trazado 143414" d="M539.753,238.036a.71.71,0,1,1-.719.691A.715.715,0,0,1,539.753,238.036Z" transform="translate(-525.47 -228.006)" fill="#fd9827"/>
      <path id="Trazado_143415" data-name="Trazado 143415" d="M403.744,294.036a.71.71,0,1,1-.706.7A.715.715,0,0,1,403.744,294.036Z" transform="translate(-401.601 -279.012)" fill="#fd9827"/>
    </g>
  </g>
</svg>
