<svg id="Grupo_70205" data-name="Grupo 70205" xmlns="http://www.w3.org/2000/svg" width="215.505" height="93.864" viewBox="0 0 215.505 93.864">
  <g id="Rectángulo_26234" data-name="Rectángulo 26234" fill="none" stroke="#a66d58" stroke-width="2">
    <rect width="215.505" height="67.046" rx="13" stroke="none"/>
    <rect x="1" y="1" width="213.505" height="65.046" rx="12" fill="none"/>
  </g>
  <g id="Grupo_70204" data-name="Grupo 70204" transform="translate(9.578 8.62)">
    <path id="Trazado_901050" data-name="Trazado 901050" d="M7.854,17a3.036,3.036,0,0,1-.2-.891,3.225,3.225,0,0,1-2.406,1.047,2.984,2.984,0,0,1-2.051-.707,2.287,2.287,0,0,1-.8-1.793,2.39,2.39,0,0,1,1-2.051,4.733,4.733,0,0,1,2.824-.73H7.628v-.664A1.623,1.623,0,0,0,7.175,10a1.821,1.821,0,0,0-1.336-.449,2.107,2.107,0,0,0-1.3.391,1.151,1.151,0,0,0-.523.945H2.565a2,2,0,0,1,.449-1.223,3.066,3.066,0,0,1,1.219-.934,4.1,4.1,0,0,1,1.691-.344,3.342,3.342,0,0,1,2.289.73,2.635,2.635,0,0,1,.859,2.012v3.891a4.757,4.757,0,0,0,.3,1.852V17Zm-2.4-1.1a2.54,2.54,0,0,0,1.289-.352,2.127,2.127,0,0,0,.883-.914V12.9H6.495q-2.656,0-2.656,1.555a1.316,1.316,0,0,0,.453,1.063A1.742,1.742,0,0,0,5.456,15.9Zm16.453-5.258H15.393V9.383h6.516Zm0,3.242H15.393v-1.25h6.516Z" transform="translate(0 14.367)" fill="#12263f"/>
    <path id="Trazado_901049" data-name="Trazado 901049" d="M9.688,13.391a4.185,4.185,0,0,1-1.332,2.785,4.365,4.365,0,0,1-2.98.98,4.008,4.008,0,0,1-3.23-1.445A5.815,5.815,0,0,1,.93,11.844V10.75A6.481,6.481,0,0,1,1.5,7.961,4.231,4.231,0,0,1,3.1,6.113a4.47,4.47,0,0,1,2.406-.645A4.11,4.11,0,0,1,8.414,6.48a4.235,4.235,0,0,1,1.273,2.8H8.18a3.268,3.268,0,0,0-.848-1.975A2.565,2.565,0,0,0,5.508,6.7,2.684,2.684,0,0,0,3.254,7.759a4.882,4.882,0,0,0-.816,3.026v1.1a5.018,5.018,0,0,0,.773,2.948A2.5,2.5,0,0,0,5.375,15.93a2.887,2.887,0,0,0,1.918-.566,3.143,3.143,0,0,0,.887-1.973Zm5.439,5.779a3.856,3.856,0,0,1-.506,2.2,1.8,1.8,0,0,1-1.581.72,1.812,1.812,0,0,1-1.572-.7,3.66,3.66,0,0,1-.529-2.1V18.158a3.77,3.77,0,0,1,.506-2.174,1.813,1.813,0,0,1,1.586-.711,1.829,1.829,0,0,1,1.577.686,3.638,3.638,0,0,1,.52,2.117Zm-.843-1.153a3.089,3.089,0,0,0-.3-1.561,1.035,1.035,0,0,0-.952-.49,1.022,1.022,0,0,0-.943.488,3.016,3.016,0,0,0-.305,1.5V19.3a3.139,3.139,0,0,0,.312,1.588,1.033,1.033,0,0,0,.946.513,1.019,1.019,0,0,0,.927-.483,3.025,3.025,0,0,0,.317-1.522Zm7.911-8.7-2.359-.7.359-1.178,2.359.874-.07-2.685h1.2L23.6,8.349l2.32-.859.359,1.186-2.4.71L25.428,11.5l-.969.734-1.453-2.25-1.406,2.2-.977-.711Z" transform="translate(25.861 14.367)" fill="#12263f"/>
    <path id="Trazado_901051" data-name="Trazado 901051" d="M66.811,17H65.365V8.547h1.445ZM65.248,6.3a.863.863,0,0,1,.215-.594.807.807,0,0,1,.637-.242.819.819,0,0,1,.641.242.854.854,0,0,1,.219.594.826.826,0,0,1-.219.586.834.834,0,0,1-.641.234.821.821,0,0,1-.637-.234A.834.834,0,0,1,65.248,6.3Z" transform="translate(58.426)" fill="#12263f"/>
    <path id="Trazado_901052" data-name="Trazado 901052" d="M26.438,12.383a12.079,12.079,0,0,1,.473-3.391,9.85,9.85,0,0,1,1.41-2.953,6,6,0,0,1,1.945-1.875l.3.953a6.222,6.222,0,0,0-1.871,2.672,11.583,11.583,0,0,0-.8,4.023l-.008.664a11.643,11.643,0,0,0,1.1,5.234,6.252,6.252,0,0,0,1.578,2.078l-.3.883a6.192,6.192,0,0,1-1.984-1.937A10.859,10.859,0,0,1,26.438,12.383ZM36.563,17H35.11V7.367L32.2,8.438V7.125L36.336,5.57h.227Zm7.391-4.242H40.141v-1.18h3.813Zm1.352-.375a12.079,12.079,0,0,1,.473-3.391,9.85,9.85,0,0,1,1.41-2.953,6,6,0,0,1,1.945-1.875l.3.953a6.222,6.222,0,0,0-1.871,2.672,11.583,11.583,0,0,0-.8,4.023l-.008.664a11.643,11.643,0,0,0,1.1,5.234,6.252,6.252,0,0,0,1.578,2.078l-.3.883a6.192,6.192,0,0,1-1.984-1.937A10.859,10.859,0,0,1,45.305,12.383ZM55.43,17H53.977V7.367l-2.914,1.07V7.125L55.2,5.57h.227Zm8.523-6.1h3.172v1.367H63.954v3.594H62.5V12.266H59.329V10.9H62.5V7.578h1.453Zm6.5,6.1H69.008V8.547h1.445ZM68.891,6.3a.863.863,0,0,1,.215-.594.807.807,0,0,1,.637-.242.819.819,0,0,1,.641.242A.854.854,0,0,1,70.6,6.3a.826.826,0,0,1-.219.586.834.834,0,0,1-.641.234.821.821,0,0,1-.637-.234A.834.834,0,0,1,68.891,6.3ZM76.1,12.461a12.084,12.084,0,0,1-.457,3.34,9.876,9.876,0,0,1-1.4,2.949,6.127,6.127,0,0,1-1.973,1.922l-.3-.883A6.281,6.281,0,0,0,73.9,16.926a12.387,12.387,0,0,0,.746-4.309v-.25a12.861,12.861,0,0,0-.344-3.051,10.3,10.3,0,0,0-.957-2.527,5.838,5.838,0,0,0-1.379-1.742l.3-.883A6.1,6.1,0,0,1,74.239,6.07a9.9,9.9,0,0,1,1.4,2.945A12.363,12.363,0,0,1,76.1,12.461Zm4.049-3.154a7.046,7.046,0,0,1,.276-1.978,5.745,5.745,0,0,1,.823-1.723,3.5,3.5,0,0,1,1.135-1.094l.173.556a3.629,3.629,0,0,0-1.091,1.559A6.756,6.756,0,0,0,81,8.974l0,.387a6.792,6.792,0,0,0,.643,3.053,3.647,3.647,0,0,0,.921,1.212l-.173.515a3.612,3.612,0,0,1-1.157-1.13A6.334,6.334,0,0,1,80.151,9.307Zm7.886-.273H83.472V8.345h4.566ZM90.3,7.069l.027.62A1.8,1.8,0,0,1,91.8,6.978q1.563,0,1.577,1.764V12h-.843V8.737a1.135,1.135,0,0,0-.244-.788.977.977,0,0,0-.745-.255,1.217,1.217,0,0,0-.72.219,1.485,1.485,0,0,0-.483.574V12H89.5V7.069Zm6.3,2.283a7.049,7.049,0,0,1-.267,1.948,5.761,5.761,0,0,1-.816,1.72,3.574,3.574,0,0,1-1.151,1.121l-.178-.515a3.664,3.664,0,0,0,1.128-1.67,7.226,7.226,0,0,0,.435-2.513V9.3a7.5,7.5,0,0,0-.2-1.78,6.006,6.006,0,0,0-.558-1.474,3.405,3.405,0,0,0-.8-1.016l.178-.515a3.56,3.56,0,0,1,1.146,1.112,5.773,5.773,0,0,1,.816,1.718A7.212,7.212,0,0,1,96.593,9.352Zm9.051,3.109a12.084,12.084,0,0,1-.457,3.34,9.876,9.876,0,0,1-1.4,2.949,6.127,6.127,0,0,1-1.973,1.922l-.3-.883a6.281,6.281,0,0,0,1.934-2.863,12.387,12.387,0,0,0,.746-4.309v-.25a12.861,12.861,0,0,0-.344-3.051,10.3,10.3,0,0,0-.957-2.527,5.838,5.838,0,0,0-1.379-1.742l.3-.883a6.1,6.1,0,0,1,1.965,1.906,9.9,9.9,0,0,1,1.4,2.945A12.363,12.363,0,0,1,105.644,12.461Z" transform="translate(58.426 30.65)" fill="#12263f"/>
    <line id="Línea_399" data-name="Línea 399" x2="123.556" transform="translate(65.07 26.339)" fill="none" stroke="#a66d58" stroke-width="2"/>
  </g>
  <g id="Grupo_1111820" data-name="Grupo 1111820" transform="translate(0 72.793)">
    <path id="Trazado_900407" data-name="Trazado 900407" d="M0,0H215.5V21.072H0Z" fill="#dee4f0"/>
    <path id="Trazado_901053" data-name="Trazado 901053" d="M6.17,9.918H2.292V14H1.073V4.758H6.8v1H2.292V8.922H6.17Zm6,3.4a2.494,2.494,0,0,1-2.012.806,2.135,2.135,0,0,1-1.673-.638A2.761,2.761,0,0,1,7.909,11.6V7.132H9.083v4.437q0,1.562,1.27,1.562a1.758,1.758,0,0,0,1.79-1v-5h1.174V14H12.2Zm5.776.806a3,3,0,0,1-2.272-.917,3.4,3.4,0,0,1-.876-2.453v-.216a4.121,4.121,0,0,1,.39-1.825,3.045,3.045,0,0,1,1.092-1.257A2.745,2.745,0,0,1,17.805,7a2.572,2.572,0,0,1,2.082.882,3.82,3.82,0,0,1,.743,2.526V10.9H15.977a2.441,2.441,0,0,0,.594,1.641,1.866,1.866,0,0,0,1.444.625,2.045,2.045,0,0,0,1.054-.254,2.648,2.648,0,0,0,.755-.673l.717.559A2.884,2.884,0,0,1,17.951,14.127ZM17.805,7.97a1.566,1.566,0,0,0-1.193.517,2.515,2.515,0,0,0-.6,1.45h3.44V9.849a2.237,2.237,0,0,0-.482-1.387A1.475,1.475,0,0,0,17.805,7.97ZM23.1,7.132,23.137,8A2.5,2.5,0,0,1,25.194,7q2.177,0,2.2,2.457V14H26.216V9.455a1.581,1.581,0,0,0-.34-1.1A1.361,1.361,0,0,0,24.838,8a1.7,1.7,0,0,0-1,.3,2.069,2.069,0,0,0-.673.8V14H21.988V7.132Zm7.655-1.663V7.132h1.282V8.04H30.754V12.3a.953.953,0,0,0,.171.62.721.721,0,0,0,.584.207,2.843,2.843,0,0,0,.559-.076V14a3.424,3.424,0,0,1-.9.126,1.462,1.462,0,0,1-1.187-.476,2.045,2.045,0,0,1-.4-1.352V8.04H28.33V7.132h1.25V5.469Zm5.5,8.658a3,3,0,0,1-2.272-.917,3.4,3.4,0,0,1-.876-2.453v-.216a4.121,4.121,0,0,1,.39-1.825,3.045,3.045,0,0,1,1.092-1.257A2.745,2.745,0,0,1,36.112,7a2.572,2.572,0,0,1,2.082.882,3.82,3.82,0,0,1,.743,2.526V10.9H34.284a2.441,2.441,0,0,0,.594,1.641,1.866,1.866,0,0,0,1.444.625,2.045,2.045,0,0,0,1.054-.254,2.648,2.648,0,0,0,.755-.673l.717.559A2.884,2.884,0,0,1,36.258,14.127ZM36.112,7.97a1.566,1.566,0,0,0-1.193.517,2.515,2.515,0,0,0-.6,1.45h3.44V9.849a2.237,2.237,0,0,0-.482-1.387A1.475,1.475,0,0,0,36.112,7.97Zm4.145,5.415a.735.735,0,0,1,.181-.508.689.689,0,0,1,.543-.2.71.71,0,0,1,.549.2.721.721,0,0,1,.187.508.681.681,0,0,1-.187.489.723.723,0,0,1-.549.2.653.653,0,0,1-.724-.686Zm.006-5.6a.735.735,0,0,1,.181-.508.689.689,0,0,1,.543-.2.71.71,0,0,1,.549.2.721.721,0,0,1,.187.508.681.681,0,0,1-.187.489.723.723,0,0,1-.549.2.653.653,0,0,1-.724-.686ZM48.42,4.758,51.441,12.3l3.021-7.541h1.581V14H54.825V10.4l.114-3.885L51.9,14h-.933L47.944,6.535l.121,3.866V14H46.846V4.758Zm12.441,9.369a3,3,0,0,1-2.272-.917,3.4,3.4,0,0,1-.876-2.453v-.216a4.121,4.121,0,0,1,.39-1.825A3.045,3.045,0,0,1,59.2,7.459,2.745,2.745,0,0,1,60.715,7a2.572,2.572,0,0,1,2.082.882,3.82,3.82,0,0,1,.743,2.526V10.9H58.887a2.441,2.441,0,0,0,.594,1.641,1.866,1.866,0,0,0,1.444.625,2.045,2.045,0,0,0,1.054-.254,2.648,2.648,0,0,0,.755-.673l.717.559A2.884,2.884,0,0,1,60.861,14.127ZM60.715,7.97a1.566,1.566,0,0,0-1.193.517,2.515,2.515,0,0,0-.6,1.45h3.44V9.849a2.237,2.237,0,0,0-.482-1.387A1.475,1.475,0,0,0,60.715,7.97ZM66,13.042h4.018V14H64.568v-.863L68.358,8.1H64.625V7.132h5.205v.832ZM75.582,14a2.467,2.467,0,0,1-.165-.724,2.62,2.62,0,0,1-1.955.851,2.424,2.424,0,0,1-1.666-.574,1.859,1.859,0,0,1-.651-1.457,1.942,1.942,0,0,1,.816-1.666,3.846,3.846,0,0,1,2.295-.594H75.4V9.3a1.319,1.319,0,0,0-.368-.981,1.48,1.48,0,0,0-1.085-.365,1.712,1.712,0,0,0-1.054.317.935.935,0,0,0-.425.768H71.284a1.621,1.621,0,0,1,.365-.993,2.491,2.491,0,0,1,.99-.759A3.331,3.331,0,0,1,74.014,7a2.715,2.715,0,0,1,1.86.594,2.141,2.141,0,0,1,.7,1.635v3.161a3.865,3.865,0,0,0,.241,1.5V14Zm-1.949-.9a2.064,2.064,0,0,0,1.047-.286,1.728,1.728,0,0,0,.717-.743V10.667h-.92q-2.158,0-2.158,1.263a1.069,1.069,0,0,0,.368.863A1.415,1.415,0,0,0,73.633,13.1Zm4.742,2.736-.667-.457a3.063,3.063,0,0,0,.622-1.714V12.61h1.149v.92a2.891,2.891,0,0,1-.314,1.282A3,3,0,0,1,78.375,15.841Zm13.1-6.164a5.717,5.717,0,0,1-.457,2.371,3.462,3.462,0,0,1-1.295,1.546,3.573,3.573,0,0,1-5.2-1.533,5.486,5.486,0,0,1-.479-2.3V9.093a5.649,5.649,0,0,1,.463-2.355,3.427,3.427,0,0,1,3.25-2.107,3.583,3.583,0,0,1,1.958.536,3.455,3.455,0,0,1,1.3,1.555,5.745,5.745,0,0,1,.457,2.371Zm-1.212-.6a4.144,4.144,0,0,0-.66-2.523,2.177,2.177,0,0,0-1.847-.879,2.154,2.154,0,0,0-1.819.879A4.059,4.059,0,0,0,85.255,9v.679a4.15,4.15,0,0,0,.67,2.5,2.347,2.347,0,0,0,3.672.051,4.126,4.126,0,0,0,.667-2.466Zm2.234,4.3a.735.735,0,0,1,.181-.508.689.689,0,0,1,.543-.2.71.71,0,0,1,.549.2.721.721,0,0,1,.187.508.681.681,0,0,1-.187.489.723.723,0,0,1-.549.2.653.653,0,0,1-.724-.686Zm10.67-8.626h1.225V11.3a2.711,2.711,0,0,1-.8,2.076,2.974,2.974,0,0,1-2.123.749,3.056,3.056,0,0,1-2.146-.7,2.544,2.544,0,0,1-.768-1.974h1.219a1.532,1.532,0,0,0,1.695,1.682,1.634,1.634,0,0,0,1.222-.476,1.844,1.844,0,0,0,.473-1.333Zm3.142,8.626a.735.735,0,0,1,.181-.508.689.689,0,0,1,.543-.2.71.71,0,0,1,.549.2.721.721,0,0,1,.187.508.681.681,0,0,1-.187.489.723.723,0,0,1-.549.2.653.653,0,0,1-.724-.686Zm6.8.616V4.758h2.609a4.2,4.2,0,0,1,2.133.533,3.606,3.606,0,0,1,1.431,1.517,4.938,4.938,0,0,1,.511,2.26v.59a4.955,4.955,0,0,1-.5,2.292,3.55,3.55,0,0,1-1.441,1.511,4.467,4.467,0,0,1-2.18.54Zm1.219-8.246V13h1.282a2.79,2.79,0,0,0,2.193-.877,3.622,3.622,0,0,0,.784-2.5V9.09a3.68,3.68,0,0,0-.74-2.449,2.632,2.632,0,0,0-2.1-.886Zm7.147,7.63a.735.735,0,0,1,.181-.508.689.689,0,0,1,.543-.2.71.71,0,0,1,.549.2.721.721,0,0,1,.187.508.681.681,0,0,1-.187.489.723.723,0,0,1-.549.2.653.653,0,0,1-.724-.686Zm10.67-8.626h1.225V11.3a2.711,2.711,0,0,1-.8,2.076,2.974,2.974,0,0,1-2.123.749,3.056,3.056,0,0,1-2.146-.7,2.544,2.544,0,0,1-.768-1.974h1.219a1.532,1.532,0,0,0,1.695,1.682,1.634,1.634,0,0,0,1.222-.476,1.844,1.844,0,0,0,.473-1.333Zm3.142,8.626a.735.735,0,0,1,.181-.508.689.689,0,0,1,.543-.2.71.71,0,0,1,.549.2.721.721,0,0,1,.187.508.682.682,0,0,1-.187.489.723.723,0,0,1-.549.2.653.653,0,0,1-.724-.686Zm6.57-3.136a9.814,9.814,0,0,1,.384-2.755,8,8,0,0,1,1.146-2.4,4.874,4.874,0,0,1,1.581-1.523l.241.774a5.056,5.056,0,0,0-1.52,2.171,9.411,9.411,0,0,0-.651,3.269l-.006.54a9.46,9.46,0,0,0,.9,4.253,5.079,5.079,0,0,0,1.282,1.688l-.241.717a5.031,5.031,0,0,1-1.612-1.574A8.823,8.823,0,0,1,141.857,10.249ZM152.28,14h-6.056v-.844l3.2-3.555A7.6,7.6,0,0,0,150.4,8.29a2.188,2.188,0,0,0,.27-1.044,1.658,1.658,0,0,0-.438-1.187,1.531,1.531,0,0,0-1.168-.463,1.814,1.814,0,0,0-1.362.5,1.9,1.9,0,0,0-.486,1.387h-1.174a2.726,2.726,0,0,1,.822-2.063,3.047,3.047,0,0,1,2.2-.787,2.928,2.928,0,0,1,2.038.676,2.306,2.306,0,0,1,.749,1.8,5.287,5.287,0,0,1-1.739,3.25l-2.476,2.685h4.64Zm7.04-3.942a5.371,5.371,0,0,1-.7,3.066,2.928,2.928,0,0,1-4.393.022,5.1,5.1,0,0,1-.736-2.929V8.649a5.251,5.251,0,0,1,.7-3.028,2.98,2.98,0,0,1,4.405-.035,5.068,5.068,0,0,1,.724,2.948Zm-1.174-1.606a4.3,4.3,0,0,0-.419-2.174A1.442,1.442,0,0,0,156.4,5.6a1.423,1.423,0,0,0-1.314.679,4.2,4.2,0,0,0-.425,2.088v1.879a4.372,4.372,0,0,0,.435,2.212,1.439,1.439,0,0,0,1.317.714A1.42,1.42,0,0,0,157.7,12.5a4.214,4.214,0,0,0,.441-2.12ZM164.684,14H163.5V6.173l-2.368.87V5.977L164.5,4.713h.184Zm7.3,0H170.8V6.173l-2.368.87V5.977L171.8,4.713h.184Zm6.271-3.688a9.819,9.819,0,0,1-.371,2.714,8.024,8.024,0,0,1-1.136,2.4,4.978,4.978,0,0,1-1.6,1.562l-.248-.717a5.1,5.1,0,0,0,1.571-2.326,10.065,10.065,0,0,0,.606-3.5v-.2a10.449,10.449,0,0,0-.279-2.479,8.366,8.366,0,0,0-.778-2.053,4.743,4.743,0,0,0-1.12-1.416l.248-.717a4.959,4.959,0,0,1,1.6,1.549,8.041,8.041,0,0,1,1.136,2.393A10.045,10.045,0,0,1,178.255,10.312Zm1.834,3.072a.735.735,0,0,1,.181-.508.689.689,0,0,1,.543-.2.71.71,0,0,1,.549.2.721.721,0,0,1,.187.508.682.682,0,0,1-.187.489.723.723,0,0,1-.549.2.653.653,0,0,1-.724-.686Z" transform="translate(9.578 3.831)" fill="#12263f"/>
  </g>
</svg>
