<svg xmlns="http://www.w3.org/2000/svg" width="610" height="82" viewBox="0 0 610 82">
  <g id="Grupo_70226" data-name="Grupo 70226" transform="translate(-180.438 -1176)">
    <g id="Grupo_70224" data-name="Grupo 70224" transform="translate(-9 5)">
      <path id="Trazado_901069" data-name="Trazado 901069" d="M15.2,15.008l3.25-9.383h1.641L15.875,17H14.547L10.336,5.625h1.633Zm7.914-2.461V17h-1.5V5.625h4.2a4.215,4.215,0,0,1,2.926.953A3.231,3.231,0,0,1,29.8,9.1a3.189,3.189,0,0,1-1.035,2.551,4.4,4.4,0,0,1-2.965.895Zm0-1.227h2.7a2.7,2.7,0,0,0,1.844-.567,2.075,2.075,0,0,0,.641-1.64,2.143,2.143,0,0,0-.641-1.628A2.525,2.525,0,0,0,25.9,6.852H23.117ZM40.453,17H38.945L33.219,8.234V17H31.711V5.625h1.508l5.742,8.8v-8.8h1.492ZM49.5,10.641H42.984V9.383H49.5Zm0,3.242H42.984v-1.25H49.5Zm9.141-1.125H54.828v-1.18h3.813ZM69.7,12.547V17H68.2V5.625h4.2a4.215,4.215,0,0,1,2.926.953A3.231,3.231,0,0,1,76.375,9.1a3.189,3.189,0,0,1-1.035,2.551,4.4,4.4,0,0,1-2.965.895Zm0-1.227h2.7a2.7,2.7,0,0,0,1.844-.567,2.075,2.075,0,0,0,.641-1.64,2.143,2.143,0,0,0-.641-1.628,2.525,2.525,0,0,0-1.758-.634H69.7ZM86.164,10.9h3.172v1.367H86.164v3.594H84.711V12.266H81.539V10.9h3.172V7.578h1.453Z" transform="translate(226.438 1202)" fill="#12263f"/>
      <path id="Trazado_901071" data-name="Trazado 901071" d="M11.164,10.9h3.172v1.367H11.164v3.594H9.711V12.266H6.539V10.9H9.711V7.578h1.453Z" transform="translate(453.438 1202)" fill="#12263f"/>
      <path id="Trazado_901074" data-name="Trazado 901074" d="M11.164,10.9h3.172v1.367H11.164v3.594H9.711V12.266H6.539V10.9H9.711V7.578h1.453Z" transform="translate(606.438 1202)" fill="#12263f"/>
      <path id="Trazado_901070" data-name="Trazado 901070" d="M59.3,11.977H54.528V17h-1.5V5.625h7.047V6.852H54.528v3.9H59.3ZM70.614,17H69.106L63.38,8.234V17H61.872V5.625H63.38l5.742,8.8v-8.8h1.492Zm9.094-5.258h-4.93v4.031H80.5V17H73.278V5.625h7.148V6.852H74.778v3.664h4.93ZM84.374,22h-.848V16.381l-1.7.624V16.24l2.415-.907h.132Z" transform="translate(314.438 1186)" fill="#12263f"/>
      <path id="Trazado_901073" data-name="Trazado 901073" d="M59.3,11.977H54.528V17h-1.5V5.625h7.047V6.852H54.528v3.9H59.3ZM70.614,17H69.106L63.38,8.234V17H61.872V5.625H63.38l5.742,8.8v-8.8h1.492Zm9.094-5.258h-4.93v4.031H80.5V17H73.278V5.625h7.148V6.852H74.778v3.664h4.93ZM85.95,22H81.6v-.606l2.3-2.552a5.457,5.457,0,0,0,.7-.941,1.571,1.571,0,0,0,.194-.75,1.19,1.19,0,0,0-.314-.852,1.1,1.1,0,0,0-.838-.333,1.3,1.3,0,0,0-.977.358,1.366,1.366,0,0,0-.349,1h-.843a1.957,1.957,0,0,1,.59-1.481,2.188,2.188,0,0,1,1.579-.565,2.1,2.1,0,0,1,1.463.485,1.655,1.655,0,0,1,.538,1.292A3.8,3.8,0,0,1,84.4,19.384l-1.777,1.928H85.95Z" transform="translate(467.438 1186)" fill="#12263f"/>
      <path id="Trazado_901076" data-name="Trazado 901076" d="M59.347,11.977H54.574V17h-1.5V5.625h7.047V6.852H54.574v3.9h4.773ZM70.66,17H69.152L63.425,8.234V17H61.917V5.625h1.508l5.742,8.8v-8.8H70.66Zm9.094-5.258h-4.93v4.031H80.55V17H73.324V5.625h7.148V6.852H74.824v3.664h4.93Zm2.779,5.327.027.62a1.8,1.8,0,0,1,1.476-.711q1.563,0,1.577,1.764V22H84.77V18.737a1.135,1.135,0,0,0-.244-.788.977.977,0,0,0-.745-.255,1.217,1.217,0,0,0-.72.219,1.485,1.485,0,0,0-.483.574V22h-.843V17.069Z" transform="translate(625.438 1186)" fill="#12263f"/>
      <path id="Trazado_901072" data-name="Trazado 901072" d="M42.712,12.383a12.079,12.079,0,0,1,.473-3.391,9.85,9.85,0,0,1,1.41-2.953A6,6,0,0,1,46.54,4.164l.3.953a6.222,6.222,0,0,0-1.871,2.672,11.583,11.583,0,0,0-.8,4.023l-.008.664a11.643,11.643,0,0,0,1.1,5.234,6.252,6.252,0,0,0,1.578,2.078l-.3.883a6.192,6.192,0,0,1-1.984-1.937A10.859,10.859,0,0,1,42.712,12.383ZM52.837,17H51.384V7.367L48.47,8.438V7.125L52.61,5.57h.227Zm8.523-6.1h3.172v1.367H61.36v3.594H59.907V12.266H56.735V10.9h3.172V7.578H61.36ZM74.376,6.852H70.72V17H69.227V6.852H65.579V5.625h8.8ZM84.595,11.68a7.037,7.037,0,0,1-.562,2.918,4.261,4.261,0,0,1-1.594,1.9,4.4,4.4,0,0,1-6.4-1.887,6.752,6.752,0,0,1-.59-2.832v-.82a6.953,6.953,0,0,1,.57-2.9,4.218,4.218,0,0,1,4-2.594,4.41,4.41,0,0,1,2.41.66,4.253,4.253,0,0,1,1.605,1.914,7.071,7.071,0,0,1,.563,2.918ZM83.1,10.945A5.1,5.1,0,0,0,82.29,7.84a2.68,2.68,0,0,0-2.273-1.082A2.651,2.651,0,0,0,77.778,7.84a5,5,0,0,0-.84,3v.836a5.107,5.107,0,0,0,.824,3.082,2.888,2.888,0,0,0,4.52.063,5.079,5.079,0,0,0,.82-3.035Zm6.852,1.516A12.084,12.084,0,0,1,89.5,15.8a9.876,9.876,0,0,1-1.4,2.949,6.127,6.127,0,0,1-1.973,1.922l-.3-.883a6.281,6.281,0,0,0,1.934-2.863,12.387,12.387,0,0,0,.746-4.309v-.25a12.861,12.861,0,0,0-.344-3.051A10.3,10.3,0,0,0,87.2,6.789a5.838,5.838,0,0,0-1.379-1.742l.3-.883A6.1,6.1,0,0,1,88.091,6.07a9.9,9.9,0,0,1,1.4,2.945A12.363,12.363,0,0,1,89.954,12.461ZM94.409,12h-.848V6.381l-1.7.624V6.24l2.415-.907h.132Z" transform="translate(314.438 1219)" fill="#12263f"/>
      <path id="Trazado_901075" data-name="Trazado 901075" d="M42.712,12.383a12.079,12.079,0,0,1,.473-3.391,9.85,9.85,0,0,1,1.41-2.953A6,6,0,0,1,46.54,4.164l.3.953a6.222,6.222,0,0,0-1.871,2.672,11.583,11.583,0,0,0-.8,4.023l-.008.664a11.643,11.643,0,0,0,1.1,5.234,6.252,6.252,0,0,0,1.578,2.078l-.3.883a6.192,6.192,0,0,1-1.984-1.937A10.859,10.859,0,0,1,42.712,12.383ZM52.837,17H51.384V7.367L48.47,8.438V7.125L52.61,5.57h.227Zm8.523-6.1h3.172v1.367H61.36v3.594H59.907V12.266H56.735V10.9h3.172V7.578H61.36ZM74.376,6.852H70.72V17H69.227V6.852H65.579V5.625h8.8ZM84.595,11.68a7.037,7.037,0,0,1-.562,2.918,4.261,4.261,0,0,1-1.594,1.9,4.4,4.4,0,0,1-6.4-1.887,6.752,6.752,0,0,1-.59-2.832v-.82a6.953,6.953,0,0,1,.57-2.9,4.218,4.218,0,0,1,4-2.594,4.41,4.41,0,0,1,2.41.66,4.253,4.253,0,0,1,1.605,1.914,7.071,7.071,0,0,1,.563,2.918ZM83.1,10.945A5.1,5.1,0,0,0,82.29,7.84a2.68,2.68,0,0,0-2.273-1.082A2.651,2.651,0,0,0,77.778,7.84a5,5,0,0,0-.84,3v.836a5.107,5.107,0,0,0,.824,3.082,2.888,2.888,0,0,0,4.52.063,5.079,5.079,0,0,0,.82-3.035Zm6.852,1.516A12.084,12.084,0,0,1,89.5,15.8a9.876,9.876,0,0,1-1.4,2.949,6.127,6.127,0,0,1-1.973,1.922l-.3-.883a6.281,6.281,0,0,0,1.934-2.863,12.387,12.387,0,0,0,.746-4.309v-.25a12.861,12.861,0,0,0-.344-3.051A10.3,10.3,0,0,0,87.2,6.789a5.838,5.838,0,0,0-1.379-1.742l.3-.883A6.1,6.1,0,0,1,88.091,6.07a9.9,9.9,0,0,1,1.4,2.945A12.363,12.363,0,0,1,89.954,12.461ZM95.986,12H91.638v-.606l2.3-2.552a5.457,5.457,0,0,0,.7-.941,1.571,1.571,0,0,0,.194-.75,1.19,1.19,0,0,0-.314-.852,1.1,1.1,0,0,0-.838-.333,1.3,1.3,0,0,0-.977.358,1.366,1.366,0,0,0-.349,1h-.843a1.957,1.957,0,0,1,.59-1.481,2.188,2.188,0,0,1,1.579-.565,2.1,2.1,0,0,1,1.463.485,1.655,1.655,0,0,1,.538,1.292,3.8,3.8,0,0,1-1.249,2.333l-1.777,1.928h3.331Z" transform="translate(467.438 1219)" fill="#12263f"/>
      <path id="Trazado_901077" data-name="Trazado 901077" d="M42.757,12.383a12.079,12.079,0,0,1,.473-3.391,9.85,9.85,0,0,1,1.41-2.953,6,6,0,0,1,1.945-1.875l.3.953a6.222,6.222,0,0,0-1.871,2.672,11.583,11.583,0,0,0-.8,4.023l-.008.664a11.643,11.643,0,0,0,1.1,5.234,6.252,6.252,0,0,0,1.578,2.078l-.3.883A6.192,6.192,0,0,1,44.6,18.734,10.859,10.859,0,0,1,42.757,12.383ZM52.882,17H51.429V7.367l-2.914,1.07V7.125L52.656,5.57h.227Zm8.523-6.1h3.172v1.367H61.406v3.594H59.953V12.266H56.781V10.9h3.172V7.578h1.453ZM74.421,6.852H70.765V17H69.273V6.852H65.624V5.625h8.8ZM84.64,11.68a7.037,7.037,0,0,1-.562,2.918,4.261,4.261,0,0,1-1.594,1.9,4.4,4.4,0,0,1-6.4-1.887,6.752,6.752,0,0,1-.59-2.832v-.82a6.953,6.953,0,0,1,.57-2.9,4.218,4.218,0,0,1,4-2.594,4.41,4.41,0,0,1,2.41.66,4.253,4.253,0,0,1,1.605,1.914,7.071,7.071,0,0,1,.563,2.918Zm-1.492-.734a5.1,5.1,0,0,0-.812-3.105,2.68,2.68,0,0,0-2.273-1.082A2.651,2.651,0,0,0,77.824,7.84a5,5,0,0,0-.84,3v.836a5.107,5.107,0,0,0,.824,3.082,2.888,2.888,0,0,0,4.52.063,5.079,5.079,0,0,0,.82-3.035ZM90,12.461a12.084,12.084,0,0,1-.457,3.34,9.876,9.876,0,0,1-1.4,2.949,6.127,6.127,0,0,1-1.973,1.922l-.3-.883A6.281,6.281,0,0,0,87.8,16.926a12.387,12.387,0,0,0,.746-4.309v-.25A12.861,12.861,0,0,0,88.2,9.316a10.3,10.3,0,0,0-.957-2.527,5.838,5.838,0,0,0-1.379-1.742l.3-.883A6.1,6.1,0,0,1,88.136,6.07a9.9,9.9,0,0,1,1.4,2.945A12.363,12.363,0,0,1,90,12.461Zm2.568-5.392.027.62a1.8,1.8,0,0,1,1.476-.711q1.563,0,1.577,1.764V12h-.843V8.737a1.135,1.135,0,0,0-.244-.788.977.977,0,0,0-.745-.255,1.217,1.217,0,0,0-.72.219,1.485,1.485,0,0,0-.483.574V12H91.77V7.069Z" transform="translate(625.438 1219)" fill="#12263f"/>
      <line id="Línea_419" data-name="Línea 419" x2="129" transform="translate(320.938 1214.5)" fill="none" stroke="#a66d58" stroke-width="2"/>
      <line id="Línea_420" data-name="Línea 420" x2="129" transform="translate(473.938 1214.5)" fill="none" stroke="#a66d58" stroke-width="2"/>
      <line id="Línea_421" data-name="Línea 421" x2="129" transform="translate(631.938 1214.5)" fill="none" stroke="#a66d58" stroke-width="2"/>
    </g>
    <g id="Rectángulo_31973" data-name="Rectángulo 31973" transform="translate(180.438 1176)" fill="none" stroke="#a66d58" stroke-width="2">
      <rect width="610" height="82" rx="13" stroke="none"/>
      <rect x="1" y="1" width="608" height="80" rx="12" fill="none"/>
    </g>
  </g>
</svg>
