<svg xmlns="http://www.w3.org/2000/svg" xmlns:xlink="http://www.w3.org/1999/xlink" width="505" height="591.813" viewBox="0 0 505 591.813">
  <defs>
    <linearGradient id="linear-gradient" x1="0.409" y1="0.1" x2="0.692" y2="0.973" gradientUnits="objectBoundingBox">
      <stop offset="0" stop-color="#412976"/>
      <stop offset="1" stop-color="#21153b"/>
    </linearGradient>
  </defs>
  <g id="Grupo_1111889" data-name="Grupo 1111889" transform="translate(-179.839 -1642.383)">
    <rect id="Rectángulo_404552" data-name="Rectángulo 404552" width="453" height="253" rx="11" transform="translate(206.125 1962.472)" fill="url(#linear-gradient)"/>
    <g id="Grupo_70318" data-name="Grupo 70318" transform="translate(179.839 1642.383)">
      <g id="Grupo_70229" data-name="Grupo 70229" transform="translate(0 4.342)">
        <rect id="Rectángulo_31121" data-name="Rectángulo 31121" width="505" height="587.472" fill="none"/>
      </g>
      <g id="freepik--background-complete--inject-46" transform="translate(12.352 0)">
        <path id="Trazado_117267" data-name="Trazado 117267" d="M13601.151,6284.887c1.626-1.4,5.261-5.827,2.46-10.974-1.03-1.894-3.212-2.831-5.147-3.654a21.128,21.128,0,0,1-5.693-2.956c-3.088-2.614-3.933-6.979-5.98-10.479-2.348-4.015-6.732-7.021-11.323-6.815-5.3.248-9.729,4.581-11.736,9.522s-2.059,10.428-2.12,15.76c0,2.955.113,6.28,2.275,8.235,2,1.843,5,1.863,7.71,1.781l29-.9" transform="translate(-13345.751 -5703.625)" fill="#a66d58"/>
        <path id="Trazado_117268" data-name="Trazado 117268" d="M13544.818,6206.43h76.261l-13.743,81.911a9.128,9.128,0,0,1-6.5,7.289l-.269.071c-.227.062-.442.134-.68.175a9.786,9.786,0,0,1-1.545.186v.071l-.371-.062H13564a9.4,9.4,0,0,1-1.863-.186,9.163,9.163,0,0,1-7.711-8l-6.63-56.433-.3-2.245h0l-2.625-22.359Zm14.412,52.253h7.823l-.792-23.78h-9.068Zm-2.79-23.78h-7.494l2.77,23.831h6.732Zm22.35,50.123.483-20.65h-11.324l.69,20.65Zm12.188-20.65h-10.952l-.474,20.65h9.82Zm-.844,20.65h9.142c.865-5.569,2.06-12.816,3.232-20.65H13591.7Zm1.267-26.292,1.843-23.78h-12.56l-.546,23.78Zm-12.023,0,.556-23.78H13567l.782,23.78Zm.68-29.473.515-22.02h-14.515l.73,22.02Zm.762,0h12.868l1.719-22.02h-14.082Zm13.63,0h13.62c.483-3.088.946-5.919,1.359-8.513,1.42-8.895,1.956-12.25,2.243-13.506h-15.514Zm-.442,5.693-1.843,23.78h11.23c.381-2.419.762-4.859,1.143-7.3.886-5.611,1.771-11.221,2.605-16.471Zm10.14,23.78h7.36l3.984-23.78h-7.6c-1.206,7.31-2.441,15.472-3.779,23.78Zm-.9,5.692c-1.122,7.144-2.224,14.2-3.232,20.65h7.113l3.46-20.65Zm-35.382,20.65-.689-20.65h-7.524l1.76,20.65Zm-1.853-55.816-.731-22.02h-10.521l1.885,22.02Zm46.324-22.02c-.3,1.6-1.688,10.294-3.552,22.02h7.711l3.7-22.02Zm-57.587,77.835h5.95l-1.771-20.65h-6.547Zm-6.548-55.816h7.67l-1.874-22.02h-8.379Z" transform="translate(-13344.905 -5704.907)" fill="#e2dacc"/>
        <rect id="Rectángulo_10374" data-name="Rectángulo 10374" width="39.736" height="78.772" transform="translate(133.516 75.877)" fill="#e2dacc"/>
        <rect id="Rectángulo_10375" data-name="Rectángulo 10375" width="42.937" height="78.772" transform="translate(89.034 75.877)" fill="#e2dacc"/>
        <rect id="Rectángulo_10376" data-name="Rectángulo 10376" width="42.937" height="76.116" transform="translate(89.034 183.875)" fill="#e2dacc"/>
        <path id="Trazado_117269" data-name="Trazado 117269" d="M14186.49,6122.472H14141.3v-69.878h-1.544v69.878H14102.9V6051.04h83.589Z" transform="translate(-14102.901 -6051.04)" fill="#e2dacc"/>
        <rect id="Rectángulo_10377" data-name="Rectángulo 10377" width="36.802" height="78.772" transform="translate(0.051 75.877)" fill="#e2dacc"/>
        <rect id="Rectángulo_10378" data-name="Rectángulo 10378" width="36.802" height="76.116" transform="translate(0.051 183.875)" fill="#e2dacc"/>
        <rect id="Rectángulo_10379" data-name="Rectángulo 10379" width="39.736" height="76.116" transform="translate(133.516 183.875)" fill="#e2dacc"/>
        <rect id="Rectángulo_10380" data-name="Rectángulo 10380" width="45.223" height="76.116" transform="translate(38.366 183.875)" fill="#e2dacc"/>
        <rect id="Rectángulo_10381" data-name="Rectángulo 10381" width="39.736" height="68.591" transform="translate(133.516 306.458)" fill="#e2dacc"/>
        <rect id="Rectángulo_10382" data-name="Rectángulo 10382" width="36.802" height="68.591" transform="translate(0.051 276.992)" fill="#e2dacc"/>
        <path id="Trazado_117270" data-name="Trazado 117270" d="M14060.271,6122.472v-69.878h-1.544v69.878H14015.8V6051.04h84.207v71.432Z" transform="translate(-13926.755 -6051.04)" fill="#e2dacc"/>
        <rect id="Rectángulo_10383" data-name="Rectángulo 10383" width="45.223" height="68.591" transform="translate(38.366 276.992)" fill="#e2dacc"/>
        <rect id="Rectángulo_10384" data-name="Rectángulo 10384" width="42.937" height="68.591" transform="translate(89.034 276.992)" fill="#e2dacc"/>
        <rect id="Rectángulo_10385" data-name="Rectángulo 10385" width="45.223" height="78.772" transform="translate(38.366 75.877)" fill="#e2dacc"/>
        <g id="Grupo_1111893" data-name="Grupo 1111893" transform="translate(356.788 138.387)">
          <path id="Trazado_117271" data-name="Trazado 117271" d="M13431.736,6046.9a5.473,5.473,0,0,0,6.682-3.792l12.265-45.84a4.515,4.515,0,0,0-3.363-5.418l-4.3-1.152a4.69,4.69,0,0,1-3.431-3.542l-.418-2.125a4.691,4.691,0,0,0-3.428-3.542l-20.435-5.459a4.721,4.721,0,0,0-4.432,1.042l-1.391,1.321a4.761,4.761,0,0,1-4.431,1.027l-26.031-6.944a4.5,4.5,0,0,0-5.557,3.014l-12.5,46.784a5.448,5.448,0,0,0,3.847,6.668Z" transform="translate(-13360.774 -5972.079)" fill="#e2dacc"/>
          <path id="Trazado_117272" data-name="Trazado 117272" d="M13406.4,5980.107l16.57,4.417,2.251-2.375a5.875,5.875,0,0,1,5.82-1.542l16.184,4.348a5.221,5.221,0,0,1,3.9,6.279l-.5,1.889-13.334,49.673a5.96,5.96,0,0,1-7.418,3.959h0l-65.772-17.67a5.946,5.946,0,0,1-4.445-7.126h0l12.611-46.9a3.922,3.922,0,0,1,4.792-2.778h0Z" transform="translate(-13359.467 -5972.155)" fill="#fd9827"/>
        </g>
        <g id="Grupo_1111892" data-name="Grupo 1111892" transform="translate(210.243 70.59)">
          <path id="Trazado_117273" data-name="Trazado 117273" d="M13619.756,5983.754a5.7,5.7,0,0,0,4.188-6.853l-11.578-47.921a4.7,4.7,0,0,0-5.777-3.278l-4.508,1.089a4.892,4.892,0,0,1-4.9-1.543l-1.445-1.722a4.851,4.851,0,0,0-4.891-1.53l-21.4,5.166a4.9,4.9,0,0,0-3.586,3.145l-.646,1.925a4.972,4.972,0,0,1-3.588,3.146l-27.268,6.589a4.7,4.7,0,0,0-3.588,5.55l11.84,49.034a5.668,5.668,0,0,0,6.83,4.186h0Z" transform="translate(-13530.577 -5918.162)" fill="#e2dacc"/>
          <path id="Trazado_117274" data-name="Trazado 117274" d="M13564.578,5935.274l17.342-4.233.85-3.277a6.144,6.144,0,0,1,4.567-4.341l16.959-4.15a5.444,5.444,0,0,1,6.7,3.8l.479,1.973,12.569,52.048a6.2,6.2,0,0,1-4.785,7.32l-68.886,16.635a6.2,6.2,0,0,1-7.606-4.317l-11.874-49.166a4.078,4.078,0,0,1,3-4.927h0Z" transform="translate(-13530.773 -5919.076)" fill="#fd9827"/>
        </g>
        <g id="Grupo_1111890" data-name="Grupo 1111890" transform="translate(302.154 0)">
          <path id="Trazado_117275" data-name="Trazado 117275" d="M13510.148,5944.588a7.27,7.27,0,0,0,8-6.41l6.8-62.61a6,6,0,0,0-5.525-6.452h0l-5.881-.653a6.206,6.206,0,0,1-5.225-3.962l-.98-2.721a6.237,6.237,0,0,0-5.229-3.963l-27.955-3.074a6.234,6.234,0,0,0-5.609,2.246l-1.619,2.027a6.316,6.316,0,0,1-5.607,2.26l-35.633-3.92a6,6,0,0,0-6.807,5.077h0l-7.037,63.971a7.217,7.217,0,0,0,6.385,7.989h0Z" transform="translate(-13411.806 -5854.694)" fill="#e2dacc"/>
          <path id="Trazado_117276" data-name="Trazado 117276" d="M13463.95,5861l22.609,2.437,2.436-3.553a7.841,7.841,0,0,1,7.377-3.253l22.213,2.437a6.97,6.97,0,0,1,6.412,7.473l-.287,2.586-7.473,68.054a7.907,7.907,0,0,1-8.9,6.642l-89.994-9.895a7.91,7.91,0,0,1-7.283-8.493h0l7.066-64.229a5.2,5.2,0,0,1,5.742-4.614h0Z" transform="translate(-13410.794 -5854.021)" fill="#f2e9e4"/>
          <path id="Trazado_117277" data-name="Trazado 117277" d="M13460.382,5893.889a8.8,8.8,0,0,1-4.314-8.656,8.261,8.261,0,1,1,16.521-.081,8.933,8.933,0,0,1-.189,1.81,8.794,8.794,0,0,1-6.109,7.581c12.385,3.281,10.316,16.919,10.316,16.919l-29.822-3.13S13447.589,5894.406,13460.382,5893.889Z" transform="translate(-13411.171 -5846.665)" fill="#e2dacc"/>
        </g>
        <path id="Trazado_117278" data-name="Trazado 117278" d="M13390.367,5914.006a12.287,12.287,0,0,0-3.145-.951l-.963-2.9-5.025.5-.371,3.026a11.685,11.685,0,0,0-2.9,1.563l-2.732-1.366-3.189,3.9,1.869,2.4a12,12,0,0,0-.953,3.147l-2.883.972.5,5.016,3.025.382a12.275,12.275,0,0,0,1.551,2.9l-1.365,2.776,3.9,3.2,2.4-1.879a13.19,13.19,0,0,0,3.158.95l.961,2.9,5.059-.557.383-3.027a13.3,13.3,0,0,0,2.895-1.584l2.732,1.355,3.191-3.9-1.881-2.4a12.225,12.225,0,0,0,.951-3.146l2.9-.973-.5-5.015-3.025-.372a11.917,11.917,0,0,0-1.551-2.907l1.355-2.72-3.9-3.2Zm-1.877,6.982a5.463,5.463,0,1,1-7.648.81h0a5.46,5.46,0,0,1,7.668-.809Z" transform="translate(-12962.522 -5815.629)" fill="#5ab4f9"/>
        <path id="Trazado_117279" data-name="Trazado 117279" d="M13375.943,6101.437a3.844,3.844,0,0,1-1.235-.206,2.469,2.469,0,0,1-1.514-1.812c-.061-.34-.092-.721-.143-1.112-.4-3.191-.969-7.751-1.678-13.383l-.566-4.426c-.093-.772-.2-1.554-.3-2.357l-.154-1.2a5.865,5.865,0,0,1-.092-1.184,2.336,2.336,0,0,1,1.256-1.842,2.962,2.962,0,0,1,1.183-.3l1.318-.174,5.445-.7,24.265-3.16a2.3,2.3,0,0,1,2.367,1.3,2.973,2.973,0,0,1,.205.689l.1.792c.072.525.134,1.03.206,1.575.268,2.059.546,4.118.813,6.176.546,4.056,1.029,7.968,1.554,11.7.124.927.248,1.843.36,2.749a2.321,2.321,0,0,1-1.029,2.059,2.391,2.391,0,0,1-1.144.4l-1.286.174-2.532.339-9.266,1.246-13.382,1.843-3.623.525-.937.154a.859.859,0,0,0-.319.072h.319l.947-.092,3.644-.432,13.383-1.668,9.265-1.184,2.533-.33,1.286-.165a2.82,2.82,0,0,0,2.563-3.017c-.113-.917-.226-1.843-.35-2.78-.483-3.727-1.029-7.638-1.524-11.694q-.4-3.089-.812-6.177c-.062-.525-.134-1.029-.206-1.575l-.1-.793a2.961,2.961,0,0,0-.247-.844,2.838,2.838,0,0,0-2.935-1.595l-24.252,3.2-5.446.731-1.317.175a3.474,3.474,0,0,0-1.327.351,2.791,2.791,0,0,0-1.5,2.2,5.371,5.371,0,0,0,.1,1.287,8.076,8.076,0,0,0,.165,1.214c.1.8.207,1.585.319,2.357.206,1.534.4,3.006.6,4.417l1.843,13.382c.061.391.092.751.164,1.112a2.628,2.628,0,0,0,1.658,1.884,2.243,2.243,0,0,0,.946.145,1.779,1.779,0,0,0,.4-.052Z" transform="translate(-12953.363 -5764.827)" fill="#e2dacc"/>
        <path id="Trazado_117280" data-name="Trazado 117280" d="M13372.095,6096.956a3.544,3.544,0,0,0,.309-.391l.792-1.184c.711-1.112,1.668-2.594,2.831-4.385l1.936-3.088.524-.824a.752.752,0,0,1,.679-.329c.278,0,.465.186.753.432l.823.71,1.7,1.452a3.829,3.829,0,0,0,.506.381,1.3,1.3,0,0,0,.709.134,1.148,1.148,0,0,0,.67-.288,2.108,2.108,0,0,0,.248-.268l.164-.248,2.7-4.118,1.369-2.059.67-1.029a.73.73,0,0,1,.762-.349.613.613,0,0,1,.38.194l.413.412.824.813,1.595,1.575,5.519,5.435,3.768,3.665,1.029.967a.246.246,0,0,0,.383.3.247.247,0,0,0-.3-.387l-1.028-1.03-3.635-3.747c-1.564-1.585-3.407-3.449-5.436-5.518l-1.585-1.585-.813-.823-.423-.412a1.133,1.133,0,0,0-.646-.34,1.243,1.243,0,0,0-1.3.577l-.672,1.029-1.369,2.059-2.7,4.118a.845.845,0,0,1-1.03.544.855.855,0,0,1-.464-.359l-1.708-1.441-.833-.689a2.834,2.834,0,0,0-.433-.35,1.1,1.1,0,0,0-.607-.2,1.2,1.2,0,0,0-1.029.546c-.185.288-.359.565-.524.843l-1.884,3.088-2.687,4.478-.711,1.235C13372.2,6096.791,13372.095,6096.946,13372.095,6096.956Z" transform="translate(-12950.235 -5763.565)" fill="#e2dacc"/>
        <path id="Trazado_117281" data-name="Trazado 117281" d="M13390.247,6080.106a3.662,3.662,0,0,1,.1-.741,2.993,2.993,0,0,1,.916-1.689,2.863,2.863,0,0,1,2.615-.7,2.811,2.811,0,0,1,2.109,3.366,2.841,2.841,0,0,1-1.421,1.852,2.881,2.881,0,0,1-2.717,0,3.09,3.09,0,0,1-1.317-1.39c-.2-.433-.237-.7-.289-.69a1.388,1.388,0,0,0,.1.762,3,3,0,0,0,1.317,1.646,3.274,3.274,0,0,0,4.9-3.256,3.286,3.286,0,0,0-2.631-2.8,3.193,3.193,0,0,0-2.984.917,2.97,2.97,0,0,0-.812,1.966,1.344,1.344,0,0,0,.1.752Z" transform="translate(-12961.182 -5766.332)" fill="#e2dacc"/>
        <g id="Grupo_1111891" data-name="Grupo 1111891" transform="translate(210.243 16.793)">
          <path id="Trazado_117282" data-name="Trazado 117282" d="M13548.756,5908.658a3.7,3.7,0,0,1-1.352.366,2.875,2.875,0,0,1-1.593-.436,2.529,2.529,0,0,1-.767-.722c-.22-.309-.425-.687-.654-1.054l-7.807-12.815-2.59-4.241c-.459-.733-.917-1.49-1.387-2.292l-.711-1.146a6.514,6.514,0,0,1-.628-1.146,2.588,2.588,0,0,1,.434-2.453,3.389,3.389,0,0,1,1.064-.836l1.262-.768,5.2-3.209,23.223-14.282a2.545,2.545,0,0,1,3.5.848h0l.471.756.951,1.536c1.237,1.995,2.465,3.966,3.657,5.9,2.406,3.874,4.722,7.611,6.877,11.175l1.616,2.625a2.626,2.626,0,0,1-1.021,3.541l-1.236.769-2.406,1.489-8.745,5.444-12.724,8.024-3.437,2.189-.882.574-.287.217.321-.16.917-.527,3.5-2.1,12.813-7.875,8.792-5.41,2.429-1.479,1.238-.768a3.326,3.326,0,0,0,1.146-1.147,3.083,3.083,0,0,0,.08-3.14c-.527-.883-1.065-1.765-1.615-2.659l-6.878-11.187-3.656-5.925-.929-1.5-.459-.757a4,4,0,0,0-.64-.745,3.166,3.166,0,0,0-3.715-.286l-23.165,14.327-5.193,3.232-1.26.78a3.54,3.54,0,0,0-1.146.962,3.065,3.065,0,0,0-.5,2.913,5.353,5.353,0,0,0,.687,1.261l.723,1.146c.47.769.94,1.513,1.4,2.293.905,1.467,1.788,2.876,2.625,4.218l7.886,12.7c.252.378.447.733.688,1.066a2.963,2.963,0,0,0,2.545,1.146,2.726,2.726,0,0,0,1.032-.286A2.781,2.781,0,0,0,13548.756,5908.658Z" transform="translate(-13530.688 -5862.579)" fill="#5ab4f9"/>
          <path id="Trazado_117283" data-name="Trazado 117283" d="M13549.432,5882.126l-2.12,4.241a1.149,1.149,0,0,0,1.146,1.731l4.825-.149,4.688-.138a1.215,1.215,0,0,0,1.147-1.284,1.263,1.263,0,0,0-.2-.573l-2.647-4.045-2.67-4.081a1.14,1.14,0,0,0-2.076.126Z" transform="translate(-13528.269 -5860.438)" fill="#5ab4f9"/>
        </g>
      </g>
      <g id="freepik--filing-cabinet--inject-46" transform="translate(222.448 225.914)">
        <rect id="Rectángulo_10387" data-name="Rectángulo 10387" width="156.452" height="365.622" transform="translate(58.295)" fill="#8454ee"/>
        <g id="Grupo_59925" data-name="Grupo 59925" transform="translate(171.975)" opacity="0.3">
          <rect id="Rectángulo_10388" data-name="Rectángulo 10388" width="42.773" height="365.622" fill="#344154"/>
        </g>
        <path id="Trazado_117302" data-name="Trazado 117302" d="M13448.026,6035.321v-19.807c0-12.621.072-30.718.113-52.717l-.216.216,102.057.051h0l-.267-.267v72.533l.237-.247-73.573.124-20.979.062h-.1l20.918.072,73.738.124h.247V5962.53h-102.551v.216c.051,22.05.093,40.147.113,52.861,0,6.29,0,11.21.062,14.577v3.809a3.067,3.067,0,0,0,.2,1.328Z" transform="translate(-13384.09 -5937.999)" fill="#344154"/>
        <g id="Grupo_59926" data-name="Grupo 59926" transform="translate(93.214 69.404)" opacity="0.3">
          <rect id="Rectángulo_10389" data-name="Rectángulo 10389" width="41.548" height="7.031" fill="#344154"/>
        </g>
        <g id="Grupo_59927" data-name="Grupo 59927" transform="translate(78.215 102.809)" opacity="0.4">
          <rect id="Rectángulo_10390" data-name="Rectángulo 10390" width="88.973" height="69.126" fill="#344154"/>
        </g>
        <path id="Trazado_117303" data-name="Trazado 117303" d="M13456.759,6041.23h16.954l1.029-1.7a3.693,3.693,0,0,1,3.2-1.833h12.445a3.717,3.717,0,0,1,3.717,3.531h4.437a3.479,3.479,0,0,1,3.479,3.479h0v8.626h-48.692v-8.626a3.469,3.469,0,0,1,3.43-3.479Z" transform="translate(-13341.762 -5935.786)" fill="#e2dacc"/>
        <path id="Trazado_117304" data-name="Trazado 117304" d="M13465.468,6041.23h16.9l1.029-1.7a3.67,3.67,0,0,1,3.2-1.833h12.444a3.7,3.7,0,0,1,3.706,3.531h4.447a3.47,3.47,0,0,1,3.47,3.479v8.626h-48.682v-8.626a3.48,3.48,0,0,1,3.479-3.479Z" transform="translate(-13359.325 -5935.786)" fill="#e2dacc"/>
        <path id="Trazado_117305" data-name="Trazado 117305" d="M13476.75,6041.23h16.913l1.029-1.7a3.716,3.716,0,0,1,3.211-1.833h12.437a3.7,3.7,0,0,1,3.707,3.531h4.436a3.479,3.479,0,0,1,3.479,3.479h0v8.626h-48.682v-8.626a3.469,3.469,0,0,1,3.471-3.48Z" transform="translate(-13382.239 -5935.786)" fill="#e2dacc"/>
        <path id="Trazado_117306" data-name="Trazado 117306" d="M13543.531,6086.26V6044.8a3.582,3.582,0,0,0-3.736-3.417h-3.572a3.769,3.769,0,0,1-3.386-2l-.773-1.523a3.758,3.758,0,0,0-3.388-1.987h-16.954a3.778,3.778,0,0,0-3.223,1.688l-.833,1.287a3.853,3.853,0,0,1-3.212,1.688h-21.618a3.571,3.571,0,0,0-3.735,3.417v42.3Z" transform="translate(-13409.799 -5935.84)" fill="#fd9827"/>
        <g id="Grupo_59928" data-name="Grupo 59928" transform="translate(69.301 100.039)" opacity="0.3">
          <path id="Trazado_117307" data-name="Trazado 117307" d="M13543.531,6086.26V6044.8a3.582,3.582,0,0,0-3.736-3.417h-3.572a3.769,3.769,0,0,1-3.386-2l-.773-1.523a3.758,3.758,0,0,0-3.388-1.987h-16.954a3.778,3.778,0,0,0-3.223,1.688l-.833,1.287a3.853,3.853,0,0,1-3.212,1.688h-21.618a3.571,3.571,0,0,0-3.735,3.417v42.3Z" transform="translate(-13479.1 -6035.879)" fill="#344154"/>
        </g>
        <path id="Trazado_117308" data-name="Trazado 117308" d="M13554.12,6053.075V6020.36a4.877,4.877,0,0,0-4.869-4.89h-52.161a4.879,4.879,0,0,0-4.89,4.89h0v31.809Z" transform="translate(-13433.874 -5936.441)" fill="#ffbf9d"/>
        <path id="Trazado_117309" data-name="Trazado 117309" d="M13558.62,6062.741v-41.486a3.589,3.589,0,0,0-3.735-3.428h-3.553a3.777,3.777,0,0,1-3.4-1.987l-.762-1.523a3.763,3.763,0,0,0-3.4-2h-16.956a3.8,3.8,0,0,0-3.212,1.688l-.833,1.287a3.819,3.819,0,0,1-3.223,1.688h-21.617a3.572,3.572,0,0,0-3.736,3.418v42.3Z" transform="translate(-13440.433 -5936.533)" fill="#fd9827"/>
        <path id="Trazado_117310" data-name="Trazado 117310" d="M13558.958,6062.746h-4.766l-13.249-.062-46.417-.124.247.247v-41.3a11.9,11.9,0,0,1,0-1.481,3.084,3.084,0,0,1,1.617-2.214,3.517,3.517,0,0,1,1.246-.422,10.464,10.464,0,0,1,1.378,0h20.745a4.308,4.308,0,0,0,1.4-.216,3.967,3.967,0,0,0,2.183-1.709l.71-1.112a3.244,3.244,0,0,1,.822-.9,3.627,3.627,0,0,1,2.276-.731h17.387a3.524,3.524,0,0,1,1.986.906c1.091.937,1.2,2.831,2.625,3.768a4.183,4.183,0,0,0,2.223.771h2.234a18.542,18.542,0,0,1,2.142,0,3.463,3.463,0,0,1,1.822.813,3.084,3.084,0,0,1,1.027,1.637,10.7,10.7,0,0,1,.094,2.008v7.8c0,9.955.072,18.015.1,23.615v.124c0-5.611.062-13.691.1-23.677v-7.854a10.266,10.266,0,0,0-.093-2.12,3.547,3.547,0,0,0-.957-1.895,4.119,4.119,0,0,0-2.059-.916,19.7,19.7,0,0,0-2.214-.062h-2.213a3.691,3.691,0,0,1-1.978-.688c-1.255-.793-1.306-2.554-2.573-3.748a4.115,4.115,0,0,0-2.243-1.03c-.845-.072-1.605,0-2.419,0h-15.029a4.036,4.036,0,0,0-2.585.823,3.611,3.611,0,0,0-.945,1.03l-.721,1.112a3.474,3.474,0,0,1-1.9,1.493,3.608,3.608,0,0,1-1.238.186H13499a7.753,7.753,0,0,0-1.463.051,4.109,4.109,0,0,0-1.43.484,3.664,3.664,0,0,0-1.874,2.594,11.167,11.167,0,0,0,0,1.565v41.476h.247l46.572-.124,13.2-.062h4.375Z" transform="translate(-13440.771 -5936.539)" fill="#344154"/>
        <path id="Trazado_117311" data-name="Trazado 117311" d="M13509.5,6016.008a87.676,87.676,0,0,0,13.692,0A87.676,87.676,0,0,0,13509.5,6016.008Z" transform="translate(-13420.754 -5936.433)" fill="#ffbf9d"/>
        <path id="Trazado_117312" data-name="Trazado 117312" d="M13586.479,6079.679v-41.424c0-1.884-1.894-3.418-4.23-3.418h-4.036a4.4,4.4,0,0,1-3.829-1.987l-.874-1.5a4.371,4.371,0,0,0-3.829-1.987h-19.158a4.435,4.435,0,0,0-3.644,1.688l-.937,1.287a4.547,4.547,0,0,1-3.635,1.689h-24.388c-2.336,0-4.22,1.534-4.22,3.417v42.289Z" transform="translate(-13488.366 -5936.032)" fill="#fd9827"/>
        <path id="Trazado_117313" data-name="Trazado 117313" d="M13586.984,6079.688h-5.414l-15.029-.072-52.367-.113.247.247v-42.67a3.085,3.085,0,0,1,1.534-2.2,4.736,4.736,0,0,1,2.79-.658h23.677a5.458,5.458,0,0,0,2.872-.648,4.327,4.327,0,0,0,1.162-.948c.319-.4.567-.761.855-1.152a3.838,3.838,0,0,1,2.06-1.626,6.76,6.76,0,0,1,2.646-.289h18.457a4.431,4.431,0,0,1,2.232.71,3.475,3.475,0,0,1,.866.783,9.372,9.372,0,0,1,.617,1.029c.206.36.391.7.617,1.03a3.945,3.945,0,0,0,.875.927,4.958,4.958,0,0,0,2.284.925c1.637.1,3.089,0,4.674,0a4.219,4.219,0,0,1,3.694,1.75,3.079,3.079,0,0,1,.443,1.967v6.238c0,10.7.083,19.343.1,25.354v.114c0-6.022.062-14.7.1-25.417v-6.259a3.622,3.622,0,0,0-.493-2.192,4.694,4.694,0,0,0-4.047-1.956c-1.5,0-3.088,0-4.612-.062a4.381,4.381,0,0,1-2.059-.843,5.135,5.135,0,0,1-1.37-1.864,11.932,11.932,0,0,0-.657-1.03,3.575,3.575,0,0,0-.97-.875,4.916,4.916,0,0,0-2.459-.8h-18.529a7.048,7.048,0,0,0-2.821.319,4.357,4.357,0,0,0-2.265,1.8c-.277.37-.556.771-.823,1.122a3.968,3.968,0,0,1-1.029.823,4.966,4.966,0,0,1-2.625.577h-23.677a5.3,5.3,0,0,0-3.087.731,3.555,3.555,0,0,0-1.771,2.615v42.886h.247l52.5-.124,15.092-.144h5.457Z" transform="translate(-13488.87 -5936.041)" fill="#344154"/>
        <path id="Trazado_117314" data-name="Trazado 117314" d="M13530.238,6033.468a152.931,152.931,0,0,0,18.077,0A152.514,152.514,0,0,0,13530.238,6033.468Z" transform="translate(-13467.228 -5935.918)" fill="#ffbf9d"/>
        <rect id="Rectángulo_10391" data-name="Rectángulo 10391" width="64.751" height="55.816" transform="translate(102.438 116.624)" fill="#8454ee"/>
        <g id="Grupo_59929" data-name="Grupo 59929" transform="translate(102.438 116.624)" opacity="0.3">
          <rect id="Rectángulo_10392" data-name="Rectángulo 10392" width="64.751" height="55.816" fill="#344154"/>
        </g>
        <rect id="Rectángulo_10393" data-name="Rectángulo 10393" width="102.068" height="72.534" transform="translate(0.37 101.903)" fill="#8454ee"/>
        <path id="Trazado_117315" data-name="Trazado 117315" d="M13509.706,6110.233v-19.775c0-12.621.072-30.729.113-52.717l-.216.216,102.057.051h0l-.268-.268v72.523l.248-.237-73.573.113-20.979.072h-.1l20.918.062,73.738.124h.3V6037.36h-102.552v.227c0,22.05.093,40.148.114,52.851,0,6.29,0,11.211.061,14.577v3.809a9.9,9.9,0,0,0,.145,1.41Z" transform="translate(-13509.388 -5935.796)" fill="#344154"/>
        <g id="Grupo_59930" data-name="Grupo 59930" transform="translate(22.245 149.679)" opacity="0.3">
          <rect id="Rectángulo_10394" data-name="Rectángulo 10394" width="47.354" height="7.031" fill="#344154"/>
        </g>
        <path id="Trazado_117316" data-name="Trazado 117316" d="M13448.026,6188.714V6168.9c0-12.621.072-30.729.113-52.717l-.216.216,102.057.051h0l-.267-.267v72.533l.237-.247-73.573.124-20.979.062h-.1l20.918.062,73.738.124h.247V6115.8h-.277l-102.058.051h-.216v.216c.051,22.05.093,40.148.113,52.851,0,6.3,0,11.221.062,14.587v3.809A4.2,4.2,0,0,0,13448.026,6188.714Z" transform="translate(-13384.09 -5933.488)" fill="#344154"/>
        <g id="Grupo_59931" data-name="Grupo 59931" transform="translate(91.588 227.267)" opacity="0.3">
          <rect id="Rectángulo_10395" data-name="Rectángulo 10395" width="43.174" height="7.031" fill="#344154"/>
        </g>
        <path id="Trazado_117317" data-name="Trazado 117317" d="M13447.968,6265.4v-19.817c0-12.62.072-30.718.113-52.717l-.216.216h102.057l-.267-.268v72.534l.237-.248-73.573.124-20.979.062h-.072l20.918.062,73.737.124h.248V6192.38h-102.552v.216c.051,22.05.092,40.148.113,52.861,0,6.29,0,11.211.062,14.577v3.809a5.746,5.746,0,0,0,.176,1.553Z" transform="translate(-13384.031 -5931.234)" fill="#344154"/>
        <g id="Grupo_59932" data-name="Grupo 59932" transform="translate(91.588 306.204)" opacity="0.3">
          <rect id="Rectángulo_10396" data-name="Rectángulo 10396" width="43.174" height="7.031" fill="#344154"/>
        </g>
      </g>
      <g id="freepik--speech-bubble--inject-46" transform="translate(47.543 42.664)">
        <path id="Trazado_117334" data-name="Trazado 117334" d="M13685.859,5928.3a4.26,4.26,0,1,0,4.258-4.259A4.258,4.258,0,0,0,13685.859,5928.3Z" transform="translate(-13613.635 -5863.407)" fill="#ffbf9d"/>
        <path id="Trazado_117335" data-name="Trazado 117335" d="M13685.687,5928.348a9.33,9.33,0,0,1,.256-1,4.257,4.257,0,0,1,1.566-2.191,4.03,4.03,0,0,1,3.85-.516,3.966,3.966,0,0,1,0,7.429,4.028,4.028,0,0,1-3.848-.513,4.364,4.364,0,0,1-1.566-2.194c-.191-.628-.2-1.013-.256-1.013a1.962,1.962,0,0,0,0,1.078,4.232,4.232,0,0,0,1.541,2.566,4.464,4.464,0,0,0,4.273.717,4.554,4.554,0,0,0,0-8.582,4.385,4.385,0,0,0-4.271.719,4.182,4.182,0,0,0-1.539,2.565,1.542,1.542,0,0,0,0,.935Z" transform="translate(-13613.461 -5863.457)" fill="#344154"/>
        <circle id="Elipse_4276" data-name="Elipse 4276" cx="35.241" cy="35.241" r="35.241" transform="translate(0.039 0.261)" fill="#ffbf9d"/>
        <path id="Trazado_117336" data-name="Trazado 117336" d="M13693.544,5912.29a2.616,2.616,0,0,0,.064-.564l.127-1.68a12.8,12.8,0,0,1,.076-1.283,11.549,11.549,0,0,1,.219-1.463,26.679,26.679,0,0,1,.744-3.629,33.722,33.722,0,0,1,3.848-9.328,35,35,0,0,1,42.016-14.919,37.856,37.856,0,0,1,4.555,2c.73.41,1.436.873,2.168,1.283a16.824,16.824,0,0,1,2.117,1.45,34.355,34.355,0,0,1,7.439,7.517,33.753,33.753,0,0,1,4.992,9.622,34.656,34.656,0,0,1,0,22.041,33.869,33.869,0,0,1-4.992,9.621,39.81,39.81,0,0,1-3.426,4.041,41.377,41.377,0,0,1-3.949,3.374,20.22,20.22,0,0,1-2.119,1.449c-.73.436-1.436.911-2.166,1.283a40.036,40.036,0,0,1-4.553,2,34.924,34.924,0,0,1-41.967-14.906,33.949,33.949,0,0,1-3.846-9.34,27.394,27.394,0,0,1-.744-3.631c-.078-.525-.18-1.012-.219-1.461s-.064-.86-.078-1.283l-.127-1.667a2.737,2.737,0,0,0-.062-.578v3.541a12.289,12.289,0,0,0,.189,1.488,25.577,25.577,0,0,0,.7,3.657,33.07,33.07,0,0,0,3.85,9.455,35.369,35.369,0,0,0,42.539,15.306,38.337,38.337,0,0,0,4.645-2.028c.756-.41,1.477-.885,2.219-1.283a20.3,20.3,0,0,0,2.145-1.475,32.483,32.483,0,0,0,7.529-7.543,34.419,34.419,0,0,0,5.131-9.8,35.391,35.391,0,0,0,0-22.451,34.48,34.48,0,0,0-5.135-9.8,42.74,42.74,0,0,0-3.486-4.119,39.174,39.174,0,0,0-4.068-3.4,16.88,16.88,0,0,0-2.141-1.476c-.746-.436-1.477-.911-2.221-1.282a36.237,36.237,0,0,0-4.645-2.027,35.036,35.036,0,0,0-42.539,15.176,32.751,32.751,0,0,0-3.85,9.455,24.9,24.9,0,0,0-.7,3.669c-.061.526-.152,1.026-.189,1.475s0,.873,0,1.283v1.643a1.245,1.245,0,0,1-.092.59Z" transform="translate(-13693.544 -5876.776)" fill="#344154"/>
        <path id="Trazado_117337" data-name="Trazado 117337" d="M13722.155,5914.856a10.674,10.674,0,1,0-10.676-10.673,10.673,10.673,0,0,0,10.676,10.673Zm0-20.051a9.39,9.39,0,1,1-9.393,9.39h0a9.379,9.379,0,0,1,9.393-9.39Z" transform="translate(-13684.949 -5872.042)" fill="#5ab4f9"/>
        <rect id="Rectángulo_10401" data-name="Rectángulo 10401" width="1.283" height="10.404" transform="matrix(-0.809, -0.588, 0.588, -0.809, 26.118, 49.368)" fill="#5ab4f9"/>
        <path id="Trazado_117338" data-name="Trazado 117338" d="M13716.721,5898.76a6.146,6.146,0,0,1-1.053,8.621,6.476,6.476,0,0,1-.785.526" transform="translate(-13674.514 -5870.558)" fill="#ffbf9d"/>
        <path id="Trazado_117339" data-name="Trazado 117339" d="M13714.6,5907.915a3.415,3.415,0,0,0,1.4-.757,5.958,5.958,0,0,0,1.475-7.146,2.933,2.933,0,0,0-1-1.282s.26.563.566,1.437a6.618,6.618,0,0,1,.27,3.5,6.82,6.82,0,0,1-1.627,3.118C13714.988,5907.492,13714.475,5907.813,13714.6,5907.915Z" transform="translate(-13674.193 -5870.567)" fill="#344154"/>
      </g>
      <g id="freepik--Character--inject-46" transform="translate(105.361 185.9)">
        <path id="Trazado_117340" data-name="Trazado 117340" d="M13623.752,5997.8c1.533-27.568,13.855-40.384,17.5-61.931,1.812-10.819,1.348-21.9,9.018-29.729,2.759-2.821,7.905-5.724,11.828-6.177,2.142-.268,5.477-.186,7.422.731,3.635-.535,5.261-.71,7.823,0a21.564,21.564,0,0,1,9.266,5.61c5.466,6.671,6.588,15.843,6.681,24.47a143.743,143.743,0,0,1-5.754,41.239,5.847,5.847,0,0,1-1.925,3.387,5.658,5.658,0,0,1-4.119.422,82.732,82.732,0,0,1-15.564-4.056,5.442,5.442,0,0,1-1.977-1.03c-1.389-1.42-.8-3.768-.165-5.651l-13.969-11.952c.927,8.318,3.6,16.337,4.787,24.614a69.746,69.746,0,0,1-2.267,29.606,44.746,44.746,0,0,0-16.47-.371c-1.307.207-3.437,10.573-4.6,9.925C13629.1,6015.723,13623.546,6000.107,13623.752,5997.8Z" transform="translate(-13620.376 -5899.83)" fill="#344154"/>
        <path id="Trazado_117341" data-name="Trazado 117341" d="M13651.5,5906.362l-3.963-.442-15.133,6.094a4.232,4.232,0,0,0-3.994,4.118l.134,49.32a13.818,13.818,0,0,0,2.667,8.9l2.13,2.81c4.849,6.394,14.813,5.868,18.654-1.184a5.811,5.811,0,0,0,.535-1.276,8.314,8.314,0,0,0,.226-1.1,35.047,35.047,0,0,0,.474-7.4c.267-4.366.359-6.178.359-6.105s9.265-1.029,11.777-12.971c1.245-5.92,1.441-15.72,1.338-23.739C13666.63,5916.152,13660.453,5906.353,13651.5,5906.362Z" transform="translate(-13598.606 -5899.651)" fill="#ffbe9d"/>
        <path id="Trazado_117342" data-name="Trazado 117342" d="M13634.277,5932.041a1.565,1.565,0,0,1-1.564,1.482,1.474,1.474,0,0,1-1.514-1.431h0a1.536,1.536,0,0,1,1.554-1.482,1.474,1.474,0,0,1,1.524,1.441Z" transform="translate(-13569.034 -5898.924)" fill="#344154"/>
        <path id="Trazado_117343" data-name="Trazado 117343" d="M13649.275,5931.041a1.545,1.545,0,0,1-1.565,1.482,1.473,1.473,0,0,1-1.511-1.432h0a1.533,1.533,0,0,1,1.554-1.482,1.472,1.472,0,0,1,1.524,1.42Z" transform="translate(-13599.474 -5898.954)" fill="#344154"/>
        <path id="Trazado_117344" data-name="Trazado 117344" d="M13636.776,5927.731c-.2.2-1.318-.731-2.975-.8s-2.914.68-3.089.473.124-.453.67-.8a4.214,4.214,0,0,1,2.48-.638,4.113,4.113,0,0,1,2.357.9C13636.776,5927.278,13636.88,5927.648,13636.776,5927.731Z" transform="translate(-13571.02 -5899.062)" fill="#344154"/>
        <path id="Trazado_117345" data-name="Trazado 117345" d="M13651.963,5926.9c-.206.186-1.3-.762-2.955-.9s-2.923.607-3.088.391.134-.443.7-.782a4.191,4.191,0,0,1,4.829.4C13651.86,5926.451,13652.066,5926.821,13651.963,5926.9Z" transform="translate(-13601.853 -5899.089)" fill="#344154"/>
        <path id="Trazado_117346" data-name="Trazado 117346" d="M13637.318,5939.785a11.029,11.029,0,0,1,2.719-.349c.422,0,.822-.083.9-.371a2.062,2.062,0,0,0-.215-1.266c-.35-1.029-.711-2.131-1.092-3.284-1.5-4.663-2.572-8.493-2.377-8.555s1.555,3.675,3.088,8.349l1.029,3.294a2.415,2.415,0,0,1,.145,1.677,1.034,1.034,0,0,1-.73.577,2.872,2.872,0,0,1-.721.062,10.268,10.268,0,0,1-2.748-.135Z" transform="translate(-13582.577 -5899.062)" fill="#344154"/>
        <path id="Trazado_117347" data-name="Trazado 117347" d="M13657.054,5958.625a30.757,30.757,0,0,1-15.853-5.085s3.622,8.5,15.688,7.978Z" transform="translate(-13602.104 -5898.249)" fill="#eb996e"/>
        <path id="Trazado_117348" data-name="Trazado 117348" d="M13647.077,5943.276a2.964,2.964,0,0,0-2.625-1.245,2.662,2.662,0,0,0-1.926.915,1.7,1.7,0,0,0-.235,1.967,2.059,2.059,0,0,0,2.141.659,6.405,6.405,0,0,0,2.184-1.163,1.78,1.78,0,0,0,.494-.463.557.557,0,0,0,0-.617" transform="translate(-13593.158 -5898.588)" fill="#eb996e"/>
        <path id="Trazado_117349" data-name="Trazado 117349" d="M13641.6,5940.24c.267,0,.185,1.792,1.657,3.15s3.4,1.246,3.4,1.5-.442.329-1.256.309a4.537,4.537,0,0,1-2.841-1.153,3.884,3.884,0,0,1-1.267-2.635C13641.289,5940.693,13641.5,5940.24,13641.6,5940.24Z" transform="translate(-13591.796 -5898.641)" fill="#344154"/>
        <path id="Trazado_117350" data-name="Trazado 117350" d="M13652.576,5921.059c-.248.4-1.627-.154-3.356-.34s-3.222,0-3.346-.453c0-.206.278-.566.938-.854a5.059,5.059,0,0,1,2.646-.36,5.008,5.008,0,0,1,2.459.958C13652.474,5920.461,13652.68,5920.884,13652.576,5921.059Z" transform="translate(-13602.465 -5899.266)" fill="#344154"/>
        <path id="Trazado_117351" data-name="Trazado 117351" d="M13635.891,5921.633c-.309.371-1.431-.083-2.8-.165s-2.543.124-2.8-.288c-.1-.2.1-.556.628-.9a3.776,3.776,0,0,1,2.308-.495,3.859,3.859,0,0,1,2.2.865C13635.891,5921.036,13635.993,5921.458,13635.891,5921.633Z" transform="translate(-13569.721 -5899.244)" fill="#344154"/>
        <path id="Trazado_117352" data-name="Trazado 117352" d="M13672.017,5935.558c0-.885-.886-3.088-1.76-3.233-2.337-.484-6.6-.5-6.938,5.477-.464,8.173,7.844,6.949,7.875,6.722S13671.811,5938.646,13672.017,5935.558Z" transform="translate(-13639.817 -5898.88)" fill="#ffbe9d"/>
        <path id="Trazado_117353" data-name="Trazado 117353" d="M13669.838,5941.188a2.211,2.211,0,0,1-.392.186,1.368,1.368,0,0,1-1.029,0c-.844-.37-1.492-1.78-1.451-3.263a4.62,4.62,0,0,1,.515-2.058,1.631,1.631,0,0,1,1.131-1.031.732.732,0,0,1,.824.443c.093.237,0,.391.072.412s.186-.134.144-.474a.928.928,0,0,0-.3-.525,1.034,1.034,0,0,0-.772-.257,2.061,2.061,0,0,0-1.564,1.184,4.818,4.818,0,0,0-.617,2.254c0,1.647.711,3.243,1.874,3.645a1.523,1.523,0,0,0,1.318-.144A.441.441,0,0,0,13669.838,5941.188Z" transform="translate(-13640.831 -5898.807)" fill="#eb996e"/>
        <path id="Trazado_117354" data-name="Trazado 117354" d="M13626.307,5924.166c-.576-3.263.648-7.833,1.492-11.015a11.867,11.867,0,0,1,4.9-6.435,19.884,19.884,0,0,1,12.354-3.727l1.636.536c2.419-.2,5,.319,6.332,2.275h0v-2.192c4.406.545,8.235,3.458,10.8,7.082s3.974,7.906,5.147,12.188c-5.405-4.838-11.263-10.181-15.771-15.884-4.725,6.177-11.725,10.15-18.107,14.772a23.665,23.665,0,0,0-1.412,9.389c0,8.029-1.7,15.287-2.325,23.306-.359,4.623-.329,8.575-5.055,8.174C13625.688,5947.832,13628.88,5938.711,13626.307,5924.166Z" transform="translate(-13598.534 -5899.738)" fill="#344154"/>
        <path id="Trazado_117355" data-name="Trazado 117355" d="M13658,5923.068a7.805,7.805,0,0,0,2.275.411,22.852,22.852,0,0,0,5.559-.215,26.712,26.712,0,0,0,5.345-1.544,8.608,8.608,0,0,0,2.059-1.03c-.073-.175-3.274,1.318-7.5,2.059S13658,5922.832,13658,5923.068Z" transform="translate(-13635.579 -5899.216)" fill="#8454ee"/>
        <path id="Trazado_117356" data-name="Trazado 117356" d="M13641.99,5919.042a7.949,7.949,0,0,0,1.307-.083c.845-.083,2.06-.257,3.531-.535a60.525,60.525,0,0,0,21.71-8.8c1.246-.833,2.244-1.554,2.9-2.058a.671.671,0,1,0-.082-.165c-.7.474-1.719,1.133-2.985,1.925a69.069,69.069,0,0,1-21.618,8.75c-1.462.319-2.656.556-3.489.7A5.164,5.164,0,0,0,13641.99,5919.042Z" transform="translate(-13618.335 -5899.628)" fill="#8454ee"/>
        <path id="Trazado_117357" data-name="Trazado 117357" d="M13624.372,5919.609a7.992,7.992,0,0,0,1.884,2.193,8.414,8.414,0,0,0,2.256,1.821,8,8,0,0,0-1.885-2.2,7.787,7.787,0,0,0-2.254-1.812Z" transform="translate(-13556.246 -5899.248)" fill="#8454ee"/>
        <path id="Trazado_117358" data-name="Trazado 117358" d="M13558.085,5972.582c-.916-1.6-.226-8.123-.226-8.123l2.12,3.819c4.478,1.74,10.634,4.221,12.353,5.435,2.584,1.812,6.084,9.45,6.084,9.45l21.618,27.362,40.405-7.082,3.8,20.29-13.649,2.831-24.007,3.088c-6.742,1.452-13.3,1.987-18.529-2.44l-.36-.7c1.9,27.28-.721,57.36-1.616,84.681a14.871,14.871,0,0,1-1.144,6.26c-1.379,2.7-6.485,4.117-9.48,3.715s-2.06-2.316-2.687-5.271c-.35-1.616,1.163-3.86,1.359-5.5q4.417-35.619,8.822-71.226c.093-1.462.2-2.821.3-4.025,1.029-12.549,1.184-15.936.628-21.68C13583,6004.607,13564.262,5983.36,13558.085,5972.582Z" transform="translate(-13503.238 -5897.928)" fill="#fd9827"/>
        <path id="Trazado_117359" data-name="Trazado 117359" d="M13611.263,5989.57a5.862,5.862,0,0,0,.617,1.235c.433.763,1.029,1.895,1.7,3.315a55.94,55.94,0,0,1,5.568,23.77c0,1.575,0,2.852-.05,3.727a6.033,6.033,0,0,0,0,1.379,8.856,8.856,0,0,0,.209-1.358c.133-1.246.215-2.5.225-3.748a50.579,50.579,0,0,0-5.612-23.975,35.245,35.245,0,0,0-1.862-3.263,6.156,6.156,0,0,0-.791-1.082Z" transform="translate(-13533.77 -5897.189)" fill="#344154"/>
        <g id="Grupo_59938" data-name="Grupo 59938" transform="translate(80.274 97.106)" opacity="0.3">
          <path id="Trazado_117360" data-name="Trazado 117360" d="M13608.583,5994.16c3.149,4.561,6.063,9.46,7.453,14.855s.515,8.452.638,14.113l-3.242.731C13614.141,6013.708,13613.832,6007.007,13608.583,5994.16Z" transform="translate(-13608.583 -5994.16)" fill="#344154"/>
        </g>
        <path id="Trazado_117361" data-name="Trazado 117361" d="M13640.227,6009.779a2.451,2.451,0,0,0,0-.535c-.062-.34-.093-.865-.247-1.514a42.011,42.011,0,0,0-1.658-5.384,159.867,159.867,0,0,0-7.68-16.882c-.947-1.833-1.884-3.6-2.811-5.292l-.072-.134h-.155l-3.406-.062.226.35a3.292,3.292,0,0,1,1.328-1.493l.237-.155-.185-.206a78.116,78.116,0,0,0-7.307-7.68c-.949-.864-1.722-1.523-2.257-1.966a5.149,5.149,0,0,0-.854-.647,5.807,5.807,0,0,0,.753.761l2.16,2.059a92.81,92.81,0,0,1,7.134,7.762l.061-.35a3.751,3.751,0,0,0-1.524,1.7l-.164.34h.381l3.407.092-.216-.133c.905,1.678,1.843,3.448,2.789,5.281,3.3,6.434,6.095,12.353,7.8,16.769a49.911,49.911,0,0,1,1.8,5.3,17.613,17.613,0,0,0,.455,2.019Z" transform="translate(-13558.718 -5897.819)" fill="#344154"/>
        <path id="Trazado_117362" data-name="Trazado 117362" d="M13693.707,6247.008l-13.269,21.361s17.253,20.671,15.184,24.851l-42.35-24.243,19.363-34.136Z" transform="translate(-13653.272 -5889.972)" fill="#fd9827"/>
        <path id="Trazado_117363" data-name="Trazado 117363" d="M13680.824,6258.352a1.977,1.977,0,0,0-2.326,1.287,1.915,1.915,0,0,0,1.256,2.316,2.058,2.058,0,0,0,2.449-1.379,1.977,1.977,0,0,0-1.576-2.265" transform="translate(-13665.61 -5889.281)" fill="#e2dacc"/>
        <g id="Grupo_59939" data-name="Grupo 59939" transform="translate(0.08 375.638)" opacity="0.6">
          <path id="Trazado_117364" data-name="Trazado 117364" d="M13653.025,6268.1l2.059-3.366,39.85,24.511s1.42,1.894.442,3.088Z" transform="translate(-13653.025 -6264.73)" fill="#ffbf9d"/>
        </g>
        <path id="Trazado_117365" data-name="Trazado 117365" d="M13672.58,6267.61c-.124.206-1.215-.288-2.6-.206s-2.44.638-2.584.443.845-1.2,2.542-1.277S13672.786,6267.445,13672.58,6267.61Z" transform="translate(-13644.602 -5889.038)" fill="#344154"/>
        <path id="Trazado_117366" data-name="Trazado 117366" d="M13668.645,6271.854c-.072.227-1.163.062-2.367.535s-1.936,1.287-2.142,1.153.34-1.37,1.843-1.925S13668.747,6271.648,13668.645,6271.854Z" transform="translate(-13637.269 -5888.896)" fill="#344154"/>
        <path id="Trazado_117367" data-name="Trazado 117367" d="M13661.1,6278.488c-.216-.072.093-1.266,1.267-2.059s2.409-.731,2.4-.5-.957.484-1.915,1.173S13661.308,6278.58,13661.1,6278.488Z" transform="translate(-13630.241 -5888.767)" fill="#344154"/>
        <path id="Trazado_117368" data-name="Trazado 117368" d="M13669.5,6262.6c-.2.133-1.029-.69-2.192-1.277s-2.336-.751-2.348-1.029,1.287-.474,2.707.236S13669.709,6262.5,13669.5,6262.6Z" transform="translate(-13639.055 -5889.23)" fill="#344154"/>
        <path id="Trazado_117369" data-name="Trazado 117369" d="M13658.862,6255.2l-1.431,25.118s25.046,9.883,25.231,14.546l-48.784-1.029.617-39.222Z" transform="translate(-13620.179 -5889.389)" fill="#fd9827"/>
        <path id="Trazado_117370" data-name="Trazado 117370" d="M13672.2,6277.241a2.06,2.06,0,0,0-1.432,2.254,1.935,1.935,0,0,0,2.215,1.431,2.131,2.131,0,0,0,1.5-2.388,2,2,0,0,0-2.472-1.235" transform="translate(-13649.99 -5888.724)" fill="#e2dacc"/>
        <g id="Grupo_59940" data-name="Grupo 59940" transform="translate(13.67 400.499)" opacity="0.6">
          <path id="Trazado_117371" data-name="Trazado 117371" d="M13633.907,6292.833l.216-3.953,46.675,2.429s2.151,1.029,1.873,2.512Z" transform="translate(-13633.907 -6288.88)" fill="#ffbf9d"/>
        </g>
        <path id="Trazado_117372" data-name="Trazado 117372" d="M13662.2,6279.357c0,.237-1.2.319-2.389,1.03s-1.832,1.729-2.059,1.636.165-1.472,1.616-2.347S13662.306,6279.141,13662.2,6279.357Z" transform="translate(-13624.238 -5888.669)" fill="#344154"/>
        <path id="Trazado_117373" data-name="Trazado 117373" d="M13656.023,6281.513c0,.236-1.029.618-1.822,1.606s-1.029,2.059-1.317,2.059-.36-1.369.689-2.574S13656.023,6281.286,13656.023,6281.513Z" transform="translate(-13612.913 -5888.601)" fill="#344154"/>
        <path id="Trazado_117374" data-name="Trazado 117374" d="M13648.338,6287.636c-.216,0-.524-1.153.113-2.44s1.771-1.792,1.863-1.585-.607.875-1.112,1.946S13648.544,6287.616,13648.338,6287.636Z" transform="translate(-13602.448 -5888.538)" fill="#344154"/>
        <path id="Trazado_117375" data-name="Trazado 117375" d="M13663.051,6273.786c-.1.216-1.185-.144-2.532-.072s-2.409.463-2.532.257.905-1.029,2.5-1.091S13663.257,6273.6,13663.051,6273.786Z" transform="translate(-13625.396 -5888.852)" fill="#344154"/>
        <path id="Trazado_117376" data-name="Trazado 117376" d="M13688.676,6073s2.244,106.865.227,114.267-43.319,83.034-43.319,83.034l-24.922-12.24,33.044-79.863-7.288-102.686Z" transform="translate(-13613.653 -5894.734)" fill="#344154"/>
        <path id="Trazado_117377" data-name="Trazado 117377" d="M13634.006,6067.149s-14.33,23.4-11.8,37.43c1.03,5.754,8.885,18.53,8.885,18.53v68.447l-6.054,91.454h29.04l12.487-80.645s4.375-7.4,6.053-13.784,7.145-81.9,7.145-81.9l8.689-30.708Z" transform="translate(-13613.646 -5894.906)" fill="#344154"/>
        <path id="Trazado_117378" data-name="Trazado 117378" d="M13683.932,6230a12.185,12.185,0,0,1,0,1.925c0,1.235-.124,3.026-.247,5.24-.247,4.416-.689,10.51-1.205,17.243s-.946,12.827-1.235,17.243c-.134,2.13-.257,3.891-.34,5.229a13.252,13.252,0,0,1-.2,1.915,9.986,9.986,0,0,1,0-1.925c0-1.235.062-3.026.155-5.24.175-4.426.546-10.531,1.029-17.263s1.029-12.724,1.369-17.233c.186-2.131.33-3.891.454-5.229a11.45,11.45,0,0,1,.214-1.9Z" transform="translate(-13669.645 -5890.114)" fill="#8454ee"/>
        <path id="Trazado_117379" data-name="Trazado 117379" d="M13645.46,6078.77a4.049,4.049,0,0,0,.783.884,16.989,16.989,0,0,0,2.489,2.06,19.888,19.888,0,0,0,20.25,1.193,18.626,18.626,0,0,0,2.717-1.719,4.832,4.832,0,0,0,.875-.782,41.076,41.076,0,0,1-3.758,2.151,20.508,20.508,0,0,1-19.878-1.246,40.525,40.525,0,0,1-3.478-2.542Z" transform="translate(-13622.012 -5894.564)" fill="#8454ee"/>
        <path id="Trazado_117380" data-name="Trazado 117380" d="M13650.807,6099.66a1.187,1.187,0,0,0,0,.381,5.435,5.435,0,0,1-.094,1.1c-.072,1.03-.186,2.44-.318,4.272-.248,3.736-.617,9.09-1.029,15.688-.928,13.238-2.061,31.552-3.861,51.719-.248,2.749-.525,5.466-.834,8.112-.174,1.328-.318,2.656-.607,3.9a31.309,31.309,0,0,1-1.213,3.686c-1.793,4.828-3.707,9.389-5.539,13.65v.062c-1.936,12.415-3.572,22.925-4.734,30.358l-1.4,8.617c-.176.978-.309,1.729-.412,2.275s-.176.772-.166.782a4.979,4.979,0,0,0,.248-.762c.113-.515.289-1.266.484-2.265.391-1.987.9-4.9,1.543-8.6,1.268-7.392,2.965-17.891,4.922-30.337v.062c1.852-4.262,3.777-8.822,5.588-13.661a30.939,30.939,0,0,0,1.227-3.727c.309-1.328.453-2.646.629-3.974.318-2.666.6-5.384.832-8.132,1.771-20.187,2.873-38.5,3.707-51.75l.781-15.719c.092-1.832.164-3.263.207-4.272v-1.122a2.994,2.994,0,0,0,.039-.349Z" transform="translate(-13584.946 -5893.95)" fill="#8454ee"/>
        <path id="Trazado_117381" data-name="Trazado 117381" d="M13632.716,5969.071s.309,4.684-3.5,4.684c-5.354,0-16.573-10.294-16.573-10.294l21.617,51.6V6077.5l18.334,1.873s2.151-.309,2.584-3.4c.854-6.042.73-17.057,1.431-21.618,2.183-14.1,6.465-21.783,5.857-32.942-.9-16.6-24.264-45.295-24.264-45.295Z" transform="translate(-13578.179 -5897.958)" fill="#ffbf9d"/>
        <path id="Trazado_117382" data-name="Trazado 117382" d="M13652.119,5957.15a141.318,141.318,0,0,0,9.039,14.628c4.674,6.5,34.279,51.852,34.279,51.852l-11.828,92.01-1.317,7.792a3.891,3.891,0,0,1-4.479,3.2h-.175l-52.294-9.193a4.745,4.745,0,0,1-3.852-5.5,3.518,3.518,0,0,1,.136-.565l23.346-65.575-15.081-58.234s.556-8.483,9.738-17.089c1.75-1.637,8.966-7.618,10.16-9.265Z" transform="translate(-13620.126 -5898.144)" fill="#fd9827"/>
        <g id="Grupo_59941" data-name="Grupo 59941" transform="translate(17.921 147.599)" opacity="0.3">
          <path id="Trazado_117383" data-name="Trazado 117383" d="M13677.88,6050.014s-24.077,19.1-35.792,19.271-17.81-9.749-17.81-9.749l23.563.648,30.883-16.975Z" transform="translate(-13624.278 -6043.209)" fill="#344154"/>
        </g>
        <path id="Trazado_117384" data-name="Trazado 117384" d="M13687.933,6033.963s-21.721,14.351-25.736,17.078-22.966,13.723-25.437,14.515-17.8.9-20.589-4.313-4.715-16.327-4.715-16.327l-3.7-52.038a20.929,20.929,0,0,1,3.747-13.61c2.243-3.17,5.208-6.032,8.42-5.548,6.847,1.03,21.618,17.572,20.856,26.076s-.731,32.18-.731,32.18l38.778-12.837Z" transform="translate(-13598.498 -5897.657)" fill="#fd9827"/>
        <path id="Trazado_117385" data-name="Trazado 117385" d="M13611.286,5979.109a9.992,9.992,0,0,0-.711,1.029,18.142,18.142,0,0,0-1.646,3.161,20.223,20.223,0,0,0-1.423,5.558,42.568,42.568,0,0,0,.176,7.752c.8,11.591,1.957,28.093,3.326,47.838h0q.586,3.335,1.42,6.742a58.929,58.929,0,0,0,2.059,6.846,14.142,14.142,0,0,0,1.648,3.334,8.177,8.177,0,0,0,2.964,2.358,23.4,23.4,0,0,0,7.338,2.183,31.864,31.864,0,0,0,7.856.206,10.73,10.73,0,0,0,3.9-1.028c1.206-.6,2.379-1.257,3.553-1.905q7.074-3.953,14.269-8.235c5.755-3.335,11.1-7.1,16.41-10.572l15.441-10.294.206-.134-.134-.206-9.132-15.071-.1-.165-.185.062-38.728,13.115.227.154c-.792-9.667-1.421-17.366-1.853-22.647-.227-2.625-.4-4.653-.525-6.042-.061-.669-.1-1.194-.144-1.554l-.062-.536v.536c0,.35.062.885.1,1.564.1,1.39.248,3.428.433,6.053.391,5.3.968,12.991,1.7,22.647v.227l.216-.072,38.8-13.022-.289-.1,9.121,15.081.072-.34-15.441,10.294c-5.332,3.479-10.644,7.206-16.378,10.552q-7.207,4.292-14.257,8.235c-1.174.648-2.348,1.3-3.531,1.894a10.415,10.415,0,0,1-3.727,1.03,31.779,31.779,0,0,1-7.722-.2,23.155,23.155,0,0,1-7.205-2.11,7.922,7.922,0,0,1-2.8-2.213,13.589,13.589,0,0,1-1.583-3.212,58.216,58.216,0,0,1-2.06-6.794c-.567-2.254-1.03-4.5-1.432-6.691h0c-1.452-19.734-2.656-36.236-3.511-47.827a43.014,43.014,0,0,1-.236-7.711,20.688,20.688,0,0,1,2.911-8.7c.207-.351.382-.6.484-.772Z" transform="translate(-13598.338 -5897.497)" fill="#344154"/>
        <path id="Trazado_117386" data-name="Trazado 117386" d="M13668.119,6013.314a4.058,4.058,0,0,0-.474-.545c-.35-.392-.823-.9-1.4-1.524l-5.146-5.59-7.731-8.235c-2.954-3.088-6.115-6.526-9.852-9.8v.391l.309-.35,2.614-2.893.433-.484h-.648l-4.839.248.237.133-9.738-16.955-2.882-4.92-.792-1.308a1.876,1.876,0,0,0-.309-.443,3.257,3.257,0,0,0,.227.484c.185.35.422.8.72,1.349l2.749,5,9.583,17.047.083.134h.165l4.838-.247-.216-.443-2.6,2.893-.319.35-.175.2.206.186c3.676,3.222,6.866,6.681,9.841,9.729l7.8,8.173c2.224,2.326,4.035,4.2,5.3,5.477.628.638,1.122,1.132,1.472,1.452A3.085,3.085,0,0,0,13668.119,6013.314Z" transform="translate(-13599.479 -5898.029)" fill="#344154"/>
        <g id="Grupo_59942" data-name="Grupo 59942" transform="translate(40.332 83.857)" opacity="0.3">
          <path id="Trazado_117387" data-name="Trazado 117387" d="M14027.259,6228.25l-29.44-27.764,2.47-2.749h-2.47l-.618-3.788,1.647,2.924,4.838-.248-2.883,2.615,24.5,25.87Z" transform="translate(-13997.2 -6193.95)" fill="#344154"/>
        </g>
        <path id="Trazado_117388" data-name="Trazado 117388" d="M13677.59,6085.062l-.5-.124-1.5-.319-5.682-1.194-19.848-4.035h-.175l-.093.154-5.466,8.9-.206.33.381.072.648.124,28.948,5.435h.144v-.144l2.471-6.8c.258-.741.474-1.328.629-1.781a.471.471,0,1,0-.093,0c-.175.453-.422,1.029-.721,1.8l-2.615,6.619.2-.113-28.906-5.611-.648-.124.175.4,5.456-8.915-.268.124,19.7,3.747,5.775,1.029,1.564.268a5.1,5.1,0,0,0,.626.155Z" transform="translate(-13625.831 -5894.546)" fill="#344154"/>
        <g id="Grupo_59943" data-name="Grupo 59943" transform="translate(19.434 191.381)" opacity="0.3">
          <path id="Trazado_117389" data-name="Trazado 117389" d="M14047.615,6298.4l-2.059,10.8-29.957-5.4.823-2.5,28.1,5.363Z" transform="translate(-14015.6 -6298.399)" fill="#344154"/>
        </g>
        <path id="Trazado_117390" data-name="Trazado 117390" d="M13653.765,6039.421c.154.072,1.4-2.4,3.634-4.92s4.519-4.118,4.427-4.23A18.044,18.044,0,0,0,13653.765,6039.421Z" transform="translate(-13619.815 -5895.992)" fill="#344154"/>
        <path id="Trazado_117391" data-name="Trazado 117391" d="M13534.782,6006.841s7.515-4.5,10.521-7.381c0,0,4.375-1.379,6.382,1.379,0,0,4.633,1.277,5.25,2.141s4.509,6.866,4.509,6.866-2.059,7.155-2.255,7.515c-.371.782-1.214,1.606-1.925.742a1.491,1.491,0,0,1-.33-1.03v-.473l-1.122-.793s-.5,2.78-2.059,2.347a26.3,26.3,0,0,1-4.881-2.934s-4.755,2.707-7.205,2.985a77.276,77.276,0,0,0-8.236,1.843l-2.531-13.6Z" transform="translate(-13392.948 -5896.909)" fill="#ffbe9d"/>
        <path id="Trazado_117392" data-name="Trazado 117392" d="M13533.278,6017.077a.619.619,0,0,0,.587.114,1.556,1.556,0,0,0,1.03-1.235,22.21,22.21,0,0,0,0-5.231,48.481,48.481,0,0,0-.824-5.146,8.9,8.9,0,0,0-.556-2.06c-.186,0,.4,3.263.844,7.206a30.729,30.729,0,0,1,.187,5.147,1.328,1.328,0,0,1-.763,1.1C13533.484,6017.119,13533.278,6017.036,13533.278,6017.077Z" transform="translate(-13369.003 -5896.778)" fill="#eb996e"/>
        <path id="Trazado_117393" data-name="Trazado 117393" d="M13539.1,6005.29a6.066,6.066,0,0,0,3.552,1.648l-.216-.2.062.268a16.91,16.91,0,0,0,1.235,3.973,16.387,16.387,0,0,0-.712-4.118l-.071-.257v-.175h-.175a28.089,28.089,0,0,1-3.676-1.143Z" transform="translate(-13383.679 -5896.727)" fill="#eb996e"/>
        <path id="Trazado_117394" data-name="Trazado 117394" d="M13536.979,6006.272a3.682,3.682,0,0,1,4.116-.843l.783,1.029,5.93,4.941a9.166,9.166,0,0,1,2.656,3,3.089,3.089,0,0,1-.618,3.686c-1.214.926-3.016.4-4.2-.557s-2.059-2.3-3.272-3.191c-1.916-1.41-4.694-1.792-5.868-3.85A3.693,3.693,0,0,1,13536.979,6006.272Z" transform="translate(-13387.631 -5896.731)" fill="#ffbe9d"/>
        <path id="Trazado_117395" data-name="Trazado 117395" d="M13536.1,6004.39a3.272,3.272,0,0,0,.526,2.151,7.928,7.928,0,0,0,1.491,1.926,20.956,20.956,0,0,0,2.316,1.8,14.414,14.414,0,0,1,3.921,3.366,13.128,13.128,0,0,1,1.029,1.895,3.461,3.461,0,0,0-.688-2.111,9.05,9.05,0,0,0-1.586-1.831,24.116,24.116,0,0,0-2.348-1.761,20.634,20.634,0,0,1-2.285-1.729,8.63,8.63,0,0,1-1.5-1.741A10.733,10.733,0,0,1,13536.1,6004.39Z" transform="translate(-13382.223 -5896.753)" fill="#eb996e"/>
        <path id="Trazado_117396" data-name="Trazado 117396" d="M13616.268,6027.906s-.216-7.371-2.059-9.563-12.785-4.982-12.785-4.982l-27.424,6.362,6.373,10.294,1.925-1.812s8.626,2.594,12.888,1.657a50.53,50.53,0,0,0,7.433-2.214l4.468.309s3.222,3.335,4.261,3.335,2.183-.937,1.668-1.976l.927-1.565S13615.753,6028.842,13616.268,6027.906Z" transform="translate(-13492.141 -5896.489)" fill="#ffbe9d"/>
        <path id="Trazado_117397" data-name="Trazado 117397" d="M13577.107,6022.5a4.664,4.664,0,0,0,1.957.669,33.082,33.082,0,0,1,4.787.937,6.677,6.677,0,0,1,3.438,3.15,11.285,11.285,0,0,0,1.031,1.76,5.613,5.613,0,0,0-.7-1.935,8.122,8.122,0,0,0-1.247-1.9,5.636,5.636,0,0,0-2.336-1.576,22.766,22.766,0,0,0-4.909-.813C13577.829,6022.654,13577.107,6022.428,13577.107,6022.5Z" transform="translate(-13467.394 -5896.22)" fill="#eb996e"/>
        <path id="Trazado_117398" data-name="Trazado 117398" d="M13576.019,6017.241c0,.072.874.216,2.233.7a21.313,21.313,0,0,1,2.328.936,11.211,11.211,0,0,1,2.592,1.545,5.867,5.867,0,0,1,.887,1.245c.257.443.494.875.7,1.3a13.387,13.387,0,0,1,.895,2.327c.36,1.379.3,2.275.392,2.285a4.834,4.834,0,0,0,0-2.368,10.814,10.814,0,0,0-.813-2.46c-.206-.443-.442-.9-.7-1.349a5.882,5.882,0,0,0-1.028-1.38,10.7,10.7,0,0,0-2.781-1.647,18.909,18.909,0,0,0-2.43-.854,5.6,5.6,0,0,0-2.274-.278Z" transform="translate(-13464.143 -5896.375)" fill="#eb996e"/>
      </g>
    </g>
  </g>
</svg>
