<svg xmlns="http://www.w3.org/2000/svg" width="295" height="445.559" viewBox="0 0 295 445.559">
  <g id="Grupo_1111914" data-name="Grupo 1111914" transform="translate(-915 -2925.164)">
    <path id="Trazado_900505" data-name="Trazado 900505" d="M441.9,243.326h0c-9.686,18.752-29.628,30.618-51.46,30.618H353.337a59.419,59.419,0,0,0-26.88,6.4l-83.89,42.6V601.481h295V204.847H537.1l-53.3,8.629A57.241,57.241,0,0,0,441.9,243.326Z" transform="translate(672.433 2769.241)" fill="#8454ee"/>
    <path id="Trazado_141471" data-name="Trazado 141471" d="M441.9,563h0c-9.686-18.752-29.628-30.618-51.46-30.618H353.337a59.419,59.419,0,0,1-26.88-6.4l-83.89-42.6V204.847h295V601.48H537.1l-53.3-8.629A57.241,57.241,0,0,1,441.9,563Z" transform="translate(672.433 2720.316)" fill="#f6f6f6"/>
    <g id="Grupo_70200" data-name="Grupo 70200" transform="translate(915 2925.164)">
      <g id="Grupo_67715" data-name="Grupo 67715">
        <rect id="Rectángulo_31331" data-name="Rectángulo 31331" width="295" height="439.336" fill="none"/>
      </g>
    </g>
    <g id="Grupo_70335" data-name="Grupo 70335" transform="translate(1033.642 3003.665)">
      <rect id="Rectángulo_8738" data-name="Rectángulo 8738" width="9.012" height="44.822" transform="matrix(-1, -0.01, 0.01, -1, 54.956, 60.409)" fill="#e0e0e0"/>
      <rect id="Rectángulo_8739" data-name="Rectángulo 8739" width="23.325" height="24.745" transform="translate(133.221 42.142) rotate(-179.43)" fill="#ebebeb"/>
      <rect id="Rectángulo_8740" data-name="Rectángulo 8740" width="23.325" height="24.745" transform="matrix(-1, -0.005, 0.005, -1, 110.461, 43.848)" fill="#f5f5f5"/>
      <path id="Trazado_109321" data-name="Trazado 109321" d="M896.863,112.311c-15.5.126-31.042,0-46.555-.213a.268.268,0,0,1-.205-.3.253.253,0,0,1,.205-.2q23.262-.142,46.555.284a.213.213,0,0,1,.213.213A.221.221,0,0,1,896.863,112.311Z" transform="translate(-763.076 -86.223)" fill="#e0e0e0"/>
      <rect id="Rectángulo_8741" data-name="Rectángulo 8741" width="42.383" height="20.17" transform="matrix(-1, -0.01, 0.01, -1, 147.665, 60.822)" fill="#ebebeb"/>
      <rect id="Rectángulo_8742" data-name="Rectángulo 8742" width="42.381" height="20.161" transform="matrix(-1, -0.005, 0.005, -1, 106.07, 63.591)" fill="#f5f5f5"/>
      <path id="Trazado_109322" data-name="Trazado 109322" d="M916.4,141.654c-28.154.316-56.4,0-84.557-.418a.268.268,0,0,1-.2-.3.252.252,0,0,1,.2-.2c28.154-.15,56.411-.134,84.557.489a.213.213,0,0,1,.213.213A.221.221,0,0,1,916.4,141.654Z" transform="translate(-768.052 -92.361)" fill="#e0e0e0"/>
      <rect id="Rectángulo_8743" data-name="Rectángulo 8743" width="164.19" height="7.228" transform="translate(0 63.852)" fill="#e0e0e0"/>
      <rect id="Rectángulo_8744" data-name="Rectángulo 8744" width="6.668" height="24.651" transform="translate(130.639 67.324)" fill="#e0e0e0"/>
      <rect id="Rectángulo_8745" data-name="Rectángulo 8745" width="6.668" height="24.651" transform="translate(31.137 67.324)" fill="#e0e0e0"/>
      <rect id="Rectángulo_8746" data-name="Rectángulo 8746" width="9.011" height="61.642" transform="translate(46.105 61.729) rotate(-179.43)" fill="#ebebeb"/>
      <rect id="Rectángulo_8747" data-name="Rectángulo 8747" width="13.998" height="49.956" transform="matrix(-1, -0.005, 0.005, -1, 37.633, 63.773)" fill="#f5f5f5"/>
      <path id="Trazado_109323" data-name="Trazado 109323" d="M971.75,109.035a103.587,103.587,0,0,0,14,0,100.254,100.254,0,0,0-14,0Z" transform="translate(-947.739 -85.638)" fill="#e0e0e0"/>
      <path id="Trazado_109324" data-name="Trazado 109324" d="M971.75,106.375a100.254,100.254,0,0,0,14,0,100.254,100.254,0,0,0-14,0Z" transform="translate(-947.739 -85.077)" fill="#e0e0e0"/>
      <path id="Trazado_109325" data-name="Trazado 109325" d="M971.75,150.617a100.26,100.26,0,0,0,14,0,103.587,103.587,0,0,0-14,0Z" transform="translate(-947.739 -94.411)" fill="#e0e0e0"/>
      <path id="Trazado_109326" data-name="Trazado 109326" d="M971.75,147.937a100.26,100.26,0,0,0,14,0A103.6,103.6,0,0,0,971.75,147.937Z" transform="translate(-947.739 -93.845)" fill="#e0e0e0"/>
      <path id="Trazado_109327" data-name="Trazado 109327" d="M980.837,136.162c.134,0,.245-5.042.245-11.252s-.111-11.26-.245-11.26-.237,5.042-.237,11.26S980.7,136.162,980.837,136.162Z" transform="translate(-950.055 -86.663)" fill="#e0e0e0"/>
      <rect id="Rectángulo_8748" data-name="Rectángulo 8748" width="15.237" height="37.71" transform="translate(8.625 26.04)" fill="#ebebeb"/>
      <path id="Trazado_109328" data-name="Trazado 109328" d="M962.62,95.008a2.588,2.588,0,1,0,2.588-2.588h0a2.58,2.58,0,0,0-2.588,2.588Z" transform="translate(-922.583 -82.185)" fill="#e0e0e0"/>
      <rect id="Rectángulo_8749" data-name="Rectángulo 8749" width="1.602" height="36.668" transform="translate(41.829 19.94)" fill="#e0e0e0"/>
    </g>
    <g id="Grupo_58056" data-name="Grupo 58056" transform="translate(950.868 2941.976)" opacity="0.517">
      <g id="Grupo_58054" data-name="Grupo 58054" transform="translate(0 25.496)">
        <path id="Trazado_108153" data-name="Trazado 108153" d="M140.991,192.38l-22.671.313c.174,12.081,10.353,21.922,22.671,21.922h.133Z" transform="translate(-95.377 -192.38)" fill="#5e6178"/>
        <path id="Trazado_108154" data-name="Trazado 108154" d="M133.91,235.811a2.206,2.206,0,0,0,.482.041l1.39.036,5.061.056h.077l.041-.051,7.466-9.43,6.025-7.692-.113.056,6.666-.062,1.861-.041a3.745,3.745,0,0,0,.662-.046,3.742,3.742,0,0,0-.662-.046l-1.861-.041-6.666-.062h-.087l-.046.056-6.066,7.656-7.415,9.471.1-.051-5.061.056-1.39.041A2.508,2.508,0,0,0,133.91,235.811Z" transform="translate(-125.777 -205.12)" fill="#344154"/>
        <path id="Trazado_108155" data-name="Trazado 108155" d="M178.92,257.164c0,.092,3.282.174,7.333.174s7.338-.082,7.338-.174-3.287-.174-7.338-.174S178.92,257.067,178.92,257.164Z" transform="translate(-178.92 -223.858)" fill="#344154"/>
        <path id="Trazado_108156" data-name="Trazado 108156" d="M178.92,262.459c0,.1,3.282.174,7.333.174s7.338-.077,7.338-.174-3.287-.169-7.338-.169S178.92,262.367,178.92,262.459Z" transform="translate(-178.92 -226.44)" fill="#344154"/>
      </g>
      <g id="Grupo_58055" data-name="Grupo 58055" transform="translate(26.512)">
        <path id="Trazado_108157" data-name="Trazado 108157" d="M90.1,164.96l.3,22.235c12.307-.169,22.353-10.153,22.353-22.235,0-12.2-10.256-22.24-22.671-22.24S67.41,152.761,67.41,164.96Z" transform="translate(-67.41 -142.689)" fill="#d9a171"/>
        <path id="Trazado_108158" data-name="Trazado 108158" d="M54.42,158.731a1.431,1.431,0,0,0,.395.092l1.123.179,4.1.569h.067l.046-.046,5.41-5.277c2.605-2.564,4.954-4.887,6.641-6.589l1.99-2.026a6.225,6.225,0,0,0,.692-.774,6.327,6.327,0,0,0-.81.677l-2.051,1.949c-1.733,1.656-4.1,3.959-6.718,6.518l-5.384,5.328.113-.041-4.1-.451-1.133-.1A1.54,1.54,0,0,0,54.42,158.731Z" transform="translate(-22.883 -143.732)" fill="#344154"/>
        <path id="Trazado_108159" data-name="Trazado 108159" d="M14.62,142.834c0,.1,3.282.174,7.333.174s7.333-.077,7.333-.174-3.282-.174-7.333-.174A67.822,67.822,0,0,0,14.62,142.834Z" transform="translate(43.126 -142.66)" fill="#344154"/>
        <path id="Trazado_108160" data-name="Trazado 108160" d="M14.62,148.084c0,.092,3.282.174,7.333.174s7.333-.082,7.333-.174-3.282-.174-7.333-.174S14.62,147.987,14.62,148.084Z" transform="translate(43.126 -145.218)" fill="#344154"/>
      </g>
    </g>
    <g id="Grupo_70342" data-name="Grupo 70342" transform="translate(1037.973 3132.457)">
      <rect id="Rectángulo_8579" data-name="Rectángulo 8579" width="7.542" height="84.267" transform="translate(148.752)" fill="#d9a171"/>
      <rect id="Rectángulo_8580" data-name="Rectángulo 8580" width="7.542" height="55.644" transform="translate(134.176 28.623)" fill="#d9a171"/>
      <rect id="Rectángulo_8581" data-name="Rectángulo 8581" width="7.542" height="74.215" transform="translate(119.611 10.472)" fill="#d9a171"/>
      <rect id="Rectángulo_8582" data-name="Rectángulo 8582" width="7.542" height="81.004" transform="translate(105.045 3.253)" fill="#d9a171"/>
      <rect id="Rectángulo_8583" data-name="Rectángulo 8583" width="7.542" height="53.934" transform="translate(90.48 30.333)" fill="#d9a171"/>
      <rect id="Rectángulo_8584" data-name="Rectángulo 8584" width="7.542" height="43.355" transform="translate(75.914 40.912)" fill="#d9a171"/>
      <rect id="Rectángulo_8585" data-name="Rectángulo 8585" width="7.542" height="75.612" transform="translate(61.349 8.646)" fill="#d9a171"/>
      <rect id="Rectángulo_8586" data-name="Rectángulo 8586" width="7.542" height="61.984" transform="translate(46.783 22.283)" fill="#d9a171"/>
      <rect id="Rectángulo_8587" data-name="Rectángulo 8587" width="7.542" height="72.876" transform="translate(32.218 11.391)" fill="#d9a171"/>
      <rect id="Rectángulo_8588" data-name="Rectángulo 8588" width="7.542" height="49.646" transform="translate(17.652 34.611)" fill="#d9a171"/>
      <rect id="Rectángulo_8589" data-name="Rectángulo 8589" width="7.542" height="59.092" transform="translate(3.087 25.165)" fill="#d9a171"/>
      <path id="Trazado_108171" data-name="Trazado 108171" d="M237.09,275.993c0,.176,35.793.313,79.929.313s79.929-.137,79.929-.313-35.784-.3-79.929-.3S237.09,275.827,237.09,275.993Z" transform="translate(-237.09 -185.865)" fill="#344154"/>
      <path id="Trazado_108172" data-name="Trazado 108172" d="M240.3,282.783c0,.176,2.5.313,5.6.313s5.6-.137,5.6-.313-2.5-.3-5.6-.3A26.171,26.171,0,0,0,240.3,282.783Z" transform="translate(-94.772 -186.021)" fill="#344154"/>
      <path id="Trazado_108173" data-name="Trazado 108173" d="M257.07,283.133c0,.166,2.989.313,6.692.313s6.692-.146,6.692-.313-3-.313-6.692-.313A40.276,40.276,0,0,0,257.07,283.133Z" transform="translate(-130.113 -186.029)" fill="#344154"/>
      <path id="Trazado_108174" data-name="Trazado 108174" d="M273.3,283.133c0,.166,3,.313,6.692.313s6.692-.146,6.692-.313-3-.313-6.692-.313A40.275,40.275,0,0,0,273.3,283.133Z" transform="translate(-162.198 -186.029)" fill="#344154"/>
      <path id="Trazado_108175" data-name="Trazado 108175" d="M289.51,283.133c0,.166,3,.313,6.692.313s6.692-.146,6.692-.313-2.989-.313-6.692-.313A40.172,40.172,0,0,0,289.51,283.133Z" transform="translate(-194.243 -186.029)" fill="#344154"/>
      <path id="Trazado_108176" data-name="Trazado 108176" d="M305.72,283.133c0,.166,2.989.313,6.692.313s6.692-.146,6.692-.313-3-.313-6.692-.313A40.276,40.276,0,0,0,305.72,283.133Z" transform="translate(-226.289 -186.029)" fill="#344154"/>
      <path id="Trazado_108177" data-name="Trazado 108177" d="M321.94,283.133c0,.166,3,.313,6.692.313s6.692-.146,6.692-.313-3-.313-6.692-.313A40.276,40.276,0,0,0,321.94,283.133Z" transform="translate(-258.354 -186.029)" fill="#344154"/>
      <path id="Trazado_108178" data-name="Trazado 108178" d="M338.16,283.133c0,.166,3,.313,6.692.313s6.692-.146,6.692-.313-2.989-.313-6.692-.313A40.172,40.172,0,0,0,338.16,283.133Z" transform="translate(-290.419 -186.029)" fill="#344154"/>
      <path id="Trazado_108179" data-name="Trazado 108179" d="M354.37,283.133c0,.166,3,.313,6.692.313s6.692-.146,6.692-.313-3-.313-6.692-.313A40.276,40.276,0,0,0,354.37,283.133Z" transform="translate(-322.465 -186.029)" fill="#344154"/>
      <path id="Trazado_108180" data-name="Trazado 108180" d="M370.59,283.133c0,.166,3,.313,6.692.313s6.692-.146,6.692-.313-2.989-.313-6.692-.313A40.172,40.172,0,0,0,370.59,283.133Z" transform="translate(-354.53 -186.029)" fill="#344154"/>
      <path id="Trazado_108181" data-name="Trazado 108181" d="M386.8,283.133c0,.166,2.989.313,6.692.313s6.692-.146,6.692-.313-3-.313-6.692-.313A40.275,40.275,0,0,0,386.8,283.133Z" transform="translate(-386.575 -186.029)" fill="#344154"/>
      <g id="Grupo_58062" data-name="Grupo 58062" transform="translate(134.176 28.623)" opacity="0.3">
        <rect id="Rectángulo_8590" data-name="Rectángulo 8590" width="7.542" height="55.644" fill="#fff"/>
      </g>
      <g id="Grupo_58063" data-name="Grupo 58063" transform="translate(105.045 3.253)" opacity="0.3">
        <rect id="Rectángulo_8591" data-name="Rectángulo 8591" width="7.542" height="81.004" fill="#fff"/>
      </g>
      <g id="Grupo_58064" data-name="Grupo 58064" transform="translate(75.914 40.912)" opacity="0.3">
        <rect id="Rectángulo_8592" data-name="Rectángulo 8592" width="7.542" height="43.355" fill="#fff"/>
      </g>
      <g id="Grupo_58065" data-name="Grupo 58065" transform="translate(46.783 22.283)" opacity="0.3">
        <rect id="Rectángulo_8593" data-name="Rectángulo 8593" width="7.542" height="61.984" fill="#fff"/>
      </g>
      <g id="Grupo_58066" data-name="Grupo 58066" transform="translate(17.652 34.611)" opacity="0.3">
        <rect id="Rectángulo_8594" data-name="Rectángulo 8594" width="7.542" height="49.646" fill="#fff"/>
      </g>
    </g>
    <g id="Grupo_70346" data-name="Grupo 70346" transform="translate(924.347 3303.058)">
      <g id="Grupo_70336" data-name="Grupo 70336">
        <path id="Trazado_109272" data-name="Trazado 109272" d="M989.985,340.142s9.758,7.431.41,17.255a.853.853,0,0,1-.615.258l-85.285-.483s-7.272-8.165-1.236-17.573Z" transform="translate(-900.332 -339.349)" fill="#ebebeb"/>
        <path id="Trazado_109273" data-name="Trazado 109273" d="M936.65,352.092c0,.093,10.618.172,23.708.172s23.708-.079,23.708-.172-10.578-.172-23.708-.172S936.65,351.973,936.65,352.092Z" transform="translate(-913.612 -343.524)" fill="#e0e0e0"/>
        <path id="Trazado_109274" data-name="Trazado 109274" d="M954.59,356.732c0,.093,4.985.172,11.147.172s11.147-.079,11.147-.172-4.991-.172-11.147-.172S954.59,356.639,954.59,356.732Z" transform="translate(-918.29 -345.096)" fill="#e0e0e0"/>
        <path id="Trazado_109275" data-name="Trazado 109275" d="M1022.58,356.76c.053,0-.192-.978-.456-2.559a35.468,35.468,0,0,1,.119-12.429c.291-1.573.555-2.532.5-2.552a2.585,2.585,0,0,0-.251.661c-.139.423-.311,1.058-.489,1.845a30.276,30.276,0,0,0-.119,12.522c.165.787.324,1.421.456,1.851A3.05,3.05,0,0,0,1022.58,356.76Z" transform="translate(-1008.256 -339.22)" fill="#e0e0e0"/>
        <path id="Trazado_109276" data-name="Trazado 109276" d="M1033.546,339.42a3.122,3.122,0,0,0-.377.621,6.313,6.313,0,0,0-.383.76c-.132.3-.3.661-.43,1.045a17.529,17.529,0,0,0-.813,2.83,19.732,19.732,0,0,0-.37,3.583,20.58,20.58,0,0,0,.311,3.6,18.432,18.432,0,0,0,.767,2.843c.125.4.291.74.416,1.045a7,7,0,0,0,.37.774,2.707,2.707,0,0,0,.37.621c.06,0-.417-.945-.926-2.519a21.752,21.752,0,0,1-.661-2.816,20.487,20.487,0,0,1,.06-7.067,20.123,20.123,0,0,1,.727-2.81C1033.116,340.359,1033.605,339.446,1033.546,339.42Z" transform="translate(-1025.588 -339.288)" fill="#e0e0e0"/>
        <path id="Trazado_109277" data-name="Trazado 109277" d="M924.489,357.37a2.579,2.579,0,0,0,.4-.569,5.423,5.423,0,0,0,.4-.714,9.4,9.4,0,0,0,.456-.978,14.912,14.912,0,0,0,.833-2.691,17.088,17.088,0,0,0,.331-3.431,17.523,17.523,0,0,0-.423-3.425,14.671,14.671,0,0,0-.906-2.645,7.361,7.361,0,0,0-.483-.972,4.644,4.644,0,0,0-.417-.7,2.643,2.643,0,0,0-.41-.555c-.059,0,.489.859,1.084,2.321a15.9,15.9,0,0,1,.82,2.645,16.468,16.468,0,0,1-.661,9.368C924.925,356.5,924.43,357.337,924.489,357.37Z" transform="translate(-848.256 -339.718)" fill="#e0e0e0"/>
        <path id="Trazado_109278" data-name="Trazado 109278" d="M909.68,359.365a3.587,3.587,0,0,0,.436-.661,7.963,7.963,0,0,0,.449-.8c.152-.324.35-.661.516-1.1a18.882,18.882,0,0,0,1.144-10.723,17.932,17.932,0,0,0-.84-3.048c-.146-.43-.324-.793-.469-1.124a7.261,7.261,0,0,0-.41-.82,2.832,2.832,0,0,0-.41-.661c-.06,0,.489,1,1.058,2.684a19.881,19.881,0,0,1,.76,3.021,21.511,21.511,0,0,1,.278,3.8,22.186,22.186,0,0,1-.45,3.788,20.638,20.638,0,0,1-.886,2.988C910.189,358.386,909.6,359.318,909.68,359.365Z" transform="translate(-824.251 -339.63)" fill="#e0e0e0"/>
        <path id="Trazado_109279" data-name="Trazado 109279" d="M984.39,405.43v16.317h31.568V405.43Z" transform="translate(-977.067 -361.657)" fill="#ebebeb"/>
        <path id="Trazado_109280" data-name="Trazado 109280" d="M981.333,412.853v.43a9.355,9.355,0,0,1-9.388,8.753H877.933v-1.177h22.28a8.158,8.158,0,0,0,8.158-8.158h0a8.152,8.152,0,0,0-8.158-8.158H877.9V402.81l94.039.317a9.4,9.4,0,0,1,9.4,9.414C981.34,412.641,981.34,412.747,981.333,412.853Z" transform="translate(-872.045 -360.769)" fill="#e0e0e0"/>
        <path id="Trazado_109281" data-name="Trazado 109281" d="M988.29,418.012c0,.093,6.492.172,14.5.172s14.492-.079,14.492-.172-6.486-.172-14.492-.172S988.29,417.946,988.29,418.012Z" transform="translate(-980.967 -365.862)" fill="#e0e0e0"/>
        <path id="Trazado_109282" data-name="Trazado 109282" d="M990,423.572c0,.093,6.142.172,13.718.172s13.685-.079,13.685-.172-6.142-.172-13.718-.172S990,423.479,990,423.572Z" transform="translate(-982.221 -367.746)" fill="#e0e0e0"/>
        <path id="Trazado_109283" data-name="Trazado 109283" d="M994.83,428.659c0,.093,5.52.172,12.33.172s12.337-.079,12.337-.172-5.52-.178-12.337-.178S994.83,428.559,994.83,428.659Z" transform="translate(-987.507 -369.468)" fill="#e0e0e0"/>
        <path id="Trazado_109284" data-name="Trazado 109284" d="M989.18,413.012c0,.1,6.36.172,14.2.172s14.2-.073,14.2-.172-6.36-.172-14.2-.172S989.18,412.946,989.18,413.012Z" transform="translate(-981.857 -364.168)" fill="#e0e0e0"/>
        <path id="Trazado_109285" data-name="Trazado 109285" d="M993.21,408.022c0,.093,5.659.172,12.641.172s12.641-.079,12.641-.172-5.659-.172-12.641-.172S993.21,407.949,993.21,408.022Z" transform="translate(-985.43 -362.477)" fill="#e0e0e0"/>
        <path id="Trazado_109286" data-name="Trazado 109286" d="M888.646,403.71a20.63,20.63,0,0,1,1.984,2.374,12.046,12.046,0,0,1-.165,13.976,22.035,22.035,0,0,1-2.05,2.327,3.25,3.25,0,0,0,.661-.5,11.157,11.157,0,0,0,1.573-1.686,11.9,11.9,0,0,0,.165-14.261,10.486,10.486,0,0,0-1.527-1.719A2.683,2.683,0,0,0,888.646,403.71Z" transform="translate(-790.762 -361.074)" fill="#f5f5f5"/>
        <path id="Trazado_109287" data-name="Trazado 109287" d="M883.853,403.18a20.6,20.6,0,0,1,1.983,2.373,12.105,12.105,0,0,1-.165,13.983,22.138,22.138,0,0,1-2.056,2.327,3.793,3.793,0,0,0,.661-.5,11.156,11.156,0,0,0,1.573-1.686,11.9,11.9,0,0,0,.166-14.26,10.812,10.812,0,0,0-1.527-1.719A2.972,2.972,0,0,0,883.853,403.18Z" transform="translate(-782.789 -360.895)" fill="#f5f5f5"/>
        <path id="Trazado_109288" data-name="Trazado 109288" d="M980.508,403.71a20.6,20.6,0,0,1,1.983,2.373,12.092,12.092,0,0,1-.165,13.976,22.128,22.128,0,0,1-2.056,2.327,3.09,3.09,0,0,0,.661-.5,10.8,10.8,0,0,0,1.567-1.686,11.9,11.9,0,0,0,.172-14.261,9.97,9.97,0,0,0-1.534-1.719A2.744,2.744,0,0,0,980.508,403.71Z" transform="translate(-943.341 -361.074)" fill="#f5f5f5"/>
        <path id="Trazado_109289" data-name="Trazado 109289" d="M975.678,403.18a20.657,20.657,0,0,1,1.983,2.373,12.105,12.105,0,0,1-.165,13.983,22.137,22.137,0,0,1-2.056,2.327,3.788,3.788,0,0,0,.661-.5,10.524,10.524,0,0,0,1.567-1.686,11.9,11.9,0,0,0,.172-14.26,10.528,10.528,0,0,0-1.534-1.719A2.753,2.753,0,0,0,975.678,403.18Z" transform="translate(-935.318 -360.895)" fill="#f5f5f5"/>
        <path id="Trazado_109290" data-name="Trazado 109290" d="M903.854,416.607,903.94,410a4.831,4.831,0,0,1,.231-1.712,1.626,1.626,0,0,1,1.263-1.064c.833-.364,2.129.324,2.7,1.283a6.229,6.229,0,0,1,.661,3.253,46.192,46.192,0,0,1-.258,5.236,5.956,5.956,0,0,1-.615,2.4,2.255,2.255,0,0,1-2.023,1.216,2.294,2.294,0,0,1-1.765-1.547A6.7,6.7,0,0,1,903.854,416.607Z" transform="translate(-816.667 -362.23)" fill="#f5f5f5"/>
        <path id="Trazado_109291" data-name="Trazado 109291" d="M920.57,418.492c0,.1,6.8.172,15.206.172s15.206-.073,15.206-.172-6.8-.172-15.206-.172S920.57,418.4,920.57,418.492Z" transform="translate(-869.897 -366.025)" fill="#f5f5f5"/>
        <path id="Trazado_109292" data-name="Trazado 109292" d="M910.085,394.794l.179-15.464h-8.423l-.291,15.464Z" transform="translate(-816.604 -352.812)" fill="#f5f5f5"/>
        <path id="Trazado_109293" data-name="Trazado 109293" d="M901.7,383.4a45.438,45.438,0,0,0,7.821,0A44.148,44.148,0,0,0,901.7,383.4Z" transform="translate(-815.961 -354.133)" fill="#e0e0e0"/>
        <path id="Trazado_109294" data-name="Trazado 109294" d="M901.7,387.011a45.444,45.444,0,0,0,7.821,0A44.139,44.139,0,0,0,901.7,387.011Z" transform="translate(-815.961 -355.356)" fill="#e0e0e0"/>
        <path id="Trazado_109295" data-name="Trazado 109295" d="M901.7,390.621a45.444,45.444,0,0,0,7.821,0A44.142,44.142,0,0,0,901.7,390.621Z" transform="translate(-815.961 -356.58)" fill="#e0e0e0"/>
        <path id="Trazado_109296" data-name="Trazado 109296" d="M901.7,394.231a45.432,45.432,0,0,0,7.821,0A44.142,44.142,0,0,0,901.7,394.231Z" transform="translate(-815.961 -357.803)" fill="#e0e0e0"/>
        <path id="Trazado_109297" data-name="Trazado 109297" d="M901.7,397.841a45.444,45.444,0,0,0,7.821,0A44.142,44.142,0,0,0,901.7,397.841Z" transform="translate(-815.961 -359.026)" fill="#e0e0e0"/>
        <path id="Trazado_109298" data-name="Trazado 109298" d="M994.983,378.71H901.7a43.807,43.807,0,0,0,0,16.713h92.9v-1.137h-5.679a2.645,2.645,0,0,1-2.645-2.612v-9.289a2.645,2.645,0,0,1,2.645-2.684h6.063Z" transform="translate(-900.9 -352.602)" fill="#ebebeb"/>
        <path id="Trazado_109299" data-name="Trazado 109299" d="M932.768,389.693h-1.553a.385.385,0,0,0-.172.04.3.3,0,0,0-.165.291v.086a1.591,1.591,0,0,0,.106.4,4.563,4.563,0,0,0,.972,1.759,1.9,1.9,0,0,0,1.322.661h.185a1.52,1.52,0,0,0,1.058-.767,3.443,3.443,0,0,0,.469-1.871,4.686,4.686,0,0,0-.185-1.322,4.437,4.437,0,0,0-.926-1.8,1.865,1.865,0,0,0-1.4-.747,1.323,1.323,0,0,0-.588.132,1.911,1.911,0,0,0-.912,1.137.663.663,0,0,0,0,.159.311.311,0,0,0,.046.165.331.331,0,0,0,.285.165h.106a.311.311,0,0,0,.211-.212h0a1.752,1.752,0,0,1,.185-.37.879.879,0,0,1,.747-.443.806.806,0,0,1,.516.185,2.7,2.7,0,0,1,.846,1.223,4.3,4.3,0,0,1,.37,1.752,3.12,3.12,0,0,1-.264,1.382.906.906,0,0,1-.813.608,1.11,1.11,0,0,1-.754-.45,4.266,4.266,0,0,1-.8-1.448h1.117c.245-.04.37-.165.37-.377a.166.166,0,0,0,0-.112A.337.337,0,0,0,932.768,389.693Z" transform="translate(-860.72 -355.215)" fill="#fafafa"/>
        <path id="Trazado_109300" data-name="Trazado 109300" d="M938.326,386.66l-.04.112c-.066.231-.436,2.155-1.1,5.785v.079a.344.344,0,0,0,.324.344h.053a.311.311,0,0,0,.271-.218l.37-1.917h1.917l.926,1.931v.06a.369.369,0,0,0,.291.165.33.33,0,0,0,.179-.053.344.344,0,0,0,.159-.284.247.247,0,0,0,0-.1c-.053-.132-.152-.344-.284-.661q-1.984-4.4-2.407-5.183a.344.344,0,0,0-.416-.264.338.338,0,0,0-.245.2Zm.417,1.322,1.038,2.175H938.32Z" transform="translate(-871.574 -355.224)" fill="#fafafa"/>
        <path id="Trazado_109301" data-name="Trazado 109301" d="M945.767,393h2.783a.331.331,0,0,0,.178-.053.5.5,0,0,0,.165-.357h0c0-.112-.265-2.036-.78-5.758a.361.361,0,0,0,0-.119.3.3,0,0,0-.3-.212.35.35,0,0,0-.159.04.311.311,0,0,0-.172.3c0,.258.086.78.192,1.58.317,2.453.489,3.755.5,3.887H945.78a.409.409,0,0,0-.178,0,.317.317,0,0,0-.211.317v.106a.4.4,0,0,0,.377.271Z" transform="translate(-884.219 -355.242)" fill="#fafafa"/>
        <path id="Trazado_109302" data-name="Trazado 109302" d="M952.1,386.67l-.04.112c-.066.231-.43,2.155-1.1,5.785a.165.165,0,0,0,0,.079.344.344,0,0,0,.324.344h.053a.31.31,0,0,0,.258-.231l.37-1.917h1.917l.859,1.924a.285.285,0,0,0,0,.06.39.39,0,0,0,.284.165.431.431,0,0,0,.185-.053.337.337,0,0,0,.152-.284.247.247,0,0,0,0-.1l-.284-.661c-1.322-2.929-2.149-4.628-2.406-5.183a.324.324,0,0,0-.608-.04Zm.423,1.322,1.031,2.175H952.1Z" transform="translate(-894.383 -355.234)" fill="#fafafa"/>
        <path id="Trazado_109303" data-name="Trazado 109303" d="M960.841,390l-.509,1.408q-.436,1.19-.436,1.269a.344.344,0,0,0,.337.324h0a.311.311,0,0,0,.278-.225l.053-.145q.238-.522.754-1.983l1.587,2.175a.416.416,0,0,0,.3.178.4.4,0,0,0,.179-.046.311.311,0,0,0,.158-.284v-.066a.661.661,0,0,0-.165-.271c-.529-.7-1.124-1.521-1.772-2.466.073-.185.132-.364.2-.529.595-1.607.892-2.433.892-2.486a.386.386,0,0,0-.04-.172.278.278,0,0,0-.271-.165.337.337,0,0,0-.317.185l-.939,2.532-1.871-2.559a.37.37,0,0,0-.3-.159.3.3,0,0,0-.317.3v.02a.321.321,0,0,0,0,.159Z" transform="translate(-907.616 -355.249)" fill="#fafafa"/>
        <path id="Trazado_109304" data-name="Trazado 109304" d="M966.27,386.549a.3.3,0,0,0-.152.04.317.317,0,0,0-.179.284c.456,3.636.714,5.6.76,5.9a3.621,3.621,0,0,0,.6,1.534,2.182,2.182,0,0,0,2.764.661,1.984,1.984,0,0,0,.992-.846.374.374,0,0,0,.04-.165.283.283,0,0,0-.046-.165.317.317,0,0,0-.542-.033,1.812,1.812,0,0,1-1.441.82,1.448,1.448,0,0,1-1.117-.562,3.2,3.2,0,0,1-.622-1.772,1.892,1.892,0,0,0,.417.443,1.731,1.731,0,0,0,1.011.331h.185a1.547,1.547,0,0,0,1.071-.767,3.478,3.478,0,0,0,.463-1.878,8.443,8.443,0,0,0-.046-1.051c-.053-.569-.178-1.375-.377-2.426a.215.215,0,0,0,0-.093.3.3,0,0,0-.377-.225.2.2,0,0,0-.086.04.3.3,0,0,0-.165.264c0,.172.053.6.152,1.283a16.521,16.521,0,0,1,.225,1.983,3.9,3.9,0,0,1-.251,1.527.893.893,0,0,1-.833.661H968.6a1.548,1.548,0,0,1-.84-.661,4.529,4.529,0,0,1-.7-1.554l-.423-3.206a.434.434,0,0,0-.04-.139A.3.3,0,0,0,966.27,386.549Z" transform="translate(-920.007 -355.258)" fill="#fafafa"/>
        <path id="Trazado_109305" data-name="Trazado 109305" d="M1036.6,395.509c.093,0,.172-3.841.172-8.595s-.079-8.595-.172-8.595-.172,3.841-.172,8.595S1036.509,395.509,1036.6,395.509Z" transform="translate(-1032.287 -352.47)" fill="#f5f5f5"/>
        <path id="Trazado_109306" data-name="Trazado 109306" d="M921.132,395.509c.1,0,.172-3.841.172-8.595s-.073-8.595-.172-8.595-.172,3.841-.172,8.595S921.039,395.509,921.132,395.509Z" transform="translate(-840.477 -352.47)" fill="#e0e0e0"/>
        <path id="Trazado_109307" data-name="Trazado 109307" d="M1039.078,395.509c.093,0,.172-3.841.172-8.595s-.079-8.595-.172-8.595-.179,3.841-.179,8.595S1038.979,395.509,1039.078,395.509Z" transform="translate(-1036.396 -352.47)" fill="#f5f5f5"/>
        <path id="Trazado_109308" data-name="Trazado 109308" d="M918.822,395.509c.092,0,.172-3.841.172-8.595s-.079-8.595-.172-8.595-.172,3.841-.172,8.595S918.729,395.509,918.822,395.509Z" transform="translate(-836.639 -352.47)" fill="#e0e0e0"/>
        <path id="Trazado_109309" data-name="Trazado 109309" d="M996.99,382.65h0l-9.864,7.934-.086.073h.113l1.322.344,8.324,2.188h0l7.55-3.2,2.135-.912.562-.245.145-.066h0l-.145.06-.569.231-2.149.886-7.563,3.16h0l-8.324-2.168-1.322-.344v.1l9.844-7.986h0" transform="translate(-970.051 -353.937)" fill="#e0e0e0"/>
        <path id="Trazado_109310" data-name="Trazado 109310" d="M1016.236,392.77l-.536.5-.721-.152.318.668-.377.635.734-.093.489.549.139-.721.681-.3-.648-.357Z" transform="translate(-998.255 -357.367)" fill="#e0e0e0"/>
        <path id="Trazado_109311" data-name="Trazado 109311" d="M1001.982,397.51l-.37.3-.456-.126.178.443-.265.4.476-.033.291.377.119-.463.45-.165-.4-.258Z" transform="translate(-974.541 -358.973)" fill="#e0e0e0"/>
        <path id="Trazado_109312" data-name="Trazado 109312" d="M987.556,390.81l-.582.033-.364-.463-.145.569-.556.2.5.311.026.588.45-.37.562.159-.212-.549Z" transform="translate(-949.669 -356.557)" fill="#e0e0e0"/>
        <path id="Trazado_109313" data-name="Trazado 109313" d="M1024.346,382.623l-.588.04-.364-.463-.145.569-.549.2.5.311.02.589.45-.377.568.165-.218-.549Z" transform="translate(-1010.782 -353.785)" fill="#e0e0e0"/>
        <path id="Trazado_109314" data-name="Trazado 109314" d="M1002.8,382.121l-.377.026-.225-.3-.1.364-.35.132.318.2.013.37.291-.238.357.106-.139-.35Z" transform="translate(-975.387 -353.666)" fill="#e0e0e0"/>
        <path id="Trazado_109315" data-name="Trazado 109315" d="M1002.37,383.144c0,.04,3.193-.066,7.127-.231s7.12-.337,7.114-.377-3.187.066-7.12.238S1002.37,383.111,1002.37,383.144Z" transform="translate(-989.606 -353.896)" fill="#e0e0e0"/>
        <path id="Trazado_109316" data-name="Trazado 109316" d="M885.558,374.454h94.62c1.236-2.81,1.54-5.481,0-7.874h-94.62a9.177,9.177,0,0,0,0,7.874Z" transform="translate(-876.403 -348.492)" fill="#e0e0e0"/>
        <rect id="Rectángulo_8737" data-name="Rectángulo 8737" width="51.257" height="2.869" transform="translate(32.922 20.336)" fill="#ebebeb"/>
        <path id="Trazado_109317" data-name="Trazado 109317" d="M889.27,374.6a3,3,0,0,0,.747-.959,6.949,6.949,0,0,0,.5-5.692,2.645,2.645,0,0,0-.569-1.071,11.9,11.9,0,0,0,.337,1.144,7.81,7.81,0,0,1,.251,2.8,8.1,8.1,0,0,1-.734,2.711A8.95,8.95,0,0,0,889.27,374.6Z" transform="translate(-789.124 -348.593)" fill="#e0e0e0"/>
        <path id="Trazado_109318" data-name="Trazado 109318" d="M892.359,374.6a3.007,3.007,0,0,0,.747-.959,6.922,6.922,0,0,0,.5-5.692,2.842,2.842,0,0,0-.568-1.071,9.068,9.068,0,0,0,.337,1.144,8.122,8.122,0,0,1,.251,2.8,7.773,7.773,0,0,1-.741,2.711A8.931,8.931,0,0,0,892.359,374.6Z" transform="translate(-794.264 -348.593)" fill="#e0e0e0"/>
        <path id="Trazado_109319" data-name="Trazado 109319" d="M1024.594,374.329a11.9,11.9,0,0,1-.04-7.709,6.817,6.817,0,0,0-.965,3.861A6.981,6.981,0,0,0,1024.594,374.329Z" transform="translate(-1011.611 -348.505)" fill="#f5f5f5"/>
        <path id="Trazado_109320" data-name="Trazado 109320" d="M1021.5,374.383c.1,0-.3-1.686-.284-3.775s.4-3.742.291-3.768a11.609,11.609,0,0,0,0,7.543Z" transform="translate(-1006.748 -348.58)" fill="#f5f5f5"/>
      </g>
    </g>
    <g id="Grupo_1111911" data-name="Grupo 1111911" transform="translate(-565.347 210.282)">
      <g id="Grupo_58060" data-name="Grupo 58060" transform="translate(1493.359 2977.766)">
        <g id="Grupo_58059" data-name="Grupo 58059">
          <path id="Trazado_108161" data-name="Trazado 108161" d="M232.884,101.1l.185-27.63a35.319,35.319,0,0,1,22.791,8.889,32.684,32.684,0,0,1,10.98,28.614,37.8,37.8,0,0,1-.646,4.009v.1h0L232.9,107.59Z" transform="translate(-195.094 -73.47)" fill="#d9a171"/>
          <g id="Grupo_58057" data-name="Grupo 58057" transform="translate(37.791)" opacity="0.3">
            <path id="Trazado_108162" data-name="Trazado 108162" d="M232.884,101.1l.185-27.63a35.319,35.319,0,0,1,22.791,8.889,32.684,32.684,0,0,1,10.98,28.614,37.8,37.8,0,0,1-.646,4.009v.1h0L232.9,107.59Z" transform="translate(-232.884 -73.47)" fill="#fff"/>
          </g>
          <path id="Trazado_108163" data-name="Trazado 108163" d="M273.2,92.6a32.807,32.807,0,0,1,26.861-18.813c.349,0,.7-.072,1.025-.092h.677c.656,0,1.323,0,2-.062h.185l-.185,27.681v6.49l-33.31,7.218h0a33.476,33.476,0,0,1-.738-7.177A35.884,35.884,0,0,1,273.2,92.6Z" transform="translate(-269.71 -73.466)" fill="#d9a171"/>
          <g id="Grupo_58058" data-name="Grupo 58058" transform="translate(0 0.164)" opacity="0.3">
            <path id="Trazado_108164" data-name="Trazado 108164" d="M273.2,92.6a32.807,32.807,0,0,1,26.861-18.813c.349,0,.7-.072,1.025-.092h.677c.656,0,1.323,0,2-.062h.185l-.185,27.681v6.49l-33.31,7.218h0a33.476,33.476,0,0,1-.738-7.177A35.884,35.884,0,0,1,273.2,92.6Z" transform="translate(-269.71 -73.63)" fill="#d9a171"/>
          </g>
        </g>
        <path id="Trazado_108165" data-name="Trazado 108165" d="M268.881,110.12,302.17,117.6a34.12,34.12,0,0,1-66.64-.226l33.351-7.259" transform="translate(-232.895 -72.545)" fill="#d9a171"/>
      </g>
    </g>
    <g id="Grupo_1111913" data-name="Grupo 1111913" transform="translate(-300 11707)">
      <path id="Trazado_141424" data-name="Trazado 141424" d="M183.2,684.39l10.127,214.117,27.791.657-2.188-185.649,41.584,186,23.664-1.071-37.1-213.617Z" transform="translate(1137.153 -9243.138)" fill="#344154"/>
      <path id="Trazado_141419" data-name="Trazado 141419" d="M290.093,267.78l-8.787,19.933-3.065-8.769-7.52-2.754Z" transform="translate(1085.975 -8902.702)" fill="#5e6178"/>
      <rect id="Rectángulo_31982" data-name="Rectángulo 31982" width="11.042" height="11.042" transform="translate(1348.249 -8619.729)" fill="#fff"/>
      <path id="Trazado_141420" data-name="Trazado 141420" d="M298.268,303.569s0-.311.043-.847,0-1.335.049-2.261c0-1.987.061-4.7.1-7.922l-.189.183H309.3c.049,0-.414-.414-.219-.219h0v11.024l.183-.195-7.922.1-2.267.049a5.574,5.574,0,0,0-.841.049,5.12,5.12,0,0,0,.75,0l2.224.055,8.056.091h.189V292.459h0l-.219-.219H298v.2c0,3.285.073,6.051.1,8.062,0,.908,0,1.688.055,2.218A3.842,3.842,0,0,0,298.268,303.569Z" transform="translate(1049.986 -8912.255)" fill="#5e6178"/>
      <path id="Trazado_141421" data-name="Trazado 141421" d="M307.169,303.379a46.139,46.139,0,0,0,0-8.988A46.144,46.144,0,0,0,307.169,303.379Z" transform="translate(1046.601 -8913.096)" fill="#5e6178"/>
      <path id="Trazado_141422" data-name="Trazado 141422" d="M299.93,301.619a46.144,46.144,0,0,0,8.988,0,46.141,46.141,0,0,0-8.988,0Z" transform="translate(1049.349 -8915.833)" fill="#5e6178"/>
      <g id="Grupo_70337" data-name="Grupo 70337" transform="translate(1399.269 -8343.197)" opacity="0.4">
        <path id="Trazado_109948" data-name="Trazado 109948" d="M212.573,1018.88a7.749,7.749,0,0,0-2.786-4.784,7.5,7.5,0,0,0-5.178-1.682l-.079,6.223Z" transform="translate(-204.53 -1012.401)"/>
      </g>
      <path id="Trazado_141425" data-name="Trazado 141425" d="M281.64,688.8a23.309,23.309,0,0,0,.25,3.516c.237,2.169.591,5.152,1.012,8.451a34.864,34.864,0,0,0,.769,4.653,6.572,6.572,0,0,0,2.024,3.325,5.021,5.021,0,0,0,2.359,1.163,1.975,1.975,0,0,0,.959,0,5.986,5.986,0,0,1-4.843-4.653,41.44,41.44,0,0,1-.71-4.6c-.434-3.286-.848-6.269-1.183-8.411a20.443,20.443,0,0,0-.637-3.443Z" transform="translate(1067.627 -9244.649)" fill="#455a64"/>
      <path id="Trazado_141426" data-name="Trazado 141426" d="M284.2,690.386c-.079.046.184.4,0,.96a1.1,1.1,0,0,1-.578.657.946.946,0,0,1-1.012-.236.92.92,0,0,1-.283-1.012,1.19,1.19,0,0,1,.657-.618,1.92,1.92,0,0,1,.966-.046c.046-.053-.3-.5-1.078-.355a1.531,1.531,0,0,0-1.012.821,1.511,1.511,0,0,0,.907,1.932,1.557,1.557,0,0,0,1.117-.039,1.446,1.446,0,0,0,.749-1.091C284.7,690.649,284.218,690.313,284.2,690.386Z" transform="translate(1071.917 -9244.961)" fill="#455a64"/>
      <path id="Trazado_141427" data-name="Trazado 141427" d="M255.2,693.274a6.216,6.216,0,0,0-.421-5.914c-.158.059.276,1.314.375,2.937A24.578,24.578,0,0,0,255.2,693.274Z" transform="translate(1118.559 -9244.155)" fill="#455a64"/>
      <path id="Trazado_141428" data-name="Trazado 141428" d="M260.93,692.521a7.229,7.229,0,0,0-.2-6.171,46.1,46.1,0,0,1,.2,6.171Z" transform="translate(1108.859 -9243.81)" fill="#455a64"/>
      <path id="Trazado_141429" data-name="Trazado 141429" d="M314.281,691.8q-.108-3.2-.072-6.4a8.654,8.654,0,0,0,.092,6.4Z" transform="translate(1021.311 -9243.484)" fill="#455a64"/>
      <path id="Trazado_141430" data-name="Trazado 141430" d="M321.163,691.111c.164-.059-.3-1.465-.348-3.286s.3-3.227.138-3.286a5.053,5.053,0,0,0-.716,3.286A5.146,5.146,0,0,0,321.163,691.111Z" transform="translate(1010.105 -9243.189)" fill="#455a64"/>
      <path id="Trazado_141431" data-name="Trazado 141431" d="M256.253,469.065c-1.137-1.347-2.024-3.746-1.314-5.362-1.354-.7-1.479-1.906-1.479-3.417a9.391,9.391,0,0,1,1.314-4.324,12.564,12.564,0,0,1,4.889-5.349,6.506,6.506,0,0,1,6.946.3,8.425,8.425,0,0,1,11.875-1.019l.2.171a8.816,8.816,0,0,0,1.827,1.669c1.209.657,2.681.414,4.048.545a7.077,7.077,0,0,1,5.914,9.857,7.7,7.7,0,0,1,3.286,5.914,22.486,22.486,0,0,1-.789,6.907c-.624,2.806-1.314,5.743-3.286,7.82a8.109,8.109,0,0,1-5.2,2.458,8.28,8.28,0,0,1-7.281-3.43" transform="translate(1081.382 -9162.061)" fill="#344154"/>
      <path id="Trazado_141432" data-name="Trazado 141432" d="M292,522.262l-22.474-1.012c-.131-2.385,1.091-17.2,1.091-17.2s-8.5-1.314-8.609-9.811,1.38-28,1.38-28h0a29.571,29.571,0,0,1,29.663,3.719l1.255,1.012Z" transform="translate(1075.241 -9167.521)" fill="#b78876"/>
      <path id="Trazado_141433" data-name="Trazado 141433" d="M281.15,523.248a19.716,19.716,0,0,0,11.125-3.148s-2.629,6.072-11.125,5.356Z" transform="translate(1064.687 -9186.81)" fill="#aa6550"/>
      <path id="Trazado_141434" data-name="Trazado 141434" d="M255.318,487.93c.138-.059,5.835-1.728,5.645,4.048s-5.98,4.429-5.98,4.258S255.318,487.93,255.318,487.93Z" transform="translate(1113.19 -9175.688)" fill="#b78876"/>
      <path id="Trazado_141435" data-name="Trazado 141435" d="M257.253,495.088a1.568,1.568,0,0,0,.276.164,1.052,1.052,0,0,0,.749,0,2.49,2.49,0,0,0,1.229-2.215,3.167,3.167,0,0,0-.243-1.459,1.189,1.189,0,0,0-.723-.8.532.532,0,0,0-.611.263c-.079.164-.053.276-.079.289s-.125-.105-.072-.348a.7.7,0,0,1,.243-.355.756.756,0,0,1,.565-.131,1.446,1.446,0,0,1,1.012.94,3.326,3.326,0,0,1,.3,1.63,2.628,2.628,0,0,1-1.557,2.458,1.1,1.1,0,0,1-.92-.177C257.266,495.193,257.234,495.1,257.253,495.088Z" transform="translate(1112.76 -9176.656)" fill="#aa6550"/>
      <path id="Trazado_141436" data-name="Trazado 141436" d="M302.53,487.233a1.216,1.216,0,0,0,1.163,1.229,1.17,1.17,0,0,0,1.255-1.071h0a1.209,1.209,0,0,0-1.163-1.222,1.157,1.157,0,0,0-1.249,1.045A.029.029,0,0,0,302.53,487.233Z" transform="translate(1037.964 -9175.174)" fill="#344154"/>
      <path id="Trazado_141437" data-name="Trazado 141437" d="M299.294,485.055c.145.158,1.065-.526,2.372-.519s2.261.657,2.405.493-.079-.348-.5-.657a3.371,3.371,0,0,0-1.932-.591,3.134,3.134,0,0,0-1.886.6C299.36,484.7,299.215,484.982,299.294,485.055Z" transform="translate(1040.938 -9174.356)" fill="#344154"/>
      <path id="Trazado_141438" data-name="Trazado 141438" d="M283.07,487.7a1.2,1.2,0,0,0,1.163,1.222,1.163,1.163,0,0,0,1.255-1.065h0a1.216,1.216,0,0,0-1.176-1.229,1.163,1.163,0,0,0-1.242,1.058Z" transform="translate(1070.212 -9175.332)" fill="#344154"/>
      <path id="Trazado_141439" data-name="Trazado 141439" d="M279.766,485.425c.151.158,1.071-.532,2.379-.519s2.267.657,2.405.493-.079-.348-.506-.657a3.325,3.325,0,0,0-1.919-.591,3.167,3.167,0,0,0-1.893.6C279.825,485.07,279.694,485.366,279.766,485.425Z" transform="translate(1073.292 -9174.483)" fill="#344154"/>
      <path id="Trazado_141440" data-name="Trazado 141440" d="M296.645,495.135a9.357,9.357,0,0,0-2.123-.388c-.335,0-.657-.1-.71-.322a1.807,1.807,0,0,1,.223-1.012l1.012-2.537a45.452,45.452,0,0,0,2.215-6.637,42.707,42.707,0,0,0-2.74,6.44l-.953,2.563a1.9,1.9,0,0,0-.171,1.314.822.822,0,0,0,.545.486,2.063,2.063,0,0,0,.565.085A8.3,8.3,0,0,0,296.645,495.135Z" transform="translate(1051.682 -9174.515)" fill="#344154"/>
      <path id="Trazado_141441" data-name="Trazado 141441" d="M292.261,502.26c-.217,0-.223,1.406-1.439,2.418a6.485,6.485,0,0,1-2.734,1.012c-.013.158.348.283,1.012.3a3.549,3.549,0,0,0,2.28-.789,3.115,3.115,0,0,0,1.111-2.024C292.51,502.556,292.353,502.26,292.261,502.26Z" transform="translate(1059.91 -9180.692)" fill="#344154"/>
      <path id="Trazado_141442" data-name="Trazado 141442" d="M278.536,477.79c.131.348,1.426.191,2.964.375s2.773.6,2.977.283c.092-.151-.125-.486-.624-.835a5.2,5.2,0,0,0-4.528-.493C278.76,477.35,278.477,477.626,278.536,477.79Z" transform="translate(1074.187 -9171.969)" fill="#344154"/>
      <path id="Trazado_141443" data-name="Trazado 141443" d="M299.144,479.307c.23.3,1.13,0,2.215,0s2.024.2,2.2-.112c.092-.151-.046-.447-.453-.729a3.2,3.2,0,0,0-3.562.112C299.163,478.834,299.065,479.136,299.144,479.307Z" transform="translate(1041.567 -9172.368)" fill="#344154"/>
      <path id="Trazado_141444" data-name="Trazado 141444" d="M295.318,468.9c-.112,2.471.434,5.257,0,7.662-.072.375-1.012,1.354-1.117,1.715-.493,2.149-1.387,3.036-2.668.854a19.127,19.127,0,0,1-1.012-4.193l-1.577-7.846a13.628,13.628,0,0,1-6.46,1.538,6.611,6.611,0,0,1-5.513-3.286,6.861,6.861,0,0,1-9.417,2.333,7.017,7.017,0,0,1-1.216-.933,2.865,2.865,0,0,1-3.785.8,3.4,3.4,0,0,1-1.387-3.739c.591-2.077,2.813-3.2,4.876-3.8,8.1-2.379,17.013-.519,24.281,3.739a12.543,12.543,0,0,1,2.931,2.221c.828.9,1.971,2.018,2.024,3.194" transform="translate(1074.688 -9165.843)" fill="#344154"/>
      <path id="Trazado_141445" data-name="Trazado 141445" d="M278.186,490.5a8.453,8.453,0,0,1-.71-1.084,5.257,5.257,0,0,1-.6-3.338A5.053,5.053,0,1,1,282.6,491.8a5.309,5.309,0,0,1-3.338-.6c-.716-.4-1.012-.749-1.071-.7s.059.1.21.263a4.6,4.6,0,0,0,.762.618,5.257,5.257,0,0,0,3.489.8,5.5,5.5,0,1,0-6.144-6.138,5.256,5.256,0,0,0,.789,3.476,4.117,4.117,0,0,0,.618.762Q278.153,490.51,278.186,490.5Z" transform="translate(1072.58 -9173.478)" fill="#455a64"/>
      <path id="Trazado_141446" data-name="Trazado 141446" d="M298.573,490.5a8.451,8.451,0,0,1-.71-1.084,5.309,5.309,0,0,1-.6-3.338A5.06,5.06,0,1,1,303,491.8a5.31,5.31,0,0,1-3.338-.6c-.723-.4-1.012-.749-1.084-.7s.059.1.21.263a4.335,4.335,0,0,0,.769.618,5.257,5.257,0,0,0,3.483.8,5.5,5.5,0,1,0-6.131-6.138,5.257,5.257,0,0,0,.789,3.476,4.118,4.118,0,0,0,.618.769A1.034,1.034,0,0,0,298.573,490.5Z" transform="translate(1038.774 -9173.477)" fill="#455a64"/>
      <path id="Trazado_141447" data-name="Trazado 141447" d="M292.91,488.863c0,.151.657.263,1.5.263s1.5-.112,1.5-.263-.657-.263-1.5-.263S292.91,488.738,292.91,488.863Z" transform="translate(1053.321 -9176.01)" fill="#455a64"/>
      <path id="Trazado_141448" data-name="Trazado 141448" d="M272.239,488.148a20.246,20.246,0,0,0-4.6-.427,21.477,21.477,0,0,0-4.639.112,19.474,19.474,0,0,0,4.6.414,20.715,20.715,0,0,0,4.639-.1Z" transform="translate(1096.649 -9175.681)" fill="#455a64"/>
      <path id="Trazado_141449" data-name="Trazado 141449" d="M224.98,484.559l7.229-2.629,6.88,2.392,9.548,9.956,6.19,5.914-10.113,4.495-5.349-2.136-8.543-5.809-4.823-9.1s1.373-.657,2.924,1.531l1.446,1.932,1.373-5.257v-1.571l-4.265,1.314a2.261,2.261,0,0,1-2.431-.71Z" transform="translate(1139.046 -9173.723)" fill="#b78876"/>
      <path id="Trazado_141450" data-name="Trazado 141450" d="M250,497.65a2.563,2.563,0,0,0-.657,1.15,8.07,8.07,0,0,0,.394,6.2c.375.723.716,1.1.769,1.058a17.432,17.432,0,0,1-1.012-4.153A17.17,17.17,0,0,1,250,497.65Z" transform="translate(1127.651 -9179.112)" fill="#aa6550"/>
      <path id="Trazado_141451" data-name="Trazado 141451" d="M253.747,496.092a14,14,0,0,0-2.629-.657h-.066a.953.953,0,0,0-.434,1.012,2.834,2.834,0,0,0,.46,1.012,1.071,1.071,0,0,1,.177.92,2.15,2.15,0,0,1-.716.854h.315a5.808,5.808,0,0,1-1.84-1.781c-.71-1.124.1-2.307.532-3.391a4.6,4.6,0,0,1,.355-.7.657.657,0,0,1,.565-.125l1.439.223a16.216,16.216,0,0,0,2.872.328,14.783,14.783,0,0,0-2.813-.657l-1.439-.282a1.065,1.065,0,0,0-.959.223,3.286,3.286,0,0,0-.453.815c-.243.545-.539,1.078-.762,1.722a2.583,2.583,0,0,0,.2,2.123,6.158,6.158,0,0,0,2.024,1.971l.158.112.151-.131a2.628,2.628,0,0,0,.841-1.084,1.518,1.518,0,0,0-.25-1.314,2.772,2.772,0,0,1-.44-.881.6.6,0,0,1,.2-.657h-.112a14.848,14.848,0,0,0,2.629.342Z" transform="translate(1123.83 -9177.455)" fill="#aa6550"/>
      <path id="Trazado_141452" data-name="Trazado 141452" d="M249.11,495.575a.828.828,0,0,1-.467.322.887.887,0,0,1-1.117-.578v-.046a3.01,3.01,0,0,1,.427-2.247c.361-.848.736-1.86,1.17-2.78s1.557-.769,2.471-.657,1.761.21,2.458.322a13.275,13.275,0,0,0,2.274.335,8.107,8.107,0,0,0-2.2-.7c-.7-.164-1.538-.322-2.484-.447a6.571,6.571,0,0,0-1.525-.079,1.781,1.781,0,0,0-1.446,1.012c-.5,1.012-.808,2.024-1.176,2.852a7.705,7.705,0,0,0-.421,1.314,2,2,0,0,0,.112,1.255,1.222,1.222,0,0,0,.756.749,1,1,0,0,0,.8-.059C249.163,495.857,249.163,495.575,249.11,495.575Z" transform="translate(1123.064 -9176.149)" fill="#aa6550"/>
      <path id="Trazado_141453" data-name="Trazado 141453" d="M248.34,492.326a8.182,8.182,0,0,0,.7-1.971c.191-.657.4-1.38.618-2.129.118-.394.23-.854.355-1.249a1.367,1.367,0,0,1,.8-.835,4.2,4.2,0,0,1,2.491.236l2.155.578a8.119,8.119,0,0,0,2.024.394,8.2,8.2,0,0,0-1.925-.756l-2.116-.657a4.37,4.37,0,0,0-2.832-.263,1.886,1.886,0,0,0-1.078,1.15c-.145.473-.223.881-.335,1.314l-.519,2.169A7.882,7.882,0,0,0,248.34,492.326Z" transform="translate(1121.049 -9174.964)" fill="#aa6550"/>
      <path id="Trazado_141454" data-name="Trazado 141454" d="M258.129,494.219a1.013,1.013,0,0,0-.151-.191c-.138-.138-.289-.322-.486-.532l-1.893-2.024-6.893-7.294h0l-6.88-2.418h-.053l-7.275,2.629h-.1v.473h0a2.3,2.3,0,0,0,1.15.769,3.1,3.1,0,0,0,1.433,0h0l3.01-.927,1.275-.394-.2-.144v1.511c-.467,1.8-.933,3.562-1.38,5.257h.276c-.657-.828-1.2-1.636-1.84-2.425a2.629,2.629,0,0,0-2.727-1.071h-.138l.079.151,4.843,9.1h0l6.276,4.206,1.807,1.209c.394.263.611.381.611.381s-.2-.164-.572-.434l-1.689-1.176-6.21-4.284h0l-4.791-9.108-.072.2a1.689,1.689,0,0,1,1.275.118,3.831,3.831,0,0,1,1.091.881c.6.749,1.2,1.6,1.814,2.418l.191.256.079-.3,1.387-5.257h0v-1.768l-.2.059-1.275.394-2.983.913h0a3.012,3.012,0,0,1-1.314,0,2.044,2.044,0,0,1-1.012-.657v-.2l-.105.144,7.268-2.628h-.105l6.893,2.346h0l6.979,7.229,1.932,2.024.513.513A.714.714,0,0,0,258.129,494.219Z" transform="translate(1129.554 -9173.664)" fill="#aa6550"/>
      <path id="Trazado_141455" data-name="Trazado 141455" d="M376.709,577.441l.473-34.934-9.088-3.049c-2.865-.546-5.645-1.59-9.016-1.728h0a17.742,17.742,0,0,1-21.653.269l-.309-.23c-.867.1-2.024.21-3.47.388h-.283a21.219,21.219,0,0,0-9.943,3.943h0l-45.238,27.008-26.562-20.233L238.17,559.429S273,594.258,276.343,595.053c2.339.578,25.55-12.137,39.626-19.944-.578,8.424-3.726,55.259-3.575,61.706h64.623l.052-29.539v-8.024Z" transform="translate(1008.024 -9192.854)" fill="#d9a171"/>
      <path id="Trazado_141456" data-name="Trazado 141456" d="M332.064,564.24a6.854,6.854,0,0,1,.052,1.557c0,1.124-.085,2.537-.125,4.206-.131,3.562-.361,8.464-.657,13.892s-.585,10.324-.841,13.872c-.131,1.669-.243,3.036-.322,4.2a8.228,8.228,0,0,1-.21,1.551,6.807,6.807,0,0,1-.052-1.551c0-1.13.079-2.537.131-4.219.132-3.555.355-8.464.657-13.886s.585-10.337.835-13.892c.131-1.669.243-3.029.335-4.193A8.022,8.022,0,0,1,332.064,564.24Z" transform="translate(992.797 -9201.943)" fill="#344154"/>
      <path id="Trazado_141457" data-name="Trazado 141457" d="M183.633,500.89s25.859,24.17,34.02,34.073c3.693,4.462,4.534,11.125,1.557,16.08h0a12.262,12.262,0,0,1-11.388,5.967l-31.135-2.083-2.359-25.9,18.827,5.881-21.949-22.934Z" transform="translate(1208.197 -9180.223)" fill="#d9a171"/>
      <path id="Trazado_141458" data-name="Trazado 141458" d="M238.634,601.387c.151,0,.191-5.566.1-12.413s-.283-12.394-.434-12.394-.184,5.553-.092,12.4S238.45,601.387,238.634,601.387Z" transform="translate(1146.434 -9206.174)" fill="#344154"/>
      <path id="Trazado_141459" data-name="Trazado 141459" d="M187.76,539.08a5.86,5.86,0,0,0,.782,1.012l2.287,2.563c1.971,2.155,4.712,5.145,7.886,8.543l-.059-.112a41.1,41.1,0,0,0,4.515,10.284,15.772,15.772,0,0,0,4.6,4.357,11.122,11.122,0,0,0,3.943,1.59,6.853,6.853,0,0,0,1.157.125h.4s-.552-.085-1.518-.315a12.057,12.057,0,0,1-3.8-1.7,16.12,16.12,0,0,1-4.383-4.318,34.228,34.228,0,0,1-3.345-6.847c-.414-1.117-.782-2.228-1.1-3.286v-.059h0c-3.161-3.378-5.973-6.322-8-8.418l-2.385-2.445A7.428,7.428,0,0,0,187.76,539.08Z" transform="translate(1205.062 -9193.317)" fill="#344154"/>
      <path id="Trazado_141460" data-name="Trazado 141460" d="M206.33,563.39a12.184,12.184,0,0,0,1.163,9.529c.151-.059-.729-2.024-1.012-4.712S206.488,563.41,206.33,563.39Z" transform="translate(1198.939 -9201.651)" fill="#344154"/>
      <path id="Trazado_141461" data-name="Trazado 141461" d="M245.388,638.4a1.113,1.113,0,0,0,.138-.2l.394-.657,1.459-2.431a42.437,42.437,0,0,0,2.155-3.943,9.608,9.608,0,0,0,.907-5.875c-.414-2.228-1.735-4.331-2.707-6.69a10.706,10.706,0,0,1-.841-3.812,17.371,17.371,0,0,1,.434-4.16c.585-2.819,1.689-5.724,1.971-8.931a31.785,31.785,0,0,0-.854-9.772c-.736-3.286-1.649-6.44-2.293-9.528a44.842,44.842,0,0,1-.71-4.6c0-.749-.105-1.5-.132-2.241s0-1.472,0-2.195a81.865,81.865,0,0,1,2.537-15.173,102.14,102.14,0,0,0,2.011-10.179c.171-1.222.263-2.175.3-2.819v-.743a.792.792,0,0,0,0-.25.882.882,0,0,1-.053.25c-.046.164-.059.44-.1.729-.059.657-.191,1.59-.394,2.806-.381,2.425-1.15,5.914-2.215,10.166a79.416,79.416,0,0,0-2.629,15.239v2.221c0,.749.072,1.5.112,2.274a45.894,45.894,0,0,0,.71,4.6c.657,3.115,1.557,6.263,2.287,9.529a31.543,31.543,0,0,1,.867,9.64c-.263,3.128-1.314,6.013-1.932,8.885a17.313,17.313,0,0,0-.414,4.278,11.249,11.249,0,0,0,.887,3.943c1.012,2.405,2.339,4.462,2.747,6.572a9.279,9.279,0,0,1-.815,5.684,41.954,41.954,0,0,1-2.017,3.943l-1.367,2.477-.348.657C245.408,638.322,245.375,638.4,245.388,638.4Z" transform="translate(1130.302 -9195.072)" fill="#fafafa"/>
      <path id="Trazado_141462" data-name="Trazado 141462" d="M270.083,543.69a.952.952,0,0,0-.066.243l-.164.716c-.131.657-.3,1.557-.506,2.773a72.46,72.46,0,0,0-.881,10.324,76.623,76.623,0,0,0,1.314,15.3c1.012,5.7,2.688,11.829,3.233,18.485s-.46,12.952-1.255,18.669a120.6,120.6,0,0,0-1.525,15.3,36.176,36.176,0,0,0,1.209,10.278l.223.835.25.723.427,1.124.263.657c.059.151.1.23.1.23a.8.8,0,0,0,0-.25l-.223-.7-.361-1.13-.237-.716c-.079-.263-.118-.545-.191-.841a37.7,37.7,0,0,1-1.012-10.225,126.463,126.463,0,0,1,1.649-15.173c.808-5.717,1.794-12.072,1.314-18.788s-2.241-12.854-3.286-18.518a77.956,77.956,0,0,1-1.426-15.226,81.8,81.8,0,0,1,.71-10.3c.158-1.216.3-2.155.414-2.78a5.323,5.323,0,0,1,.1-.729A.546.546,0,0,0,270.083,543.69Z" transform="translate(1091.531 -9194.897)" fill="#fafafa"/>
      <path id="Trazado_141463" data-name="Trazado 141463" d="M299.721,636.98l.138-.21.375-.657a6.107,6.107,0,0,0,.519-1.111c.079-.223.191-.467.269-.736s.145-.558.223-.861a16.121,16.121,0,0,0,.322-4.561,54.566,54.566,0,0,0-.8-6.013,50.317,50.317,0,0,1-.9-7.229,21.686,21.686,0,0,1,1.426-8.089,66.852,66.852,0,0,0,2.813-8.871,29.256,29.256,0,0,0-.2-10.008c-.526-3.384-1.209-6.644-1.406-9.857a37.98,37.98,0,0,1,.723-9.2c1.13-5.783,2.7-10.915,3.233-15.4a28.654,28.654,0,0,0-.322-10.58,14.559,14.559,0,0,0-1.314-3.66.845.845,0,0,0,.079.25l.263.7a19.874,19.874,0,0,1,.789,2.747,29.152,29.152,0,0,1,.151,10.514c-.565,4.436-2.175,9.535-3.338,15.357a37.66,37.66,0,0,0-.756,9.285c.184,3.246.881,6.571,1.406,9.9a28.982,28.982,0,0,1,.2,9.818,66.809,66.809,0,0,1-2.767,8.812,31.028,31.028,0,0,0-1.13,4.206,18.734,18.734,0,0,0-.276,4.107,50.368,50.368,0,0,0,1.012,7.288,54.957,54.957,0,0,1,.874,5.947,16.209,16.209,0,0,1-.237,4.508A15.574,15.574,0,0,1,299.721,636.98Z" transform="translate(1038.138 -9193.611)" fill="#fafafa"/>
      <path id="Trazado_141464" data-name="Trazado 141464" d="M323.122,549.3a1.655,1.655,0,0,0-.079.237l-.2.657c-.177.6-.375,1.485-.6,2.628a43.7,43.7,0,0,0-.394,9.975c.243,4.206,1.065,9.2,1.827,14.681a132.033,132.033,0,0,1,1.117,18.012,244.243,244.243,0,0,1-2.911,32.693c-.618,4.127-1.124,7.485-1.479,9.857-.171,1.124-.289,2.024-.394,2.681a3.664,3.664,0,0,1-.092.7,1.507,1.507,0,0,0,0,.243.936.936,0,0,0,.072-.23,5.674,5.674,0,0,1,.131-.7c.125-.657.283-1.538.5-2.629.4-2.32,1.012-5.678,1.636-9.857A226.986,226.986,0,0,0,325.3,595.5a128.076,128.076,0,0,0-1.176-18.085c-.789-5.513-1.63-10.449-1.919-14.641a45.026,45.026,0,0,1,.223-9.91c.177-1.156.342-2.024.493-2.628l.145-.69a.735.735,0,0,0,.059-.243Z" transform="translate(1006.187 -9196.821)" fill="#fafafa"/>
      <path id="Trazado_141465" data-name="Trazado 141465" d="M346.086,590.523a3.529,3.529,0,0,0,.151-1.012c.066-.657.131-1.643.2-2.845.131-2.4.243-5.717.25-9.384s-.059-6.992-.171-9.391c-.059-1.2-.112-2.175-.171-2.839a4.744,4.744,0,0,0-.131-1.012,3.72,3.72,0,0,0-.072,1.012v12.216c0,3.595-.072,6.847-.1,9.377v2.845A4.529,4.529,0,0,0,346.086,590.523Z" transform="translate(967.642 -9201.874)" fill="#fafafa"/>
      <path id="Trazado_141466" data-name="Trazado 141466" d="M357.556,569.67a8.059,8.059,0,0,0,.467.92,5.873,5.873,0,0,1,.585,2.668c0,1.163-.243,2.583-.4,4.14s-.539,3.286-.769,5.06a23.818,23.818,0,0,0-.105,5.165,13.141,13.141,0,0,0,1.012,4.127,10.741,10.741,0,0,0,1.492,2.431,3.085,3.085,0,0,0,.723.756,22.914,22.914,0,0,1-1.866-3.325,19.373,19.373,0,0,1-.71-9.108c.223-1.787.559-3.5.729-5.053a36.2,36.2,0,0,0,.289-4.212,5.6,5.6,0,0,0-.775-2.76A2.741,2.741,0,0,0,357.556,569.67Z" transform="translate(946.401 -9203.805)" fill="#fafafa"/>
      <path id="Trazado_141467" data-name="Trazado 141467" d="M220.4,572.388a7.737,7.737,0,0,0-1.354,0,14.508,14.508,0,0,1-3.614-.335,8.747,8.747,0,0,1-4.37-2.911c-1.347-1.531-2.688-3.358-4.179-5.2-2.951-3.726-5.645-7.084-7.616-9.47l-2.346-2.832a6.4,6.4,0,0,0-.92-1.012,6.754,6.754,0,0,0,.756,1.111l2.221,2.944c1.9,2.458,4.541,5.849,7.491,9.561,1.5,1.847,2.832,3.647,4.232,5.2a8.937,8.937,0,0,0,4.639,2.951,12.586,12.586,0,0,0,3.746.164A6.227,6.227,0,0,0,220.4,572.388Z" transform="translate(1192.518 -9197.276)" fill="#fafafa"/>
      <path id="Trazado_141468" data-name="Trazado 141468" d="M175.59,510.1a4.229,4.229,0,0,0,.243.6,12.761,12.761,0,0,0,.867,1.617,20.259,20.259,0,0,0,4.495,5.06c2.175,1.847,5.053,3.713,8.043,5.914s6.217,4.909,8.162,8.753a55.123,55.123,0,0,0,2.97,5.612,15.974,15.974,0,0,0,4.291,4.114c1.557,1.084,3.1,2.024,4.442,2.944a16.431,16.431,0,0,1,3.4,3.036,7.952,7.952,0,0,1,1.879,6.131,6.573,6.573,0,0,1-.841,2.274l.112-.118a1.907,1.907,0,0,0,.289-.394,5.4,5.4,0,0,0,.657-1.722,8.09,8.09,0,0,0-1.787-6.4,16.485,16.485,0,0,0-3.443-3.181c-1.354-1.005-2.891-1.906-4.409-2.984a15.651,15.651,0,0,1-4.147-4.041,51,51,0,0,1-2.924-5.566c-2.024-3.943-5.323-6.729-8.352-8.9s-5.914-4.042-8.1-5.8a21.288,21.288,0,0,1-4.554-4.85,12.386,12.386,0,0,1-.94-1.557A2.53,2.53,0,0,0,175.59,510.1Z" transform="translate(1211.64 -9183.381)" fill="#fafafa"/>
      <g id="Grupo_70339" data-name="Grupo 70339" transform="translate(1401.628 -8643.41)" opacity="0.3">
        <path id="Trazado_110030" data-name="Trazado 110030" d="M204.739,572.894a15.942,15.942,0,0,1-16.179-15.7v-.164c0-.532.092-1.17.572-1.413a1.071,1.071,0,0,1,1.262.434,3.241,3.241,0,0,1,.453,1.367,22.264,22.264,0,0,0,12.584,15.87" transform="translate(-188.56 -555.556)"/>
      </g>
      <path id="Trazado_141469" data-name="Trazado 141469" d="M376.875,479.211a16.646,16.646,0,0,0-3.4-7.38,21.534,21.534,0,0,0-8-5.474,37.412,37.412,0,0,0-10.973-2.543c-2.011-.191-4.093-.3-6.252-.335a21,21,0,0,0-6.637.769,18.576,18.576,0,0,0-3.3,1.314,14.52,14.52,0,0,0-2.993,2.221,18.832,18.832,0,0,0-2.585,2.944,10.951,10.951,0,0,0-1.029,1.774,5.231,5.231,0,0,0-.591,2.083v.171h.166c4.087.394,8.471,1.393,13.061,2.024l-.166-.223c-.538,4.935-1.082,10.113-1.378,15.4-.059,1.314-.106,2.681-.089,4.048s.089,2.714.089,4.048c0,2.753,0,5.54.2,8.372a83.95,83.95,0,0,0,2.644,17.158,68.155,68.155,0,0,0,6.9,16.619c3.023,5.316,7.193,9.791,10.015,15.456a49.511,49.511,0,0,1,5.655,18.466,93.03,93.03,0,0,1,.106,10.113q-.053,5.06-.106,10.258c-.047,6.88,0,13.846.207,20.89.254,8.089.639,16.179,1.568,24.012a47.769,47.769,0,0,0,2.514,11.474,45.784,45.784,0,0,0,5.324,9.989c4.271,6.072,9.577,10.9,14.439,15.863l1.721,1.971c.556.657,1.118,1.314,1.656,2.024l.739,1.071a6.353,6.353,0,0,1,.674,1.1l.591,1.163q.226.606.4,1.235a93.616,93.616,0,0,1,1.414,10.514c1.213,14,1.775,27.37,2.325,39.875s.9,24.15,1.236,34.829.592,20.227.775,28.717q.124,6.341.237,11.776a35.546,35.546,0,0,0,.254,5.2,14.86,14.86,0,0,0,1.437,4.442,15.462,15.462,0,0,0,12.9,8.458h.822a5.42,5.42,0,0,1-.822-.053,15.5,15.5,0,0,1-12.736-8.5,14.52,14.52,0,0,1-1.4-4.376,35.124,35.124,0,0,1-.231-5.172c-.065-3.621-.124-7.557-.2-11.782-.172-8.458-.4-18.085-.7-28.73s-.674-22.251-1.183-34.829-1.082-25.878-2.283-39.908a93.988,93.988,0,0,0-1.355-10.626c-.142-.44-.249-.9-.42-1.314l-.621-1.209a6.774,6.774,0,0,0-.692-1.143l-.757-1.091c-.544-.7-1.112-1.367-1.674-2.024l-1.822-1.919c-4.88-5-10.162-9.772-14.386-15.811a45.363,45.363,0,0,1-5.282-9.857,47.469,47.469,0,0,1-2.461-11.349c-.911-7.84-1.307-15.863-1.562-23.973-.207-7.031-.254-13.991-.207-20.871q.053-5.159.106-10.245a93.173,93.173,0,0,0-.112-10.146,49.847,49.847,0,0,0-5.726-18.663c-2.851-5.724-7.045-10.232-10.014-15.476a67.233,67.233,0,0,1-6.862-16.461,84.289,84.289,0,0,1-2.626-17.086c-.142-2.826-.177-5.619-.2-8.365,0-1.367-.059-2.76-.095-4.048s0-2.688.083-4.048c.284-5.31.822-10.449,1.349-15.384v-.2h-.166c-4.555-.657-8.95-1.617-13.085-2.024l.166.2a7.472,7.472,0,0,1,1.508-3.634,18.74,18.74,0,0,1,2.532-2.891,14.738,14.738,0,0,1,2.922-2.188,19.173,19.173,0,0,1,3.242-1.314,20.931,20.931,0,0,1,6.542-.782c2.147,0,4.224.125,6.229.315a36.906,36.906,0,0,1,10.925,2.51,21.423,21.423,0,0,1,7.938,5.369,16.57,16.57,0,0,1,3.4,7.281c.213,1.176.473,2.261.592,3.286a18.619,18.619,0,0,1,.118,2.753q-.115,2.464-.166,3.746S377.082,480.394,376.875,479.211Z" transform="translate(894.88 -9167.39)" fill="#344154"/>
      <path id="Trazado_109959" data-name="Trazado 109959" d="M212.968,998.28q-.227,2.292-.227,4.6a44.873,44.873,0,0,0,0,4.6,43.039,43.039,0,0,0,.227-4.56A41.889,41.889,0,0,0,212.968,998.28Z" transform="translate(1154.315 -9350.757)" fill="#344154"/>
      <path id="Trazado_109961" data-name="Trazado 109961" d="M205.918,1018.916c-.054.053.1.3.233.657s.2.657.274.657.1-.342-.048-.723S205.954,1018.857,205.918,1018.916Z" transform="translate(1164.446 -9357.829)" fill="#344154"/>
      <path id="Trazado_109962" data-name="Trazado 109962" d="M208.079,1015.756c-.054.052.072.289.286.526s.412.388.453.335-.078-.283-.28-.526S208.12,1015.71,208.079,1015.756Z" transform="translate(1160.975 -9356.746)" fill="#344154"/>
      <path id="Trazado_109963" data-name="Trazado 109963" d="M210.931,1014.237c0,.072.28.079.6.191s.5.309.561.256-.113-.368-.477-.506S210.913,1014.164,210.931,1014.237Z" transform="translate(1156.21 -9356.187)" fill="#344154"/>
      <path id="Trazado_109964" data-name="Trazado 109964" d="M214.415,1013.563a.368.368,0,0,0,.257.263c.167.066.322.072.346,0s-.09-.19-.257-.263S214.439,1013.5,214.415,1013.563Z" transform="translate(1151.425 -9355.979)" fill="#344154"/>
      <path id="Trazado_109966" data-name="Trazado 109966" d="M283.38,1018.96a7.941,7.941,0,0,1,2.53-4.784,6.411,6.411,0,0,1,4.7-1.682l.072,6.223Z" transform="translate(1039.837 -9355.626)"/>
      <path id="Trazado_109970" data-name="Trazado 109970" d="M319.717,1016.964a2.7,2.7,0,0,1-.656-.835,2.465,2.465,0,0,1-.442-1.012c.054-.059.352.335.656.841A2.65,2.65,0,0,1,319.717,1016.964Z" transform="translate(991.802 -9356.528)" fill="#344154"/>
      <path id="Trazado_109971" data-name="Trazado 109971" d="M317.164,1015.85c-.048.053-.364-.171-.728-.513s-.6-.657-.549-.723.37.177.716.519S317.211,1015.784,317.164,1015.85Z" transform="translate(995.803 -9356.354)" fill="#344154"/>
      <path id="Trazado_109972" data-name="Trazado 109972" d="M316.312,1013.25a2.321,2.321,0,0,1-1.056.158,2.078,2.078,0,0,1-1.056-.112,2.293,2.293,0,0,1,1.05-.158A2.182,2.182,0,0,1,316.312,1013.25Z" transform="translate(997.608 -9355.844)" fill="#344154"/>
      <path id="Trazado_109973" data-name="Trazado 109973" d="M316.027,1011a2.74,2.74,0,0,1-2.387.236q1.194-.1,2.387-.236Z" transform="translate(998.209 -9355.117)" fill="#344154"/>
      <path id="Trazado_109974" data-name="Trazado 109974" d="M323.624,1013.979a3.328,3.328,0,0,1-1.3,0,6.374,6.374,0,0,1-1.39-.315,4.449,4.449,0,0,1-.788-.342.814.814,0,0,1-.334-.447.6.6,0,0,1,.2-.572,2.247,2.247,0,0,1,2.948.723,2.576,2.576,0,0,1,.442.953,1.06,1.06,0,0,1,0,.388,3.992,3.992,0,0,0-.6-1.216,2.335,2.335,0,0,0-1.122-.782,1.838,1.838,0,0,0-1.539.144c-.2.171-.119.434.107.585a3.5,3.5,0,0,0,.734.322,6.929,6.929,0,0,0,1.343.375A6.483,6.483,0,0,0,323.624,1013.979Z" transform="translate(987.475 -9355.469)" fill="#344154"/>
      <path id="Trazado_109975" data-name="Trazado 109975" d="M317.748,1013.716a1.594,1.594,0,0,1-.155-1.012,2.456,2.456,0,0,1,.34-1.005,1.291,1.291,0,0,1,1.074-.749.578.578,0,0,1,.406.657,1.732,1.732,0,0,1-.215.657,4.5,4.5,0,0,1-.6.874,1.9,1.9,0,0,1-.734.585,6.928,6.928,0,0,0,.6-.716,5.049,5.049,0,0,0,.537-.861c.173-.3.292-.854,0-.913s-.656.322-.847.618a2.433,2.433,0,0,0-.358.933,6.29,6.29,0,0,0-.048.933Z" transform="translate(992.705 -9355.101)" fill="#344154"/>
      <path id="Trazado_109976" data-name="Trazado 109976" d="M290.853,1012.334a7.122,7.122,0,0,0-1.5.079,6.512,6.512,0,0,0-5.239,4.725c-.3.953-.316,1.6-.364,1.591a1.127,1.127,0,0,1,0-.447,6.238,6.238,0,0,1,.209-1.2,6.982,6.982,0,0,1,2-3.351,6.021,6.021,0,0,1,3.377-1.5,4.526,4.526,0,0,1,1.116,0A1.475,1.475,0,0,1,290.853,1012.334Z" transform="translate(1039.47 -9355.525)" fill="#344154"/>
      <path id="Trazado_109977" data-name="Trazado 109977" d="M287.049,998.35a90.154,90.154,0,0,1,.233,9.161,41.856,41.856,0,0,1-.233-4.6A45.229,45.229,0,0,1,287.049,998.35Z" transform="translate(1040.831 -9350.78)" fill="#344154"/>
      <path id="Trazado_109978" data-name="Trazado 109978" d="M305.907,1019.081a15.029,15.029,0,0,1-5.907.138c0-.066,1.337,0,2.983-.046S305.907,1019.022,305.907,1019.081Z" transform="translate(1015.772 -9357.883)" fill="#344154"/>
      <path id="Trazado_109979" data-name="Trazado 109979" d="M293.9,1019c.054.046-.1.3-.233.657s-.2.657-.274.657-.107-.355.048-.743S293.864,1018.944,293.9,1019Z" transform="translate(1030.903 -9357.857)" fill="#344154"/>
      <path id="Trazado_109980" data-name="Trazado 109980" d="M291.625,1015.852c.054.046-.072.283-.286.513s-.412.388-.459.335.084-.283.286-.519S291.559,1015.786,291.625,1015.852Z" transform="translate(1034.489 -9356.776)" fill="#344154"/>
      <path id="Trazado_109981" data-name="Trazado 109981" d="M288.486,1014.317c0,.079-.286.079-.6.2s-.507.289-.561.243.113-.368.477-.506S288.5,1014.245,288.486,1014.317Z" transform="translate(1039.539 -9356.214)" fill="#344154"/>
      <path id="Trazado_109982" data-name="Trazado 109982" d="M285.453,1013.643c0,.072-.09.191-.257.263s-.322.079-.352,0,.1-.184.257-.263S285.453,1013.584,285.453,1013.643Z" transform="translate(1043.843 -9356.007)" fill="#344154"/>
      <path id="Trazado_110016" data-name="Trazado 110016" d="M430.667,563.53c.137.158-2.518,2.924-5.907,6.177s-6.217,5.79-6.325,5.645,2.554-2.872,5.967-6.138c1.689-1.63,3.24-3.036,4.38-4.107a12.964,12.964,0,0,1,1.886-1.577Z" transform="translate(832.349 -9201.7)" fill="#344154"/>
      <path id="Trazado_110017" data-name="Trazado 110017" d="M426.062,567c.107.138-2.584,2.911-5.967,6.23-1.7,1.656-3.264,3.128-4.41,4.166a9.963,9.963,0,0,1-1.951,1.59,10.5,10.5,0,0,1,1.665-1.932c1.086-1.137,2.6-2.661,4.308-4.317s3.216-3.108,4.409-4.133A9.675,9.675,0,0,1,426.062,567Z" transform="translate(839.757 -9202.889)" fill="#344154"/>
      <path id="Trazado_110032" data-name="Trazado 110032" d="M59.7,944.668s15.1,3.575,7.268,23.815-3.15,25.747,2.255,27.173l-41.422-.3L24.13,944.49Z" transform="translate(1427.857 -9332.314)" fill="#e0e0e0"/>
      <path id="Trazado_110033" data-name="Trazado 110033" d="M101.883,995.642a11.317,11.317,0,0,0,7.984-3.286c3.407-3.286,7.614-9.469,8.449-20.174,1.754-22.645,13.694-27.482,13.694-27.482l-35.556-.171s-11.546,0-12.483,20.1C82.992,985.7,56.463,997.8,40.09,995.439Z" transform="translate(1355.551 -9332.328)" fill="#f5f5f5"/>
      <path id="Trazado_110034" data-name="Trazado 110034" d="M127.666,891.488s18.623-2.464,20.693,42.977,33.265,42.971,33.265,42.971h-62.2s-12.942-3.168-9.929-35.229c1.259-13.458-20.657-50.692-20.657-50.692Z" transform="translate(1278.672 -9314.517)" fill="#ebebeb"/>
      <path id="Trazado_110035" data-name="Trazado 110035" d="M186.516,896.62c1.981,2.629,1.193,6.821-.561,9.653a19.378,19.378,0,0,1-7.2,6.322c-2.757,1.577-5.639,2.911-8.109,4.988-3.819,3.214-6.367,7.991-7.906,13a87.175,87.175,0,0,0-2.81,15.561s2.035-37.7,8.055-48.162S182.715,891.625,186.516,896.62Z" transform="translate(1208.553 -9314.134)" fill="#e0e0e0"/>
      <path id="Trazado_110036" data-name="Trazado 110036" d="M235.848,977.448s18.366,1.012,20.92-22.468,4.7-62.08,16.647-63.48H235.752c-5.295-.013-10.055,3.55-11.993,8.977-1.635,4.633-3.3,11.487-4.326,21.456-2.178,21.074-13.014,55.778-40.163,55.476Z" transform="translate(1133.162 -9314.554)" fill="#f5f5f5"/>
      <path id="Trazado_110038" data-name="Trazado 110038" d="M267.434,993.108q.2-1.981.2-3.976l-.2.223h3.58l-.239-.263h0v3.89l.215-.223a30.21,30.21,0,0,0-3.61.223,22.121,22.121,0,0,0,3.61.237h.2v-4.127h0l-.239-.263H267.13v.217A29.806,29.806,0,0,0,267.434,993.108Z" transform="translate(1067.661 -9347.517)" fill="#344154"/>
      <path id="Trazado_110040" data-name="Trazado 110040" d="M276.785,1006.381a36.869,36.869,0,0,0,.215-3.976l-.215.224h3.61l-.239-.263h0v3.943l.2-.23a27.648,27.648,0,0,0-3.61.23,23.756,23.756,0,0,0,3.61.223h.215v-4.16h0l-.239-.263H276.54v.263A30.7,30.7,0,0,0,276.785,1006.381Z" transform="translate(1053.323 -9352.07)" fill="#344154"/>
      <path id="Trazado_110042" data-name="Trazado 110042" d="M259.431,959.72a38.355,38.355,0,0,0,.209-3.943l-.209.236h3.58l-.239-.263h0v3.89l.2-.217a30.028,30.028,0,0,0-3.61.217,22.067,22.067,0,0,0,3.61.237h.209V955.75h0c.209.23-.292-.322-.251-.263h-3.789v.224A30.436,30.436,0,0,0,259.431,959.72Z" transform="translate(1079.827 -9336.083)" fill="#344154"/>
      <path id="Trazado_110044" data-name="Trazado 110044" d="M257.215,942.27q.2-1.987.2-3.989l-.2.237h3.61l-.239-.263h0v3.9l.209-.23a27.665,27.665,0,0,0-3.58.23,24.573,24.573,0,0,0,3.58.224h.173v-4.14h0c.215.243-.292-.309-.239-.263h-3.819v.224A29.9,29.9,0,0,0,257.215,942.27Z" transform="translate(1083.218 -9330.081)" fill="#344154"/>
      <path id="Trazado_110046" data-name="Trazado 110046" d="M254.165,926.319q.2-1.965.209-3.943l-.209.236h3.58l-.239-.263h0v3.89l.2-.224a30.1,30.1,0,0,0-3.58.224,22.1,22.1,0,0,0,3.58.237h.2V922.35h0c.215.23-.28-.329-.239-.263h-3.819v.3A31.418,31.418,0,0,0,254.165,926.319Z" transform="translate(1087.891 -9324.632)" fill="#344154"/>
      <path id="Trazado_110048" data-name="Trazado 110048" d="M250.014,911.675q.2-1.964.2-3.943l-.2.224h3.58l-.239-.263h0v3.943l.209-.23a31.673,31.673,0,0,0-3.58.23,23.72,23.72,0,0,0,3.58.236h.2v-4.179h0l-.239-.263H249.71v.23a29.553,29.553,0,0,0,.3,4.015Z" transform="translate(1094.261 -9319.608)" fill="#344154"/>
      <path id="Trazado_110050" data-name="Trazado 110050" d="M242.93,899.378q.2-1.98.2-3.976l-.2.23h3.58l-.239-.263h0v3.9l.209-.223a31.627,31.627,0,0,0-3.61.223,22.173,22.173,0,0,0,3.61.23h.2v-4.133h0l-.239-.263H242.62v.223a29.723,29.723,0,0,0,.31,4.055Z" transform="translate(1105.079 -9315.381)" fill="#344154"/>
      <path id="Trazado_110053" data-name="Trazado 110053" d="M268.907,996.024a9.936,9.936,0,0,0-1.653-2.628c-.215-.263-.406-.526-.6-.8l-.155-.2-.161.171c-.847.854-1.4,1.511-1.337,1.6s.746-.427,1.629-1.229h-.322l.6.821A9.4,9.4,0,0,0,268.907,996.024Z" transform="translate(1071.06 -9348.737)" fill="#d9a171"/>
      <path id="Trazado_110056" data-name="Trazado 110056" d="M263.307,976.426q.2-1.963.215-3.943l-.215.23h3.61l-.239-.263h0v3.9l.2-.224a28.869,28.869,0,0,0-3.61.224,22.909,22.909,0,0,0,3.61.23h.2V972.45h0c.221.23-.286-.322-.239-.263h-3.819v.224a30.6,30.6,0,0,0,.28,4.015Z" transform="translate(1073.879 -9341.81)" fill="#344154"/>
      <path id="Trazado_110057" data-name="Trazado 110057" d="M265.214,978.807a10.129,10.129,0,0,0-1.659-2.629c-.209-.263-.412-.526-.6-.8l-.155-.2-.167.171c-.841.848-1.4,1.5-1.331,1.59s.746-.421,1.629-1.216h-.322l.6.815A9.733,9.733,0,0,0,265.214,978.807Z" transform="translate(1076.702 -9342.836)" fill="#d9a171"/>
      <g id="Grupo_1111912" data-name="Grupo 1111912">
        <path id="Trazado_110058" data-name="Trazado 110058" d="M110.436,1002.033c0-.151-4.976-.263-11.122-.263s-11.134.112-11.134.263,4.982.263,11.134.263S110.436,1002.177,110.436,1002.033Z" transform="translate(1349.758 -9351.953)" fill="#344154"/>
        <path id="Trazado_110059" data-name="Trazado 110059" d="M81.639,999.8a31.7,31.7,0,0,0-.2,3.608l.2-.217H78.357c-.048-.066.459.493.251.263h0v-3.634l-.215.23a23.9,23.9,0,0,0,3.282-.23,18.922,18.922,0,0,0-3.282-.223h-.2v3.838h0l.239.263h3.491v-.224A24.368,24.368,0,0,0,81.639,999.8Z" transform="translate(1382.908 -9351.208)" fill="#344154"/>
        <path id="Trazado_110061" data-name="Trazado 110061" d="M103.016,991.093c0-.151-4.988-.263-11.128-.263s-11.128.112-11.128.263,4.982.263,11.128.263S103.016,991.231,103.016,991.093Z" transform="translate(1360.277 -9348.203)" fill="#344154"/>
        <path id="Trazado_110062" data-name="Trazado 110062" d="M74.3,988.882a33.254,33.254,0,0,0-.2,3.614l.2-.224H71.029l.239.263h0v-3.654l-.209.237a23.762,23.762,0,0,0,3.276-.237,18.89,18.89,0,0,0-3.276-.223h-.185V992.5h0l.239.263h3.413v-.224A23.32,23.32,0,0,0,74.3,988.882Z" transform="translate(1394.663 -9347.457)" fill="#344154"/>
        <path id="Trazado_110064" data-name="Trazado 110064" d="M100.486,978.733c0-.151-4.982-.263-11.122-.263s-11.134.111-11.134.263,4.976.263,11.134.263S100.486,978.871,100.486,978.733Z" transform="translate(1364.317 -9343.965)" fill="#344154"/>
        <path id="Trazado_110065" data-name="Trazado 110065" d="M71.736,976.509a33.249,33.249,0,0,0-.2,3.615l.2-.224h-3.27l.239.263h0v-3.6l-.2.23a23.728,23.728,0,0,0,3.27-.23,18.786,18.786,0,0,0-3.27-.224h-.209v3.838h0c-.215-.237.292.322.245.263h3.485v-.223a24.107,24.107,0,0,0-.286-3.706Z" transform="translate(1398.741 -9343.232)" fill="#344154"/>
        <path id="Trazado_110067" data-name="Trazado 110067" d="M97.74,966.086c0-.151-4.982-.276-11.128-.276s-11.122.125-11.122.276,4.982.263,11.122.263S97.74,966.224,97.74,966.086Z" transform="translate(1368.698 -9339.625)" fill="#344154"/>
        <path id="Trazado_110068" data-name="Trazado 110068" d="M68.975,963.907a30.311,30.311,0,0,0-.209,3.608l.209-.23H65.693l.239.263h0v-3.581l-.209.23a26.138,26.138,0,0,0,3.282-.23,19.631,19.631,0,0,0-3.282-.237h-.2v3.818h0l.239.263h3.5v-.223A25.276,25.276,0,0,0,68.975,963.907Z" transform="translate(1403.126 -9338.91)" fill="#344154"/>
        <path id="Trazado_110070" data-name="Trazado 110070" d="M90.69,953.6c0-.138-4.982-.263-11.122-.263s-11.128.125-11.128.263,4.982.269,11.128.269S90.69,953.774,90.69,953.6Z" transform="translate(1379.954 -9335.349)" fill="#344154"/>
        <path id="Trazado_110071" data-name="Trazado 110071" d="M62.068,951.4a31.516,31.516,0,0,0-.209,3.6l.209-.224H58.792l.239.263h0v-3.594l-.2.223a23.877,23.877,0,0,0,3.282-.223,18.89,18.89,0,0,0-3.282-.23h-.221v3.8h0c-.209-.23.292.322.239.269h3.437v-.23A25.3,25.3,0,0,0,62.068,951.4Z" transform="translate(1414.257 -9334.62)" fill="#344154"/>
      </g>
      <path id="Trazado_110073" data-name="Trazado 110073" d="M240.667,891.357h-2.983l-8.21-.059h-28.05a8.867,8.867,0,0,0-5.788,1.216,13.39,13.39,0,0,0-4.594,4.541,29.853,29.853,0,0,0-3.58,10.672c-.656,3.608-1.122,7.078-1.516,10.468-.817,6.69-1.313,12.755-2.285,17.743a55.991,55.991,0,0,1-3.52,11.257c-.549,1.314-1.056,2.248-1.4,2.9q-.233.447-.394.729a1.277,1.277,0,0,0-.119.263,1.126,1.126,0,0,0,.161-.23l.436-.71q.81-1.389,1.486-2.865a54.568,54.568,0,0,0,3.729-11.369c1.032-5.06,1.551-11.06,2.387-17.743.418-3.338.919-6.841,1.545-10.429a29.511,29.511,0,0,1,3.538-10.514,12.926,12.926,0,0,1,4.386-4.376,8.466,8.466,0,0,1,5.513-1.163h0l28.056-.151,8.21-.092,2.2-.046h.6Z" transform="translate(1166.646 -9314.271)" fill="#344154"/>
      <path id="Trazado_110074" data-name="Trazado 110074" d="M154.4,977.309a5.607,5.607,0,0,1-.782-.236,6.987,6.987,0,0,1-2.118-1.15,8.074,8.074,0,0,1-2.417-3.227,13.759,13.759,0,0,1-.919-5.625,32.133,32.133,0,0,1,.943-7.169,72.619,72.619,0,0,1,2.757-8.1c.531-1.446,1.044-2.951,1.5-4.554a31.487,31.487,0,0,0,1.092-5.053,17.935,17.935,0,0,0-1.832-10.9,10.442,10.442,0,0,0-4.051-4.107,8.018,8.018,0,0,0-1.343-.559c-.227-.059-.459-.151-.7-.2l-.728-.1a4.368,4.368,0,0,0-2.87.657,15.323,15.323,0,0,0-4.4,4.449,41.646,41.646,0,0,0-3.306,5.776A50.078,50.078,0,0,0,132.7,943.7a28.7,28.7,0,0,0-.919,3.5c-.2,1.216-.292,2.419-.459,3.634q-.438,3.691-1.235,7.314-.858,3.706-2.059,7.3a17.646,17.646,0,0,1-1.432,3.5,13.4,13.4,0,0,1-2.309,2.931,18.833,18.833,0,0,1-2.912,2.307,19.635,19.635,0,0,1-3.24,1.781,9.828,9.828,0,0,1-3.58.775c-1.193,0-2.47-.151-3.676-.263a25.217,25.217,0,0,1-7.345-1.676,27.852,27.852,0,0,1-6.725-4.048,24.135,24.135,0,0,1-5.436-6.066,52.645,52.645,0,0,1-6.7-15.9,67.315,67.315,0,0,1-1.408-7.8c-.3-2.629-.442-5.257-.638-7.853a145.7,145.7,0,0,0-1.79-15.364c-.459-2.5-1.038-4.942-1.689-7.334a58.96,58.96,0,0,0-2.232-7.005,27.607,27.607,0,0,0-3.526-6.2,16.862,16.862,0,0,0-5.036-4.541h0A10.122,10.122,0,0,0,62.98,891a7.49,7.49,0,0,0-5.137,2.116,14.567,14.567,0,0,0-3.15,4.817,52.678,52.678,0,0,0-1.88,5.389,123.709,123.709,0,0,0-4.356,21.1c-.859,6.769-1.3,13.143-1.689,19.11s-.919,11.408-2.321,16.186A29.886,29.886,0,0,1,38.624,971.2a17.8,17.8,0,0,1-7.476,5.257,13.978,13.978,0,0,1-5.513.808,12.6,12.6,0,0,1-1.432-.19l-.489-.072.477.112a9.894,9.894,0,0,0,1.444.23,13.411,13.411,0,0,0,5.567-.736,17.907,17.907,0,0,0,7.584-5.257A30,30,0,0,0,44.751,959.8a77.861,77.861,0,0,0,2.387-16.185c.406-5.908.853-12.334,1.724-19.057a124.489,124.489,0,0,1,4.421-21.029,50.329,50.329,0,0,1,1.79-5.3,13.843,13.843,0,0,1,3.037-4.653,7.115,7.115,0,0,1,4.869-2.024,9.733,9.733,0,0,1,5.161,1.63h0a16.079,16.079,0,0,1,4.857,4.4,26.813,26.813,0,0,1,3.455,6.065,56.7,56.7,0,0,1,2.25,6.913c.65,2.392,1.223,4.817,1.683,7.294a147.675,147.675,0,0,1,1.79,15.3c.191,2.628.334,5.257.632,7.886a70.072,70.072,0,0,0,1.414,7.886,53.407,53.407,0,0,0,6.76,16.067,24.383,24.383,0,0,0,5.507,6.21,28.213,28.213,0,0,0,6.838,4.107,26.126,26.126,0,0,0,7.482,1.709c1.271.1,2.488.243,3.765.25a10.2,10.2,0,0,0,3.676-.808,22.5,22.5,0,0,0,6.307-4.2,13.35,13.35,0,0,0,2.387-3.029,17.92,17.92,0,0,0,1.468-3.6q1.2-3.615,2.065-7.353.8-3.645,1.235-7.367a37.069,37.069,0,0,1,3.807-13.465,40.119,40.119,0,0,1,3.252-5.717,14.957,14.957,0,0,1,4.272-4.344c1.665-1.124,3.676-.618,5.31.19a9.974,9.974,0,0,1,3.872,3.943,17.562,17.562,0,0,1,1.838,10.652,31.154,31.154,0,0,1-1,4.922c-.448,1.577-.919,3.036-1.474,4.534a70.759,70.759,0,0,0-2.757,8.155,32.383,32.383,0,0,0-.919,7.229,13.892,13.892,0,0,0,1.026,5.691,8.225,8.225,0,0,0,2.488,3.253,7,7,0,0,0,2.16,1.111A4.42,4.42,0,0,0,154.4,977.309Z" transform="translate(1343.465 -9314.058)" fill="#344154"/>
      <path id="Trazado_110075" data-name="Trazado 110075" d="M39.14,980.84s.066,0,.167-.125.269-.224.459-.4a23.855,23.855,0,0,0,1.635-1.741,28.808,28.808,0,0,0,2.285-3.036,20.923,20.923,0,0,0,2.261-4.6,45.33,45.33,0,0,0,1.259-6.2c.322-2.254.6-4.672.973-7.183a27.508,27.508,0,0,1,2.2-7.544,13.989,13.989,0,0,1,2.208-3.365,4.9,4.9,0,0,1,1.48-1.268,7.369,7.369,0,0,1,1.832-.6,37.487,37.487,0,0,1,7.757-.434c2.53,0,4.958.177,7.286.2l12.351.125h10.6a3.507,3.507,0,0,0,.788-.052,5.24,5.24,0,0,0-.788-.059l-2.261-.079-8.318-.2-12.345-.237c-2.321,0-4.773-.191-7.291-.23a37.961,37.961,0,0,0-7.864.434,7.556,7.556,0,0,0-1.963.657,3.675,3.675,0,0,0-.919.618c-.251.243-.5.486-.728.755a14.506,14.506,0,0,0-2.279,3.49,27.939,27.939,0,0,0-2.22,7.7c-.388,2.536-.6,4.955-.919,7.228a43.639,43.639,0,0,1-1.193,6.145,20.515,20.515,0,0,1-2.154,4.6,32.232,32.232,0,0,1-2.208,3.095c-.65.8-1.193,1.393-1.557,1.788a4.091,4.091,0,0,0-.531.532Z" transform="translate(1393.448 -9332.061)" fill="#344154"/>
      <path id="Trazado_110076" data-name="Trazado 110076" d="M460.907,531.577a6.858,6.858,0,0,0-3.294-5.862,1.918,1.918,0,0,0-1.02-.316.912.912,0,0,0-.847.6,1.228,1.228,0,0,0,.3,1.143,8.3,8.3,0,0,0,.919.775,3.845,3.845,0,0,1,1.128,3.489" transform="translate(779.869 -9188.627)" fill="#b78876"/>
      <path id="Trazado_110077" data-name="Trazado 110077" d="M265.1,468.029c8.753.718,15.332,9.092,14.72,18.735-.841,13.655-.6,32.2,5.37,43.5,10.251,19.543,25.628,23,24.464,62.093s-2.757,43.207,4.338,53.308,22.465,4.876,29.172,27.889,1.969,138.066,12.62,150.223c0,0,8.67,9.1,17.733,8.247H322.574a15.765,15.765,0,0,1-11.731-5.047A15.21,15.21,0,0,1,306.8,816.42c0-7.886-2.387-119.823-6.313-129.385s-24.464-19.3-27.555-41.341-2.035-57.71-2.011-64.124c0-6.072-1.074-17.986-11.671-31.871-16.11-20.989-13.9-43.936-14.255-51.75s2.751-31.359,2.751-31.359Z" transform="translate(993.009 -9168.463)" fill="#ebebeb"/>
      <path id="Trazado_110078" data-name="Trazado 110078" d="M437.265,485.7a5.113,5.113,0,0,0-3.924-3.893,4.727,4.727,0,0,0-4.86,2.276c-1.516,2.425-1.193,6.072-3.2,7.991-1.295,1.222-3.168,1.314-4.875,1.275a71.392,71.392,0,0,1-15.973-2.182l1.193-18.492s25.49-2.471,28.593,2.142S437.265,485.7,437.265,485.7Z" transform="translate(834.109 -9170.322)" fill="#e0e0e0"/>
      <path id="Trazado_110079" data-name="Trazado 110079" d="M448.554,492.469a53.761,53.761,0,0,0-1.742-11.888c-1.074-4.9-4.177-8.464-7.93-9.1-4.773-.749-9.434,6.795-9.434,6.795s-18.461-2.957-27.239-3.673c.644-2.517,5.251-9.009,8.568-9.8a38.047,38.047,0,0,1,10.1-.6c6.062.177,12.333.414,17.811,3.286s11.11,7.058,9.78,22.6" transform="translate(824.032 -9167.609)" fill="#f5f5f5"/>
      <path id="Trazado_110080" data-name="Trazado 110080" d="M423.6,465.913a3.6,3.6,0,0,0,.919.118l2.506.217c2.112.171,5.036.414,8.264.789s6.122.828,8.2,1.235l2.464.493a4.827,4.827,0,0,0,.913.151,4.9,4.9,0,0,0-.913-.269c-.6-.164-1.414-.368-2.452-.6a72.109,72.109,0,0,0-8.2-1.314c-3.216-.315-6.146-.578-8.264-.7l-2.512-.112A5.424,5.424,0,0,0,423.6,465.913Z" transform="translate(813.065 -9168.226)" fill="#344154"/>
      <path id="Trazado_110081" data-name="Trazado 110081" d="M308.07,803.874c0,.151,7.817,1.544,17.453,3.121s17.542,2.747,17.56,2.629-7.8-1.538-17.453-3.128S308.088,803.729,308.07,803.874Z" transform="translate(985.014 -9288.1)" fill="#344154"/>
      <path id="Trazado_110082" data-name="Trazado 110082" d="M316,797.376c0,.145,7.16.315,16.063.375s16.063-.026,16.063-.158-7.16-.315-16.063-.375S316,797.225,316,797.376Z" transform="translate(975.591 -9285.814)" fill="#344154"/>
      <path id="Trazado_110083" data-name="Trazado 110083" d="M340.835,845.1l-.919-.131a17.007,17.007,0,0,1-2.554-.578,27.688,27.688,0,0,1-8.95-4.9,32.863,32.863,0,0,1-2.7-2.359,9.263,9.263,0,0,1-2.041-3.43,50.183,50.183,0,0,1-2.208-9.1q-1.693-11.427-2.315-23c-1.074-17.132-1.51-37.589-2.154-60.286-.34-11.362-.68-23.263-1.545-35.617-.221-3.036-.483-6.177-.853-9.305a66.859,66.859,0,0,0-1.617-9.364c-.459-1.531-.991-3.036-1.516-4.547l-.984-2.175-.5-1.091c-.185-.342-.394-.657-.6-1.012a24.124,24.124,0,0,0-6-7.229,33.46,33.46,0,0,0-7.864-4.6,50.985,50.985,0,0,1-7.936-3.943l-.919-.657c-.281-.237-.549-.5-.823-.743l-.829-.736-.716-.874c-.227-.283-.477-.565-.7-.854l-.632-.953a19.854,19.854,0,0,1-1.193-1.932,24.159,24.159,0,0,1-1.915-4.12,26.016,26.016,0,0,1-1.032-4.449,63.526,63.526,0,0,1-.465-9.1c0-3.036.1-6.072.191-9q.322-8.911.6-17.434c.078-2.839.233-5.632.2-8.411v-4.127c0-1.367-.125-2.721-.185-4.048-.06-2.7-.5-5.33-.782-7.932a65.454,65.454,0,0,0-1.653-7.5,49.633,49.633,0,0,0-5.812-13.143,122.533,122.533,0,0,0-7.7-10.514,95.544,95.544,0,0,1-6.79-9.673l-1.372-2.412c-.46-.8-.812-1.63-1.193-2.431a43.784,43.784,0,0,1-1.79-4.9,79.5,79.5,0,0,1-2.757-17.2c-.292-4.79-.286-8.543-.269-11.046,0-1.255,0-2.215.048-2.878a5.41,5.41,0,0,0,0-1.012s-.1,1.314-.155,3.851-.083,6.276.185,11.066a78.681,78.681,0,0,0,2.745,17.2,45.859,45.859,0,0,0,1.79,4.948c.394.8.746,1.656,1.193,2.445s.919,1.61,1.366,2.438a97.158,97.158,0,0,0,6.766,9.732,124.192,124.192,0,0,1,7.727,10.514,49.937,49.937,0,0,1,5.74,13.044,66.976,66.976,0,0,1,1.605,7.452c.286,2.583.7,5.192.764,7.886.054,1.314.161,2.681.185,4.048s0,2.734,0,4.114c0,2.754-.143,5.566-.215,8.4q-.3,8.543-.632,17.441c-.09,2.964-.191,5.967-.191,9.009a62.4,62.4,0,0,0,.465,9.2,26.247,26.247,0,0,0,1.05,4.554,23.553,23.553,0,0,0,1.963,4.219c.388.657.782,1.314,1.223,1.971l.638.953c.239.315.5.6.74.9l.74.9.847.769c.286.243.561.519.865.749l.919.657a50.721,50.721,0,0,0,8,3.989,32.937,32.937,0,0,1,7.757,4.534,23.517,23.517,0,0,1,5.877,7.078c.191.335.406.657.6,1.012l.483,1.071.919,2.149c.513,1.492,1.05,2.983,1.5,4.475a66.52,66.52,0,0,1,1.605,9.279c.37,3.115.638,6.21.865,9.3.865,12.308,1.193,24.222,1.563,35.571.668,22.7,1.14,43.168,2.261,60.313q.638,11.614,2.387,23.105a49.552,49.552,0,0,0,2.267,9.2,9.243,9.243,0,0,0,2.1,3.509,33.352,33.352,0,0,0,2.757,2.353,27.207,27.207,0,0,0,9,4.83,14.349,14.349,0,0,0,2.572.526Z" transform="translate(1023.383 -9181.49)" fill="#344154"/>
      <path id="Trazado_110085" data-name="Trazado 110085" d="M405.17,478.45a1.684,1.684,0,0,0,.513.118l1.5.243,5.513.8,18.229,2.445,1.462.2h.149l.072-.131a25.789,25.789,0,0,1,3.067-4.252,7.9,7.9,0,0,1,3.849-2.425,7.153,7.153,0,0,1,4,.263,7.361,7.361,0,0,1,2.983,2.024,14.728,14.728,0,0,1,2.751,4.791c.215.657.37,1.124.459,1.465a4.465,4.465,0,0,0,.161.506,2,2,0,0,0-.066-.532q-.158-.766-.388-1.511a14.308,14.308,0,0,0-2.643-4.974A7.8,7.8,0,0,0,443.7,475.3a7.275,7.275,0,0,0-8.294,2.2,25.446,25.446,0,0,0-3.144,4.317l.233-.105-1.462-.2-18.253-2.293-5.507-.657-1.51-.151A2.172,2.172,0,0,0,405.17,478.45Z" transform="translate(821.054 -9171.274)" fill="#344154"/>
      <path id="Trazado_110086" data-name="Trazado 110086" d="M445.359,536.186a1.313,1.313,0,0,0,.752,1.157l5.513,2.293c.841.355,1.969.618,2.494-.19a1.685,1.685,0,0,0-.221-1.873,4.114,4.114,0,0,0-1.557-1.012c-2.124-1.012-4.445-1.971-6.6-2.944a.284.284,0,0,0-.239,0,.329.329,0,0,0-.167.189.353.353,0,0,0,0,.158Z" transform="translate(792.667 -9191.435)" fill="#b78876"/>
      <path id="Trazado_110087" data-name="Trazado 110087" d="M445.239,540.222a2.642,2.642,0,0,0,1.444,2.964l5.114,2.162c.847.355,1.975.618,2.5-.177a1.677,1.677,0,0,0-.221-1.873,3.928,3.928,0,0,0-1.563-1.012c-2.029-.933-4.242-1.873-6.3-2.806a.611.611,0,0,0-.513,0,.705.705,0,0,0-.364.4.517.517,0,0,0-.036.138Z" transform="translate(792.572 -9193.434)" fill="#b78876"/>
      <path id="Trazado_110088" data-name="Trazado 110088" d="M444.084,545.2a3.836,3.836,0,0,0,2.094,4.363l4.26,1.787c.847.355,1.975.618,2.5-.191a1.7,1.7,0,0,0-.221-1.873,4.137,4.137,0,0,0-1.569-1.012c-2.267-1.012-4.773-2.1-7.035-3.148Z" transform="translate(794.646 -9195.391)" fill="#b78876"/>
      <path id="Trazado_110089" data-name="Trazado 110089" d="M370.55,618.246c0,.144,6.713,2.885,15.09,6.131s15.21,5.776,15.257,5.632-6.713-2.878-15.09-6.131S370.6,618.082,370.55,618.246Z" transform="translate(890.693 -9220.457)" fill="#344154"/>
      <path id="Trazado_110090" data-name="Trazado 110090" d="M385.85,624.41a17.291,17.291,0,0,0,2.446,1.919c1.539,1.124,3.67,2.629,6.14,4.212s4.666,2.964,6.3,3.943a15.762,15.762,0,0,0,2.7,1.439,20.9,20.9,0,0,0-2.536-1.761l-6.229-4.107-6.206-4.041A19.081,19.081,0,0,0,385.85,624.41Z" transform="translate(877.712 -9222.573)" fill="#344154"/>
    </g>
  </g>
</svg>
