<svg xmlns="http://www.w3.org/2000/svg" xmlns:xlink="http://www.w3.org/1999/xlink" width="113.15" height="113.15" viewBox="0 0 113.15 113.15">
  <defs>
    <filter id="Trazado_873828" x="0" y="0" width="113.15" height="113.15" filterUnits="userSpaceOnUse">
      <feOffset dy="3" input="SourceAlpha"/>
      <feGaussianBlur stdDeviation="3" result="blur"/>
      <feFlood flood-opacity="0.161"/>
      <feComposite operator="in" in2="blur"/>
    </filter>
    <filter id="Trazado_873828-2" x="0" y="0" width="113.15" height="113.15" filterUnits="userSpaceOnUse">
      <feOffset dy="3" input="SourceAlpha"/>
      <feGaussianBlur stdDeviation="3" result="blur-2"/>
      <feFlood flood-opacity="0.161" result="color"/>
      <feComposite operator="out" in="SourceGraphic" in2="blur-2"/>
      <feComposite operator="in" in="color"/>
      <feComposite operator="in" in2="SourceGraphic"/>
    </filter>
  </defs>
  <g id="Grupo_1099678" data-name="Grupo 1099678" transform="translate(9 6)">
    <g data-type="innerShadowGroup">
      <g transform="matrix(1, 0, 0, 1, -9, -6)" filter="url(#Trazado_873828)">
        <g id="Trazado_873828-3" data-name="Trazado 873828" transform="translate(9 6)" fill="#bce0fc">
          <path d="M 47.57511901855469 93.15023040771484 C 41.42163467407227 93.15023040771484 35.45327758789062 91.94551849365234 29.8358325958252 89.56953430175781 C 24.40901947021484 87.27419281005859 19.53483390808105 83.98777770996094 15.34864711761475 79.80158996582031 C 11.16246223449707 75.61540222167969 7.876047611236572 70.74121856689453 5.580704689025879 65.31440734863281 C 3.204719066619873 59.69696044921875 2.000004768371582 53.72860336303711 2.000004768371582 47.57511901855469 C 2.000004768371582 41.42163467407227 3.204719066619873 35.45327758789062 5.580704689025879 29.8358325958252 C 7.876047611236572 24.40901947021484 11.16246223449707 19.53483390808105 15.34864711761475 15.34864711761475 C 19.53483390808105 11.16246223449707 24.40901947021484 7.876047611236572 29.8358325958252 5.580704689025879 C 35.45327758789062 3.204719066619873 41.42163467407227 2.000004768371582 47.57511901855469 2.000004768371582 C 53.72860336303711 2.000004768371582 59.69696044921875 3.204719066619873 65.31440734863281 5.580704689025879 C 70.74121856689453 7.876047611236572 75.61540222167969 11.16246223449707 79.80158996582031 15.34864711761475 C 83.98777770996094 19.53483390808105 87.27419281005859 24.40901947021484 89.56953430175781 29.8358325958252 C 91.94551849365234 35.45327758789062 93.15023040771484 41.42163467407227 93.15023040771484 47.57511901855469 C 93.15023040771484 53.72860336303711 91.94551849365234 59.69696044921875 89.56953430175781 65.31440734863281 C 87.27419281005859 70.74121856689453 83.98777770996094 75.61540222167969 79.80158996582031 79.80158996582031 C 75.61540222167969 83.98777770996094 70.74121856689453 87.27419281005859 65.31440734863281 89.56953430175781 C 59.69696044921875 91.94551849365234 53.72860336303711 93.15023040771484 47.57511901855469 93.15023040771484 Z" stroke="none"/>
          <path d="M 47.57511901855469 3.999992370605469 C 41.69075012207031 3.999992370605469 35.98451995849609 5.151565551757812 30.61493682861328 7.422706604003906 C 25.42652130126953 9.617210388183594 20.76601409912109 12.75970458984375 16.76285552978516 16.76285552978516 C 12.75970458984375 20.76601409912109 9.617210388183594 25.42652130126953 7.422706604003906 30.61493682861328 C 5.151565551757812 35.98451995849609 3.999992370605469 41.69075012207031 3.999992370605469 47.57511901855469 C 3.999992370605469 53.45948791503906 5.151565551757812 59.16571807861328 7.422706604003906 64.53530120849609 C 9.617210388183594 69.72371673583984 12.75970458984375 74.38422393798828 16.76285552978516 78.38738250732422 C 20.76601409912109 82.39053344726562 25.42652130126953 85.53302764892578 30.61493682861328 87.72753143310547 C 35.98451995849609 89.99867248535156 41.69075012207031 91.15024566650391 47.57511901855469 91.15024566650391 C 53.45948791503906 91.15024566650391 59.16571807861328 89.99867248535156 64.53530120849609 87.72753143310547 C 69.72371673583984 85.53302764892578 74.38422393798828 82.39053344726562 78.38738250732422 78.38738250732422 C 82.39053344726562 74.38422393798828 85.53302764892578 69.72371673583984 87.72753143310547 64.53530120849609 C 89.99867248535156 59.16571807861328 91.15024566650391 53.45948791503906 91.15024566650391 47.57511901855469 C 91.15024566650391 41.69075012207031 89.99867248535156 35.98451995849609 87.72753143310547 30.61493682861328 C 85.53302764892578 25.42652130126953 82.39053344726562 20.76601409912109 78.38738250732422 16.76285552978516 C 74.38422393798828 12.75970458984375 69.72371673583984 9.617210388183594 64.53530120849609 7.422706604003906 C 59.16571807861328 5.151565551757812 53.45948791503906 3.999992370605469 47.57511901855469 3.999992370605469 M 47.57511901855469 -7.62939453125e-06 C 73.85013580322266 -7.62939453125e-06 95.15024566650391 21.30010223388672 95.15024566650391 47.57511901855469 C 95.15024566650391 73.85013580322266 73.85013580322266 95.15024566650391 47.57511901855469 95.15024566650391 C 21.30010223388672 95.15024566650391 -7.62939453125e-06 73.85013580322266 -7.62939453125e-06 47.57511901855469 C -7.62939453125e-06 21.30010223388672 21.30010223388672 -7.62939453125e-06 47.57511901855469 -7.62939453125e-06 Z" stroke="none" fill="#fff"/>
        </g>
      </g>
      <g id="Trazado_873828-4" data-name="Trazado 873828" fill="#bce0fc">
        <path d="M 47.57511901855469 93.15023040771484 C 41.42163467407227 93.15023040771484 35.45327758789062 91.94551849365234 29.8358325958252 89.56953430175781 C 24.40901947021484 87.27419281005859 19.53483390808105 83.98777770996094 15.34864711761475 79.80158996582031 C 11.16246223449707 75.61540222167969 7.876047611236572 70.74121856689453 5.580704689025879 65.31440734863281 C 3.204719066619873 59.69696044921875 2.000004768371582 53.72860336303711 2.000004768371582 47.57511901855469 C 2.000004768371582 41.42163467407227 3.204719066619873 35.45327758789062 5.580704689025879 29.8358325958252 C 7.876047611236572 24.40901947021484 11.16246223449707 19.53483390808105 15.34864711761475 15.34864711761475 C 19.53483390808105 11.16246223449707 24.40901947021484 7.876047611236572 29.8358325958252 5.580704689025879 C 35.45327758789062 3.204719066619873 41.42163467407227 2.000004768371582 47.57511901855469 2.000004768371582 C 53.72860336303711 2.000004768371582 59.69696044921875 3.204719066619873 65.31440734863281 5.580704689025879 C 70.74121856689453 7.876047611236572 75.61540222167969 11.16246223449707 79.80158996582031 15.34864711761475 C 83.98777770996094 19.53483390808105 87.27419281005859 24.40901947021484 89.56953430175781 29.8358325958252 C 91.94551849365234 35.45327758789062 93.15023040771484 41.42163467407227 93.15023040771484 47.57511901855469 C 93.15023040771484 53.72860336303711 91.94551849365234 59.69696044921875 89.56953430175781 65.31440734863281 C 87.27419281005859 70.74121856689453 83.98777770996094 75.61540222167969 79.80158996582031 79.80158996582031 C 75.61540222167969 83.98777770996094 70.74121856689453 87.27419281005859 65.31440734863281 89.56953430175781 C 59.69696044921875 91.94551849365234 53.72860336303711 93.15023040771484 47.57511901855469 93.15023040771484 Z" stroke="none"/>
        <path d="M 47.57511901855469 3.999992370605469 C 41.69075012207031 3.999992370605469 35.98451995849609 5.151565551757812 30.61493682861328 7.422706604003906 C 25.42652130126953 9.617210388183594 20.76601409912109 12.75970458984375 16.76285552978516 16.76285552978516 C 12.75970458984375 20.76601409912109 9.617210388183594 25.42652130126953 7.422706604003906 30.61493682861328 C 5.151565551757812 35.98451995849609 3.999992370605469 41.69075012207031 3.999992370605469 47.57511901855469 C 3.999992370605469 53.45948791503906 5.151565551757812 59.16571807861328 7.422706604003906 64.53530120849609 C 9.617210388183594 69.72371673583984 12.75970458984375 74.38422393798828 16.76285552978516 78.38738250732422 C 20.76601409912109 82.39053344726562 25.42652130126953 85.53302764892578 30.61493682861328 87.72753143310547 C 35.98451995849609 89.99867248535156 41.69075012207031 91.15024566650391 47.57511901855469 91.15024566650391 C 53.45948791503906 91.15024566650391 59.16571807861328 89.99867248535156 64.53530120849609 87.72753143310547 C 69.72371673583984 85.53302764892578 74.38422393798828 82.39053344726562 78.38738250732422 78.38738250732422 C 82.39053344726562 74.38422393798828 85.53302764892578 69.72371673583984 87.72753143310547 64.53530120849609 C 89.99867248535156 59.16571807861328 91.15024566650391 53.45948791503906 91.15024566650391 47.57511901855469 C 91.15024566650391 41.69075012207031 89.99867248535156 35.98451995849609 87.72753143310547 30.61493682861328 C 85.53302764892578 25.42652130126953 82.39053344726562 20.76601409912109 78.38738250732422 16.76285552978516 C 74.38422393798828 12.75970458984375 69.72371673583984 9.617210388183594 64.53530120849609 7.422706604003906 C 59.16571807861328 5.151565551757812 53.45948791503906 3.999992370605469 47.57511901855469 3.999992370605469 M 47.57511901855469 -7.62939453125e-06 C 73.85013580322266 -7.62939453125e-06 95.15024566650391 21.30010223388672 95.15024566650391 47.57511901855469 C 95.15024566650391 73.85013580322266 73.85013580322266 95.15024566650391 47.57511901855469 95.15024566650391 C 21.30010223388672 95.15024566650391 -7.62939453125e-06 73.85013580322266 -7.62939453125e-06 47.57511901855469 C -7.62939453125e-06 21.30010223388672 21.30010223388672 -7.62939453125e-06 47.57511901855469 -7.62939453125e-06 Z" stroke="none"/>
      </g>
      <g transform="matrix(1, 0, 0, 1, -9, -6)" filter="url(#Trazado_873828-2)">
        <g id="Trazado_873828-5" data-name="Trazado 873828" transform="translate(9 6)" fill="#fff">
          <path d="M 47.57511901855469 93.15023040771484 C 41.42163467407227 93.15023040771484 35.45327758789062 91.94551849365234 29.8358325958252 89.56953430175781 C 24.40901947021484 87.27419281005859 19.53483390808105 83.98777770996094 15.34864711761475 79.80158996582031 C 11.16246223449707 75.61540222167969 7.876047611236572 70.74121856689453 5.580704689025879 65.31440734863281 C 3.204719066619873 59.69696044921875 2.000004768371582 53.72860336303711 2.000004768371582 47.57511901855469 C 2.000004768371582 41.42163467407227 3.204719066619873 35.45327758789062 5.580704689025879 29.8358325958252 C 7.876047611236572 24.40901947021484 11.16246223449707 19.53483390808105 15.34864711761475 15.34864711761475 C 19.53483390808105 11.16246223449707 24.40901947021484 7.876047611236572 29.8358325958252 5.580704689025879 C 35.45327758789062 3.204719066619873 41.42163467407227 2.000004768371582 47.57511901855469 2.000004768371582 C 53.72860336303711 2.000004768371582 59.69696044921875 3.204719066619873 65.31440734863281 5.580704689025879 C 70.74121856689453 7.876047611236572 75.61540222167969 11.16246223449707 79.80158996582031 15.34864711761475 C 83.98777770996094 19.53483390808105 87.27419281005859 24.40901947021484 89.56953430175781 29.8358325958252 C 91.94551849365234 35.45327758789062 93.15023040771484 41.42163467407227 93.15023040771484 47.57511901855469 C 93.15023040771484 53.72860336303711 91.94551849365234 59.69696044921875 89.56953430175781 65.31440734863281 C 87.27419281005859 70.74121856689453 83.98777770996094 75.61540222167969 79.80158996582031 79.80158996582031 C 75.61540222167969 83.98777770996094 70.74121856689453 87.27419281005859 65.31440734863281 89.56953430175781 C 59.69696044921875 91.94551849365234 53.72860336303711 93.15023040771484 47.57511901855469 93.15023040771484 Z" stroke="none"/>
          <path d="M 47.57511901855469 3.999992370605469 C 41.69075012207031 3.999992370605469 35.98451995849609 5.151565551757812 30.61493682861328 7.422706604003906 C 25.42652130126953 9.617210388183594 20.76601409912109 12.75970458984375 16.76285552978516 16.76285552978516 C 12.75970458984375 20.76601409912109 9.617210388183594 25.42652130126953 7.422706604003906 30.61493682861328 C 5.151565551757812 35.98451995849609 3.999992370605469 41.69075012207031 3.999992370605469 47.57511901855469 C 3.999992370605469 53.45948791503906 5.151565551757812 59.16571807861328 7.422706604003906 64.53530120849609 C 9.617210388183594 69.72371673583984 12.75970458984375 74.38422393798828 16.76285552978516 78.38738250732422 C 20.76601409912109 82.39053344726562 25.42652130126953 85.53302764892578 30.61493682861328 87.72753143310547 C 35.98451995849609 89.99867248535156 41.69075012207031 91.15024566650391 47.57511901855469 91.15024566650391 C 53.45948791503906 91.15024566650391 59.16571807861328 89.99867248535156 64.53530120849609 87.72753143310547 C 69.72371673583984 85.53302764892578 74.38422393798828 82.39053344726562 78.38738250732422 78.38738250732422 C 82.39053344726562 74.38422393798828 85.53302764892578 69.72371673583984 87.72753143310547 64.53530120849609 C 89.99867248535156 59.16571807861328 91.15024566650391 53.45948791503906 91.15024566650391 47.57511901855469 C 91.15024566650391 41.69075012207031 89.99867248535156 35.98451995849609 87.72753143310547 30.61493682861328 C 85.53302764892578 25.42652130126953 82.39053344726562 20.76601409912109 78.38738250732422 16.76285552978516 C 74.38422393798828 12.75970458984375 69.72371673583984 9.617210388183594 64.53530120849609 7.422706604003906 C 59.16571807861328 5.151565551757812 53.45948791503906 3.999992370605469 47.57511901855469 3.999992370605469 M 47.57511901855469 -7.62939453125e-06 C 73.85013580322266 -7.62939453125e-06 95.15024566650391 21.30010223388672 95.15024566650391 47.57511901855469 C 95.15024566650391 73.85013580322266 73.85013580322266 95.15024566650391 47.57511901855469 95.15024566650391 C 21.30010223388672 95.15024566650391 -7.62939453125e-06 73.85013580322266 -7.62939453125e-06 47.57511901855469 C -7.62939453125e-06 21.30010223388672 21.30010223388672 -7.62939453125e-06 47.57511901855469 -7.62939453125e-06 Z" stroke="none"/>
        </g>
      </g>
      <g id="Trazado_873828-6" data-name="Trazado 873828" fill="none">
        <path d="M 47.57511901855469 93.15023040771484 C 41.42163467407227 93.15023040771484 35.45327758789062 91.94551849365234 29.8358325958252 89.56953430175781 C 24.40901947021484 87.27419281005859 19.53483390808105 83.98777770996094 15.34864711761475 79.80158996582031 C 11.16246223449707 75.61540222167969 7.876047611236572 70.74121856689453 5.580704689025879 65.31440734863281 C 3.204719066619873 59.69696044921875 2.000004768371582 53.72860336303711 2.000004768371582 47.57511901855469 C 2.000004768371582 41.42163467407227 3.204719066619873 35.45327758789062 5.580704689025879 29.8358325958252 C 7.876047611236572 24.40901947021484 11.16246223449707 19.53483390808105 15.34864711761475 15.34864711761475 C 19.53483390808105 11.16246223449707 24.40901947021484 7.876047611236572 29.8358325958252 5.580704689025879 C 35.45327758789062 3.204719066619873 41.42163467407227 2.000004768371582 47.57511901855469 2.000004768371582 C 53.72860336303711 2.000004768371582 59.69696044921875 3.204719066619873 65.31440734863281 5.580704689025879 C 70.74121856689453 7.876047611236572 75.61540222167969 11.16246223449707 79.80158996582031 15.34864711761475 C 83.98777770996094 19.53483390808105 87.27419281005859 24.40901947021484 89.56953430175781 29.8358325958252 C 91.94551849365234 35.45327758789062 93.15023040771484 41.42163467407227 93.15023040771484 47.57511901855469 C 93.15023040771484 53.72860336303711 91.94551849365234 59.69696044921875 89.56953430175781 65.31440734863281 C 87.27419281005859 70.74121856689453 83.98777770996094 75.61540222167969 79.80158996582031 79.80158996582031 C 75.61540222167969 83.98777770996094 70.74121856689453 87.27419281005859 65.31440734863281 89.56953430175781 C 59.69696044921875 91.94551849365234 53.72860336303711 93.15023040771484 47.57511901855469 93.15023040771484 Z" stroke="none"/>
        <path d="M 47.57511901855469 3.999992370605469 C 41.69075012207031 3.999992370605469 35.98451995849609 5.151565551757812 30.61493682861328 7.422706604003906 C 25.42652130126953 9.617210388183594 20.76601409912109 12.75970458984375 16.76285552978516 16.76285552978516 C 12.75970458984375 20.76601409912109 9.617210388183594 25.42652130126953 7.422706604003906 30.61493682861328 C 5.151565551757812 35.98451995849609 3.999992370605469 41.69075012207031 3.999992370605469 47.57511901855469 C 3.999992370605469 53.45948791503906 5.151565551757812 59.16571807861328 7.422706604003906 64.53530120849609 C 9.617210388183594 69.72371673583984 12.75970458984375 74.38422393798828 16.76285552978516 78.38738250732422 C 20.76601409912109 82.39053344726562 25.42652130126953 85.53302764892578 30.61493682861328 87.72753143310547 C 35.98451995849609 89.99867248535156 41.69075012207031 91.15024566650391 47.57511901855469 91.15024566650391 C 53.45948791503906 91.15024566650391 59.16571807861328 89.99867248535156 64.53530120849609 87.72753143310547 C 69.72371673583984 85.53302764892578 74.38422393798828 82.39053344726562 78.38738250732422 78.38738250732422 C 82.39053344726562 74.38422393798828 85.53302764892578 69.72371673583984 87.72753143310547 64.53530120849609 C 89.99867248535156 59.16571807861328 91.15024566650391 53.45948791503906 91.15024566650391 47.57511901855469 C 91.15024566650391 41.69075012207031 89.99867248535156 35.98451995849609 87.72753143310547 30.61493682861328 C 85.53302764892578 25.42652130126953 82.39053344726562 20.76601409912109 78.38738250732422 16.76285552978516 C 74.38422393798828 12.75970458984375 69.72371673583984 9.617210388183594 64.53530120849609 7.422706604003906 C 59.16571807861328 5.151565551757812 53.45948791503906 3.999992370605469 47.57511901855469 3.999992370605469 M 47.57511901855469 -7.62939453125e-06 C 73.85013580322266 -7.62939453125e-06 95.15024566650391 21.30010223388672 95.15024566650391 47.57511901855469 C 95.15024566650391 73.85013580322266 73.85013580322266 95.15024566650391 47.57511901855469 95.15024566650391 C 21.30010223388672 95.15024566650391 -7.62939453125e-06 73.85013580322266 -7.62939453125e-06 47.57511901855469 C -7.62939453125e-06 21.30010223388672 21.30010223388672 -7.62939453125e-06 47.57511901855469 -7.62939453125e-06 Z" stroke="none" fill="#fff"/>
      </g>
    </g>
    <g id="Grupo_1099650" data-name="Grupo 1099650" transform="translate(23.604 17.419)">
      <g id="Grupo_1099644" data-name="Grupo 1099644">
        <g id="Grupo_1099643" data-name="Grupo 1099643" transform="translate(0 0)">
          <path id="Trazado_873823" data-name="Trazado 873823" d="M95.6,17.847a2.718,2.718,0,0,0-1.706-1.214l-3.75-.862,1.732-.485A2.735,2.735,0,1,0,90.4,10.018l-8.074,2.26a2.754,2.754,0,0,0-.869-.953c1.639-3.049,4-8.224,4-10.451A.882.882,0,0,0,84.407.018a43.3,43.3,0,0,1-9.13.914A52.661,52.661,0,0,1,66.138.02a.881.881,0,0,0-.931,1.3,9.053,9.053,0,0,1,1.122,3,18.09,18.09,0,0,1-8.364-1.432.881.881,0,0,0-1.252.924A18.917,18.917,0,0,0,60.4,12.718h-.033a2.735,2.735,0,0,0-.357,5.447,32.71,32.71,0,0,1-3.837,4.817c-3.117,3.464-6.649,7.39-7.838,13.729a20.321,20.321,0,0,0,.057,8.435,15.624,15.624,0,0,0,3.2,6.44,19.726,19.726,0,0,0,8.455,5.754,31.518,31.518,0,0,0,21.121,0,19.728,19.728,0,0,0,8.455-5.754,15.623,15.623,0,0,0,3.2-6.44,20.323,20.323,0,0,0,.056-8.435C91.7,30.372,88.167,26.446,85.05,22.982c-1.058-1.176-2.065-2.3-2.909-3.435l10.524,2.418A2.735,2.735,0,0,0,95.6,17.847ZM75.258,2.678a44.09,44.09,0,0,0,8.282-.718,45.228,45.228,0,0,1-3.824,8.9,2.741,2.741,0,0,0-2.385,1.854H74.908c-.055-.118-.115-.247-.183-.391-.749-1.593-2.309-4.908-2.309-7.729a.882.882,0,0,0-1.044-.856,30.808,30.808,0,0,1-3.3.471,11.26,11.26,0,0,0-.586-2.176A58.8,58.8,0,0,0,75.258,2.678Zm5.655,10.913v3.725a.989.989,0,0,1-1.979,0V13.591a.989.989,0,0,1,1.979,0ZM58.749,5.1a22.075,22.075,0,0,0,7.767.973l1.73-.109c.816-.075,1.644-.183,2.478-.324a23.326,23.326,0,0,0,2.256,7.081H62.629a.892.892,0,0,0-.064-.089A16.707,16.707,0,0,1,58.749,5.1Zm25,19.053c2.963,3.293,6.322,7.025,7.42,12.882,1.011,5.391.039,9.912-2.888,13.439-3.609,4.349-10.215,6.945-17.672,6.945s-14.063-2.6-17.672-6.945c-2.927-3.527-3.9-8.048-2.888-13.439,1.1-5.857,4.457-9.59,7.42-12.882a28.623,28.623,0,0,0,4.518-5.961h2.132a.873.873,0,0,0,0-1.746H60.368a.989.989,0,0,1,0-1.979h16.82v1.979h-8.9a.873.873,0,1,0,0,1.746h9.048a2.736,2.736,0,0,0,3,1.832A42.455,42.455,0,0,0,83.752,24.15ZM82.659,14l8.208-2.3a.989.989,0,1,1,.533,1.906L86.71,14.918a.869.869,0,0,0-.11.04l-3.94-.905ZM94.242,19.52a.99.99,0,0,1-1.186.743L82.6,17.862a2.743,2.743,0,0,0,.055-.546V15.844L93.5,18.334A1,1,0,0,1,94.242,19.52Z" transform="translate(-47.923 -0.001)" fill="#2c597c"/>
        </g>
      </g>
      <g id="Grupo_1099646" data-name="Grupo 1099646" transform="translate(14.832 22.029)">
        <g id="Grupo_1099645" data-name="Grupo 1099645" transform="translate(0)">
          <path id="Trazado_873824" data-name="Trazado 873824" d="M189.722,204.5a2.272,2.272,0,0,0,2.27-2.27v-1.4a6.47,6.47,0,0,0-5.587-6.4v-1.514a2.27,2.27,0,0,0-4.54,0v1.629a7.159,7.159,0,0,0,1.571,14.143h1.4a2.619,2.619,0,0,1,0,5.238h-2.1a1.923,1.923,0,0,1-1.921-1.921,2.27,2.27,0,1,0-4.54,0,6.47,6.47,0,0,0,5.587,6.4v1.514a2.27,2.27,0,0,0,4.54,0v-1.629a7.159,7.159,0,0,0-1.571-14.143h-1.4a2.619,2.619,0,1,1,0-5.238h2.1a1.923,1.923,0,0,1,1.921,1.921v1.4A2.273,2.273,0,0,0,189.722,204.5Zm-4.19-7.333h-2.1a4.365,4.365,0,1,0,0,8.73h1.4a5.412,5.412,0,0,1,.6,10.791.873.873,0,0,0-.777.868v2.368a.524.524,0,0,1-1.048,0V217.6a.873.873,0,0,0-.873-.873,4.719,4.719,0,0,1-4.714-4.714.524.524,0,0,1,1.048,0,3.671,3.671,0,0,0,3.667,3.667h2.1a4.365,4.365,0,0,0,0-8.73h-1.4a5.412,5.412,0,0,1-.6-10.791.873.873,0,0,0,.777-.868v-2.368a.524.524,0,1,1,1.048,0v2.328a.873.873,0,0,0,.873.873,4.719,4.719,0,0,1,4.714,4.714v1.4a.524.524,0,0,1-1.048,0v-1.4A3.671,3.671,0,0,0,185.531,197.168Z" transform="translate(-176.277 -190.649)" fill="#2c597c"/>
        </g>
      </g>
    </g>
  </g>
</svg>
