<svg xmlns="http://www.w3.org/2000/svg" xmlns:xlink="http://www.w3.org/1999/xlink" width="112.138" height="112.138" viewBox="0 0 112.138 112.138">
  <defs>
    <filter id="Trazado_873829" x="0" y="0" width="112.138" height="112.138" filterUnits="userSpaceOnUse">
      <feOffset dy="3" input="SourceAlpha"/>
      <feGaussianBlur stdDeviation="3" result="blur"/>
      <feFlood flood-opacity="0.161"/>
      <feComposite operator="in" in2="blur"/>
    </filter>
    <filter id="Trazado_873829-2" x="0" y="0" width="112.138" height="112.138" filterUnits="userSpaceOnUse">
      <feOffset dy="3" input="SourceAlpha"/>
      <feGaussianBlur stdDeviation="3" result="blur-2"/>
      <feFlood flood-opacity="0.161" result="color"/>
      <feComposite operator="out" in="SourceGraphic" in2="blur-2"/>
      <feComposite operator="in" in="color"/>
      <feComposite operator="in" in2="SourceGraphic"/>
    </filter>
  </defs>
  <g id="Grupo_1099679" data-name="Grupo 1099679" transform="translate(9 6)">
    <g data-type="innerShadowGroup">
      <g transform="matrix(1, 0, 0, 1, -9, -6)" filter="url(#Trazado_873829)">
        <g id="Trazado_873829-3" data-name="Trazado 873829" transform="translate(9 6)" fill="#bce0fc">
          <path d="M 47.06900024414062 92.13800048828125 C 40.98384094238281 92.13800048828125 35.08177185058594 90.94667053222656 29.5267333984375 88.59708404541016 C 24.16018676757812 86.32721710205078 19.34010696411133 83.07730865478516 15.20041370391846 78.93759918212891 C 11.06070709228516 74.79789733886719 7.810786724090576 69.97782897949219 5.540920257568359 64.61128234863281 C 3.191333532333374 59.05622863769531 2.000000238418579 53.15415954589844 2.000000238418579 47.06900024414062 C 2.000000238418579 40.98384094238281 3.191333532333374 35.08177185058594 5.540920257568359 29.5267333984375 C 7.810786724090576 24.16018676757812 11.06070709228516 19.34012031555176 15.20041370391846 15.20041370391846 C 19.34012031555176 11.06070709228516 24.16018676757812 7.810786724090576 29.5267333984375 5.540920257568359 C 35.08177185058594 3.191333532333374 40.98384094238281 2.000000238418579 47.06900024414062 2.000000238418579 C 53.15415954589844 2.000000238418579 59.05622863769531 3.191333532333374 64.61128234863281 5.540920257568359 C 69.97782897949219 7.810786724090576 74.79789733886719 11.06070709228516 78.93759918212891 15.20041370391846 C 83.07730865478516 19.34010696411133 86.32721710205078 24.16018676757812 88.59708404541016 29.5267333984375 C 90.94667053222656 35.08177185058594 92.13800048828125 40.98384094238281 92.13800048828125 47.06900024414062 C 92.13800048828125 53.15415954589844 90.94667053222656 59.05622863769531 88.59708404541016 64.61128234863281 C 86.32721710205078 69.97782897949219 83.07730865478516 74.79789733886719 78.93759918212891 78.93759918212891 C 74.79789733886719 83.07730865478516 69.97782897949219 86.32721710205078 64.61128234863281 88.59708404541016 C 59.05622863769531 90.94667053222656 53.15415954589844 92.13800048828125 47.06900024414062 92.13800048828125 Z" stroke="none"/>
          <path d="M 47.06900024414062 4 C 41.25296783447266 4 35.61301422119141 5.13818359375 30.30583190917969 7.382942199707031 C 25.17769622802734 9.551956176757812 20.5712890625 12.65795135498047 16.61463165283203 16.61463165283203 C 12.65795135498047 20.5712890625 9.551956176757812 25.17769622802734 7.382942199707031 30.30583190917969 C 5.13818359375 35.61301422119141 4 41.25296783447266 4 47.06900024414062 C 4 52.88504791259766 5.13818359375 58.52498626708984 7.382942199707031 63.83216857910156 C 9.551956176757812 68.9603271484375 12.65795135498047 73.56671142578125 16.61461639404297 77.52338409423828 C 20.5712890625 81.48006439208984 25.17769622802734 84.58604431152344 30.30583190917969 86.75505828857422 C 35.61301422119141 88.99981689453125 41.25296783447266 90.13800048828125 47.06900024414062 90.13800048828125 C 52.88504791259766 90.13800048828125 58.52498626708984 88.99981689453125 63.83216857910156 86.75505828857422 C 68.9603271484375 84.58604431152344 73.56671142578125 81.48006439208984 77.52338409423828 77.52338409423828 C 81.48006439208984 73.56671142578125 84.58604431152344 68.9603271484375 86.75505828857422 63.83216857910156 C 88.99981689453125 58.52498626708984 90.13800048828125 52.88504791259766 90.13800048828125 47.06900024414062 C 90.13800048828125 41.25296783447266 88.99981689453125 35.61301422119141 86.75505828857422 30.30583190917969 C 84.58604431152344 25.17769622802734 81.48006439208984 20.5712890625 77.52338409423828 16.61461639404297 C 73.56671142578125 12.65795135498047 68.9603271484375 9.551956176757812 63.83216857910156 7.382942199707031 C 58.52498626708984 5.13818359375 52.88504791259766 4 47.06900024414062 4 M 47.06900024414062 0 C 73.06449127197266 0 94.13800048828125 21.07352447509766 94.13800048828125 47.06900024414062 C 94.13800048828125 73.06449127197266 73.06449127197266 94.13800048828125 47.06900024414062 94.13800048828125 C 21.07352447509766 94.13800048828125 0 73.06449127197266 0 47.06900024414062 C 0 21.07352447509766 21.07352447509766 0 47.06900024414062 0 Z" stroke="none" fill="#fff"/>
        </g>
      </g>
      <g id="Trazado_873829-4" data-name="Trazado 873829" fill="#bce0fc">
        <path d="M 47.06900024414062 92.13800048828125 C 40.98384094238281 92.13800048828125 35.08177185058594 90.94667053222656 29.5267333984375 88.59708404541016 C 24.16018676757812 86.32721710205078 19.34010696411133 83.07730865478516 15.20041370391846 78.93759918212891 C 11.06070709228516 74.79789733886719 7.810786724090576 69.97782897949219 5.540920257568359 64.61128234863281 C 3.191333532333374 59.05622863769531 2.000000238418579 53.15415954589844 2.000000238418579 47.06900024414062 C 2.000000238418579 40.98384094238281 3.191333532333374 35.08177185058594 5.540920257568359 29.5267333984375 C 7.810786724090576 24.16018676757812 11.06070709228516 19.34012031555176 15.20041370391846 15.20041370391846 C 19.34012031555176 11.06070709228516 24.16018676757812 7.810786724090576 29.5267333984375 5.540920257568359 C 35.08177185058594 3.191333532333374 40.98384094238281 2.000000238418579 47.06900024414062 2.000000238418579 C 53.15415954589844 2.000000238418579 59.05622863769531 3.191333532333374 64.61128234863281 5.540920257568359 C 69.97782897949219 7.810786724090576 74.79789733886719 11.06070709228516 78.93759918212891 15.20041370391846 C 83.07730865478516 19.34010696411133 86.32721710205078 24.16018676757812 88.59708404541016 29.5267333984375 C 90.94667053222656 35.08177185058594 92.13800048828125 40.98384094238281 92.13800048828125 47.06900024414062 C 92.13800048828125 53.15415954589844 90.94667053222656 59.05622863769531 88.59708404541016 64.61128234863281 C 86.32721710205078 69.97782897949219 83.07730865478516 74.79789733886719 78.93759918212891 78.93759918212891 C 74.79789733886719 83.07730865478516 69.97782897949219 86.32721710205078 64.61128234863281 88.59708404541016 C 59.05622863769531 90.94667053222656 53.15415954589844 92.13800048828125 47.06900024414062 92.13800048828125 Z" stroke="none"/>
        <path d="M 47.06900024414062 4 C 41.25296783447266 4 35.61301422119141 5.13818359375 30.30583190917969 7.382942199707031 C 25.17769622802734 9.551956176757812 20.5712890625 12.65795135498047 16.61463165283203 16.61463165283203 C 12.65795135498047 20.5712890625 9.551956176757812 25.17769622802734 7.382942199707031 30.30583190917969 C 5.13818359375 35.61301422119141 4 41.25296783447266 4 47.06900024414062 C 4 52.88504791259766 5.13818359375 58.52498626708984 7.382942199707031 63.83216857910156 C 9.551956176757812 68.9603271484375 12.65795135498047 73.56671142578125 16.61461639404297 77.52338409423828 C 20.5712890625 81.48006439208984 25.17769622802734 84.58604431152344 30.30583190917969 86.75505828857422 C 35.61301422119141 88.99981689453125 41.25296783447266 90.13800048828125 47.06900024414062 90.13800048828125 C 52.88504791259766 90.13800048828125 58.52498626708984 88.99981689453125 63.83216857910156 86.75505828857422 C 68.9603271484375 84.58604431152344 73.56671142578125 81.48006439208984 77.52338409423828 77.52338409423828 C 81.48006439208984 73.56671142578125 84.58604431152344 68.9603271484375 86.75505828857422 63.83216857910156 C 88.99981689453125 58.52498626708984 90.13800048828125 52.88504791259766 90.13800048828125 47.06900024414062 C 90.13800048828125 41.25296783447266 88.99981689453125 35.61301422119141 86.75505828857422 30.30583190917969 C 84.58604431152344 25.17769622802734 81.48006439208984 20.5712890625 77.52338409423828 16.61461639404297 C 73.56671142578125 12.65795135498047 68.9603271484375 9.551956176757812 63.83216857910156 7.382942199707031 C 58.52498626708984 5.13818359375 52.88504791259766 4 47.06900024414062 4 M 47.06900024414062 0 C 73.06449127197266 0 94.13800048828125 21.07352447509766 94.13800048828125 47.06900024414062 C 94.13800048828125 73.06449127197266 73.06449127197266 94.13800048828125 47.06900024414062 94.13800048828125 C 21.07352447509766 94.13800048828125 0 73.06449127197266 0 47.06900024414062 C 0 21.07352447509766 21.07352447509766 0 47.06900024414062 0 Z" stroke="none"/>
      </g>
      <g transform="matrix(1, 0, 0, 1, -9, -6)" filter="url(#Trazado_873829-2)">
        <g id="Trazado_873829-5" data-name="Trazado 873829" transform="translate(9 6)" fill="#fff">
          <path d="M 47.06900024414062 92.13800048828125 C 40.98384094238281 92.13800048828125 35.08177185058594 90.94667053222656 29.5267333984375 88.59708404541016 C 24.16018676757812 86.32721710205078 19.34010696411133 83.07730865478516 15.20041370391846 78.93759918212891 C 11.06070709228516 74.79789733886719 7.810786724090576 69.97782897949219 5.540920257568359 64.61128234863281 C 3.191333532333374 59.05622863769531 2.000000238418579 53.15415954589844 2.000000238418579 47.06900024414062 C 2.000000238418579 40.98384094238281 3.191333532333374 35.08177185058594 5.540920257568359 29.5267333984375 C 7.810786724090576 24.16018676757812 11.06070709228516 19.34012031555176 15.20041370391846 15.20041370391846 C 19.34012031555176 11.06070709228516 24.16018676757812 7.810786724090576 29.5267333984375 5.540920257568359 C 35.08177185058594 3.191333532333374 40.98384094238281 2.000000238418579 47.06900024414062 2.000000238418579 C 53.15415954589844 2.000000238418579 59.05622863769531 3.191333532333374 64.61128234863281 5.540920257568359 C 69.97782897949219 7.810786724090576 74.79789733886719 11.06070709228516 78.93759918212891 15.20041370391846 C 83.07730865478516 19.34010696411133 86.32721710205078 24.16018676757812 88.59708404541016 29.5267333984375 C 90.94667053222656 35.08177185058594 92.13800048828125 40.98384094238281 92.13800048828125 47.06900024414062 C 92.13800048828125 53.15415954589844 90.94667053222656 59.05622863769531 88.59708404541016 64.61128234863281 C 86.32721710205078 69.97782897949219 83.07730865478516 74.79789733886719 78.93759918212891 78.93759918212891 C 74.79789733886719 83.07730865478516 69.97782897949219 86.32721710205078 64.61128234863281 88.59708404541016 C 59.05622863769531 90.94667053222656 53.15415954589844 92.13800048828125 47.06900024414062 92.13800048828125 Z" stroke="none"/>
          <path d="M 47.06900024414062 4 C 41.25296783447266 4 35.61301422119141 5.13818359375 30.30583190917969 7.382942199707031 C 25.17769622802734 9.551956176757812 20.5712890625 12.65795135498047 16.61463165283203 16.61463165283203 C 12.65795135498047 20.5712890625 9.551956176757812 25.17769622802734 7.382942199707031 30.30583190917969 C 5.13818359375 35.61301422119141 4 41.25296783447266 4 47.06900024414062 C 4 52.88504791259766 5.13818359375 58.52498626708984 7.382942199707031 63.83216857910156 C 9.551956176757812 68.9603271484375 12.65795135498047 73.56671142578125 16.61461639404297 77.52338409423828 C 20.5712890625 81.48006439208984 25.17769622802734 84.58604431152344 30.30583190917969 86.75505828857422 C 35.61301422119141 88.99981689453125 41.25296783447266 90.13800048828125 47.06900024414062 90.13800048828125 C 52.88504791259766 90.13800048828125 58.52498626708984 88.99981689453125 63.83216857910156 86.75505828857422 C 68.9603271484375 84.58604431152344 73.56671142578125 81.48006439208984 77.52338409423828 77.52338409423828 C 81.48006439208984 73.56671142578125 84.58604431152344 68.9603271484375 86.75505828857422 63.83216857910156 C 88.99981689453125 58.52498626708984 90.13800048828125 52.88504791259766 90.13800048828125 47.06900024414062 C 90.13800048828125 41.25296783447266 88.99981689453125 35.61301422119141 86.75505828857422 30.30583190917969 C 84.58604431152344 25.17769622802734 81.48006439208984 20.5712890625 77.52338409423828 16.61461639404297 C 73.56671142578125 12.65795135498047 68.9603271484375 9.551956176757812 63.83216857910156 7.382942199707031 C 58.52498626708984 5.13818359375 52.88504791259766 4 47.06900024414062 4 M 47.06900024414062 0 C 73.06449127197266 0 94.13800048828125 21.07352447509766 94.13800048828125 47.06900024414062 C 94.13800048828125 73.06449127197266 73.06449127197266 94.13800048828125 47.06900024414062 94.13800048828125 C 21.07352447509766 94.13800048828125 0 73.06449127197266 0 47.06900024414062 C 0 21.07352447509766 21.07352447509766 0 47.06900024414062 0 Z" stroke="none"/>
        </g>
      </g>
      <g id="Trazado_873829-6" data-name="Trazado 873829" fill="none">
        <path d="M 47.06900024414062 92.13800048828125 C 40.98384094238281 92.13800048828125 35.08177185058594 90.94667053222656 29.5267333984375 88.59708404541016 C 24.16018676757812 86.32721710205078 19.34010696411133 83.07730865478516 15.20041370391846 78.93759918212891 C 11.06070709228516 74.79789733886719 7.810786724090576 69.97782897949219 5.540920257568359 64.61128234863281 C 3.191333532333374 59.05622863769531 2.000000238418579 53.15415954589844 2.000000238418579 47.06900024414062 C 2.000000238418579 40.98384094238281 3.191333532333374 35.08177185058594 5.540920257568359 29.5267333984375 C 7.810786724090576 24.16018676757812 11.06070709228516 19.34012031555176 15.20041370391846 15.20041370391846 C 19.34012031555176 11.06070709228516 24.16018676757812 7.810786724090576 29.5267333984375 5.540920257568359 C 35.08177185058594 3.191333532333374 40.98384094238281 2.000000238418579 47.06900024414062 2.000000238418579 C 53.15415954589844 2.000000238418579 59.05622863769531 3.191333532333374 64.61128234863281 5.540920257568359 C 69.97782897949219 7.810786724090576 74.79789733886719 11.06070709228516 78.93759918212891 15.20041370391846 C 83.07730865478516 19.34010696411133 86.32721710205078 24.16018676757812 88.59708404541016 29.5267333984375 C 90.94667053222656 35.08177185058594 92.13800048828125 40.98384094238281 92.13800048828125 47.06900024414062 C 92.13800048828125 53.15415954589844 90.94667053222656 59.05622863769531 88.59708404541016 64.61128234863281 C 86.32721710205078 69.97782897949219 83.07730865478516 74.79789733886719 78.93759918212891 78.93759918212891 C 74.79789733886719 83.07730865478516 69.97782897949219 86.32721710205078 64.61128234863281 88.59708404541016 C 59.05622863769531 90.94667053222656 53.15415954589844 92.13800048828125 47.06900024414062 92.13800048828125 Z" stroke="none"/>
        <path d="M 47.06900024414062 4 C 41.25296783447266 4 35.61301422119141 5.13818359375 30.30583190917969 7.382942199707031 C 25.17769622802734 9.551956176757812 20.5712890625 12.65795135498047 16.61463165283203 16.61463165283203 C 12.65795135498047 20.5712890625 9.551956176757812 25.17769622802734 7.382942199707031 30.30583190917969 C 5.13818359375 35.61301422119141 4 41.25296783447266 4 47.06900024414062 C 4 52.88504791259766 5.13818359375 58.52498626708984 7.382942199707031 63.83216857910156 C 9.551956176757812 68.9603271484375 12.65795135498047 73.56671142578125 16.61461639404297 77.52338409423828 C 20.5712890625 81.48006439208984 25.17769622802734 84.58604431152344 30.30583190917969 86.75505828857422 C 35.61301422119141 88.99981689453125 41.25296783447266 90.13800048828125 47.06900024414062 90.13800048828125 C 52.88504791259766 90.13800048828125 58.52498626708984 88.99981689453125 63.83216857910156 86.75505828857422 C 68.9603271484375 84.58604431152344 73.56671142578125 81.48006439208984 77.52338409423828 77.52338409423828 C 81.48006439208984 73.56671142578125 84.58604431152344 68.9603271484375 86.75505828857422 63.83216857910156 C 88.99981689453125 58.52498626708984 90.13800048828125 52.88504791259766 90.13800048828125 47.06900024414062 C 90.13800048828125 41.25296783447266 88.99981689453125 35.61301422119141 86.75505828857422 30.30583190917969 C 84.58604431152344 25.17769622802734 81.48006439208984 20.5712890625 77.52338409423828 16.61461639404297 C 73.56671142578125 12.65795135498047 68.9603271484375 9.551956176757812 63.83216857910156 7.382942199707031 C 58.52498626708984 5.13818359375 52.88504791259766 4 47.06900024414062 4 M 47.06900024414062 0 C 73.06449127197266 0 94.13800048828125 21.07352447509766 94.13800048828125 47.06900024414062 C 94.13800048828125 73.06449127197266 73.06449127197266 94.13800048828125 47.06900024414062 94.13800048828125 C 21.07352447509766 94.13800048828125 0 73.06449127197266 0 47.06900024414062 C 0 21.07352447509766 21.07352447509766 0 47.06900024414062 0 Z" stroke="none" fill="#fff"/>
      </g>
    </g>
    <g id="increase_12411288" transform="translate(16.75 16.822)">
      <path id="Trazado_873825" data-name="Trazado 873825" d="M8.064,26.676,39.54,4.3l-1.1-1.553,5.039.4L42.2,8.033,41.1,6.491,26.959,16.479l1.361,1.928,12.22-8.63L43.2,13.518l3.276-12.5L33.6,0l2.655,3.744L6.7,24.753Z" transform="translate(-6.034 0)" fill="#2c597c"/>
      <path id="Trazado_873826" data-name="Trazado 873826" d="M367.4,342.4h-1.96a1,1,0,1,1,0-2.009H369.7v-2.36h-2.209v-1.715h-2.361v1.729a3.364,3.364,0,0,0,.309,6.714h1.96a1,1,0,1,1,0,2.009h-4.478v2.36h2.209v2h2.36v-2a3.364,3.364,0,1,0-.092-6.727Z" transform="translate(-319.422 -296.578)" fill="#2c597c"/>
      <path id="Trazado_873827" data-name="Trazado 873827" d="M54.691,93.781V65.965h-10.8V92.6a13.289,13.289,0,0,0-2.645,1.183V76.3H30.45v31.7H27.8V85.921h-10.8v22.072H14.361V93.765H3.563v14.228H1.086v2.36H35.611a13.349,13.349,0,1,0,19.08-16.572ZM12,107.993H5.923V96.125H12Zm13.443,0H19.366V88.281h6.078ZM46.253,68.325h6.078V92.7a13.374,13.374,0,0,0-6.078-.621ZM34.892,107.993H32.81V78.655h6.078V95.542a13.345,13.345,0,0,0-4,12.452Zm13.079,8.31a10.99,10.99,0,1,1,10.99-10.99,10.99,10.99,0,0,1-10.99,10.99Z" transform="translate(-1.086 -58.171)" fill="#2c597c"/>
    </g>
  </g>
</svg>
